%TF.GenerationSoftware,KiCad,Pcbnew,(6.0.6)*%
%TF.CreationDate,2022-08-07T16:47:01+08:00*%
%TF.ProjectId,5x07,35783037-2e6b-4696-9361-645f70636258,rev?*%
%TF.SameCoordinates,Original*%
%TF.FileFunction,Soldermask,Top*%
%TF.FilePolarity,Negative*%
%FSLAX46Y46*%
G04 Gerber Fmt 4.6, Leading zero omitted, Abs format (unit mm)*
G04 Created by KiCad (PCBNEW (6.0.6)) date 2022-08-07 16:47:01*
%MOMM*%
%LPD*%
G01*
G04 APERTURE LIST*
G04 Aperture macros list*
%AMRoundRect*
0 Rectangle with rounded corners*
0 $1 Rounding radius*
0 $2 $3 $4 $5 $6 $7 $8 $9 X,Y pos of 4 corners*
0 Add a 4 corners polygon primitive as box body*
4,1,4,$2,$3,$4,$5,$6,$7,$8,$9,$2,$3,0*
0 Add four circle primitives for the rounded corners*
1,1,$1+$1,$2,$3*
1,1,$1+$1,$4,$5*
1,1,$1+$1,$6,$7*
1,1,$1+$1,$8,$9*
0 Add four rect primitives between the rounded corners*
20,1,$1+$1,$2,$3,$4,$5,0*
20,1,$1+$1,$4,$5,$6,$7,0*
20,1,$1+$1,$6,$7,$8,$9,0*
20,1,$1+$1,$8,$9,$2,$3,0*%
%AMFreePoly0*
4,1,18,-0.410000,0.265000,0.000000,0.675000,0.328000,0.675000,0.359380,0.668758,0.385983,0.650983,0.403758,0.624380,0.410000,0.593000,0.410000,-0.593000,0.403758,-0.624380,0.385983,-0.650983,0.359380,-0.668758,0.328000,-0.675000,-0.328000,-0.675000,-0.359380,-0.668758,-0.385983,-0.650983,-0.403758,-0.624380,-0.410000,-0.593000,-0.410000,0.265000,-0.410000,0.265000,$1*%
G04 Aperture macros list end*
%ADD10RoundRect,0.082000X-0.593000X0.328000X-0.593000X-0.328000X0.593000X-0.328000X0.593000X0.328000X0*%
%ADD11FreePoly0,270.000000*%
%ADD12R,1.200000X0.900000*%
%ADD13RoundRect,0.250000X0.475000X-0.337500X0.475000X0.337500X-0.475000X0.337500X-0.475000X-0.337500X0*%
%ADD14RoundRect,0.250000X0.450000X-0.350000X0.450000X0.350000X-0.450000X0.350000X-0.450000X-0.350000X0*%
%ADD15RoundRect,0.250001X-0.462499X-0.624999X0.462499X-0.624999X0.462499X0.624999X-0.462499X0.624999X0*%
%ADD16C,0.650000*%
%ADD17R,0.600000X2.450000*%
%ADD18R,0.300000X2.450000*%
%ADD19O,1.000000X2.100000*%
%ADD20O,1.000000X1.600000*%
%ADD21RoundRect,0.250000X-0.450000X0.350000X-0.450000X-0.350000X0.450000X-0.350000X0.450000X0.350000X0*%
%ADD22RoundRect,0.250000X-0.475000X0.337500X-0.475000X-0.337500X0.475000X-0.337500X0.475000X0.337500X0*%
%ADD23RoundRect,0.250000X0.337500X0.475000X-0.337500X0.475000X-0.337500X-0.475000X0.337500X-0.475000X0*%
%ADD24C,3.500000*%
%ADD25RoundRect,0.250000X0.350000X0.450000X-0.350000X0.450000X-0.350000X-0.450000X0.350000X-0.450000X0*%
%ADD26R,0.550000X1.500000*%
%ADD27R,1.500000X0.550000*%
%ADD28RoundRect,0.250000X-0.350000X-0.450000X0.350000X-0.450000X0.350000X0.450000X-0.350000X0.450000X0*%
%ADD29R,0.700000X1.000000*%
%ADD30R,0.700000X0.600000*%
%ADD31C,1.500000*%
%ADD32O,1.200000X1.800000*%
%ADD33R,1.800000X2.100000*%
%ADD34C,1.700000*%
%ADD35C,3.400000*%
%ADD36C,2.000000*%
%ADD37R,1.700000X1.700000*%
%ADD38R,1.800000X1.100000*%
G04 APERTURE END LIST*
D10*
%TO.C,LED4*%
X121168750Y-40437500D03*
X121168750Y-38937500D03*
X126618750Y-40437500D03*
D11*
X126618750Y-38937500D03*
%TD*%
D12*
%TO.C,D22*%
X135731250Y-92137500D03*
X135731250Y-88837500D03*
%TD*%
D10*
%TO.C,LED19*%
X102062500Y-78537500D03*
X102062500Y-77037500D03*
X107512500Y-78537500D03*
D11*
X107512500Y-77037500D03*
%TD*%
D12*
%TO.C,D16*%
X59531250Y-73087500D03*
X59531250Y-69787500D03*
%TD*%
D10*
%TO.C,LED18*%
X121168750Y-78537500D03*
X121168750Y-77037500D03*
X126618750Y-78537500D03*
D11*
X126618750Y-77037500D03*
%TD*%
D10*
%TO.C,LED34*%
X83068750Y-116637500D03*
X83068750Y-115137500D03*
X88518750Y-116637500D03*
D11*
X88518750Y-115137500D03*
%TD*%
D10*
%TO.C,LED7*%
X64018750Y-40437500D03*
X64018750Y-38937500D03*
X69468750Y-40437500D03*
D11*
X69468750Y-38937500D03*
%TD*%
D12*
%TO.C,D20*%
X173831250Y-92137500D03*
X173831250Y-88837500D03*
%TD*%
D13*
%TO.C,C8*%
X211931250Y-59775000D03*
X211931250Y-57700000D03*
%TD*%
D12*
%TO.C,D40*%
X173831250Y-130237500D03*
X173831250Y-126937500D03*
%TD*%
%TO.C,D2*%
X135731250Y-54037500D03*
X135731250Y-50737500D03*
%TD*%
D10*
%TO.C,LED20*%
X83068750Y-78537500D03*
X83068750Y-77037500D03*
X88518750Y-78537500D03*
D11*
X88518750Y-77037500D03*
%TD*%
D12*
%TO.C,D13*%
X116681250Y-73087500D03*
X116681250Y-69787500D03*
%TD*%
D14*
%TO.C,R7*%
X195262500Y-50212500D03*
X195262500Y-48212500D03*
%TD*%
D15*
%TO.C,F1*%
X212031250Y-53181250D03*
X215006250Y-53181250D03*
%TD*%
D16*
%TO.C,USB1*%
X206090000Y-36633750D03*
X200310000Y-36633750D03*
D17*
X206425000Y-38578750D03*
X205650000Y-38578750D03*
D18*
X204950000Y-38578750D03*
X204450000Y-38578750D03*
X203950000Y-38578750D03*
X203450000Y-38578750D03*
X202950000Y-38578750D03*
X202450000Y-38578750D03*
X201950000Y-38578750D03*
X201450000Y-38578750D03*
D17*
X200750000Y-38578750D03*
X199975000Y-38578750D03*
D19*
X198880000Y-37163750D03*
X207520000Y-37163750D03*
D20*
X198880000Y-32983750D03*
X207520000Y-32983750D03*
%TD*%
D12*
%TO.C,D23*%
X116681250Y-92137500D03*
X116681250Y-88837500D03*
%TD*%
%TO.C,D10*%
X173831250Y-73087500D03*
X173831250Y-69787500D03*
%TD*%
%TO.C,D35*%
X78581250Y-111187500D03*
X78581250Y-107887500D03*
%TD*%
D10*
%TO.C,LED11*%
X121168750Y-59487500D03*
X121168750Y-57987500D03*
X126618750Y-59487500D03*
D11*
X126618750Y-57987500D03*
%TD*%
D21*
%TO.C,R5*%
X206375000Y-57737500D03*
X206375000Y-59737500D03*
%TD*%
D12*
%TO.C,D31*%
X154781250Y-111187500D03*
X154781250Y-107887500D03*
%TD*%
%TO.C,D3*%
X116681250Y-54037500D03*
X116681250Y-50737500D03*
%TD*%
%TO.C,D15*%
X78581250Y-73087500D03*
X78581250Y-69787500D03*
%TD*%
%TO.C,D34*%
X97631250Y-111187500D03*
X97631250Y-107887500D03*
%TD*%
D10*
%TO.C,LED35*%
X64018750Y-116637500D03*
X64018750Y-115137500D03*
X69468750Y-116637500D03*
D11*
X69468750Y-115137500D03*
%TD*%
D12*
%TO.C,D46*%
X59531250Y-130237500D03*
X59531250Y-126937500D03*
%TD*%
D22*
%TO.C,C3*%
X201612500Y-57700000D03*
X201612500Y-59775000D03*
%TD*%
D12*
%TO.C,D36*%
X59531250Y-111187500D03*
X59531250Y-107887500D03*
%TD*%
D23*
%TO.C,C4*%
X201856250Y-79375000D03*
X199781250Y-79375000D03*
%TD*%
D13*
%TO.C,C5*%
X215900000Y-74856250D03*
X215900000Y-72781250D03*
%TD*%
D22*
%TO.C,C6*%
X196056250Y-67225000D03*
X196056250Y-69300000D03*
%TD*%
D10*
%TO.C,LED5*%
X102062500Y-40437500D03*
X102062500Y-38937500D03*
X107512500Y-40437500D03*
D11*
X107512500Y-38937500D03*
%TD*%
D10*
%TO.C,LED24*%
X140218750Y-97587500D03*
X140218750Y-96087500D03*
X145668750Y-97587500D03*
D11*
X145668750Y-96087500D03*
%TD*%
D10*
%TO.C,LED13*%
X83068750Y-59487500D03*
X83068750Y-57987500D03*
X88518750Y-59487500D03*
D11*
X88518750Y-57987500D03*
%TD*%
D12*
%TO.C,D6*%
X59531250Y-54037500D03*
X59531250Y-50737500D03*
%TD*%
D10*
%TO.C,LED8*%
X178318750Y-59487500D03*
X178318750Y-57987500D03*
X183768750Y-59487500D03*
D11*
X183768750Y-57987500D03*
%TD*%
D10*
%TO.C,LED25*%
X121168750Y-97587500D03*
X121168750Y-96087500D03*
X126618750Y-97587500D03*
D11*
X126618750Y-96087500D03*
%TD*%
D12*
%TO.C,D1*%
X154781250Y-54037500D03*
X154781250Y-50737500D03*
%TD*%
%TO.C,D43*%
X116681250Y-130237500D03*
X116681250Y-126937500D03*
%TD*%
D10*
%TO.C,LED17*%
X140218750Y-78537500D03*
X140218750Y-77037500D03*
X145668750Y-78537500D03*
D11*
X145668750Y-77037500D03*
%TD*%
D24*
%TO.C,H2*%
X194468750Y-33337500D03*
%TD*%
D25*
%TO.C,R1*%
X201025000Y-43083750D03*
X199025000Y-43083750D03*
%TD*%
D12*
%TO.C,D4*%
X97631250Y-54037500D03*
X97631250Y-50737500D03*
%TD*%
%TO.C,D21*%
X154781250Y-92137500D03*
X154781250Y-88837500D03*
%TD*%
D10*
%TO.C,LED30*%
X159268750Y-116637500D03*
X159268750Y-115137500D03*
X164718750Y-116637500D03*
D11*
X164718750Y-115137500D03*
%TD*%
D26*
%TO.C,U1*%
X209581250Y-64150000D03*
X208781250Y-64150000D03*
X207981250Y-64150000D03*
X207181250Y-64150000D03*
X206381250Y-64150000D03*
X205581250Y-64150000D03*
X204781250Y-64150000D03*
X203981250Y-64150000D03*
X203181250Y-64150000D03*
X202381250Y-64150000D03*
X201581250Y-64150000D03*
D27*
X199881250Y-65850000D03*
X199881250Y-66650000D03*
X199881250Y-67450000D03*
X199881250Y-68250000D03*
X199881250Y-69050000D03*
X199881250Y-69850000D03*
X199881250Y-70650000D03*
X199881250Y-71450000D03*
X199881250Y-72250000D03*
X199881250Y-73050000D03*
X199881250Y-73850000D03*
D26*
X201581250Y-75550000D03*
X202381250Y-75550000D03*
X203181250Y-75550000D03*
X203981250Y-75550000D03*
X204781250Y-75550000D03*
X205581250Y-75550000D03*
X206381250Y-75550000D03*
X207181250Y-75550000D03*
X207981250Y-75550000D03*
X208781250Y-75550000D03*
X209581250Y-75550000D03*
D27*
X211281250Y-73850000D03*
X211281250Y-73050000D03*
X211281250Y-72250000D03*
X211281250Y-71450000D03*
X211281250Y-70650000D03*
X211281250Y-69850000D03*
X211281250Y-69050000D03*
X211281250Y-68250000D03*
X211281250Y-67450000D03*
X211281250Y-66650000D03*
X211281250Y-65850000D03*
%TD*%
D24*
%TO.C,H4*%
X194468750Y-130175000D03*
%TD*%
D13*
%TO.C,C1*%
X199231250Y-93906250D03*
X199231250Y-91831250D03*
%TD*%
D12*
%TO.C,D42*%
X135731250Y-130237500D03*
X135731250Y-126937500D03*
%TD*%
D10*
%TO.C,LED27*%
X83068750Y-97587500D03*
X83068750Y-96087500D03*
X88518750Y-97587500D03*
D11*
X88518750Y-96087500D03*
%TD*%
D10*
%TO.C,LED1*%
X178318750Y-40437500D03*
X178318750Y-38937500D03*
X183768750Y-40437500D03*
D11*
X183768750Y-38937500D03*
%TD*%
D12*
%TO.C,D24*%
X97631250Y-92137500D03*
X97631250Y-88837500D03*
%TD*%
%TO.C,D45*%
X78581250Y-130237500D03*
X78581250Y-126937500D03*
%TD*%
%TO.C,D30*%
X173831250Y-111187500D03*
X173831250Y-107887500D03*
%TD*%
%TO.C,D14*%
X97631250Y-73087500D03*
X97631250Y-69787500D03*
%TD*%
D10*
%TO.C,LED14*%
X64018750Y-59487500D03*
X64018750Y-57987500D03*
X69468750Y-59487500D03*
D11*
X69468750Y-57987500D03*
%TD*%
D10*
%TO.C,LED28*%
X64018750Y-97587500D03*
X64018750Y-96087500D03*
X69468750Y-97587500D03*
D11*
X69468750Y-96087500D03*
%TD*%
D10*
%TO.C,LED15*%
X178318750Y-78537500D03*
X178318750Y-77037500D03*
X183768750Y-78537500D03*
D11*
X183768750Y-77037500D03*
%TD*%
D12*
%TO.C,D32*%
X135731250Y-111187500D03*
X135731250Y-107887500D03*
%TD*%
D10*
%TO.C,LED32*%
X121168750Y-116637500D03*
X121168750Y-115137500D03*
X126618750Y-116637500D03*
D11*
X126618750Y-115137500D03*
%TD*%
D12*
%TO.C,D33*%
X116681250Y-111187500D03*
X116681250Y-107887500D03*
%TD*%
D10*
%TO.C,LED21*%
X64018750Y-78537500D03*
X64018750Y-77037500D03*
X69468750Y-78537500D03*
D11*
X69468750Y-77037500D03*
%TD*%
D10*
%TO.C,LED6*%
X83068750Y-40437500D03*
X83068750Y-38937500D03*
X88518750Y-40437500D03*
D11*
X88518750Y-38937500D03*
%TD*%
D12*
%TO.C,D12*%
X135731250Y-73087500D03*
X135731250Y-69787500D03*
%TD*%
D10*
%TO.C,LED23*%
X159268750Y-97587500D03*
X159268750Y-96087500D03*
X164718750Y-97587500D03*
D11*
X164718750Y-96087500D03*
%TD*%
D24*
%TO.C,H1*%
X55562500Y-33337500D03*
%TD*%
D10*
%TO.C,LED29*%
X178318750Y-116637500D03*
X178318750Y-115137500D03*
X183768750Y-116637500D03*
D11*
X183768750Y-115137500D03*
%TD*%
D12*
%TO.C,D11*%
X154781250Y-73087500D03*
X154781250Y-69787500D03*
%TD*%
D28*
%TO.C,R2*%
X205581250Y-43083750D03*
X207581250Y-43083750D03*
%TD*%
D10*
%TO.C,LED16*%
X159268750Y-78537500D03*
X159268750Y-77037500D03*
X164718750Y-78537500D03*
D11*
X164718750Y-77037500D03*
%TD*%
D10*
%TO.C,LED3*%
X140218750Y-40437500D03*
X140218750Y-38937500D03*
X145668750Y-40437500D03*
D11*
X145668750Y-38937500D03*
%TD*%
D12*
%TO.C,D0*%
X173831250Y-54037500D03*
X173831250Y-50737500D03*
%TD*%
D10*
%TO.C,LED22*%
X178318750Y-97587500D03*
X178318750Y-96087500D03*
X183768750Y-97587500D03*
D11*
X183768750Y-96087500D03*
%TD*%
D28*
%TO.C,R8*%
X210937500Y-47625000D03*
X212937500Y-47625000D03*
%TD*%
D10*
%TO.C,LED26*%
X102062500Y-97587500D03*
X102062500Y-96087500D03*
X107512500Y-97587500D03*
D11*
X107512500Y-96087500D03*
%TD*%
D24*
%TO.C,H3*%
X55562500Y-130175000D03*
%TD*%
D12*
%TO.C,D26*%
X59531250Y-92137500D03*
X59531250Y-88837500D03*
%TD*%
D10*
%TO.C,LED33*%
X102062500Y-116637500D03*
X102062500Y-115137500D03*
X107512500Y-116637500D03*
D11*
X107512500Y-115137500D03*
%TD*%
D21*
%TO.C,R4*%
X208756250Y-57737500D03*
X208756250Y-59737500D03*
%TD*%
D22*
%TO.C,C7*%
X215900000Y-64843750D03*
X215900000Y-66918750D03*
%TD*%
D28*
%TO.C,R9*%
X215687500Y-47625000D03*
X217687500Y-47625000D03*
%TD*%
D21*
%TO.C,R6*%
X215106250Y-88693750D03*
X215106250Y-90693750D03*
%TD*%
D10*
%TO.C,LED12*%
X102062500Y-59487500D03*
X102062500Y-57987500D03*
X107512500Y-59487500D03*
D11*
X107512500Y-57987500D03*
%TD*%
D10*
%TO.C,LED10*%
X140218750Y-59487500D03*
X140218750Y-57987500D03*
X145668750Y-59487500D03*
D11*
X145668750Y-57987500D03*
%TD*%
D29*
%TO.C,U2*%
X206168750Y-53225000D03*
D30*
X206168750Y-54925000D03*
X208168750Y-54925000D03*
X208168750Y-53025000D03*
%TD*%
D31*
%TO.C,J2*%
X216612500Y-34293750D03*
X212012500Y-41293750D03*
X216612500Y-41293750D03*
X212012500Y-34293750D03*
D32*
X209712500Y-43993750D03*
X218912500Y-43993750D03*
X214312500Y-38893750D03*
X214312500Y-35893750D03*
X214312500Y-42893750D03*
%TD*%
D10*
%TO.C,LED31*%
X140218750Y-116637500D03*
X140218750Y-115137500D03*
X145668750Y-116637500D03*
D11*
X145668750Y-115137500D03*
%TD*%
D22*
%TO.C,C2*%
X208418750Y-91831250D03*
X208418750Y-93906250D03*
%TD*%
D12*
%TO.C,D25*%
X78581250Y-92137500D03*
X78581250Y-88837500D03*
%TD*%
D10*
%TO.C,LED2*%
X159268750Y-40437500D03*
X159268750Y-38937500D03*
X164718750Y-40437500D03*
D11*
X164718750Y-38937500D03*
%TD*%
D33*
%TO.C,Y1*%
X202843750Y-91418750D03*
X202843750Y-94318750D03*
X205143750Y-94318750D03*
X205143750Y-91418750D03*
%TD*%
D28*
%TO.C,R3*%
X214106250Y-78581250D03*
X216106250Y-78581250D03*
%TD*%
D12*
%TO.C,D5*%
X78581250Y-54037500D03*
X78581250Y-50737500D03*
%TD*%
%TO.C,D41*%
X154781250Y-130237500D03*
X154781250Y-126937500D03*
%TD*%
D10*
%TO.C,LED9*%
X159268750Y-59487500D03*
X159268750Y-57987500D03*
X164718750Y-59487500D03*
D11*
X164718750Y-57987500D03*
%TD*%
D12*
%TO.C,D44*%
X97631250Y-130237500D03*
X97631250Y-126937500D03*
%TD*%
D34*
%TO.C,K41*%
X167491446Y-120588407D03*
X156491446Y-120588407D03*
D35*
X161991446Y-120588407D03*
D36*
X166991446Y-124388407D03*
X161991446Y-126488407D03*
%TD*%
D34*
%TO.C,K20*%
X186541310Y-82487500D03*
X175541310Y-82487500D03*
D35*
X181041310Y-82487500D03*
D36*
X186041310Y-86287500D03*
X181041310Y-88387500D03*
%TD*%
D34*
%TO.C,K46*%
X61243750Y-120587500D03*
X72243750Y-120587500D03*
D35*
X66743750Y-120587500D03*
D36*
X71743750Y-124387500D03*
X66743750Y-126487500D03*
%TD*%
D34*
%TO.C,K36*%
X72243750Y-101537500D03*
X61243750Y-101537500D03*
D35*
X66743750Y-101537500D03*
D36*
X71743750Y-105337500D03*
X66743750Y-107437500D03*
%TD*%
D34*
%TO.C,K12*%
X137441914Y-63437625D03*
D35*
X142941914Y-63437625D03*
D34*
X148441914Y-63437625D03*
D36*
X147941914Y-67237625D03*
X142941914Y-69337625D03*
%TD*%
D35*
%TO.C,K22*%
X142943390Y-82487020D03*
D34*
X137443390Y-82487020D03*
X148443390Y-82487020D03*
D36*
X147943390Y-86287020D03*
X142943390Y-88387020D03*
%TD*%
D34*
%TO.C,K35*%
X91293750Y-101537500D03*
X80293750Y-101537500D03*
D35*
X85793750Y-101537500D03*
D36*
X90793750Y-105337500D03*
X85793750Y-107437500D03*
%TD*%
D34*
%TO.C,K23*%
X118393750Y-82487500D03*
D35*
X123893750Y-82487500D03*
D34*
X129393750Y-82487500D03*
D36*
X128893750Y-86287500D03*
X123893750Y-88387500D03*
%TD*%
D34*
%TO.C,K5*%
X80293750Y-44387500D03*
D35*
X85793750Y-44387500D03*
D34*
X91293750Y-44387500D03*
D36*
X90793750Y-48187500D03*
X85793750Y-50287500D03*
%TD*%
D34*
%TO.C,K40*%
X186543018Y-120587500D03*
X175543018Y-120587500D03*
D35*
X181043018Y-120587500D03*
D36*
X186043018Y-124387500D03*
X181043018Y-126487500D03*
%TD*%
D34*
%TO.C,K44*%
X99287500Y-120587500D03*
D35*
X104787500Y-120587500D03*
D34*
X110287500Y-120587500D03*
D36*
X109787500Y-124387500D03*
X104787500Y-126487500D03*
%TD*%
D34*
%TO.C,K34*%
X99287500Y-101537500D03*
D35*
X104787500Y-101537500D03*
D34*
X110287500Y-101537500D03*
D36*
X109787500Y-105337500D03*
X104787500Y-107437500D03*
%TD*%
D35*
%TO.C,K32*%
X142943749Y-101536313D03*
D34*
X148443749Y-101536313D03*
X137443749Y-101536313D03*
D36*
X147943749Y-105336313D03*
X142943749Y-107436313D03*
%TD*%
D34*
%TO.C,K43*%
X118393750Y-120587500D03*
X129393750Y-120587500D03*
D35*
X123893750Y-120587500D03*
D36*
X128893750Y-124387500D03*
X123893750Y-126487500D03*
%TD*%
D35*
%TO.C,K15*%
X85793750Y-63437500D03*
D34*
X91293750Y-63437500D03*
X80293750Y-63437500D03*
D36*
X90793750Y-67237500D03*
X85793750Y-69337500D03*
%TD*%
D35*
%TO.C,K14*%
X104787500Y-63437500D03*
D34*
X99287500Y-63437500D03*
X110287500Y-63437500D03*
D36*
X109787500Y-67237500D03*
X104787500Y-69337500D03*
%TD*%
D35*
%TO.C,K0*%
X181041310Y-44387500D03*
D34*
X186541310Y-44387500D03*
X175541310Y-44387500D03*
D36*
X186041310Y-48187500D03*
X181041310Y-50287500D03*
%TD*%
D34*
%TO.C,K2*%
X137440252Y-44387477D03*
X148440252Y-44387477D03*
D35*
X142940252Y-44387477D03*
D36*
X147940252Y-48187477D03*
X142940252Y-50287477D03*
%TD*%
D34*
%TO.C,K26*%
X61243750Y-82487500D03*
X72243750Y-82487500D03*
D35*
X66743750Y-82487500D03*
D36*
X71743750Y-86287500D03*
X66743750Y-88387500D03*
%TD*%
D34*
%TO.C,K13*%
X129393750Y-63437500D03*
D35*
X123893750Y-63437500D03*
D34*
X118393750Y-63437500D03*
D36*
X128893750Y-67237500D03*
X123893750Y-69337500D03*
%TD*%
D34*
%TO.C,K1*%
X167490216Y-44387052D03*
D35*
X161990216Y-44387052D03*
D34*
X156490216Y-44387052D03*
D36*
X166990216Y-48187052D03*
X161990216Y-50287052D03*
%TD*%
D34*
%TO.C,K4*%
X99287500Y-44387500D03*
X110287500Y-44387500D03*
D35*
X104787500Y-44387500D03*
D36*
X109787500Y-48187500D03*
X104787500Y-50287500D03*
%TD*%
D34*
%TO.C,K6*%
X72243750Y-44387500D03*
X61243750Y-44387500D03*
D35*
X66743750Y-44387500D03*
D36*
X71743750Y-48187500D03*
X66743750Y-50287500D03*
%TD*%
D34*
%TO.C,J1*%
X206851250Y-120491250D03*
X204311250Y-120491250D03*
X206851250Y-123031250D03*
X204311250Y-123031250D03*
X206851250Y-125571250D03*
D37*
X204311250Y-125571250D03*
%TD*%
D34*
%TO.C,K21*%
X167492926Y-82486455D03*
D35*
X161992926Y-82486455D03*
D34*
X156492926Y-82486455D03*
D36*
X166992926Y-86286455D03*
X161992926Y-88386455D03*
%TD*%
D34*
%TO.C,K24*%
X110287500Y-82487500D03*
D35*
X104787500Y-82487500D03*
D34*
X99287500Y-82487500D03*
D36*
X109787500Y-86287500D03*
X104787500Y-88387500D03*
%TD*%
D34*
%TO.C,K16*%
X72243750Y-63437500D03*
D35*
X66743750Y-63437500D03*
D34*
X61243750Y-63437500D03*
D36*
X71743750Y-67237500D03*
X66743750Y-69337500D03*
%TD*%
D34*
%TO.C,K11*%
X156491197Y-63438204D03*
X167491197Y-63438204D03*
D35*
X161991197Y-63438204D03*
D36*
X166991197Y-67238204D03*
X161991197Y-69338204D03*
%TD*%
D35*
%TO.C,K30*%
X181043750Y-101537500D03*
D34*
X175543750Y-101537500D03*
X186543750Y-101537500D03*
D36*
X186043750Y-105337500D03*
X181043750Y-107437500D03*
%TD*%
D38*
%TO.C,SW1*%
X208681250Y-111387500D03*
X202481250Y-111387500D03*
X202481250Y-107687500D03*
X208681250Y-107687500D03*
%TD*%
D34*
%TO.C,K42*%
X137442431Y-120588881D03*
X148442431Y-120588881D03*
D35*
X142942431Y-120588881D03*
D36*
X147942431Y-124388881D03*
X142942431Y-126488881D03*
%TD*%
D35*
%TO.C,K45*%
X85793750Y-120587500D03*
D34*
X91293750Y-120587500D03*
X80293750Y-120587500D03*
D36*
X90793750Y-124387500D03*
X85793750Y-126487500D03*
%TD*%
D35*
%TO.C,K33*%
X123893750Y-101537500D03*
D34*
X129393750Y-101537500D03*
X118393750Y-101537500D03*
D36*
X128893750Y-105337500D03*
X123893750Y-107437500D03*
%TD*%
D34*
%TO.C,K3*%
X118393750Y-44387500D03*
X129393750Y-44387500D03*
D35*
X123893750Y-44387500D03*
D36*
X128893750Y-48187500D03*
X123893750Y-50287500D03*
%TD*%
D34*
%TO.C,K10*%
X175541310Y-63437500D03*
X186541310Y-63437500D03*
D35*
X181041310Y-63437500D03*
D36*
X186041310Y-67237500D03*
X181041310Y-69337500D03*
%TD*%
D34*
%TO.C,K31*%
X167493750Y-101536709D03*
X156493750Y-101536709D03*
D35*
X161993750Y-101536709D03*
D36*
X166993750Y-105336709D03*
X161993750Y-107436709D03*
%TD*%
D34*
%TO.C,K25*%
X91293750Y-82487500D03*
X80293750Y-82487500D03*
D35*
X85793750Y-82487500D03*
D36*
X90793750Y-86287500D03*
X85793750Y-88387500D03*
%TD*%
M02*
