%TF.GenerationSoftware,KiCad,Pcbnew,(6.0.6)*%
%TF.CreationDate,2022-08-07T05:05:38+08:00*%
%TF.ProjectId,5x07,35783037-2e6b-4696-9361-645f70636258,rev?*%
%TF.SameCoordinates,Original*%
%TF.FileFunction,Profile,NP*%
%FSLAX46Y46*%
G04 Gerber Fmt 4.6, Leading zero omitted, Abs format (unit mm)*
G04 Created by KiCad (PCBNEW (6.0.6)) date 2022-08-07 05:05:38*
%MOMM*%
%LPD*%
G01*
G04 APERTURE LIST*
%TA.AperFunction,Profile*%
%ADD10C,0.100000*%
%TD*%
G04 APERTURE END LIST*
D10*
X54768750Y-30162450D02*
G75*
G03*
X52387500Y-32543750I50J-2381300D01*
G01*
X220662500Y-32543750D02*
G75*
G03*
X218281250Y-30162500I-2381210J40D01*
G01*
X52387500Y-130970172D02*
X52387500Y-32543750D01*
X218253460Y-133349960D02*
G75*
G03*
X220634710Y-130968750I90J2381160D01*
G01*
X52387578Y-130970172D02*
G75*
G03*
X54768750Y-133351422I2381222J-28D01*
G01*
X220662500Y-32543750D02*
X220634710Y-130968750D01*
X54768750Y-30162500D02*
X218281250Y-30162500D01*
X218253460Y-133350000D02*
X54768750Y-133351422D01*
%TO.C,LED31*%
X143738202Y-114387501D02*
X142149298Y-114387501D01*
X144643749Y-116590343D02*
X144643749Y-115184659D01*
X142149298Y-117387500D02*
X143738203Y-117387500D01*
X141243751Y-116590341D02*
X141243751Y-115184657D01*
X143990462Y-117455797D02*
G75*
G03*
X143738202Y-117387499I-252162J-431353D01*
G01*
X144693234Y-114967779D02*
G75*
G03*
X144643749Y-115184656I450396J-216851D01*
G01*
X141897039Y-114319204D02*
G75*
G03*
X141194266Y-114967781I-252258J-431700D01*
G01*
X144643745Y-116590341D02*
G75*
G03*
X144693234Y-116807219I499705J-59D01*
G01*
X141194266Y-116807219D02*
G75*
G03*
X141897039Y-117455796I450515J-216877D01*
G01*
X143990461Y-117455799D02*
G75*
G03*
X144693234Y-116807221I252259J431699D01*
G01*
X141897039Y-114319200D02*
G75*
G03*
X142149297Y-114387499I252164J431352D01*
G01*
X141243751Y-115184658D02*
G75*
G03*
X141194266Y-114967781I-499990J1D01*
G01*
X142149297Y-117387501D02*
G75*
G03*
X141897039Y-117455800I3J-500009D01*
G01*
X141194266Y-116807219D02*
G75*
G03*
X141243751Y-116590342I-450543J216885D01*
G01*
X144693234Y-114967779D02*
G75*
G03*
X143990461Y-114319201I-450514J216879D01*
G01*
X143738203Y-114387499D02*
G75*
G03*
X143990461Y-114319201I-83J500309D01*
G01*
%TO.C,LED24*%
X143738202Y-95337501D02*
X142149298Y-95337501D01*
X144643749Y-97540343D02*
X144643749Y-96134659D01*
X142149298Y-98337500D02*
X143738203Y-98337500D01*
X141243751Y-97540341D02*
X141243751Y-96134657D01*
X143990462Y-98405797D02*
G75*
G03*
X143738202Y-98337499I-252162J-431353D01*
G01*
X144693234Y-95917779D02*
G75*
G03*
X144643749Y-96134656I450396J-216851D01*
G01*
X141897039Y-95269204D02*
G75*
G03*
X141194266Y-95917781I-252258J-431700D01*
G01*
X144643745Y-97540341D02*
G75*
G03*
X144693234Y-97757219I499705J-59D01*
G01*
X141194266Y-97757219D02*
G75*
G03*
X141897039Y-98405796I450515J-216877D01*
G01*
X143990461Y-98405799D02*
G75*
G03*
X144693234Y-97757221I252259J431699D01*
G01*
X141897039Y-95269200D02*
G75*
G03*
X142149297Y-95337499I252164J431352D01*
G01*
X141243751Y-96134658D02*
G75*
G03*
X141194266Y-95917781I-499990J1D01*
G01*
X142149297Y-98337501D02*
G75*
G03*
X141897039Y-98405800I3J-500009D01*
G01*
X141194266Y-97757219D02*
G75*
G03*
X141243751Y-97540342I-450543J216885D01*
G01*
X144693234Y-95917779D02*
G75*
G03*
X143990461Y-95269201I-450514J216879D01*
G01*
X143738203Y-95337499D02*
G75*
G03*
X143990461Y-95269201I-83J500309D01*
G01*
%TO.C,LED27*%
X86588202Y-95337501D02*
X84999298Y-95337501D01*
X87493749Y-97540343D02*
X87493749Y-96134659D01*
X84999298Y-98337500D02*
X86588203Y-98337500D01*
X84093751Y-97540341D02*
X84093751Y-96134657D01*
X86840462Y-98405797D02*
G75*
G03*
X86588202Y-98337499I-252162J-431353D01*
G01*
X87543234Y-95917779D02*
G75*
G03*
X87493749Y-96134656I450396J-216851D01*
G01*
X84747039Y-95269204D02*
G75*
G03*
X84044266Y-95917781I-252258J-431700D01*
G01*
X87493745Y-97540341D02*
G75*
G03*
X87543234Y-97757219I499705J-59D01*
G01*
X84044266Y-97757219D02*
G75*
G03*
X84747039Y-98405796I450515J-216877D01*
G01*
X86840461Y-98405799D02*
G75*
G03*
X87543234Y-97757221I252259J431699D01*
G01*
X84747039Y-95269200D02*
G75*
G03*
X84999297Y-95337499I252164J431352D01*
G01*
X84093751Y-96134658D02*
G75*
G03*
X84044266Y-95917781I-499990J1D01*
G01*
X84999297Y-98337501D02*
G75*
G03*
X84747039Y-98405800I3J-500009D01*
G01*
X84044266Y-97757219D02*
G75*
G03*
X84093751Y-97540342I-450543J216885D01*
G01*
X87543234Y-95917779D02*
G75*
G03*
X86840461Y-95269201I-450514J216879D01*
G01*
X86588203Y-95337499D02*
G75*
G03*
X86840461Y-95269201I-83J500309D01*
G01*
%TO.C,LED35*%
X67538202Y-114387501D02*
X65949298Y-114387501D01*
X68443749Y-116590343D02*
X68443749Y-115184659D01*
X65949298Y-117387500D02*
X67538203Y-117387500D01*
X65043751Y-116590341D02*
X65043751Y-115184657D01*
X67790462Y-117455797D02*
G75*
G03*
X67538202Y-117387499I-252162J-431353D01*
G01*
X68493234Y-114967779D02*
G75*
G03*
X68443749Y-115184656I450396J-216851D01*
G01*
X65697039Y-114319204D02*
G75*
G03*
X64994266Y-114967781I-252258J-431700D01*
G01*
X68443745Y-116590341D02*
G75*
G03*
X68493234Y-116807219I499705J-59D01*
G01*
X64994266Y-116807219D02*
G75*
G03*
X65697039Y-117455796I450515J-216877D01*
G01*
X67790461Y-117455799D02*
G75*
G03*
X68493234Y-116807221I252259J431699D01*
G01*
X65697039Y-114319200D02*
G75*
G03*
X65949297Y-114387499I252164J431352D01*
G01*
X65043751Y-115184658D02*
G75*
G03*
X64994266Y-114967781I-499990J1D01*
G01*
X65949297Y-117387501D02*
G75*
G03*
X65697039Y-117455800I3J-500009D01*
G01*
X64994266Y-116807219D02*
G75*
G03*
X65043751Y-116590342I-450543J216885D01*
G01*
X68493234Y-114967779D02*
G75*
G03*
X67790461Y-114319201I-450514J216879D01*
G01*
X67538203Y-114387499D02*
G75*
G03*
X67790461Y-114319201I-83J500309D01*
G01*
%TO.C,LED34*%
X86588202Y-114387501D02*
X84999298Y-114387501D01*
X87493749Y-116590343D02*
X87493749Y-115184659D01*
X84999298Y-117387500D02*
X86588203Y-117387500D01*
X84093751Y-116590341D02*
X84093751Y-115184657D01*
X86840462Y-117455797D02*
G75*
G03*
X86588202Y-117387499I-252162J-431353D01*
G01*
X87543234Y-114967779D02*
G75*
G03*
X87493749Y-115184656I450396J-216851D01*
G01*
X84747039Y-114319204D02*
G75*
G03*
X84044266Y-114967781I-252258J-431700D01*
G01*
X87493745Y-116590341D02*
G75*
G03*
X87543234Y-116807219I499705J-59D01*
G01*
X84044266Y-116807219D02*
G75*
G03*
X84747039Y-117455796I450515J-216877D01*
G01*
X86840461Y-117455799D02*
G75*
G03*
X87543234Y-116807221I252259J431699D01*
G01*
X84747039Y-114319200D02*
G75*
G03*
X84999297Y-114387499I252164J431352D01*
G01*
X84093751Y-115184658D02*
G75*
G03*
X84044266Y-114967781I-499990J1D01*
G01*
X84999297Y-117387501D02*
G75*
G03*
X84747039Y-117455800I3J-500009D01*
G01*
X84044266Y-116807219D02*
G75*
G03*
X84093751Y-116590342I-450543J216885D01*
G01*
X87543234Y-114967779D02*
G75*
G03*
X86840461Y-114319201I-450514J216879D01*
G01*
X86588203Y-114387499D02*
G75*
G03*
X86840461Y-114319201I-83J500309D01*
G01*
%TO.C,LED33*%
X105581952Y-114387501D02*
X103993048Y-114387501D01*
X106487499Y-116590343D02*
X106487499Y-115184659D01*
X103993048Y-117387500D02*
X105581953Y-117387500D01*
X103087501Y-116590341D02*
X103087501Y-115184657D01*
X105834212Y-117455797D02*
G75*
G03*
X105581952Y-117387499I-252162J-431353D01*
G01*
X106536984Y-114967779D02*
G75*
G03*
X106487499Y-115184656I450396J-216851D01*
G01*
X103740789Y-114319204D02*
G75*
G03*
X103038016Y-114967781I-252258J-431700D01*
G01*
X106487495Y-116590341D02*
G75*
G03*
X106536984Y-116807219I499705J-59D01*
G01*
X103038016Y-116807219D02*
G75*
G03*
X103740789Y-117455796I450515J-216877D01*
G01*
X105834211Y-117455799D02*
G75*
G03*
X106536984Y-116807221I252259J431699D01*
G01*
X103740789Y-114319200D02*
G75*
G03*
X103993047Y-114387499I252164J431352D01*
G01*
X103087501Y-115184658D02*
G75*
G03*
X103038016Y-114967781I-499990J1D01*
G01*
X103993047Y-117387501D02*
G75*
G03*
X103740789Y-117455800I3J-500009D01*
G01*
X103038016Y-116807219D02*
G75*
G03*
X103087501Y-116590342I-450543J216885D01*
G01*
X106536984Y-114967779D02*
G75*
G03*
X105834211Y-114319201I-450514J216879D01*
G01*
X105581953Y-114387499D02*
G75*
G03*
X105834211Y-114319201I-83J500309D01*
G01*
%TO.C,LED32*%
X124688202Y-114387501D02*
X123099298Y-114387501D01*
X125593749Y-116590343D02*
X125593749Y-115184659D01*
X123099298Y-117387500D02*
X124688203Y-117387500D01*
X122193751Y-116590341D02*
X122193751Y-115184657D01*
X124940462Y-117455797D02*
G75*
G03*
X124688202Y-117387499I-252162J-431353D01*
G01*
X125643234Y-114967779D02*
G75*
G03*
X125593749Y-115184656I450396J-216851D01*
G01*
X122847039Y-114319204D02*
G75*
G03*
X122144266Y-114967781I-252258J-431700D01*
G01*
X125593745Y-116590341D02*
G75*
G03*
X125643234Y-116807219I499705J-59D01*
G01*
X122144266Y-116807219D02*
G75*
G03*
X122847039Y-117455796I450515J-216877D01*
G01*
X124940461Y-117455799D02*
G75*
G03*
X125643234Y-116807221I252259J431699D01*
G01*
X122847039Y-114319200D02*
G75*
G03*
X123099297Y-114387499I252164J431352D01*
G01*
X122193751Y-115184658D02*
G75*
G03*
X122144266Y-114967781I-499990J1D01*
G01*
X123099297Y-117387501D02*
G75*
G03*
X122847039Y-117455800I3J-500009D01*
G01*
X122144266Y-116807219D02*
G75*
G03*
X122193751Y-116590342I-450543J216885D01*
G01*
X125643234Y-114967779D02*
G75*
G03*
X124940461Y-114319201I-450514J216879D01*
G01*
X124688203Y-114387499D02*
G75*
G03*
X124940461Y-114319201I-83J500309D01*
G01*
%TO.C,LED30*%
X162788202Y-114387501D02*
X161199298Y-114387501D01*
X163693749Y-116590343D02*
X163693749Y-115184659D01*
X161199298Y-117387500D02*
X162788203Y-117387500D01*
X160293751Y-116590341D02*
X160293751Y-115184657D01*
X163040462Y-117455797D02*
G75*
G03*
X162788202Y-117387499I-252162J-431353D01*
G01*
X163743234Y-114967779D02*
G75*
G03*
X163693749Y-115184656I450396J-216851D01*
G01*
X160947039Y-114319204D02*
G75*
G03*
X160244266Y-114967781I-252258J-431700D01*
G01*
X163693745Y-116590341D02*
G75*
G03*
X163743234Y-116807219I499705J-59D01*
G01*
X160244266Y-116807219D02*
G75*
G03*
X160947039Y-117455796I450515J-216877D01*
G01*
X163040461Y-117455799D02*
G75*
G03*
X163743234Y-116807221I252259J431699D01*
G01*
X160947039Y-114319200D02*
G75*
G03*
X161199297Y-114387499I252164J431352D01*
G01*
X160293751Y-115184658D02*
G75*
G03*
X160244266Y-114967781I-499990J1D01*
G01*
X161199297Y-117387501D02*
G75*
G03*
X160947039Y-117455800I3J-500009D01*
G01*
X160244266Y-116807219D02*
G75*
G03*
X160293751Y-116590342I-450543J216885D01*
G01*
X163743234Y-114967779D02*
G75*
G03*
X163040461Y-114319201I-450514J216879D01*
G01*
X162788203Y-114387499D02*
G75*
G03*
X163040461Y-114319201I-83J500309D01*
G01*
%TO.C,LED29*%
X181838202Y-114387501D02*
X180249298Y-114387501D01*
X182743749Y-116590343D02*
X182743749Y-115184659D01*
X180249298Y-117387500D02*
X181838203Y-117387500D01*
X179343751Y-116590341D02*
X179343751Y-115184657D01*
X182090462Y-117455797D02*
G75*
G03*
X181838202Y-117387499I-252162J-431353D01*
G01*
X182793234Y-114967779D02*
G75*
G03*
X182743749Y-115184656I450396J-216851D01*
G01*
X179997039Y-114319204D02*
G75*
G03*
X179294266Y-114967781I-252258J-431700D01*
G01*
X182743745Y-116590341D02*
G75*
G03*
X182793234Y-116807219I499705J-59D01*
G01*
X179294266Y-116807219D02*
G75*
G03*
X179997039Y-117455796I450515J-216877D01*
G01*
X182090461Y-117455799D02*
G75*
G03*
X182793234Y-116807221I252259J431699D01*
G01*
X179997039Y-114319200D02*
G75*
G03*
X180249297Y-114387499I252164J431352D01*
G01*
X179343751Y-115184658D02*
G75*
G03*
X179294266Y-114967781I-499990J1D01*
G01*
X180249297Y-117387501D02*
G75*
G03*
X179997039Y-117455800I3J-500009D01*
G01*
X179294266Y-116807219D02*
G75*
G03*
X179343751Y-116590342I-450543J216885D01*
G01*
X182793234Y-114967779D02*
G75*
G03*
X182090461Y-114319201I-450514J216879D01*
G01*
X181838203Y-114387499D02*
G75*
G03*
X182090461Y-114319201I-83J500309D01*
G01*
%TO.C,LED28*%
X67538202Y-95337501D02*
X65949298Y-95337501D01*
X68443749Y-97540343D02*
X68443749Y-96134659D01*
X65949298Y-98337500D02*
X67538203Y-98337500D01*
X65043751Y-97540341D02*
X65043751Y-96134657D01*
X67790462Y-98405797D02*
G75*
G03*
X67538202Y-98337499I-252162J-431353D01*
G01*
X68493234Y-95917779D02*
G75*
G03*
X68443749Y-96134656I450396J-216851D01*
G01*
X65697039Y-95269204D02*
G75*
G03*
X64994266Y-95917781I-252258J-431700D01*
G01*
X68443745Y-97540341D02*
G75*
G03*
X68493234Y-97757219I499705J-59D01*
G01*
X64994266Y-97757219D02*
G75*
G03*
X65697039Y-98405796I450515J-216877D01*
G01*
X67790461Y-98405799D02*
G75*
G03*
X68493234Y-97757221I252259J431699D01*
G01*
X65697039Y-95269200D02*
G75*
G03*
X65949297Y-95337499I252164J431352D01*
G01*
X65043751Y-96134658D02*
G75*
G03*
X64994266Y-95917781I-499990J1D01*
G01*
X65949297Y-98337501D02*
G75*
G03*
X65697039Y-98405800I3J-500009D01*
G01*
X64994266Y-97757219D02*
G75*
G03*
X65043751Y-97540342I-450543J216885D01*
G01*
X68493234Y-95917779D02*
G75*
G03*
X67790461Y-95269201I-450514J216879D01*
G01*
X67538203Y-95337499D02*
G75*
G03*
X67790461Y-95269201I-83J500309D01*
G01*
%TO.C,LED26*%
X105581952Y-95337501D02*
X103993048Y-95337501D01*
X106487499Y-97540343D02*
X106487499Y-96134659D01*
X103993048Y-98337500D02*
X105581953Y-98337500D01*
X103087501Y-97540341D02*
X103087501Y-96134657D01*
X105834212Y-98405797D02*
G75*
G03*
X105581952Y-98337499I-252162J-431353D01*
G01*
X106536984Y-95917779D02*
G75*
G03*
X106487499Y-96134656I450396J-216851D01*
G01*
X103740789Y-95269204D02*
G75*
G03*
X103038016Y-95917781I-252258J-431700D01*
G01*
X106487495Y-97540341D02*
G75*
G03*
X106536984Y-97757219I499705J-59D01*
G01*
X103038016Y-97757219D02*
G75*
G03*
X103740789Y-98405796I450515J-216877D01*
G01*
X105834211Y-98405799D02*
G75*
G03*
X106536984Y-97757221I252259J431699D01*
G01*
X103740789Y-95269200D02*
G75*
G03*
X103993047Y-95337499I252164J431352D01*
G01*
X103087501Y-96134658D02*
G75*
G03*
X103038016Y-95917781I-499990J1D01*
G01*
X103993047Y-98337501D02*
G75*
G03*
X103740789Y-98405800I3J-500009D01*
G01*
X103038016Y-97757219D02*
G75*
G03*
X103087501Y-97540342I-450543J216885D01*
G01*
X106536984Y-95917779D02*
G75*
G03*
X105834211Y-95269201I-450514J216879D01*
G01*
X105581953Y-95337499D02*
G75*
G03*
X105834211Y-95269201I-83J500309D01*
G01*
%TO.C,LED25*%
X124688202Y-95337501D02*
X123099298Y-95337501D01*
X125593749Y-97540343D02*
X125593749Y-96134659D01*
X123099298Y-98337500D02*
X124688203Y-98337500D01*
X122193751Y-97540341D02*
X122193751Y-96134657D01*
X124940462Y-98405797D02*
G75*
G03*
X124688202Y-98337499I-252162J-431353D01*
G01*
X125643234Y-95917779D02*
G75*
G03*
X125593749Y-96134656I450396J-216851D01*
G01*
X122847039Y-95269204D02*
G75*
G03*
X122144266Y-95917781I-252258J-431700D01*
G01*
X125593745Y-97540341D02*
G75*
G03*
X125643234Y-97757219I499705J-59D01*
G01*
X122144266Y-97757219D02*
G75*
G03*
X122847039Y-98405796I450515J-216877D01*
G01*
X124940461Y-98405799D02*
G75*
G03*
X125643234Y-97757221I252259J431699D01*
G01*
X122847039Y-95269200D02*
G75*
G03*
X123099297Y-95337499I252164J431352D01*
G01*
X122193751Y-96134658D02*
G75*
G03*
X122144266Y-95917781I-499990J1D01*
G01*
X123099297Y-98337501D02*
G75*
G03*
X122847039Y-98405800I3J-500009D01*
G01*
X122144266Y-97757219D02*
G75*
G03*
X122193751Y-97540342I-450543J216885D01*
G01*
X125643234Y-95917779D02*
G75*
G03*
X124940461Y-95269201I-450514J216879D01*
G01*
X124688203Y-95337499D02*
G75*
G03*
X124940461Y-95269201I-83J500309D01*
G01*
%TO.C,LED23*%
X162788202Y-95337501D02*
X161199298Y-95337501D01*
X163693749Y-97540343D02*
X163693749Y-96134659D01*
X161199298Y-98337500D02*
X162788203Y-98337500D01*
X160293751Y-97540341D02*
X160293751Y-96134657D01*
X163040462Y-98405797D02*
G75*
G03*
X162788202Y-98337499I-252162J-431353D01*
G01*
X163743234Y-95917779D02*
G75*
G03*
X163693749Y-96134656I450396J-216851D01*
G01*
X160947039Y-95269204D02*
G75*
G03*
X160244266Y-95917781I-252258J-431700D01*
G01*
X163693745Y-97540341D02*
G75*
G03*
X163743234Y-97757219I499705J-59D01*
G01*
X160244266Y-97757219D02*
G75*
G03*
X160947039Y-98405796I450515J-216877D01*
G01*
X163040461Y-98405799D02*
G75*
G03*
X163743234Y-97757221I252259J431699D01*
G01*
X160947039Y-95269200D02*
G75*
G03*
X161199297Y-95337499I252164J431352D01*
G01*
X160293751Y-96134658D02*
G75*
G03*
X160244266Y-95917781I-499990J1D01*
G01*
X161199297Y-98337501D02*
G75*
G03*
X160947039Y-98405800I3J-500009D01*
G01*
X160244266Y-97757219D02*
G75*
G03*
X160293751Y-97540342I-450543J216885D01*
G01*
X163743234Y-95917779D02*
G75*
G03*
X163040461Y-95269201I-450514J216879D01*
G01*
X162788203Y-95337499D02*
G75*
G03*
X163040461Y-95269201I-83J500309D01*
G01*
%TO.C,LED22*%
X181838202Y-95337501D02*
X180249298Y-95337501D01*
X182743749Y-97540343D02*
X182743749Y-96134659D01*
X180249298Y-98337500D02*
X181838203Y-98337500D01*
X179343751Y-97540341D02*
X179343751Y-96134657D01*
X182090462Y-98405797D02*
G75*
G03*
X181838202Y-98337499I-252162J-431353D01*
G01*
X182793234Y-95917779D02*
G75*
G03*
X182743749Y-96134656I450396J-216851D01*
G01*
X179997039Y-95269204D02*
G75*
G03*
X179294266Y-95917781I-252258J-431700D01*
G01*
X182743745Y-97540341D02*
G75*
G03*
X182793234Y-97757219I499705J-59D01*
G01*
X179294266Y-97757219D02*
G75*
G03*
X179997039Y-98405796I450515J-216877D01*
G01*
X182090461Y-98405799D02*
G75*
G03*
X182793234Y-97757221I252259J431699D01*
G01*
X179997039Y-95269200D02*
G75*
G03*
X180249297Y-95337499I252164J431352D01*
G01*
X179343751Y-96134658D02*
G75*
G03*
X179294266Y-95917781I-499990J1D01*
G01*
X180249297Y-98337501D02*
G75*
G03*
X179997039Y-98405800I3J-500009D01*
G01*
X179294266Y-97757219D02*
G75*
G03*
X179343751Y-97540342I-450543J216885D01*
G01*
X182793234Y-95917779D02*
G75*
G03*
X182090461Y-95269201I-450514J216879D01*
G01*
X181838203Y-95337499D02*
G75*
G03*
X182090461Y-95269201I-83J500309D01*
G01*
%TO.C,LED21*%
X67538202Y-76287501D02*
X65949298Y-76287501D01*
X68443749Y-78490343D02*
X68443749Y-77084659D01*
X65949298Y-79287500D02*
X67538203Y-79287500D01*
X65043751Y-78490341D02*
X65043751Y-77084657D01*
X67790462Y-79355797D02*
G75*
G03*
X67538202Y-79287499I-252162J-431353D01*
G01*
X68493234Y-76867779D02*
G75*
G03*
X68443749Y-77084656I450396J-216851D01*
G01*
X65697039Y-76219204D02*
G75*
G03*
X64994266Y-76867781I-252258J-431700D01*
G01*
X68443745Y-78490341D02*
G75*
G03*
X68493234Y-78707219I499705J-59D01*
G01*
X64994266Y-78707219D02*
G75*
G03*
X65697039Y-79355796I450515J-216877D01*
G01*
X67790461Y-79355799D02*
G75*
G03*
X68493234Y-78707221I252259J431699D01*
G01*
X65697039Y-76219200D02*
G75*
G03*
X65949297Y-76287499I252164J431352D01*
G01*
X65043751Y-77084658D02*
G75*
G03*
X64994266Y-76867781I-499990J1D01*
G01*
X65949297Y-79287501D02*
G75*
G03*
X65697039Y-79355800I3J-500009D01*
G01*
X64994266Y-78707219D02*
G75*
G03*
X65043751Y-78490342I-450543J216885D01*
G01*
X68493234Y-76867779D02*
G75*
G03*
X67790461Y-76219201I-450514J216879D01*
G01*
X67538203Y-76287499D02*
G75*
G03*
X67790461Y-76219201I-83J500309D01*
G01*
%TO.C,LED20*%
X86588202Y-76287501D02*
X84999298Y-76287501D01*
X87493749Y-78490343D02*
X87493749Y-77084659D01*
X84999298Y-79287500D02*
X86588203Y-79287500D01*
X84093751Y-78490341D02*
X84093751Y-77084657D01*
X86840462Y-79355797D02*
G75*
G03*
X86588202Y-79287499I-252162J-431353D01*
G01*
X87543234Y-76867779D02*
G75*
G03*
X87493749Y-77084656I450396J-216851D01*
G01*
X84747039Y-76219204D02*
G75*
G03*
X84044266Y-76867781I-252258J-431700D01*
G01*
X87493745Y-78490341D02*
G75*
G03*
X87543234Y-78707219I499705J-59D01*
G01*
X84044266Y-78707219D02*
G75*
G03*
X84747039Y-79355796I450515J-216877D01*
G01*
X86840461Y-79355799D02*
G75*
G03*
X87543234Y-78707221I252259J431699D01*
G01*
X84747039Y-76219200D02*
G75*
G03*
X84999297Y-76287499I252164J431352D01*
G01*
X84093751Y-77084658D02*
G75*
G03*
X84044266Y-76867781I-499990J1D01*
G01*
X84999297Y-79287501D02*
G75*
G03*
X84747039Y-79355800I3J-500009D01*
G01*
X84044266Y-78707219D02*
G75*
G03*
X84093751Y-78490342I-450543J216885D01*
G01*
X87543234Y-76867779D02*
G75*
G03*
X86840461Y-76219201I-450514J216879D01*
G01*
X86588203Y-76287499D02*
G75*
G03*
X86840461Y-76219201I-83J500309D01*
G01*
%TO.C,LED19*%
X105581952Y-76287501D02*
X103993048Y-76287501D01*
X106487499Y-78490343D02*
X106487499Y-77084659D01*
X103993048Y-79287500D02*
X105581953Y-79287500D01*
X103087501Y-78490341D02*
X103087501Y-77084657D01*
X105834212Y-79355797D02*
G75*
G03*
X105581952Y-79287499I-252162J-431353D01*
G01*
X106536984Y-76867779D02*
G75*
G03*
X106487499Y-77084656I450396J-216851D01*
G01*
X103740789Y-76219204D02*
G75*
G03*
X103038016Y-76867781I-252258J-431700D01*
G01*
X106487495Y-78490341D02*
G75*
G03*
X106536984Y-78707219I499705J-59D01*
G01*
X103038016Y-78707219D02*
G75*
G03*
X103740789Y-79355796I450515J-216877D01*
G01*
X105834211Y-79355799D02*
G75*
G03*
X106536984Y-78707221I252259J431699D01*
G01*
X103740789Y-76219200D02*
G75*
G03*
X103993047Y-76287499I252164J431352D01*
G01*
X103087501Y-77084658D02*
G75*
G03*
X103038016Y-76867781I-499990J1D01*
G01*
X103993047Y-79287501D02*
G75*
G03*
X103740789Y-79355800I3J-500009D01*
G01*
X103038016Y-78707219D02*
G75*
G03*
X103087501Y-78490342I-450543J216885D01*
G01*
X106536984Y-76867779D02*
G75*
G03*
X105834211Y-76219201I-450514J216879D01*
G01*
X105581953Y-76287499D02*
G75*
G03*
X105834211Y-76219201I-83J500309D01*
G01*
%TO.C,LED18*%
X124688202Y-76287501D02*
X123099298Y-76287501D01*
X125593749Y-78490343D02*
X125593749Y-77084659D01*
X123099298Y-79287500D02*
X124688203Y-79287500D01*
X122193751Y-78490341D02*
X122193751Y-77084657D01*
X124940462Y-79355797D02*
G75*
G03*
X124688202Y-79287499I-252162J-431353D01*
G01*
X125643234Y-76867779D02*
G75*
G03*
X125593749Y-77084656I450396J-216851D01*
G01*
X122847039Y-76219204D02*
G75*
G03*
X122144266Y-76867781I-252258J-431700D01*
G01*
X125593745Y-78490341D02*
G75*
G03*
X125643234Y-78707219I499705J-59D01*
G01*
X122144266Y-78707219D02*
G75*
G03*
X122847039Y-79355796I450515J-216877D01*
G01*
X124940461Y-79355799D02*
G75*
G03*
X125643234Y-78707221I252259J431699D01*
G01*
X122847039Y-76219200D02*
G75*
G03*
X123099297Y-76287499I252164J431352D01*
G01*
X122193751Y-77084658D02*
G75*
G03*
X122144266Y-76867781I-499990J1D01*
G01*
X123099297Y-79287501D02*
G75*
G03*
X122847039Y-79355800I3J-500009D01*
G01*
X122144266Y-78707219D02*
G75*
G03*
X122193751Y-78490342I-450543J216885D01*
G01*
X125643234Y-76867779D02*
G75*
G03*
X124940461Y-76219201I-450514J216879D01*
G01*
X124688203Y-76287499D02*
G75*
G03*
X124940461Y-76219201I-83J500309D01*
G01*
%TO.C,LED17*%
X143738202Y-76287501D02*
X142149298Y-76287501D01*
X144643749Y-78490343D02*
X144643749Y-77084659D01*
X142149298Y-79287500D02*
X143738203Y-79287500D01*
X141243751Y-78490341D02*
X141243751Y-77084657D01*
X143990462Y-79355797D02*
G75*
G03*
X143738202Y-79287499I-252162J-431353D01*
G01*
X144693234Y-76867779D02*
G75*
G03*
X144643749Y-77084656I450396J-216851D01*
G01*
X141897039Y-76219204D02*
G75*
G03*
X141194266Y-76867781I-252258J-431700D01*
G01*
X144643745Y-78490341D02*
G75*
G03*
X144693234Y-78707219I499705J-59D01*
G01*
X141194266Y-78707219D02*
G75*
G03*
X141897039Y-79355796I450515J-216877D01*
G01*
X143990461Y-79355799D02*
G75*
G03*
X144693234Y-78707221I252259J431699D01*
G01*
X141897039Y-76219200D02*
G75*
G03*
X142149297Y-76287499I252164J431352D01*
G01*
X141243751Y-77084658D02*
G75*
G03*
X141194266Y-76867781I-499990J1D01*
G01*
X142149297Y-79287501D02*
G75*
G03*
X141897039Y-79355800I3J-500009D01*
G01*
X141194266Y-78707219D02*
G75*
G03*
X141243751Y-78490342I-450543J216885D01*
G01*
X144693234Y-76867779D02*
G75*
G03*
X143990461Y-76219201I-450514J216879D01*
G01*
X143738203Y-76287499D02*
G75*
G03*
X143990461Y-76219201I-83J500309D01*
G01*
%TO.C,LED16*%
X162788202Y-76287501D02*
X161199298Y-76287501D01*
X163693749Y-78490343D02*
X163693749Y-77084659D01*
X161199298Y-79287500D02*
X162788203Y-79287500D01*
X160293751Y-78490341D02*
X160293751Y-77084657D01*
X163040462Y-79355797D02*
G75*
G03*
X162788202Y-79287499I-252162J-431353D01*
G01*
X163743234Y-76867779D02*
G75*
G03*
X163693749Y-77084656I450396J-216851D01*
G01*
X160947039Y-76219204D02*
G75*
G03*
X160244266Y-76867781I-252258J-431700D01*
G01*
X163693745Y-78490341D02*
G75*
G03*
X163743234Y-78707219I499705J-59D01*
G01*
X160244266Y-78707219D02*
G75*
G03*
X160947039Y-79355796I450515J-216877D01*
G01*
X163040461Y-79355799D02*
G75*
G03*
X163743234Y-78707221I252259J431699D01*
G01*
X160947039Y-76219200D02*
G75*
G03*
X161199297Y-76287499I252164J431352D01*
G01*
X160293751Y-77084658D02*
G75*
G03*
X160244266Y-76867781I-499990J1D01*
G01*
X161199297Y-79287501D02*
G75*
G03*
X160947039Y-79355800I3J-500009D01*
G01*
X160244266Y-78707219D02*
G75*
G03*
X160293751Y-78490342I-450543J216885D01*
G01*
X163743234Y-76867779D02*
G75*
G03*
X163040461Y-76219201I-450514J216879D01*
G01*
X162788203Y-76287499D02*
G75*
G03*
X163040461Y-76219201I-83J500309D01*
G01*
%TO.C,LED15*%
X181838202Y-76287501D02*
X180249298Y-76287501D01*
X182743749Y-78490343D02*
X182743749Y-77084659D01*
X180249298Y-79287500D02*
X181838203Y-79287500D01*
X179343751Y-78490341D02*
X179343751Y-77084657D01*
X182090462Y-79355797D02*
G75*
G03*
X181838202Y-79287499I-252162J-431353D01*
G01*
X182793234Y-76867779D02*
G75*
G03*
X182743749Y-77084656I450396J-216851D01*
G01*
X179997039Y-76219204D02*
G75*
G03*
X179294266Y-76867781I-252258J-431700D01*
G01*
X182743745Y-78490341D02*
G75*
G03*
X182793234Y-78707219I499705J-59D01*
G01*
X179294266Y-78707219D02*
G75*
G03*
X179997039Y-79355796I450515J-216877D01*
G01*
X182090461Y-79355799D02*
G75*
G03*
X182793234Y-78707221I252259J431699D01*
G01*
X179997039Y-76219200D02*
G75*
G03*
X180249297Y-76287499I252164J431352D01*
G01*
X179343751Y-77084658D02*
G75*
G03*
X179294266Y-76867781I-499990J1D01*
G01*
X180249297Y-79287501D02*
G75*
G03*
X179997039Y-79355800I3J-500009D01*
G01*
X179294266Y-78707219D02*
G75*
G03*
X179343751Y-78490342I-450543J216885D01*
G01*
X182793234Y-76867779D02*
G75*
G03*
X182090461Y-76219201I-450514J216879D01*
G01*
X181838203Y-76287499D02*
G75*
G03*
X182090461Y-76219201I-83J500309D01*
G01*
%TO.C,LED14*%
X67538202Y-57237501D02*
X65949298Y-57237501D01*
X68443749Y-59440343D02*
X68443749Y-58034659D01*
X65949298Y-60237500D02*
X67538203Y-60237500D01*
X65043751Y-59440341D02*
X65043751Y-58034657D01*
X67790462Y-60305797D02*
G75*
G03*
X67538202Y-60237499I-252162J-431353D01*
G01*
X68493234Y-57817779D02*
G75*
G03*
X68443749Y-58034656I450396J-216851D01*
G01*
X65697039Y-57169204D02*
G75*
G03*
X64994266Y-57817781I-252258J-431700D01*
G01*
X68443745Y-59440341D02*
G75*
G03*
X68493234Y-59657219I499705J-59D01*
G01*
X64994266Y-59657219D02*
G75*
G03*
X65697039Y-60305796I450515J-216877D01*
G01*
X67790461Y-60305799D02*
G75*
G03*
X68493234Y-59657221I252259J431699D01*
G01*
X65697039Y-57169200D02*
G75*
G03*
X65949297Y-57237499I252164J431352D01*
G01*
X65043751Y-58034658D02*
G75*
G03*
X64994266Y-57817781I-499990J1D01*
G01*
X65949297Y-60237501D02*
G75*
G03*
X65697039Y-60305800I3J-500009D01*
G01*
X64994266Y-59657219D02*
G75*
G03*
X65043751Y-59440342I-450543J216885D01*
G01*
X68493234Y-57817779D02*
G75*
G03*
X67790461Y-57169201I-450514J216879D01*
G01*
X67538203Y-57237499D02*
G75*
G03*
X67790461Y-57169201I-83J500309D01*
G01*
%TO.C,LED13*%
X86588202Y-57237501D02*
X84999298Y-57237501D01*
X87493749Y-59440343D02*
X87493749Y-58034659D01*
X84999298Y-60237500D02*
X86588203Y-60237500D01*
X84093751Y-59440341D02*
X84093751Y-58034657D01*
X86840462Y-60305797D02*
G75*
G03*
X86588202Y-60237499I-252162J-431353D01*
G01*
X87543234Y-57817779D02*
G75*
G03*
X87493749Y-58034656I450396J-216851D01*
G01*
X84747039Y-57169204D02*
G75*
G03*
X84044266Y-57817781I-252258J-431700D01*
G01*
X87493745Y-59440341D02*
G75*
G03*
X87543234Y-59657219I499705J-59D01*
G01*
X84044266Y-59657219D02*
G75*
G03*
X84747039Y-60305796I450515J-216877D01*
G01*
X86840461Y-60305799D02*
G75*
G03*
X87543234Y-59657221I252259J431699D01*
G01*
X84747039Y-57169200D02*
G75*
G03*
X84999297Y-57237499I252164J431352D01*
G01*
X84093751Y-58034658D02*
G75*
G03*
X84044266Y-57817781I-499990J1D01*
G01*
X84999297Y-60237501D02*
G75*
G03*
X84747039Y-60305800I3J-500009D01*
G01*
X84044266Y-59657219D02*
G75*
G03*
X84093751Y-59440342I-450543J216885D01*
G01*
X87543234Y-57817779D02*
G75*
G03*
X86840461Y-57169201I-450514J216879D01*
G01*
X86588203Y-57237499D02*
G75*
G03*
X86840461Y-57169201I-83J500309D01*
G01*
%TO.C,LED12*%
X105581952Y-57237501D02*
X103993048Y-57237501D01*
X106487499Y-59440343D02*
X106487499Y-58034659D01*
X103993048Y-60237500D02*
X105581953Y-60237500D01*
X103087501Y-59440341D02*
X103087501Y-58034657D01*
X105834212Y-60305797D02*
G75*
G03*
X105581952Y-60237499I-252162J-431353D01*
G01*
X106536984Y-57817779D02*
G75*
G03*
X106487499Y-58034656I450396J-216851D01*
G01*
X103740789Y-57169204D02*
G75*
G03*
X103038016Y-57817781I-252258J-431700D01*
G01*
X106487495Y-59440341D02*
G75*
G03*
X106536984Y-59657219I499705J-59D01*
G01*
X103038016Y-59657219D02*
G75*
G03*
X103740789Y-60305796I450515J-216877D01*
G01*
X105834211Y-60305799D02*
G75*
G03*
X106536984Y-59657221I252259J431699D01*
G01*
X103740789Y-57169200D02*
G75*
G03*
X103993047Y-57237499I252164J431352D01*
G01*
X103087501Y-58034658D02*
G75*
G03*
X103038016Y-57817781I-499990J1D01*
G01*
X103993047Y-60237501D02*
G75*
G03*
X103740789Y-60305800I3J-500009D01*
G01*
X103038016Y-59657219D02*
G75*
G03*
X103087501Y-59440342I-450543J216885D01*
G01*
X106536984Y-57817779D02*
G75*
G03*
X105834211Y-57169201I-450514J216879D01*
G01*
X105581953Y-57237499D02*
G75*
G03*
X105834211Y-57169201I-83J500309D01*
G01*
%TO.C,LED11*%
X124688202Y-57237501D02*
X123099298Y-57237501D01*
X125593749Y-59440343D02*
X125593749Y-58034659D01*
X123099298Y-60237500D02*
X124688203Y-60237500D01*
X122193751Y-59440341D02*
X122193751Y-58034657D01*
X124940462Y-60305797D02*
G75*
G03*
X124688202Y-60237499I-252162J-431353D01*
G01*
X125643234Y-57817779D02*
G75*
G03*
X125593749Y-58034656I450396J-216851D01*
G01*
X122847039Y-57169204D02*
G75*
G03*
X122144266Y-57817781I-252258J-431700D01*
G01*
X125593745Y-59440341D02*
G75*
G03*
X125643234Y-59657219I499705J-59D01*
G01*
X122144266Y-59657219D02*
G75*
G03*
X122847039Y-60305796I450515J-216877D01*
G01*
X124940461Y-60305799D02*
G75*
G03*
X125643234Y-59657221I252259J431699D01*
G01*
X122847039Y-57169200D02*
G75*
G03*
X123099297Y-57237499I252164J431352D01*
G01*
X122193751Y-58034658D02*
G75*
G03*
X122144266Y-57817781I-499990J1D01*
G01*
X123099297Y-60237501D02*
G75*
G03*
X122847039Y-60305800I3J-500009D01*
G01*
X122144266Y-59657219D02*
G75*
G03*
X122193751Y-59440342I-450543J216885D01*
G01*
X125643234Y-57817779D02*
G75*
G03*
X124940461Y-57169201I-450514J216879D01*
G01*
X124688203Y-57237499D02*
G75*
G03*
X124940461Y-57169201I-83J500309D01*
G01*
%TO.C,LED10*%
X143738202Y-57237501D02*
X142149298Y-57237501D01*
X144643749Y-59440343D02*
X144643749Y-58034659D01*
X142149298Y-60237500D02*
X143738203Y-60237500D01*
X141243751Y-59440341D02*
X141243751Y-58034657D01*
X143990462Y-60305797D02*
G75*
G03*
X143738202Y-60237499I-252162J-431353D01*
G01*
X144693234Y-57817779D02*
G75*
G03*
X144643749Y-58034656I450396J-216851D01*
G01*
X141897039Y-57169204D02*
G75*
G03*
X141194266Y-57817781I-252258J-431700D01*
G01*
X144643745Y-59440341D02*
G75*
G03*
X144693234Y-59657219I499705J-59D01*
G01*
X141194266Y-59657219D02*
G75*
G03*
X141897039Y-60305796I450515J-216877D01*
G01*
X143990461Y-60305799D02*
G75*
G03*
X144693234Y-59657221I252259J431699D01*
G01*
X141897039Y-57169200D02*
G75*
G03*
X142149297Y-57237499I252164J431352D01*
G01*
X141243751Y-58034658D02*
G75*
G03*
X141194266Y-57817781I-499990J1D01*
G01*
X142149297Y-60237501D02*
G75*
G03*
X141897039Y-60305800I3J-500009D01*
G01*
X141194266Y-59657219D02*
G75*
G03*
X141243751Y-59440342I-450543J216885D01*
G01*
X144693234Y-57817779D02*
G75*
G03*
X143990461Y-57169201I-450514J216879D01*
G01*
X143738203Y-57237499D02*
G75*
G03*
X143990461Y-57169201I-83J500309D01*
G01*
%TO.C,LED9*%
X162788202Y-57237501D02*
X161199298Y-57237501D01*
X163693749Y-59440343D02*
X163693749Y-58034659D01*
X161199298Y-60237500D02*
X162788203Y-60237500D01*
X160293751Y-59440341D02*
X160293751Y-58034657D01*
X163040462Y-60305797D02*
G75*
G03*
X162788202Y-60237499I-252162J-431353D01*
G01*
X163743234Y-57817779D02*
G75*
G03*
X163693749Y-58034656I450396J-216851D01*
G01*
X160947039Y-57169204D02*
G75*
G03*
X160244266Y-57817781I-252258J-431700D01*
G01*
X163693745Y-59440341D02*
G75*
G03*
X163743234Y-59657219I499705J-59D01*
G01*
X160244266Y-59657219D02*
G75*
G03*
X160947039Y-60305796I450515J-216877D01*
G01*
X163040461Y-60305799D02*
G75*
G03*
X163743234Y-59657221I252259J431699D01*
G01*
X160947039Y-57169200D02*
G75*
G03*
X161199297Y-57237499I252164J431352D01*
G01*
X160293751Y-58034658D02*
G75*
G03*
X160244266Y-57817781I-499990J1D01*
G01*
X161199297Y-60237501D02*
G75*
G03*
X160947039Y-60305800I3J-500009D01*
G01*
X160244266Y-59657219D02*
G75*
G03*
X160293751Y-59440342I-450543J216885D01*
G01*
X163743234Y-57817779D02*
G75*
G03*
X163040461Y-57169201I-450514J216879D01*
G01*
X162788203Y-57237499D02*
G75*
G03*
X163040461Y-57169201I-83J500309D01*
G01*
%TO.C,LED8*%
X181838202Y-57237501D02*
X180249298Y-57237501D01*
X182743749Y-59440343D02*
X182743749Y-58034659D01*
X180249298Y-60237500D02*
X181838203Y-60237500D01*
X179343751Y-59440341D02*
X179343751Y-58034657D01*
X182090462Y-60305797D02*
G75*
G03*
X181838202Y-60237499I-252162J-431353D01*
G01*
X182793234Y-57817779D02*
G75*
G03*
X182743749Y-58034656I450396J-216851D01*
G01*
X179997039Y-57169204D02*
G75*
G03*
X179294266Y-57817781I-252258J-431700D01*
G01*
X182743745Y-59440341D02*
G75*
G03*
X182793234Y-59657219I499705J-59D01*
G01*
X179294266Y-59657219D02*
G75*
G03*
X179997039Y-60305796I450515J-216877D01*
G01*
X182090461Y-60305799D02*
G75*
G03*
X182793234Y-59657221I252259J431699D01*
G01*
X179997039Y-57169200D02*
G75*
G03*
X180249297Y-57237499I252164J431352D01*
G01*
X179343751Y-58034658D02*
G75*
G03*
X179294266Y-57817781I-499990J1D01*
G01*
X180249297Y-60237501D02*
G75*
G03*
X179997039Y-60305800I3J-500009D01*
G01*
X179294266Y-59657219D02*
G75*
G03*
X179343751Y-59440342I-450543J216885D01*
G01*
X182793234Y-57817779D02*
G75*
G03*
X182090461Y-57169201I-450514J216879D01*
G01*
X181838203Y-57237499D02*
G75*
G03*
X182090461Y-57169201I-83J500309D01*
G01*
%TO.C,LED7*%
X67538202Y-38187501D02*
X65949298Y-38187501D01*
X68443749Y-40390343D02*
X68443749Y-38984659D01*
X65949298Y-41187500D02*
X67538203Y-41187500D01*
X65043751Y-40390341D02*
X65043751Y-38984657D01*
X67790462Y-41255797D02*
G75*
G03*
X67538202Y-41187499I-252162J-431353D01*
G01*
X68493234Y-38767779D02*
G75*
G03*
X68443749Y-38984656I450396J-216851D01*
G01*
X65697039Y-38119204D02*
G75*
G03*
X64994266Y-38767781I-252258J-431700D01*
G01*
X68443745Y-40390341D02*
G75*
G03*
X68493234Y-40607219I499705J-59D01*
G01*
X64994266Y-40607219D02*
G75*
G03*
X65697039Y-41255796I450515J-216877D01*
G01*
X67790461Y-41255799D02*
G75*
G03*
X68493234Y-40607221I252259J431699D01*
G01*
X65697039Y-38119200D02*
G75*
G03*
X65949297Y-38187499I252164J431352D01*
G01*
X65043751Y-38984658D02*
G75*
G03*
X64994266Y-38767781I-499990J1D01*
G01*
X65949297Y-41187501D02*
G75*
G03*
X65697039Y-41255800I3J-500009D01*
G01*
X64994266Y-40607219D02*
G75*
G03*
X65043751Y-40390342I-450543J216885D01*
G01*
X68493234Y-38767779D02*
G75*
G03*
X67790461Y-38119201I-450514J216879D01*
G01*
X67538203Y-38187499D02*
G75*
G03*
X67790461Y-38119201I-83J500309D01*
G01*
%TO.C,LED6*%
X86588202Y-38187501D02*
X84999298Y-38187501D01*
X87493749Y-40390343D02*
X87493749Y-38984659D01*
X84999298Y-41187500D02*
X86588203Y-41187500D01*
X84093751Y-40390341D02*
X84093751Y-38984657D01*
X86840462Y-41255797D02*
G75*
G03*
X86588202Y-41187499I-252162J-431353D01*
G01*
X87543234Y-38767779D02*
G75*
G03*
X87493749Y-38984656I450396J-216851D01*
G01*
X84747039Y-38119204D02*
G75*
G03*
X84044266Y-38767781I-252258J-431700D01*
G01*
X87493745Y-40390341D02*
G75*
G03*
X87543234Y-40607219I499705J-59D01*
G01*
X84044266Y-40607219D02*
G75*
G03*
X84747039Y-41255796I450515J-216877D01*
G01*
X86840461Y-41255799D02*
G75*
G03*
X87543234Y-40607221I252259J431699D01*
G01*
X84747039Y-38119200D02*
G75*
G03*
X84999297Y-38187499I252164J431352D01*
G01*
X84093751Y-38984658D02*
G75*
G03*
X84044266Y-38767781I-499990J1D01*
G01*
X84999297Y-41187501D02*
G75*
G03*
X84747039Y-41255800I3J-500009D01*
G01*
X84044266Y-40607219D02*
G75*
G03*
X84093751Y-40390342I-450543J216885D01*
G01*
X87543234Y-38767779D02*
G75*
G03*
X86840461Y-38119201I-450514J216879D01*
G01*
X86588203Y-38187499D02*
G75*
G03*
X86840461Y-38119201I-83J500309D01*
G01*
%TO.C,LED5*%
X105581952Y-38187501D02*
X103993048Y-38187501D01*
X106487499Y-40390343D02*
X106487499Y-38984659D01*
X103993048Y-41187500D02*
X105581953Y-41187500D01*
X103087501Y-40390341D02*
X103087501Y-38984657D01*
X105834212Y-41255797D02*
G75*
G03*
X105581952Y-41187499I-252162J-431353D01*
G01*
X106536984Y-38767779D02*
G75*
G03*
X106487499Y-38984656I450396J-216851D01*
G01*
X103740789Y-38119204D02*
G75*
G03*
X103038016Y-38767781I-252258J-431700D01*
G01*
X106487495Y-40390341D02*
G75*
G03*
X106536984Y-40607219I499705J-59D01*
G01*
X103038016Y-40607219D02*
G75*
G03*
X103740789Y-41255796I450515J-216877D01*
G01*
X105834211Y-41255799D02*
G75*
G03*
X106536984Y-40607221I252259J431699D01*
G01*
X103740789Y-38119200D02*
G75*
G03*
X103993047Y-38187499I252164J431352D01*
G01*
X103087501Y-38984658D02*
G75*
G03*
X103038016Y-38767781I-499990J1D01*
G01*
X103993047Y-41187501D02*
G75*
G03*
X103740789Y-41255800I3J-500009D01*
G01*
X103038016Y-40607219D02*
G75*
G03*
X103087501Y-40390342I-450543J216885D01*
G01*
X106536984Y-38767779D02*
G75*
G03*
X105834211Y-38119201I-450514J216879D01*
G01*
X105581953Y-38187499D02*
G75*
G03*
X105834211Y-38119201I-83J500309D01*
G01*
%TO.C,LED4*%
X124688202Y-38187501D02*
X123099298Y-38187501D01*
X125593749Y-40390343D02*
X125593749Y-38984659D01*
X123099298Y-41187500D02*
X124688203Y-41187500D01*
X122193751Y-40390341D02*
X122193751Y-38984657D01*
X124940462Y-41255797D02*
G75*
G03*
X124688202Y-41187499I-252162J-431353D01*
G01*
X125643234Y-38767779D02*
G75*
G03*
X125593749Y-38984656I450396J-216851D01*
G01*
X122847039Y-38119204D02*
G75*
G03*
X122144266Y-38767781I-252258J-431700D01*
G01*
X125593745Y-40390341D02*
G75*
G03*
X125643234Y-40607219I499705J-59D01*
G01*
X122144266Y-40607219D02*
G75*
G03*
X122847039Y-41255796I450515J-216877D01*
G01*
X124940461Y-41255799D02*
G75*
G03*
X125643234Y-40607221I252259J431699D01*
G01*
X122847039Y-38119200D02*
G75*
G03*
X123099297Y-38187499I252164J431352D01*
G01*
X122193751Y-38984658D02*
G75*
G03*
X122144266Y-38767781I-499990J1D01*
G01*
X123099297Y-41187501D02*
G75*
G03*
X122847039Y-41255800I3J-500009D01*
G01*
X122144266Y-40607219D02*
G75*
G03*
X122193751Y-40390342I-450543J216885D01*
G01*
X125643234Y-38767779D02*
G75*
G03*
X124940461Y-38119201I-450514J216879D01*
G01*
X124688203Y-38187499D02*
G75*
G03*
X124940461Y-38119201I-83J500309D01*
G01*
%TO.C,LED3*%
X143738202Y-38187501D02*
X142149298Y-38187501D01*
X144643749Y-40390343D02*
X144643749Y-38984659D01*
X142149298Y-41187500D02*
X143738203Y-41187500D01*
X141243751Y-40390341D02*
X141243751Y-38984657D01*
X143990462Y-41255797D02*
G75*
G03*
X143738202Y-41187499I-252162J-431353D01*
G01*
X144693234Y-38767779D02*
G75*
G03*
X144643749Y-38984656I450396J-216851D01*
G01*
X141897039Y-38119204D02*
G75*
G03*
X141194266Y-38767781I-252258J-431700D01*
G01*
X144643745Y-40390341D02*
G75*
G03*
X144693234Y-40607219I499705J-59D01*
G01*
X141194266Y-40607219D02*
G75*
G03*
X141897039Y-41255796I450515J-216877D01*
G01*
X143990461Y-41255799D02*
G75*
G03*
X144693234Y-40607221I252259J431699D01*
G01*
X141897039Y-38119200D02*
G75*
G03*
X142149297Y-38187499I252164J431352D01*
G01*
X141243751Y-38984658D02*
G75*
G03*
X141194266Y-38767781I-499990J1D01*
G01*
X142149297Y-41187501D02*
G75*
G03*
X141897039Y-41255800I3J-500009D01*
G01*
X141194266Y-40607219D02*
G75*
G03*
X141243751Y-40390342I-450543J216885D01*
G01*
X144693234Y-38767779D02*
G75*
G03*
X143990461Y-38119201I-450514J216879D01*
G01*
X143738203Y-38187499D02*
G75*
G03*
X143990461Y-38119201I-83J500309D01*
G01*
%TO.C,LED2*%
X162788202Y-38187501D02*
X161199298Y-38187501D01*
X163693749Y-40390343D02*
X163693749Y-38984659D01*
X161199298Y-41187500D02*
X162788203Y-41187500D01*
X160293751Y-40390341D02*
X160293751Y-38984657D01*
X163040462Y-41255797D02*
G75*
G03*
X162788202Y-41187499I-252162J-431353D01*
G01*
X163743234Y-38767779D02*
G75*
G03*
X163693749Y-38984656I450396J-216851D01*
G01*
X160947039Y-38119204D02*
G75*
G03*
X160244266Y-38767781I-252258J-431700D01*
G01*
X163693745Y-40390341D02*
G75*
G03*
X163743234Y-40607219I499705J-59D01*
G01*
X160244266Y-40607219D02*
G75*
G03*
X160947039Y-41255796I450515J-216877D01*
G01*
X163040461Y-41255799D02*
G75*
G03*
X163743234Y-40607221I252259J431699D01*
G01*
X160947039Y-38119200D02*
G75*
G03*
X161199297Y-38187499I252164J431352D01*
G01*
X160293751Y-38984658D02*
G75*
G03*
X160244266Y-38767781I-499990J1D01*
G01*
X161199297Y-41187501D02*
G75*
G03*
X160947039Y-41255800I3J-500009D01*
G01*
X160244266Y-40607219D02*
G75*
G03*
X160293751Y-40390342I-450543J216885D01*
G01*
X163743234Y-38767779D02*
G75*
G03*
X163040461Y-38119201I-450514J216879D01*
G01*
X162788203Y-38187499D02*
G75*
G03*
X163040461Y-38119201I-83J500309D01*
G01*
%TO.C,LED1*%
X181838202Y-38187501D02*
X180249298Y-38187501D01*
X182743749Y-40390343D02*
X182743749Y-38984659D01*
X180249298Y-41187500D02*
X181838203Y-41187500D01*
X179343751Y-40390341D02*
X179343751Y-38984657D01*
X182090462Y-41255797D02*
G75*
G03*
X181838202Y-41187499I-252162J-431353D01*
G01*
X182793234Y-38767779D02*
G75*
G03*
X182743749Y-38984656I450396J-216851D01*
G01*
X179997039Y-38119204D02*
G75*
G03*
X179294266Y-38767781I-252258J-431700D01*
G01*
X182743745Y-40390341D02*
G75*
G03*
X182793234Y-40607219I499705J-59D01*
G01*
X179294266Y-40607219D02*
G75*
G03*
X179997039Y-41255796I450515J-216877D01*
G01*
X182090461Y-41255799D02*
G75*
G03*
X182793234Y-40607221I252259J431699D01*
G01*
X179997039Y-38119200D02*
G75*
G03*
X180249297Y-38187499I252164J431352D01*
G01*
X179343751Y-38984658D02*
G75*
G03*
X179294266Y-38767781I-499990J1D01*
G01*
X180249297Y-41187501D02*
G75*
G03*
X179997039Y-41255800I3J-500009D01*
G01*
X179294266Y-40607219D02*
G75*
G03*
X179343751Y-40390342I-450543J216885D01*
G01*
X182793234Y-38767779D02*
G75*
G03*
X182090461Y-38119201I-450514J216879D01*
G01*
X181838203Y-38187499D02*
G75*
G03*
X182090461Y-38119201I-83J500309D01*
G01*
%TD*%
M02*
