%TF.GenerationSoftware,KiCad,Pcbnew,(6.0.6)*%
%TF.CreationDate,2022-08-12T02:15:28+08:00*%
%TF.ProjectId,5x07,35783037-2e6b-4696-9361-645f70636258,rev?*%
%TF.SameCoordinates,Original*%
%TF.FileFunction,Paste,Bot*%
%TF.FilePolarity,Positive*%
%FSLAX46Y46*%
G04 Gerber Fmt 4.6, Leading zero omitted, Abs format (unit mm)*
G04 Created by KiCad (PCBNEW (6.0.6)) date 2022-08-12 02:15:28*
%MOMM*%
%LPD*%
G01*
G04 APERTURE LIST*
G04 Aperture macros list*
%AMRoundRect*
0 Rectangle with rounded corners*
0 $1 Rounding radius*
0 $2 $3 $4 $5 $6 $7 $8 $9 X,Y pos of 4 corners*
0 Add a 4 corners polygon primitive as box body*
4,1,4,$2,$3,$4,$5,$6,$7,$8,$9,$2,$3,0*
0 Add four circle primitives for the rounded corners*
1,1,$1+$1,$2,$3*
1,1,$1+$1,$4,$5*
1,1,$1+$1,$6,$7*
1,1,$1+$1,$8,$9*
0 Add four rect primitives between the rounded corners*
20,1,$1+$1,$2,$3,$4,$5,0*
20,1,$1+$1,$4,$5,$6,$7,0*
20,1,$1+$1,$6,$7,$8,$9,0*
20,1,$1+$1,$8,$9,$2,$3,0*%
%AMFreePoly0*
4,1,18,-0.410000,0.593000,-0.403758,0.624380,-0.385983,0.650983,-0.359380,0.668758,-0.328000,0.675000,0.000000,0.675000,0.410000,0.265000,0.410000,-0.593000,0.403758,-0.624380,0.385983,-0.650983,0.359380,-0.668758,0.328000,-0.675000,-0.328000,-0.675000,-0.359380,-0.668758,-0.385983,-0.650983,-0.403758,-0.624380,-0.410000,-0.593000,-0.410000,0.593000,-0.410000,0.593000,$1*%
G04 Aperture macros list end*
%ADD10RoundRect,0.082000X-0.593000X0.328000X-0.593000X-0.328000X0.593000X-0.328000X0.593000X0.328000X0*%
%ADD11FreePoly0,270.000000*%
%ADD12R,1.200000X0.900000*%
%ADD13R,0.600000X2.450000*%
%ADD14R,0.300000X2.450000*%
%ADD15R,1.800000X1.100000*%
G04 APERTURE END LIST*
D10*
%TO.C,LED4*%
X121168750Y-38937500D03*
X121168750Y-40437500D03*
X126618750Y-38937500D03*
D11*
X126618750Y-40437500D03*
%TD*%
D12*
%TO.C,D22*%
X135732309Y-92136936D03*
X135732309Y-88836936D03*
%TD*%
D10*
%TO.C,LED19*%
X102062500Y-77037500D03*
X102062500Y-78537500D03*
X107512500Y-77037500D03*
D11*
X107512500Y-78537500D03*
%TD*%
D12*
%TO.C,D16*%
X59532309Y-73086936D03*
X59532309Y-69786936D03*
%TD*%
D10*
%TO.C,LED18*%
X121168750Y-77037500D03*
X121168750Y-78537500D03*
X126618750Y-77037500D03*
D11*
X126618750Y-78537500D03*
%TD*%
D10*
%TO.C,LED34*%
X83068750Y-115137500D03*
X83068750Y-116637500D03*
X88518750Y-115137500D03*
D11*
X88518750Y-116637500D03*
%TD*%
D10*
%TO.C,LED7*%
X64018750Y-38937500D03*
X64018750Y-40437500D03*
X69468750Y-38937500D03*
D11*
X69468750Y-40437500D03*
%TD*%
D12*
%TO.C,D20*%
X173832309Y-92136936D03*
X173832309Y-88836936D03*
%TD*%
%TO.C,D40*%
X173832309Y-130236936D03*
X173832309Y-126936936D03*
%TD*%
%TO.C,D2*%
X135732309Y-54036936D03*
X135732309Y-50736936D03*
%TD*%
D10*
%TO.C,LED20*%
X83068750Y-77037500D03*
X83068750Y-78537500D03*
X88518750Y-77037500D03*
D11*
X88518750Y-78537500D03*
%TD*%
D12*
%TO.C,D13*%
X116682309Y-73086936D03*
X116682309Y-69786936D03*
%TD*%
D13*
%TO.C,USB1*%
X199975000Y-38578750D03*
X200750000Y-38578750D03*
D14*
X201450000Y-38578750D03*
X201950000Y-38578750D03*
X202450000Y-38578750D03*
X202950000Y-38578750D03*
X203450000Y-38578750D03*
X203950000Y-38578750D03*
X204450000Y-38578750D03*
X204950000Y-38578750D03*
D13*
X205650000Y-38578750D03*
X206425000Y-38578750D03*
%TD*%
D12*
%TO.C,D23*%
X116682309Y-92136936D03*
X116682309Y-88836936D03*
%TD*%
%TO.C,D10*%
X173832309Y-73086936D03*
X173832309Y-69786936D03*
%TD*%
%TO.C,D35*%
X78582309Y-111186936D03*
X78582309Y-107886936D03*
%TD*%
D10*
%TO.C,LED11*%
X121168750Y-57987500D03*
X121168750Y-59487500D03*
X126618750Y-57987500D03*
D11*
X126618750Y-59487500D03*
%TD*%
D12*
%TO.C,D31*%
X154782309Y-111186936D03*
X154782309Y-107886936D03*
%TD*%
%TO.C,D3*%
X116682309Y-54036936D03*
X116682309Y-50736936D03*
%TD*%
%TO.C,D15*%
X78582309Y-73086936D03*
X78582309Y-69786936D03*
%TD*%
%TO.C,D34*%
X97632309Y-111186936D03*
X97632309Y-107886936D03*
%TD*%
D10*
%TO.C,LED35*%
X64018750Y-115137500D03*
X64018750Y-116637500D03*
X69468750Y-115137500D03*
D11*
X69468750Y-116637500D03*
%TD*%
D12*
%TO.C,D46*%
X59532309Y-130236936D03*
X59532309Y-126936936D03*
%TD*%
%TO.C,D36*%
X59532309Y-111186936D03*
X59532309Y-107886936D03*
%TD*%
D10*
%TO.C,LED5*%
X102062500Y-38937500D03*
X102062500Y-40437500D03*
X107512500Y-38937500D03*
D11*
X107512500Y-40437500D03*
%TD*%
D10*
%TO.C,LED24*%
X140218750Y-96087500D03*
X140218750Y-97587500D03*
X145668750Y-96087500D03*
D11*
X145668750Y-97587500D03*
%TD*%
D10*
%TO.C,LED13*%
X83068750Y-57987500D03*
X83068750Y-59487500D03*
X88518750Y-57987500D03*
D11*
X88518750Y-59487500D03*
%TD*%
D12*
%TO.C,D6*%
X59532309Y-54036936D03*
X59532309Y-50736936D03*
%TD*%
D10*
%TO.C,LED8*%
X178318750Y-57987500D03*
X178318750Y-59487500D03*
X183768750Y-57987500D03*
D11*
X183768750Y-59487500D03*
%TD*%
D10*
%TO.C,LED25*%
X121168750Y-96087500D03*
X121168750Y-97587500D03*
X126618750Y-96087500D03*
D11*
X126618750Y-97587500D03*
%TD*%
D12*
%TO.C,D1*%
X154782309Y-54036936D03*
X154782309Y-50736936D03*
%TD*%
%TO.C,D43*%
X116682309Y-130236936D03*
X116682309Y-126936936D03*
%TD*%
D10*
%TO.C,LED17*%
X140218750Y-77037500D03*
X140218750Y-78537500D03*
X145668750Y-77037500D03*
D11*
X145668750Y-78537500D03*
%TD*%
D12*
%TO.C,D4*%
X97632309Y-54036936D03*
X97632309Y-50736936D03*
%TD*%
%TO.C,D21*%
X154782309Y-92136936D03*
X154782309Y-88836936D03*
%TD*%
D10*
%TO.C,LED30*%
X159268750Y-115137500D03*
X159268750Y-116637500D03*
X164718750Y-115137500D03*
D11*
X164718750Y-116637500D03*
%TD*%
D12*
%TO.C,D42*%
X135732309Y-130236936D03*
X135732309Y-126936936D03*
%TD*%
D10*
%TO.C,LED27*%
X83068750Y-96087500D03*
X83068750Y-97587500D03*
X88518750Y-96087500D03*
D11*
X88518750Y-97587500D03*
%TD*%
D10*
%TO.C,LED1*%
X178318750Y-38937500D03*
X178318750Y-40437500D03*
X183768750Y-38937500D03*
D11*
X183768750Y-40437500D03*
%TD*%
D12*
%TO.C,D24*%
X97632309Y-92136936D03*
X97632309Y-88836936D03*
%TD*%
%TO.C,D45*%
X78582309Y-130236936D03*
X78582309Y-126936936D03*
%TD*%
%TO.C,D30*%
X173832309Y-111186936D03*
X173832309Y-107886936D03*
%TD*%
%TO.C,D14*%
X97632309Y-73086936D03*
X97632309Y-69786936D03*
%TD*%
D10*
%TO.C,LED14*%
X64018750Y-57987500D03*
X64018750Y-59487500D03*
X69468750Y-57987500D03*
D11*
X69468750Y-59487500D03*
%TD*%
D10*
%TO.C,LED28*%
X64018750Y-96087500D03*
X64018750Y-97587500D03*
X69468750Y-96087500D03*
D11*
X69468750Y-97587500D03*
%TD*%
D10*
%TO.C,LED15*%
X178318750Y-77037500D03*
X178318750Y-78537500D03*
X183768750Y-77037500D03*
D11*
X183768750Y-78537500D03*
%TD*%
D12*
%TO.C,D32*%
X135732309Y-111186936D03*
X135732309Y-107886936D03*
%TD*%
D10*
%TO.C,LED32*%
X121168750Y-115137500D03*
X121168750Y-116637500D03*
X126618750Y-115137500D03*
D11*
X126618750Y-116637500D03*
%TD*%
D12*
%TO.C,D33*%
X116682309Y-111186936D03*
X116682309Y-107886936D03*
%TD*%
D10*
%TO.C,LED21*%
X64018750Y-77037500D03*
X64018750Y-78537500D03*
X69468750Y-77037500D03*
D11*
X69468750Y-78537500D03*
%TD*%
D10*
%TO.C,LED6*%
X83068750Y-38937500D03*
X83068750Y-40437500D03*
X88518750Y-38937500D03*
D11*
X88518750Y-40437500D03*
%TD*%
D12*
%TO.C,D12*%
X135732309Y-73086936D03*
X135732309Y-69786936D03*
%TD*%
D10*
%TO.C,LED23*%
X159268750Y-96087500D03*
X159268750Y-97587500D03*
X164718750Y-96087500D03*
D11*
X164718750Y-97587500D03*
%TD*%
D10*
%TO.C,LED29*%
X178318750Y-115137500D03*
X178318750Y-116637500D03*
X183768750Y-115137500D03*
D11*
X183768750Y-116637500D03*
%TD*%
D12*
%TO.C,D11*%
X154782309Y-73086936D03*
X154782309Y-69786936D03*
%TD*%
D10*
%TO.C,LED16*%
X159268750Y-77037500D03*
X159268750Y-78537500D03*
X164718750Y-77037500D03*
D11*
X164718750Y-78537500D03*
%TD*%
D10*
%TO.C,LED3*%
X140218750Y-38937500D03*
X140218750Y-40437500D03*
X145668750Y-38937500D03*
D11*
X145668750Y-40437500D03*
%TD*%
D12*
%TO.C,D0*%
X173832309Y-54036936D03*
X173832309Y-50736936D03*
%TD*%
D10*
%TO.C,LED22*%
X178318750Y-96087500D03*
X178318750Y-97587500D03*
X183768750Y-96087500D03*
D11*
X183768750Y-97587500D03*
%TD*%
D10*
%TO.C,LED26*%
X102062500Y-96087500D03*
X102062500Y-97587500D03*
X107512500Y-96087500D03*
D11*
X107512500Y-97587500D03*
%TD*%
D12*
%TO.C,D26*%
X59532309Y-92136936D03*
X59532309Y-88836936D03*
%TD*%
D10*
%TO.C,LED33*%
X102062500Y-115137500D03*
X102062500Y-116637500D03*
X107512500Y-115137500D03*
D11*
X107512500Y-116637500D03*
%TD*%
D10*
%TO.C,LED12*%
X102062500Y-57987500D03*
X102062500Y-59487500D03*
X107512500Y-57987500D03*
D11*
X107512500Y-59487500D03*
%TD*%
D10*
%TO.C,LED10*%
X140218750Y-57987500D03*
X140218750Y-59487500D03*
X145668750Y-57987500D03*
D11*
X145668750Y-59487500D03*
%TD*%
D10*
%TO.C,LED31*%
X140218750Y-115137500D03*
X140218750Y-116637500D03*
X145668750Y-115137500D03*
D11*
X145668750Y-116637500D03*
%TD*%
D12*
%TO.C,D25*%
X78582309Y-92136936D03*
X78582309Y-88836936D03*
%TD*%
D10*
%TO.C,LED2*%
X159268750Y-38937500D03*
X159268750Y-40437500D03*
X164718750Y-38937500D03*
D11*
X164718750Y-40437500D03*
%TD*%
D12*
%TO.C,D5*%
X78582309Y-54036936D03*
X78582309Y-50736936D03*
%TD*%
%TO.C,D41*%
X154782309Y-130236936D03*
X154782309Y-126936936D03*
%TD*%
D10*
%TO.C,LED9*%
X159268750Y-57987500D03*
X159268750Y-59487500D03*
X164718750Y-57987500D03*
D11*
X164718750Y-59487500D03*
%TD*%
D12*
%TO.C,D44*%
X97632309Y-130236936D03*
X97632309Y-126936936D03*
%TD*%
D15*
%TO.C,SW1*%
X202481250Y-111387500D03*
X208681250Y-111387500D03*
X202481250Y-107687500D03*
X208681250Y-107687500D03*
%TD*%
M02*
