M48
; DRILL file {KiCad (6.0.6)} date Sat Sep 10 21:51:07 2022
; FORMAT={-:-/ absolute / metric / decimal}
; #@! TF.CreationDate,2022-09-10T21:51:07+08:00
; #@! TF.GenerationSoftware,Kicad,Pcbnew,(6.0.6)
; #@! TF.FileFunction,NonPlated,1,2,NPTH
FMAT,2
METRIC
; #@! TA.AperFunction,NonPlated,NPTH,ComponentDrill
T1C0.650
; #@! TA.AperFunction,NonPlated,NPTH,ComponentDrill
T2C1.500
; #@! TA.AperFunction,NonPlated,NPTH,ComponentDrill
T3C1.700
; #@! TA.AperFunction,NonPlated,NPTH,ComponentDrill
T4C3.400
%
G90
G05
T1
X200.31Y-36.634
X206.09Y-36.634
T2
X213.296Y-34.294
X213.296Y-41.294
X215.328Y-34.294
X215.328Y-41.294
T3
X61.244Y-44.387
X61.244Y-63.438
X61.244Y-82.487
X61.244Y-101.537
X61.244Y-120.587
X72.244Y-44.387
X72.244Y-63.438
X72.244Y-82.487
X72.244Y-101.537
X72.244Y-120.587
X80.294Y-44.387
X80.294Y-63.438
X80.294Y-82.487
X80.294Y-101.537
X80.294Y-120.587
X91.294Y-44.387
X91.294Y-63.438
X91.294Y-82.487
X91.294Y-101.537
X91.294Y-120.587
X99.287Y-44.387
X99.287Y-63.438
X99.287Y-82.487
X99.287Y-101.537
X99.287Y-120.587
X110.287Y-44.387
X110.287Y-63.438
X110.287Y-82.487
X110.287Y-101.537
X110.287Y-120.587
X118.394Y-44.387
X118.394Y-63.438
X118.394Y-82.487
X118.394Y-101.537
X118.394Y-120.587
X129.394Y-44.387
X129.394Y-63.438
X129.394Y-82.487
X129.394Y-101.537
X129.394Y-120.587
X137.44Y-44.387
X137.442Y-63.438
X137.442Y-120.589
X137.443Y-82.487
X137.444Y-101.536
X148.44Y-44.387
X148.442Y-63.438
X148.442Y-120.589
X148.443Y-82.487
X148.444Y-101.536
X156.49Y-44.387
X156.491Y-63.438
X156.491Y-120.588
X156.493Y-82.486
X156.494Y-101.537
X167.49Y-44.387
X167.491Y-63.438
X167.491Y-120.588
X167.493Y-82.486
X167.494Y-101.537
X175.541Y-44.387
X175.541Y-63.438
X175.541Y-82.487
X175.543Y-120.587
X175.544Y-101.537
X186.541Y-44.387
X186.541Y-63.438
X186.541Y-82.487
X186.543Y-120.587
X186.544Y-101.537
T4
X66.744Y-44.387
X66.744Y-63.438
X66.744Y-82.487
X66.744Y-101.537
X66.744Y-120.587
X85.794Y-44.387
X85.794Y-63.438
X85.794Y-82.487
X85.794Y-101.537
X85.794Y-120.587
X104.787Y-44.387
X104.787Y-63.438
X104.787Y-82.487
X104.787Y-101.537
X104.787Y-120.587
X123.894Y-44.387
X123.894Y-63.438
X123.894Y-82.487
X123.894Y-101.537
X123.894Y-120.587
X142.94Y-44.387
X142.942Y-63.438
X142.942Y-120.589
X142.943Y-82.487
X142.944Y-101.536
X161.99Y-44.387
X161.991Y-63.438
X161.991Y-120.588
X161.993Y-82.486
X161.994Y-101.537
X181.041Y-44.387
X181.041Y-63.438
X181.041Y-82.487
X181.043Y-120.587
X181.044Y-101.537
T0
M30
