%TF.GenerationSoftware,KiCad,Pcbnew,(6.0.6)*%
%TF.CreationDate,2022-09-10T21:51:05+08:00*%
%TF.ProjectId,5x07,35783037-2e6b-4696-9361-645f70636258,rev?*%
%TF.SameCoordinates,Original*%
%TF.FileFunction,Legend,Top*%
%TF.FilePolarity,Positive*%
%FSLAX46Y46*%
G04 Gerber Fmt 4.6, Leading zero omitted, Abs format (unit mm)*
G04 Created by KiCad (PCBNEW (6.0.6)) date 2022-09-10 21:51:05*
%MOMM*%
%LPD*%
G01*
G04 APERTURE LIST*
G04 Aperture macros list*
%AMRoundRect*
0 Rectangle with rounded corners*
0 $1 Rounding radius*
0 $2 $3 $4 $5 $6 $7 $8 $9 X,Y pos of 4 corners*
0 Add a 4 corners polygon primitive as box body*
4,1,4,$2,$3,$4,$5,$6,$7,$8,$9,$2,$3,0*
0 Add four circle primitives for the rounded corners*
1,1,$1+$1,$2,$3*
1,1,$1+$1,$4,$5*
1,1,$1+$1,$6,$7*
1,1,$1+$1,$8,$9*
0 Add four rect primitives between the rounded corners*
20,1,$1+$1,$2,$3,$4,$5,0*
20,1,$1+$1,$4,$5,$6,$7,0*
20,1,$1+$1,$6,$7,$8,$9,0*
20,1,$1+$1,$8,$9,$2,$3,0*%
%AMFreePoly0*
4,1,18,-0.410000,0.265000,0.000000,0.675000,0.328000,0.675000,0.359380,0.668758,0.385983,0.650983,0.403758,0.624380,0.410000,0.593000,0.410000,-0.593000,0.403758,-0.624380,0.385983,-0.650983,0.359380,-0.668758,0.328000,-0.675000,-0.328000,-0.675000,-0.359380,-0.668758,-0.385983,-0.650983,-0.403758,-0.624380,-0.410000,-0.593000,-0.410000,0.265000,-0.410000,0.265000,$1*%
G04 Aperture macros list end*
%ADD10C,0.150000*%
%ADD11C,0.120000*%
%ADD12C,0.240000*%
%ADD13RoundRect,0.082000X-0.593000X0.328000X-0.593000X-0.328000X0.593000X-0.328000X0.593000X0.328000X0*%
%ADD14FreePoly0,270.000000*%
%ADD15R,1.200000X0.900000*%
%ADD16RoundRect,0.250000X0.475000X-0.337500X0.475000X0.337500X-0.475000X0.337500X-0.475000X-0.337500X0*%
%ADD17RoundRect,0.250000X0.450000X-0.350000X0.450000X0.350000X-0.450000X0.350000X-0.450000X-0.350000X0*%
%ADD18RoundRect,0.250001X-0.462499X-0.624999X0.462499X-0.624999X0.462499X0.624999X-0.462499X0.624999X0*%
%ADD19C,0.650000*%
%ADD20R,0.600000X2.450000*%
%ADD21R,0.300000X2.450000*%
%ADD22O,1.000000X1.600000*%
%ADD23O,1.000000X2.100000*%
%ADD24RoundRect,0.250000X-0.450000X0.350000X-0.450000X-0.350000X0.450000X-0.350000X0.450000X0.350000X0*%
%ADD25RoundRect,0.250000X-0.475000X0.337500X-0.475000X-0.337500X0.475000X-0.337500X0.475000X0.337500X0*%
%ADD26RoundRect,0.250000X0.337500X0.475000X-0.337500X0.475000X-0.337500X-0.475000X0.337500X-0.475000X0*%
%ADD27C,3.500000*%
%ADD28RoundRect,0.250000X0.350000X0.450000X-0.350000X0.450000X-0.350000X-0.450000X0.350000X-0.450000X0*%
%ADD29R,0.550000X1.500000*%
%ADD30R,1.500000X0.550000*%
%ADD31RoundRect,0.250000X-0.350000X-0.450000X0.350000X-0.450000X0.350000X0.450000X-0.350000X0.450000X0*%
%ADD32R,1.100000X1.100000*%
%ADD33R,0.700000X1.000000*%
%ADD34R,0.700000X0.600000*%
%ADD35C,1.500000*%
%ADD36O,1.200000X1.800000*%
%ADD37R,1.800000X2.100000*%
%ADD38C,1.700000*%
%ADD39C,3.400000*%
%ADD40C,2.000000*%
%ADD41R,1.700000X1.700000*%
%ADD42R,1.800000X1.100000*%
G04 APERTURE END LIST*
D10*
X209130544Y-125983509D02*
X208797211Y-125507319D01*
X208559116Y-125983509D02*
X208559116Y-124983509D01*
X208940068Y-124983509D01*
X209035306Y-125031129D01*
X209082925Y-125078748D01*
X209130544Y-125173986D01*
X209130544Y-125316843D01*
X209082925Y-125412081D01*
X209035306Y-125459700D01*
X208940068Y-125507319D01*
X208559116Y-125507319D01*
X209511497Y-125935890D02*
X209654354Y-125983509D01*
X209892449Y-125983509D01*
X209987687Y-125935890D01*
X210035306Y-125888271D01*
X210082925Y-125793033D01*
X210082925Y-125697795D01*
X210035306Y-125602557D01*
X209987687Y-125554938D01*
X209892449Y-125507319D01*
X209701973Y-125459700D01*
X209606735Y-125412081D01*
X209559116Y-125364462D01*
X209511497Y-125269224D01*
X209511497Y-125173986D01*
X209559116Y-125078748D01*
X209606735Y-125031129D01*
X209701973Y-124983509D01*
X209940068Y-124983509D01*
X210082925Y-125031129D01*
X210368640Y-124983509D02*
X210940068Y-124983509D01*
X210654354Y-125983509D02*
X210654354Y-124983509D01*
X199758039Y-123465821D02*
X199758039Y-122465821D01*
X200091372Y-123180107D01*
X200424706Y-122465821D01*
X200424706Y-123465821D01*
X201091372Y-122465821D02*
X201281848Y-122465821D01*
X201377087Y-122513441D01*
X201472325Y-122608679D01*
X201519944Y-122799155D01*
X201519944Y-123132488D01*
X201472325Y-123322964D01*
X201377087Y-123418202D01*
X201281848Y-123465821D01*
X201091372Y-123465821D01*
X200996134Y-123418202D01*
X200900896Y-123322964D01*
X200853277Y-123132488D01*
X200853277Y-122799155D01*
X200900896Y-122608679D01*
X200996134Y-122513441D01*
X201091372Y-122465821D01*
X201900896Y-123418202D02*
X202043753Y-123465821D01*
X202281848Y-123465821D01*
X202377087Y-123418202D01*
X202424706Y-123370583D01*
X202472325Y-123275345D01*
X202472325Y-123180107D01*
X202424706Y-123084869D01*
X202377087Y-123037250D01*
X202281848Y-122989631D01*
X202091372Y-122942012D01*
X201996134Y-122894393D01*
X201948515Y-122846774D01*
X201900896Y-122751536D01*
X201900896Y-122656298D01*
X201948515Y-122561060D01*
X201996134Y-122513441D01*
X202091372Y-122465821D01*
X202329468Y-122465821D01*
X202472325Y-122513441D01*
X202900896Y-123465821D02*
X202900896Y-122465821D01*
X200257712Y-119980831D02*
X200591046Y-120980831D01*
X200924379Y-119980831D01*
X201829141Y-120885593D02*
X201781522Y-120933212D01*
X201638665Y-120980831D01*
X201543426Y-120980831D01*
X201400569Y-120933212D01*
X201305331Y-120837974D01*
X201257712Y-120742736D01*
X201210093Y-120552260D01*
X201210093Y-120409403D01*
X201257712Y-120218927D01*
X201305331Y-120123689D01*
X201400569Y-120028451D01*
X201543426Y-119980831D01*
X201638665Y-119980831D01*
X201781522Y-120028451D01*
X201829141Y-120076070D01*
X202829141Y-120885593D02*
X202781522Y-120933212D01*
X202638665Y-120980831D01*
X202543426Y-120980831D01*
X202400569Y-120933212D01*
X202305331Y-120837974D01*
X202257712Y-120742736D01*
X202210093Y-120552260D01*
X202210093Y-120409403D01*
X202257712Y-120218927D01*
X202305331Y-120123689D01*
X202400569Y-120028451D01*
X202543426Y-119980831D01*
X202638665Y-119980831D01*
X202781522Y-120028451D01*
X202829141Y-120076070D01*
X212034821Y-128833630D02*
X211558630Y-128833630D01*
X211511011Y-129309821D01*
X211558630Y-129262202D01*
X211653869Y-129214583D01*
X211891964Y-129214583D01*
X211987202Y-129262202D01*
X212034821Y-129309821D01*
X212082440Y-129405059D01*
X212082440Y-129643154D01*
X212034821Y-129738392D01*
X211987202Y-129786011D01*
X211891964Y-129833630D01*
X211653869Y-129833630D01*
X211558630Y-129786011D01*
X211511011Y-129738392D01*
X212415773Y-129833630D02*
X212939583Y-129166964D01*
X212415773Y-129166964D02*
X212939583Y-129833630D01*
X213511011Y-128833630D02*
X213606250Y-128833630D01*
X213701488Y-128881250D01*
X213749107Y-128928869D01*
X213796726Y-129024107D01*
X213844345Y-129214583D01*
X213844345Y-129452678D01*
X213796726Y-129643154D01*
X213749107Y-129738392D01*
X213701488Y-129786011D01*
X213606250Y-129833630D01*
X213511011Y-129833630D01*
X213415773Y-129786011D01*
X213368154Y-129738392D01*
X213320535Y-129643154D01*
X213272916Y-129452678D01*
X213272916Y-129214583D01*
X213320535Y-129024107D01*
X213368154Y-128928869D01*
X213415773Y-128881250D01*
X213511011Y-128833630D01*
X214177678Y-128833630D02*
X214844345Y-128833630D01*
X214415773Y-129833630D01*
X215891964Y-129166964D02*
X216130059Y-129833630D01*
X216368154Y-129166964D01*
X216653869Y-128833630D02*
X217272916Y-128833630D01*
X216939583Y-129214583D01*
X217082440Y-129214583D01*
X217177678Y-129262202D01*
X217225297Y-129309821D01*
X217272916Y-129405059D01*
X217272916Y-129643154D01*
X217225297Y-129738392D01*
X217177678Y-129786011D01*
X217082440Y-129833630D01*
X216796726Y-129833630D01*
X216701488Y-129786011D01*
X216653869Y-129738392D01*
X217701488Y-129738392D02*
X217749107Y-129786011D01*
X217701488Y-129833630D01*
X217653869Y-129786011D01*
X217701488Y-129738392D01*
X217701488Y-129833630D01*
X218701488Y-129833630D02*
X218130059Y-129833630D01*
X218415773Y-129833630D02*
X218415773Y-128833630D01*
X218320535Y-128976488D01*
X218225297Y-129071726D01*
X218130059Y-129119345D01*
X208204827Y-121002629D02*
X208204827Y-120002629D01*
X208538160Y-120716915D01*
X208871494Y-120002629D01*
X208871494Y-121002629D01*
X209347684Y-121002629D02*
X209347684Y-120002629D01*
X209776256Y-120955010D02*
X209919113Y-121002629D01*
X210157208Y-121002629D01*
X210252446Y-120955010D01*
X210300065Y-120907391D01*
X210347684Y-120812153D01*
X210347684Y-120716915D01*
X210300065Y-120621677D01*
X210252446Y-120574058D01*
X210157208Y-120526439D01*
X209966732Y-120478820D01*
X209871494Y-120431201D01*
X209823875Y-120383582D01*
X209776256Y-120288344D01*
X209776256Y-120193106D01*
X209823875Y-120097868D01*
X209871494Y-120050249D01*
X209966732Y-120002629D01*
X210204827Y-120002629D01*
X210347684Y-120050249D01*
X210966732Y-120002629D02*
X211157208Y-120002629D01*
X211252446Y-120050249D01*
X211347684Y-120145487D01*
X211395303Y-120335963D01*
X211395303Y-120669296D01*
X211347684Y-120859772D01*
X211252446Y-120955010D01*
X211157208Y-121002629D01*
X210966732Y-121002629D01*
X210871494Y-120955010D01*
X210776256Y-120859772D01*
X210728636Y-120669296D01*
X210728636Y-120335963D01*
X210776256Y-120145487D01*
X210871494Y-120050249D01*
X210966732Y-120002629D01*
X208264285Y-123436011D02*
X208407142Y-123483630D01*
X208645238Y-123483630D01*
X208740476Y-123436011D01*
X208788095Y-123388392D01*
X208835714Y-123293154D01*
X208835714Y-123197916D01*
X208788095Y-123102678D01*
X208740476Y-123055059D01*
X208645238Y-123007440D01*
X208454761Y-122959821D01*
X208359523Y-122912202D01*
X208311904Y-122864583D01*
X208264285Y-122769345D01*
X208264285Y-122674107D01*
X208311904Y-122578869D01*
X208359523Y-122531250D01*
X208454761Y-122483630D01*
X208692857Y-122483630D01*
X208835714Y-122531250D01*
X209835714Y-123388392D02*
X209788095Y-123436011D01*
X209645238Y-123483630D01*
X209550000Y-123483630D01*
X209407142Y-123436011D01*
X209311904Y-123340773D01*
X209264285Y-123245535D01*
X209216666Y-123055059D01*
X209216666Y-122912202D01*
X209264285Y-122721726D01*
X209311904Y-122626488D01*
X209407142Y-122531250D01*
X209550000Y-122483630D01*
X209645238Y-122483630D01*
X209788095Y-122531250D01*
X209835714Y-122578869D01*
X210264285Y-123483630D02*
X210264285Y-122483630D01*
X210835714Y-123483630D02*
X210407142Y-122912202D01*
X210835714Y-122483630D02*
X210264285Y-123055059D01*
X200574830Y-125031129D02*
X200479592Y-124983509D01*
X200336735Y-124983509D01*
X200193877Y-125031129D01*
X200098639Y-125126367D01*
X200051020Y-125221605D01*
X200003401Y-125412081D01*
X200003401Y-125554938D01*
X200051020Y-125745414D01*
X200098639Y-125840652D01*
X200193877Y-125935890D01*
X200336735Y-125983509D01*
X200431973Y-125983509D01*
X200574830Y-125935890D01*
X200622449Y-125888271D01*
X200622449Y-125554938D01*
X200431973Y-125554938D01*
X201051020Y-125983509D02*
X201051020Y-124983509D01*
X201622449Y-125983509D01*
X201622449Y-124983509D01*
X202098639Y-125983509D02*
X202098639Y-124983509D01*
X202336735Y-124983509D01*
X202479592Y-125031129D01*
X202574830Y-125126367D01*
X202622449Y-125221605D01*
X202670068Y-125412081D01*
X202670068Y-125554938D01*
X202622449Y-125745414D01*
X202574830Y-125840652D01*
X202479592Y-125935890D01*
X202336735Y-125983509D01*
X202098639Y-125983509D01*
X209693452Y-130421130D02*
X210360119Y-130421130D01*
X209693452Y-131421130D01*
X210360119Y-131421130D01*
X210883928Y-131421130D02*
X210788690Y-131373511D01*
X210741071Y-131325892D01*
X210693452Y-131230654D01*
X210693452Y-130944940D01*
X210741071Y-130849702D01*
X210788690Y-130802083D01*
X210883928Y-130754464D01*
X211026785Y-130754464D01*
X211122023Y-130802083D01*
X211169642Y-130849702D01*
X211217261Y-130944940D01*
X211217261Y-131230654D01*
X211169642Y-131325892D01*
X211122023Y-131373511D01*
X211026785Y-131421130D01*
X210883928Y-131421130D01*
X211645833Y-131421130D02*
X211645833Y-130421130D01*
X211741071Y-131040178D02*
X212026785Y-131421130D01*
X212026785Y-130754464D02*
X211645833Y-131135416D01*
X212455357Y-131421130D02*
X212455357Y-130421130D01*
X212883928Y-131421130D02*
X212883928Y-130897321D01*
X212836309Y-130802083D01*
X212741071Y-130754464D01*
X212598214Y-130754464D01*
X212502976Y-130802083D01*
X212455357Y-130849702D01*
X213502976Y-131421130D02*
X213407738Y-131373511D01*
X213360119Y-131325892D01*
X213312500Y-131230654D01*
X213312500Y-130944940D01*
X213360119Y-130849702D01*
X213407738Y-130802083D01*
X213502976Y-130754464D01*
X213645833Y-130754464D01*
X213741071Y-130802083D01*
X213788690Y-130849702D01*
X213836309Y-130944940D01*
X213836309Y-131230654D01*
X213788690Y-131325892D01*
X213741071Y-131373511D01*
X213645833Y-131421130D01*
X213502976Y-131421130D01*
X214264880Y-131421130D02*
X214264880Y-130754464D01*
X214264880Y-130421130D02*
X214217261Y-130468750D01*
X214264880Y-130516369D01*
X214312500Y-130468750D01*
X214264880Y-130421130D01*
X214264880Y-130516369D01*
X215455357Y-130516369D02*
X215502976Y-130468750D01*
X215598214Y-130421130D01*
X215836309Y-130421130D01*
X215931547Y-130468750D01*
X215979166Y-130516369D01*
X216026785Y-130611607D01*
X216026785Y-130706845D01*
X215979166Y-130849702D01*
X215407738Y-131421130D01*
X216026785Y-131421130D01*
X216645833Y-130421130D02*
X216741071Y-130421130D01*
X216836309Y-130468750D01*
X216883928Y-130516369D01*
X216931547Y-130611607D01*
X216979166Y-130802083D01*
X216979166Y-131040178D01*
X216931547Y-131230654D01*
X216883928Y-131325892D01*
X216836309Y-131373511D01*
X216741071Y-131421130D01*
X216645833Y-131421130D01*
X216550595Y-131373511D01*
X216502976Y-131325892D01*
X216455357Y-131230654D01*
X216407738Y-131040178D01*
X216407738Y-130802083D01*
X216455357Y-130611607D01*
X216502976Y-130516369D01*
X216550595Y-130468750D01*
X216645833Y-130421130D01*
X217360119Y-130516369D02*
X217407738Y-130468750D01*
X217502976Y-130421130D01*
X217741071Y-130421130D01*
X217836309Y-130468750D01*
X217883928Y-130516369D01*
X217931547Y-130611607D01*
X217931547Y-130706845D01*
X217883928Y-130849702D01*
X217312500Y-131421130D01*
X217931547Y-131421130D01*
X218312500Y-130516369D02*
X218360119Y-130468750D01*
X218455357Y-130421130D01*
X218693452Y-130421130D01*
X218788690Y-130468750D01*
X218836309Y-130516369D01*
X218883928Y-130611607D01*
X218883928Y-130706845D01*
X218836309Y-130849702D01*
X218264880Y-131421130D01*
X218883928Y-131421130D01*
%TO.C,LED4*%
X116843869Y-37289880D02*
X116367678Y-37289880D01*
X116367678Y-36289880D01*
X117177202Y-36766071D02*
X117510535Y-36766071D01*
X117653392Y-37289880D02*
X117177202Y-37289880D01*
X117177202Y-36289880D01*
X117653392Y-36289880D01*
X118081964Y-37289880D02*
X118081964Y-36289880D01*
X118320059Y-36289880D01*
X118462916Y-36337500D01*
X118558154Y-36432738D01*
X118605773Y-36527976D01*
X118653392Y-36718452D01*
X118653392Y-36861309D01*
X118605773Y-37051785D01*
X118558154Y-37147023D01*
X118462916Y-37242261D01*
X118320059Y-37289880D01*
X118081964Y-37289880D01*
X119510535Y-36623214D02*
X119510535Y-37289880D01*
X119272440Y-36242261D02*
X119034345Y-36956547D01*
X119653392Y-36956547D01*
%TO.C,D22*%
X134183630Y-91701785D02*
X133183630Y-91701785D01*
X133183630Y-91463690D01*
X133231250Y-91320833D01*
X133326488Y-91225595D01*
X133421726Y-91177976D01*
X133612202Y-91130357D01*
X133755059Y-91130357D01*
X133945535Y-91177976D01*
X134040773Y-91225595D01*
X134136011Y-91320833D01*
X134183630Y-91463690D01*
X134183630Y-91701785D01*
X133278869Y-90749404D02*
X133231250Y-90701785D01*
X133183630Y-90606547D01*
X133183630Y-90368452D01*
X133231250Y-90273214D01*
X133278869Y-90225595D01*
X133374107Y-90177976D01*
X133469345Y-90177976D01*
X133612202Y-90225595D01*
X134183630Y-90797023D01*
X134183630Y-90177976D01*
X133278869Y-89797023D02*
X133231250Y-89749404D01*
X133183630Y-89654166D01*
X133183630Y-89416071D01*
X133231250Y-89320833D01*
X133278869Y-89273214D01*
X133374107Y-89225595D01*
X133469345Y-89225595D01*
X133612202Y-89273214D01*
X134183630Y-89844642D01*
X134183630Y-89225595D01*
%TO.C,LED19*%
X96785238Y-75389880D02*
X96309047Y-75389880D01*
X96309047Y-74389880D01*
X97118571Y-74866071D02*
X97451904Y-74866071D01*
X97594761Y-75389880D02*
X97118571Y-75389880D01*
X97118571Y-74389880D01*
X97594761Y-74389880D01*
X98023333Y-75389880D02*
X98023333Y-74389880D01*
X98261428Y-74389880D01*
X98404285Y-74437500D01*
X98499523Y-74532738D01*
X98547142Y-74627976D01*
X98594761Y-74818452D01*
X98594761Y-74961309D01*
X98547142Y-75151785D01*
X98499523Y-75247023D01*
X98404285Y-75342261D01*
X98261428Y-75389880D01*
X98023333Y-75389880D01*
X99547142Y-75389880D02*
X98975714Y-75389880D01*
X99261428Y-75389880D02*
X99261428Y-74389880D01*
X99166190Y-74532738D01*
X99070952Y-74627976D01*
X98975714Y-74675595D01*
X100023333Y-75389880D02*
X100213809Y-75389880D01*
X100309047Y-75342261D01*
X100356666Y-75294642D01*
X100451904Y-75151785D01*
X100499523Y-74961309D01*
X100499523Y-74580357D01*
X100451904Y-74485119D01*
X100404285Y-74437500D01*
X100309047Y-74389880D01*
X100118571Y-74389880D01*
X100023333Y-74437500D01*
X99975714Y-74485119D01*
X99928095Y-74580357D01*
X99928095Y-74818452D01*
X99975714Y-74913690D01*
X100023333Y-74961309D01*
X100118571Y-75008928D01*
X100309047Y-75008928D01*
X100404285Y-74961309D01*
X100451904Y-74913690D01*
X100499523Y-74818452D01*
%TO.C,D16*%
X57983630Y-72651785D02*
X56983630Y-72651785D01*
X56983630Y-72413690D01*
X57031250Y-72270833D01*
X57126488Y-72175595D01*
X57221726Y-72127976D01*
X57412202Y-72080357D01*
X57555059Y-72080357D01*
X57745535Y-72127976D01*
X57840773Y-72175595D01*
X57936011Y-72270833D01*
X57983630Y-72413690D01*
X57983630Y-72651785D01*
X57983630Y-71127976D02*
X57983630Y-71699404D01*
X57983630Y-71413690D02*
X56983630Y-71413690D01*
X57126488Y-71508928D01*
X57221726Y-71604166D01*
X57269345Y-71699404D01*
X56983630Y-70270833D02*
X56983630Y-70461309D01*
X57031250Y-70556547D01*
X57078869Y-70604166D01*
X57221726Y-70699404D01*
X57412202Y-70747023D01*
X57793154Y-70747023D01*
X57888392Y-70699404D01*
X57936011Y-70651785D01*
X57983630Y-70556547D01*
X57983630Y-70366071D01*
X57936011Y-70270833D01*
X57888392Y-70223214D01*
X57793154Y-70175595D01*
X57555059Y-70175595D01*
X57459821Y-70223214D01*
X57412202Y-70270833D01*
X57364583Y-70366071D01*
X57364583Y-70556547D01*
X57412202Y-70651785D01*
X57459821Y-70699404D01*
X57555059Y-70747023D01*
%TO.C,LED18*%
X115891488Y-75389880D02*
X115415297Y-75389880D01*
X115415297Y-74389880D01*
X116224821Y-74866071D02*
X116558154Y-74866071D01*
X116701011Y-75389880D02*
X116224821Y-75389880D01*
X116224821Y-74389880D01*
X116701011Y-74389880D01*
X117129583Y-75389880D02*
X117129583Y-74389880D01*
X117367678Y-74389880D01*
X117510535Y-74437500D01*
X117605773Y-74532738D01*
X117653392Y-74627976D01*
X117701011Y-74818452D01*
X117701011Y-74961309D01*
X117653392Y-75151785D01*
X117605773Y-75247023D01*
X117510535Y-75342261D01*
X117367678Y-75389880D01*
X117129583Y-75389880D01*
X118653392Y-75389880D02*
X118081964Y-75389880D01*
X118367678Y-75389880D02*
X118367678Y-74389880D01*
X118272440Y-74532738D01*
X118177202Y-74627976D01*
X118081964Y-74675595D01*
X119224821Y-74818452D02*
X119129583Y-74770833D01*
X119081964Y-74723214D01*
X119034345Y-74627976D01*
X119034345Y-74580357D01*
X119081964Y-74485119D01*
X119129583Y-74437500D01*
X119224821Y-74389880D01*
X119415297Y-74389880D01*
X119510535Y-74437500D01*
X119558154Y-74485119D01*
X119605773Y-74580357D01*
X119605773Y-74627976D01*
X119558154Y-74723214D01*
X119510535Y-74770833D01*
X119415297Y-74818452D01*
X119224821Y-74818452D01*
X119129583Y-74866071D01*
X119081964Y-74913690D01*
X119034345Y-75008928D01*
X119034345Y-75199404D01*
X119081964Y-75294642D01*
X119129583Y-75342261D01*
X119224821Y-75389880D01*
X119415297Y-75389880D01*
X119510535Y-75342261D01*
X119558154Y-75294642D01*
X119605773Y-75199404D01*
X119605773Y-75008928D01*
X119558154Y-74913690D01*
X119510535Y-74866071D01*
X119415297Y-74818452D01*
%TO.C,LED34*%
X77791488Y-113489880D02*
X77315297Y-113489880D01*
X77315297Y-112489880D01*
X78124821Y-112966071D02*
X78458154Y-112966071D01*
X78601011Y-113489880D02*
X78124821Y-113489880D01*
X78124821Y-112489880D01*
X78601011Y-112489880D01*
X79029583Y-113489880D02*
X79029583Y-112489880D01*
X79267678Y-112489880D01*
X79410535Y-112537500D01*
X79505773Y-112632738D01*
X79553392Y-112727976D01*
X79601011Y-112918452D01*
X79601011Y-113061309D01*
X79553392Y-113251785D01*
X79505773Y-113347023D01*
X79410535Y-113442261D01*
X79267678Y-113489880D01*
X79029583Y-113489880D01*
X79934345Y-112489880D02*
X80553392Y-112489880D01*
X80220059Y-112870833D01*
X80362916Y-112870833D01*
X80458154Y-112918452D01*
X80505773Y-112966071D01*
X80553392Y-113061309D01*
X80553392Y-113299404D01*
X80505773Y-113394642D01*
X80458154Y-113442261D01*
X80362916Y-113489880D01*
X80077202Y-113489880D01*
X79981964Y-113442261D01*
X79934345Y-113394642D01*
X81410535Y-112823214D02*
X81410535Y-113489880D01*
X81172440Y-112442261D02*
X80934345Y-113156547D01*
X81553392Y-113156547D01*
%TO.C,LED7*%
X59693869Y-37289880D02*
X59217678Y-37289880D01*
X59217678Y-36289880D01*
X60027202Y-36766071D02*
X60360535Y-36766071D01*
X60503392Y-37289880D02*
X60027202Y-37289880D01*
X60027202Y-36289880D01*
X60503392Y-36289880D01*
X60931964Y-37289880D02*
X60931964Y-36289880D01*
X61170059Y-36289880D01*
X61312916Y-36337500D01*
X61408154Y-36432738D01*
X61455773Y-36527976D01*
X61503392Y-36718452D01*
X61503392Y-36861309D01*
X61455773Y-37051785D01*
X61408154Y-37147023D01*
X61312916Y-37242261D01*
X61170059Y-37289880D01*
X60931964Y-37289880D01*
X61836726Y-36289880D02*
X62503392Y-36289880D01*
X62074821Y-37289880D01*
%TO.C,D20*%
X172283630Y-91701785D02*
X171283630Y-91701785D01*
X171283630Y-91463690D01*
X171331250Y-91320833D01*
X171426488Y-91225595D01*
X171521726Y-91177976D01*
X171712202Y-91130357D01*
X171855059Y-91130357D01*
X172045535Y-91177976D01*
X172140773Y-91225595D01*
X172236011Y-91320833D01*
X172283630Y-91463690D01*
X172283630Y-91701785D01*
X171378869Y-90749404D02*
X171331250Y-90701785D01*
X171283630Y-90606547D01*
X171283630Y-90368452D01*
X171331250Y-90273214D01*
X171378869Y-90225595D01*
X171474107Y-90177976D01*
X171569345Y-90177976D01*
X171712202Y-90225595D01*
X172283630Y-90797023D01*
X172283630Y-90177976D01*
X171283630Y-89558928D02*
X171283630Y-89463690D01*
X171331250Y-89368452D01*
X171378869Y-89320833D01*
X171474107Y-89273214D01*
X171664583Y-89225595D01*
X171902678Y-89225595D01*
X172093154Y-89273214D01*
X172188392Y-89320833D01*
X172236011Y-89368452D01*
X172283630Y-89463690D01*
X172283630Y-89558928D01*
X172236011Y-89654166D01*
X172188392Y-89701785D01*
X172093154Y-89749404D01*
X171902678Y-89797023D01*
X171664583Y-89797023D01*
X171474107Y-89749404D01*
X171378869Y-89701785D01*
X171331250Y-89654166D01*
X171283630Y-89558928D01*
%TO.C,C8*%
X213810763Y-58931401D02*
X213858382Y-58979020D01*
X213906001Y-59121877D01*
X213906001Y-59217115D01*
X213858382Y-59359973D01*
X213763144Y-59455211D01*
X213667906Y-59502830D01*
X213477430Y-59550449D01*
X213334573Y-59550449D01*
X213144097Y-59502830D01*
X213048859Y-59455211D01*
X212953621Y-59359973D01*
X212906001Y-59217115D01*
X212906001Y-59121877D01*
X212953621Y-58979020D01*
X213001240Y-58931401D01*
X213334573Y-58359973D02*
X213286954Y-58455211D01*
X213239335Y-58502830D01*
X213144097Y-58550449D01*
X213096478Y-58550449D01*
X213001240Y-58502830D01*
X212953621Y-58455211D01*
X212906001Y-58359973D01*
X212906001Y-58169496D01*
X212953621Y-58074258D01*
X213001240Y-58026639D01*
X213096478Y-57979020D01*
X213144097Y-57979020D01*
X213239335Y-58026639D01*
X213286954Y-58074258D01*
X213334573Y-58169496D01*
X213334573Y-58359973D01*
X213382192Y-58455211D01*
X213429811Y-58502830D01*
X213525049Y-58550449D01*
X213715525Y-58550449D01*
X213810763Y-58502830D01*
X213858382Y-58455211D01*
X213906001Y-58359973D01*
X213906001Y-58169496D01*
X213858382Y-58074258D01*
X213810763Y-58026639D01*
X213715525Y-57979020D01*
X213525049Y-57979020D01*
X213429811Y-58026639D01*
X213382192Y-58074258D01*
X213334573Y-58169496D01*
%TO.C,D40*%
X172283630Y-129801785D02*
X171283630Y-129801785D01*
X171283630Y-129563690D01*
X171331250Y-129420833D01*
X171426488Y-129325595D01*
X171521726Y-129277976D01*
X171712202Y-129230357D01*
X171855059Y-129230357D01*
X172045535Y-129277976D01*
X172140773Y-129325595D01*
X172236011Y-129420833D01*
X172283630Y-129563690D01*
X172283630Y-129801785D01*
X171616964Y-128373214D02*
X172283630Y-128373214D01*
X171236011Y-128611309D02*
X171950297Y-128849404D01*
X171950297Y-128230357D01*
X171283630Y-127658928D02*
X171283630Y-127563690D01*
X171331250Y-127468452D01*
X171378869Y-127420833D01*
X171474107Y-127373214D01*
X171664583Y-127325595D01*
X171902678Y-127325595D01*
X172093154Y-127373214D01*
X172188392Y-127420833D01*
X172236011Y-127468452D01*
X172283630Y-127563690D01*
X172283630Y-127658928D01*
X172236011Y-127754166D01*
X172188392Y-127801785D01*
X172093154Y-127849404D01*
X171902678Y-127897023D01*
X171664583Y-127897023D01*
X171474107Y-127849404D01*
X171378869Y-127801785D01*
X171331250Y-127754166D01*
X171283630Y-127658928D01*
%TO.C,D2*%
X134183630Y-53125595D02*
X133183630Y-53125595D01*
X133183630Y-52887500D01*
X133231250Y-52744642D01*
X133326488Y-52649404D01*
X133421726Y-52601785D01*
X133612202Y-52554166D01*
X133755059Y-52554166D01*
X133945535Y-52601785D01*
X134040773Y-52649404D01*
X134136011Y-52744642D01*
X134183630Y-52887500D01*
X134183630Y-53125595D01*
X133278869Y-52173214D02*
X133231250Y-52125595D01*
X133183630Y-52030357D01*
X133183630Y-51792261D01*
X133231250Y-51697023D01*
X133278869Y-51649404D01*
X133374107Y-51601785D01*
X133469345Y-51601785D01*
X133612202Y-51649404D01*
X134183630Y-52220833D01*
X134183630Y-51601785D01*
%TO.C,LED20*%
X77791488Y-75389880D02*
X77315297Y-75389880D01*
X77315297Y-74389880D01*
X78124821Y-74866071D02*
X78458154Y-74866071D01*
X78601011Y-75389880D02*
X78124821Y-75389880D01*
X78124821Y-74389880D01*
X78601011Y-74389880D01*
X79029583Y-75389880D02*
X79029583Y-74389880D01*
X79267678Y-74389880D01*
X79410535Y-74437500D01*
X79505773Y-74532738D01*
X79553392Y-74627976D01*
X79601011Y-74818452D01*
X79601011Y-74961309D01*
X79553392Y-75151785D01*
X79505773Y-75247023D01*
X79410535Y-75342261D01*
X79267678Y-75389880D01*
X79029583Y-75389880D01*
X79981964Y-74485119D02*
X80029583Y-74437500D01*
X80124821Y-74389880D01*
X80362916Y-74389880D01*
X80458154Y-74437500D01*
X80505773Y-74485119D01*
X80553392Y-74580357D01*
X80553392Y-74675595D01*
X80505773Y-74818452D01*
X79934345Y-75389880D01*
X80553392Y-75389880D01*
X81172440Y-74389880D02*
X81267678Y-74389880D01*
X81362916Y-74437500D01*
X81410535Y-74485119D01*
X81458154Y-74580357D01*
X81505773Y-74770833D01*
X81505773Y-75008928D01*
X81458154Y-75199404D01*
X81410535Y-75294642D01*
X81362916Y-75342261D01*
X81267678Y-75389880D01*
X81172440Y-75389880D01*
X81077202Y-75342261D01*
X81029583Y-75294642D01*
X80981964Y-75199404D01*
X80934345Y-75008928D01*
X80934345Y-74770833D01*
X80981964Y-74580357D01*
X81029583Y-74485119D01*
X81077202Y-74437500D01*
X81172440Y-74389880D01*
%TO.C,D13*%
X115133630Y-72651785D02*
X114133630Y-72651785D01*
X114133630Y-72413690D01*
X114181250Y-72270833D01*
X114276488Y-72175595D01*
X114371726Y-72127976D01*
X114562202Y-72080357D01*
X114705059Y-72080357D01*
X114895535Y-72127976D01*
X114990773Y-72175595D01*
X115086011Y-72270833D01*
X115133630Y-72413690D01*
X115133630Y-72651785D01*
X115133630Y-71127976D02*
X115133630Y-71699404D01*
X115133630Y-71413690D02*
X114133630Y-71413690D01*
X114276488Y-71508928D01*
X114371726Y-71604166D01*
X114419345Y-71699404D01*
X114133630Y-70794642D02*
X114133630Y-70175595D01*
X114514583Y-70508928D01*
X114514583Y-70366071D01*
X114562202Y-70270833D01*
X114609821Y-70223214D01*
X114705059Y-70175595D01*
X114943154Y-70175595D01*
X115038392Y-70223214D01*
X115086011Y-70270833D01*
X115133630Y-70366071D01*
X115133630Y-70651785D01*
X115086011Y-70747023D01*
X115038392Y-70794642D01*
%TO.C,R7*%
X193804120Y-49397045D02*
X193327930Y-49730379D01*
X193804120Y-49968474D02*
X192804120Y-49968474D01*
X192804120Y-49587521D01*
X192851740Y-49492283D01*
X192899359Y-49444664D01*
X192994597Y-49397045D01*
X193137454Y-49397045D01*
X193232692Y-49444664D01*
X193280311Y-49492283D01*
X193327930Y-49587521D01*
X193327930Y-49968474D01*
X192804120Y-49063712D02*
X192804120Y-48397045D01*
X193804120Y-48825617D01*
%TO.C,F1*%
X212291666Y-51289821D02*
X211958333Y-51289821D01*
X211958333Y-51813630D02*
X211958333Y-50813630D01*
X212434523Y-50813630D01*
X213339285Y-51813630D02*
X212767857Y-51813630D01*
X213053571Y-51813630D02*
X213053571Y-50813630D01*
X212958333Y-50956488D01*
X212863095Y-51051726D01*
X212767857Y-51099345D01*
%TO.C,USB1*%
X201461904Y-40036130D02*
X201461904Y-40845654D01*
X201509523Y-40940892D01*
X201557142Y-40988511D01*
X201652380Y-41036130D01*
X201842857Y-41036130D01*
X201938095Y-40988511D01*
X201985714Y-40940892D01*
X202033333Y-40845654D01*
X202033333Y-40036130D01*
X202461904Y-40988511D02*
X202604761Y-41036130D01*
X202842857Y-41036130D01*
X202938095Y-40988511D01*
X202985714Y-40940892D01*
X203033333Y-40845654D01*
X203033333Y-40750416D01*
X202985714Y-40655178D01*
X202938095Y-40607559D01*
X202842857Y-40559940D01*
X202652380Y-40512321D01*
X202557142Y-40464702D01*
X202509523Y-40417083D01*
X202461904Y-40321845D01*
X202461904Y-40226607D01*
X202509523Y-40131369D01*
X202557142Y-40083750D01*
X202652380Y-40036130D01*
X202890476Y-40036130D01*
X203033333Y-40083750D01*
X203795238Y-40512321D02*
X203938095Y-40559940D01*
X203985714Y-40607559D01*
X204033333Y-40702797D01*
X204033333Y-40845654D01*
X203985714Y-40940892D01*
X203938095Y-40988511D01*
X203842857Y-41036130D01*
X203461904Y-41036130D01*
X203461904Y-40036130D01*
X203795238Y-40036130D01*
X203890476Y-40083750D01*
X203938095Y-40131369D01*
X203985714Y-40226607D01*
X203985714Y-40321845D01*
X203938095Y-40417083D01*
X203890476Y-40464702D01*
X203795238Y-40512321D01*
X203461904Y-40512321D01*
X204985714Y-41036130D02*
X204414285Y-41036130D01*
X204700000Y-41036130D02*
X204700000Y-40036130D01*
X204604761Y-40178988D01*
X204509523Y-40274226D01*
X204414285Y-40321845D01*
%TO.C,D23*%
X115133630Y-91701785D02*
X114133630Y-91701785D01*
X114133630Y-91463690D01*
X114181250Y-91320833D01*
X114276488Y-91225595D01*
X114371726Y-91177976D01*
X114562202Y-91130357D01*
X114705059Y-91130357D01*
X114895535Y-91177976D01*
X114990773Y-91225595D01*
X115086011Y-91320833D01*
X115133630Y-91463690D01*
X115133630Y-91701785D01*
X114228869Y-90749404D02*
X114181250Y-90701785D01*
X114133630Y-90606547D01*
X114133630Y-90368452D01*
X114181250Y-90273214D01*
X114228869Y-90225595D01*
X114324107Y-90177976D01*
X114419345Y-90177976D01*
X114562202Y-90225595D01*
X115133630Y-90797023D01*
X115133630Y-90177976D01*
X114133630Y-89844642D02*
X114133630Y-89225595D01*
X114514583Y-89558928D01*
X114514583Y-89416071D01*
X114562202Y-89320833D01*
X114609821Y-89273214D01*
X114705059Y-89225595D01*
X114943154Y-89225595D01*
X115038392Y-89273214D01*
X115086011Y-89320833D01*
X115133630Y-89416071D01*
X115133630Y-89701785D01*
X115086011Y-89797023D01*
X115038392Y-89844642D01*
%TO.C,D10*%
X172283630Y-72651785D02*
X171283630Y-72651785D01*
X171283630Y-72413690D01*
X171331250Y-72270833D01*
X171426488Y-72175595D01*
X171521726Y-72127976D01*
X171712202Y-72080357D01*
X171855059Y-72080357D01*
X172045535Y-72127976D01*
X172140773Y-72175595D01*
X172236011Y-72270833D01*
X172283630Y-72413690D01*
X172283630Y-72651785D01*
X172283630Y-71127976D02*
X172283630Y-71699404D01*
X172283630Y-71413690D02*
X171283630Y-71413690D01*
X171426488Y-71508928D01*
X171521726Y-71604166D01*
X171569345Y-71699404D01*
X171283630Y-70508928D02*
X171283630Y-70413690D01*
X171331250Y-70318452D01*
X171378869Y-70270833D01*
X171474107Y-70223214D01*
X171664583Y-70175595D01*
X171902678Y-70175595D01*
X172093154Y-70223214D01*
X172188392Y-70270833D01*
X172236011Y-70318452D01*
X172283630Y-70413690D01*
X172283630Y-70508928D01*
X172236011Y-70604166D01*
X172188392Y-70651785D01*
X172093154Y-70699404D01*
X171902678Y-70747023D01*
X171664583Y-70747023D01*
X171474107Y-70699404D01*
X171378869Y-70651785D01*
X171331250Y-70604166D01*
X171283630Y-70508928D01*
%TO.C,D35*%
X77033630Y-110751785D02*
X76033630Y-110751785D01*
X76033630Y-110513690D01*
X76081250Y-110370833D01*
X76176488Y-110275595D01*
X76271726Y-110227976D01*
X76462202Y-110180357D01*
X76605059Y-110180357D01*
X76795535Y-110227976D01*
X76890773Y-110275595D01*
X76986011Y-110370833D01*
X77033630Y-110513690D01*
X77033630Y-110751785D01*
X76033630Y-109847023D02*
X76033630Y-109227976D01*
X76414583Y-109561309D01*
X76414583Y-109418452D01*
X76462202Y-109323214D01*
X76509821Y-109275595D01*
X76605059Y-109227976D01*
X76843154Y-109227976D01*
X76938392Y-109275595D01*
X76986011Y-109323214D01*
X77033630Y-109418452D01*
X77033630Y-109704166D01*
X76986011Y-109799404D01*
X76938392Y-109847023D01*
X76033630Y-108323214D02*
X76033630Y-108799404D01*
X76509821Y-108847023D01*
X76462202Y-108799404D01*
X76414583Y-108704166D01*
X76414583Y-108466071D01*
X76462202Y-108370833D01*
X76509821Y-108323214D01*
X76605059Y-108275595D01*
X76843154Y-108275595D01*
X76938392Y-108323214D01*
X76986011Y-108370833D01*
X77033630Y-108466071D01*
X77033630Y-108704166D01*
X76986011Y-108799404D01*
X76938392Y-108847023D01*
%TO.C,LED11*%
X115891488Y-56339880D02*
X115415297Y-56339880D01*
X115415297Y-55339880D01*
X116224821Y-55816071D02*
X116558154Y-55816071D01*
X116701011Y-56339880D02*
X116224821Y-56339880D01*
X116224821Y-55339880D01*
X116701011Y-55339880D01*
X117129583Y-56339880D02*
X117129583Y-55339880D01*
X117367678Y-55339880D01*
X117510535Y-55387500D01*
X117605773Y-55482738D01*
X117653392Y-55577976D01*
X117701011Y-55768452D01*
X117701011Y-55911309D01*
X117653392Y-56101785D01*
X117605773Y-56197023D01*
X117510535Y-56292261D01*
X117367678Y-56339880D01*
X117129583Y-56339880D01*
X118653392Y-56339880D02*
X118081964Y-56339880D01*
X118367678Y-56339880D02*
X118367678Y-55339880D01*
X118272440Y-55482738D01*
X118177202Y-55577976D01*
X118081964Y-55625595D01*
X119605773Y-56339880D02*
X119034345Y-56339880D01*
X119320059Y-56339880D02*
X119320059Y-55339880D01*
X119224821Y-55482738D01*
X119129583Y-55577976D01*
X119034345Y-55625595D01*
%TO.C,R5*%
X205239880Y-58904166D02*
X204763690Y-59237500D01*
X205239880Y-59475595D02*
X204239880Y-59475595D01*
X204239880Y-59094642D01*
X204287500Y-58999404D01*
X204335119Y-58951785D01*
X204430357Y-58904166D01*
X204573214Y-58904166D01*
X204668452Y-58951785D01*
X204716071Y-58999404D01*
X204763690Y-59094642D01*
X204763690Y-59475595D01*
X204239880Y-57999404D02*
X204239880Y-58475595D01*
X204716071Y-58523214D01*
X204668452Y-58475595D01*
X204620833Y-58380357D01*
X204620833Y-58142261D01*
X204668452Y-58047023D01*
X204716071Y-57999404D01*
X204811309Y-57951785D01*
X205049404Y-57951785D01*
X205144642Y-57999404D01*
X205192261Y-58047023D01*
X205239880Y-58142261D01*
X205239880Y-58380357D01*
X205192261Y-58475595D01*
X205144642Y-58523214D01*
%TO.C,D31*%
X153233630Y-110751785D02*
X152233630Y-110751785D01*
X152233630Y-110513690D01*
X152281250Y-110370833D01*
X152376488Y-110275595D01*
X152471726Y-110227976D01*
X152662202Y-110180357D01*
X152805059Y-110180357D01*
X152995535Y-110227976D01*
X153090773Y-110275595D01*
X153186011Y-110370833D01*
X153233630Y-110513690D01*
X153233630Y-110751785D01*
X152233630Y-109847023D02*
X152233630Y-109227976D01*
X152614583Y-109561309D01*
X152614583Y-109418452D01*
X152662202Y-109323214D01*
X152709821Y-109275595D01*
X152805059Y-109227976D01*
X153043154Y-109227976D01*
X153138392Y-109275595D01*
X153186011Y-109323214D01*
X153233630Y-109418452D01*
X153233630Y-109704166D01*
X153186011Y-109799404D01*
X153138392Y-109847023D01*
X153233630Y-108275595D02*
X153233630Y-108847023D01*
X153233630Y-108561309D02*
X152233630Y-108561309D01*
X152376488Y-108656547D01*
X152471726Y-108751785D01*
X152519345Y-108847023D01*
%TO.C,D3*%
X115133630Y-53125595D02*
X114133630Y-53125595D01*
X114133630Y-52887500D01*
X114181250Y-52744642D01*
X114276488Y-52649404D01*
X114371726Y-52601785D01*
X114562202Y-52554166D01*
X114705059Y-52554166D01*
X114895535Y-52601785D01*
X114990773Y-52649404D01*
X115086011Y-52744642D01*
X115133630Y-52887500D01*
X115133630Y-53125595D01*
X114133630Y-52220833D02*
X114133630Y-51601785D01*
X114514583Y-51935119D01*
X114514583Y-51792261D01*
X114562202Y-51697023D01*
X114609821Y-51649404D01*
X114705059Y-51601785D01*
X114943154Y-51601785D01*
X115038392Y-51649404D01*
X115086011Y-51697023D01*
X115133630Y-51792261D01*
X115133630Y-52077976D01*
X115086011Y-52173214D01*
X115038392Y-52220833D01*
%TO.C,D15*%
X77033630Y-72651785D02*
X76033630Y-72651785D01*
X76033630Y-72413690D01*
X76081250Y-72270833D01*
X76176488Y-72175595D01*
X76271726Y-72127976D01*
X76462202Y-72080357D01*
X76605059Y-72080357D01*
X76795535Y-72127976D01*
X76890773Y-72175595D01*
X76986011Y-72270833D01*
X77033630Y-72413690D01*
X77033630Y-72651785D01*
X77033630Y-71127976D02*
X77033630Y-71699404D01*
X77033630Y-71413690D02*
X76033630Y-71413690D01*
X76176488Y-71508928D01*
X76271726Y-71604166D01*
X76319345Y-71699404D01*
X76033630Y-70223214D02*
X76033630Y-70699404D01*
X76509821Y-70747023D01*
X76462202Y-70699404D01*
X76414583Y-70604166D01*
X76414583Y-70366071D01*
X76462202Y-70270833D01*
X76509821Y-70223214D01*
X76605059Y-70175595D01*
X76843154Y-70175595D01*
X76938392Y-70223214D01*
X76986011Y-70270833D01*
X77033630Y-70366071D01*
X77033630Y-70604166D01*
X76986011Y-70699404D01*
X76938392Y-70747023D01*
%TO.C,D34*%
X96083630Y-110751785D02*
X95083630Y-110751785D01*
X95083630Y-110513690D01*
X95131250Y-110370833D01*
X95226488Y-110275595D01*
X95321726Y-110227976D01*
X95512202Y-110180357D01*
X95655059Y-110180357D01*
X95845535Y-110227976D01*
X95940773Y-110275595D01*
X96036011Y-110370833D01*
X96083630Y-110513690D01*
X96083630Y-110751785D01*
X95083630Y-109847023D02*
X95083630Y-109227976D01*
X95464583Y-109561309D01*
X95464583Y-109418452D01*
X95512202Y-109323214D01*
X95559821Y-109275595D01*
X95655059Y-109227976D01*
X95893154Y-109227976D01*
X95988392Y-109275595D01*
X96036011Y-109323214D01*
X96083630Y-109418452D01*
X96083630Y-109704166D01*
X96036011Y-109799404D01*
X95988392Y-109847023D01*
X95416964Y-108370833D02*
X96083630Y-108370833D01*
X95036011Y-108608928D02*
X95750297Y-108847023D01*
X95750297Y-108227976D01*
%TO.C,LED35*%
X58741488Y-113489880D02*
X58265297Y-113489880D01*
X58265297Y-112489880D01*
X59074821Y-112966071D02*
X59408154Y-112966071D01*
X59551011Y-113489880D02*
X59074821Y-113489880D01*
X59074821Y-112489880D01*
X59551011Y-112489880D01*
X59979583Y-113489880D02*
X59979583Y-112489880D01*
X60217678Y-112489880D01*
X60360535Y-112537500D01*
X60455773Y-112632738D01*
X60503392Y-112727976D01*
X60551011Y-112918452D01*
X60551011Y-113061309D01*
X60503392Y-113251785D01*
X60455773Y-113347023D01*
X60360535Y-113442261D01*
X60217678Y-113489880D01*
X59979583Y-113489880D01*
X60884345Y-112489880D02*
X61503392Y-112489880D01*
X61170059Y-112870833D01*
X61312916Y-112870833D01*
X61408154Y-112918452D01*
X61455773Y-112966071D01*
X61503392Y-113061309D01*
X61503392Y-113299404D01*
X61455773Y-113394642D01*
X61408154Y-113442261D01*
X61312916Y-113489880D01*
X61027202Y-113489880D01*
X60931964Y-113442261D01*
X60884345Y-113394642D01*
X62408154Y-112489880D02*
X61931964Y-112489880D01*
X61884345Y-112966071D01*
X61931964Y-112918452D01*
X62027202Y-112870833D01*
X62265297Y-112870833D01*
X62360535Y-112918452D01*
X62408154Y-112966071D01*
X62455773Y-113061309D01*
X62455773Y-113299404D01*
X62408154Y-113394642D01*
X62360535Y-113442261D01*
X62265297Y-113489880D01*
X62027202Y-113489880D01*
X61931964Y-113442261D01*
X61884345Y-113394642D01*
%TO.C,D46*%
X62364880Y-129008035D02*
X61364880Y-129008035D01*
X61364880Y-128769940D01*
X61412500Y-128627083D01*
X61507738Y-128531845D01*
X61602976Y-128484226D01*
X61793452Y-128436607D01*
X61936309Y-128436607D01*
X62126785Y-128484226D01*
X62222023Y-128531845D01*
X62317261Y-128627083D01*
X62364880Y-128769940D01*
X62364880Y-129008035D01*
X61698214Y-127579464D02*
X62364880Y-127579464D01*
X61317261Y-127817559D02*
X62031547Y-128055654D01*
X62031547Y-127436607D01*
X61364880Y-126627083D02*
X61364880Y-126817559D01*
X61412500Y-126912797D01*
X61460119Y-126960416D01*
X61602976Y-127055654D01*
X61793452Y-127103273D01*
X62174404Y-127103273D01*
X62269642Y-127055654D01*
X62317261Y-127008035D01*
X62364880Y-126912797D01*
X62364880Y-126722321D01*
X62317261Y-126627083D01*
X62269642Y-126579464D01*
X62174404Y-126531845D01*
X61936309Y-126531845D01*
X61841071Y-126579464D01*
X61793452Y-126627083D01*
X61745833Y-126722321D01*
X61745833Y-126912797D01*
X61793452Y-127008035D01*
X61841071Y-127055654D01*
X61936309Y-127103273D01*
%TO.C,C3*%
X200382142Y-58904166D02*
X200429761Y-58951785D01*
X200477380Y-59094642D01*
X200477380Y-59189880D01*
X200429761Y-59332738D01*
X200334523Y-59427976D01*
X200239285Y-59475595D01*
X200048809Y-59523214D01*
X199905952Y-59523214D01*
X199715476Y-59475595D01*
X199620238Y-59427976D01*
X199525000Y-59332738D01*
X199477380Y-59189880D01*
X199477380Y-59094642D01*
X199525000Y-58951785D01*
X199572619Y-58904166D01*
X199477380Y-58570833D02*
X199477380Y-57951785D01*
X199858333Y-58285119D01*
X199858333Y-58142261D01*
X199905952Y-58047023D01*
X199953571Y-57999404D01*
X200048809Y-57951785D01*
X200286904Y-57951785D01*
X200382142Y-57999404D01*
X200429761Y-58047023D01*
X200477380Y-58142261D01*
X200477380Y-58427976D01*
X200429761Y-58523214D01*
X200382142Y-58570833D01*
%TO.C,D36*%
X57983630Y-110751785D02*
X56983630Y-110751785D01*
X56983630Y-110513690D01*
X57031250Y-110370833D01*
X57126488Y-110275595D01*
X57221726Y-110227976D01*
X57412202Y-110180357D01*
X57555059Y-110180357D01*
X57745535Y-110227976D01*
X57840773Y-110275595D01*
X57936011Y-110370833D01*
X57983630Y-110513690D01*
X57983630Y-110751785D01*
X56983630Y-109847023D02*
X56983630Y-109227976D01*
X57364583Y-109561309D01*
X57364583Y-109418452D01*
X57412202Y-109323214D01*
X57459821Y-109275595D01*
X57555059Y-109227976D01*
X57793154Y-109227976D01*
X57888392Y-109275595D01*
X57936011Y-109323214D01*
X57983630Y-109418452D01*
X57983630Y-109704166D01*
X57936011Y-109799404D01*
X57888392Y-109847023D01*
X56983630Y-108370833D02*
X56983630Y-108561309D01*
X57031250Y-108656547D01*
X57078869Y-108704166D01*
X57221726Y-108799404D01*
X57412202Y-108847023D01*
X57793154Y-108847023D01*
X57888392Y-108799404D01*
X57936011Y-108751785D01*
X57983630Y-108656547D01*
X57983630Y-108466071D01*
X57936011Y-108370833D01*
X57888392Y-108323214D01*
X57793154Y-108275595D01*
X57555059Y-108275595D01*
X57459821Y-108323214D01*
X57412202Y-108370833D01*
X57364583Y-108466071D01*
X57364583Y-108656547D01*
X57412202Y-108751785D01*
X57459821Y-108799404D01*
X57555059Y-108847023D01*
%TO.C,C4*%
X200669460Y-81589966D02*
X200621841Y-81637585D01*
X200478984Y-81685204D01*
X200383746Y-81685204D01*
X200240888Y-81637585D01*
X200145650Y-81542347D01*
X200098031Y-81447109D01*
X200050412Y-81256633D01*
X200050412Y-81113776D01*
X200098031Y-80923300D01*
X200145650Y-80828062D01*
X200240888Y-80732824D01*
X200383746Y-80685204D01*
X200478984Y-80685204D01*
X200621841Y-80732824D01*
X200669460Y-80780443D01*
X201526603Y-81018538D02*
X201526603Y-81685204D01*
X201288507Y-80637585D02*
X201050412Y-81351871D01*
X201669460Y-81351871D01*
%TO.C,C5*%
X214577142Y-73985416D02*
X214624761Y-74033035D01*
X214672380Y-74175892D01*
X214672380Y-74271130D01*
X214624761Y-74413988D01*
X214529523Y-74509226D01*
X214434285Y-74556845D01*
X214243809Y-74604464D01*
X214100952Y-74604464D01*
X213910476Y-74556845D01*
X213815238Y-74509226D01*
X213720000Y-74413988D01*
X213672380Y-74271130D01*
X213672380Y-74175892D01*
X213720000Y-74033035D01*
X213767619Y-73985416D01*
X213672380Y-73080654D02*
X213672380Y-73556845D01*
X214148571Y-73604464D01*
X214100952Y-73556845D01*
X214053333Y-73461607D01*
X214053333Y-73223511D01*
X214100952Y-73128273D01*
X214148571Y-73080654D01*
X214243809Y-73033035D01*
X214481904Y-73033035D01*
X214577142Y-73080654D01*
X214624761Y-73128273D01*
X214672380Y-73223511D01*
X214672380Y-73461607D01*
X214624761Y-73556845D01*
X214577142Y-73604464D01*
%TO.C,C6*%
X198093392Y-68429166D02*
X198141011Y-68476785D01*
X198188630Y-68619642D01*
X198188630Y-68714880D01*
X198141011Y-68857738D01*
X198045773Y-68952976D01*
X197950535Y-69000595D01*
X197760059Y-69048214D01*
X197617202Y-69048214D01*
X197426726Y-69000595D01*
X197331488Y-68952976D01*
X197236250Y-68857738D01*
X197188630Y-68714880D01*
X197188630Y-68619642D01*
X197236250Y-68476785D01*
X197283869Y-68429166D01*
X197188630Y-67572023D02*
X197188630Y-67762500D01*
X197236250Y-67857738D01*
X197283869Y-67905357D01*
X197426726Y-68000595D01*
X197617202Y-68048214D01*
X197998154Y-68048214D01*
X198093392Y-68000595D01*
X198141011Y-67952976D01*
X198188630Y-67857738D01*
X198188630Y-67667261D01*
X198141011Y-67572023D01*
X198093392Y-67524404D01*
X197998154Y-67476785D01*
X197760059Y-67476785D01*
X197664821Y-67524404D01*
X197617202Y-67572023D01*
X197569583Y-67667261D01*
X197569583Y-67857738D01*
X197617202Y-67952976D01*
X197664821Y-68000595D01*
X197760059Y-68048214D01*
%TO.C,LED5*%
X97737619Y-37289880D02*
X97261428Y-37289880D01*
X97261428Y-36289880D01*
X98070952Y-36766071D02*
X98404285Y-36766071D01*
X98547142Y-37289880D02*
X98070952Y-37289880D01*
X98070952Y-36289880D01*
X98547142Y-36289880D01*
X98975714Y-37289880D02*
X98975714Y-36289880D01*
X99213809Y-36289880D01*
X99356666Y-36337500D01*
X99451904Y-36432738D01*
X99499523Y-36527976D01*
X99547142Y-36718452D01*
X99547142Y-36861309D01*
X99499523Y-37051785D01*
X99451904Y-37147023D01*
X99356666Y-37242261D01*
X99213809Y-37289880D01*
X98975714Y-37289880D01*
X100451904Y-36289880D02*
X99975714Y-36289880D01*
X99928095Y-36766071D01*
X99975714Y-36718452D01*
X100070952Y-36670833D01*
X100309047Y-36670833D01*
X100404285Y-36718452D01*
X100451904Y-36766071D01*
X100499523Y-36861309D01*
X100499523Y-37099404D01*
X100451904Y-37194642D01*
X100404285Y-37242261D01*
X100309047Y-37289880D01*
X100070952Y-37289880D01*
X99975714Y-37242261D01*
X99928095Y-37194642D01*
%TO.C,LED24*%
X134941488Y-94439880D02*
X134465297Y-94439880D01*
X134465297Y-93439880D01*
X135274821Y-93916071D02*
X135608154Y-93916071D01*
X135751011Y-94439880D02*
X135274821Y-94439880D01*
X135274821Y-93439880D01*
X135751011Y-93439880D01*
X136179583Y-94439880D02*
X136179583Y-93439880D01*
X136417678Y-93439880D01*
X136560535Y-93487500D01*
X136655773Y-93582738D01*
X136703392Y-93677976D01*
X136751011Y-93868452D01*
X136751011Y-94011309D01*
X136703392Y-94201785D01*
X136655773Y-94297023D01*
X136560535Y-94392261D01*
X136417678Y-94439880D01*
X136179583Y-94439880D01*
X137131964Y-93535119D02*
X137179583Y-93487500D01*
X137274821Y-93439880D01*
X137512916Y-93439880D01*
X137608154Y-93487500D01*
X137655773Y-93535119D01*
X137703392Y-93630357D01*
X137703392Y-93725595D01*
X137655773Y-93868452D01*
X137084345Y-94439880D01*
X137703392Y-94439880D01*
X138560535Y-93773214D02*
X138560535Y-94439880D01*
X138322440Y-93392261D02*
X138084345Y-94106547D01*
X138703392Y-94106547D01*
%TO.C,LED13*%
X77791488Y-56339880D02*
X77315297Y-56339880D01*
X77315297Y-55339880D01*
X78124821Y-55816071D02*
X78458154Y-55816071D01*
X78601011Y-56339880D02*
X78124821Y-56339880D01*
X78124821Y-55339880D01*
X78601011Y-55339880D01*
X79029583Y-56339880D02*
X79029583Y-55339880D01*
X79267678Y-55339880D01*
X79410535Y-55387500D01*
X79505773Y-55482738D01*
X79553392Y-55577976D01*
X79601011Y-55768452D01*
X79601011Y-55911309D01*
X79553392Y-56101785D01*
X79505773Y-56197023D01*
X79410535Y-56292261D01*
X79267678Y-56339880D01*
X79029583Y-56339880D01*
X80553392Y-56339880D02*
X79981964Y-56339880D01*
X80267678Y-56339880D02*
X80267678Y-55339880D01*
X80172440Y-55482738D01*
X80077202Y-55577976D01*
X79981964Y-55625595D01*
X80886726Y-55339880D02*
X81505773Y-55339880D01*
X81172440Y-55720833D01*
X81315297Y-55720833D01*
X81410535Y-55768452D01*
X81458154Y-55816071D01*
X81505773Y-55911309D01*
X81505773Y-56149404D01*
X81458154Y-56244642D01*
X81410535Y-56292261D01*
X81315297Y-56339880D01*
X81029583Y-56339880D01*
X80934345Y-56292261D01*
X80886726Y-56244642D01*
%TO.C,D6*%
X57983630Y-53125595D02*
X56983630Y-53125595D01*
X56983630Y-52887500D01*
X57031250Y-52744642D01*
X57126488Y-52649404D01*
X57221726Y-52601785D01*
X57412202Y-52554166D01*
X57555059Y-52554166D01*
X57745535Y-52601785D01*
X57840773Y-52649404D01*
X57936011Y-52744642D01*
X57983630Y-52887500D01*
X57983630Y-53125595D01*
X56983630Y-51697023D02*
X56983630Y-51887500D01*
X57031250Y-51982738D01*
X57078869Y-52030357D01*
X57221726Y-52125595D01*
X57412202Y-52173214D01*
X57793154Y-52173214D01*
X57888392Y-52125595D01*
X57936011Y-52077976D01*
X57983630Y-51982738D01*
X57983630Y-51792261D01*
X57936011Y-51697023D01*
X57888392Y-51649404D01*
X57793154Y-51601785D01*
X57555059Y-51601785D01*
X57459821Y-51649404D01*
X57412202Y-51697023D01*
X57364583Y-51792261D01*
X57364583Y-51982738D01*
X57412202Y-52077976D01*
X57459821Y-52125595D01*
X57555059Y-52173214D01*
%TO.C,LED8*%
X173993869Y-56339880D02*
X173517678Y-56339880D01*
X173517678Y-55339880D01*
X174327202Y-55816071D02*
X174660535Y-55816071D01*
X174803392Y-56339880D02*
X174327202Y-56339880D01*
X174327202Y-55339880D01*
X174803392Y-55339880D01*
X175231964Y-56339880D02*
X175231964Y-55339880D01*
X175470059Y-55339880D01*
X175612916Y-55387500D01*
X175708154Y-55482738D01*
X175755773Y-55577976D01*
X175803392Y-55768452D01*
X175803392Y-55911309D01*
X175755773Y-56101785D01*
X175708154Y-56197023D01*
X175612916Y-56292261D01*
X175470059Y-56339880D01*
X175231964Y-56339880D01*
X176374821Y-55768452D02*
X176279583Y-55720833D01*
X176231964Y-55673214D01*
X176184345Y-55577976D01*
X176184345Y-55530357D01*
X176231964Y-55435119D01*
X176279583Y-55387500D01*
X176374821Y-55339880D01*
X176565297Y-55339880D01*
X176660535Y-55387500D01*
X176708154Y-55435119D01*
X176755773Y-55530357D01*
X176755773Y-55577976D01*
X176708154Y-55673214D01*
X176660535Y-55720833D01*
X176565297Y-55768452D01*
X176374821Y-55768452D01*
X176279583Y-55816071D01*
X176231964Y-55863690D01*
X176184345Y-55958928D01*
X176184345Y-56149404D01*
X176231964Y-56244642D01*
X176279583Y-56292261D01*
X176374821Y-56339880D01*
X176565297Y-56339880D01*
X176660535Y-56292261D01*
X176708154Y-56244642D01*
X176755773Y-56149404D01*
X176755773Y-55958928D01*
X176708154Y-55863690D01*
X176660535Y-55816071D01*
X176565297Y-55768452D01*
%TO.C,LED25*%
X115891488Y-94439880D02*
X115415297Y-94439880D01*
X115415297Y-93439880D01*
X116224821Y-93916071D02*
X116558154Y-93916071D01*
X116701011Y-94439880D02*
X116224821Y-94439880D01*
X116224821Y-93439880D01*
X116701011Y-93439880D01*
X117129583Y-94439880D02*
X117129583Y-93439880D01*
X117367678Y-93439880D01*
X117510535Y-93487500D01*
X117605773Y-93582738D01*
X117653392Y-93677976D01*
X117701011Y-93868452D01*
X117701011Y-94011309D01*
X117653392Y-94201785D01*
X117605773Y-94297023D01*
X117510535Y-94392261D01*
X117367678Y-94439880D01*
X117129583Y-94439880D01*
X118081964Y-93535119D02*
X118129583Y-93487500D01*
X118224821Y-93439880D01*
X118462916Y-93439880D01*
X118558154Y-93487500D01*
X118605773Y-93535119D01*
X118653392Y-93630357D01*
X118653392Y-93725595D01*
X118605773Y-93868452D01*
X118034345Y-94439880D01*
X118653392Y-94439880D01*
X119558154Y-93439880D02*
X119081964Y-93439880D01*
X119034345Y-93916071D01*
X119081964Y-93868452D01*
X119177202Y-93820833D01*
X119415297Y-93820833D01*
X119510535Y-93868452D01*
X119558154Y-93916071D01*
X119605773Y-94011309D01*
X119605773Y-94249404D01*
X119558154Y-94344642D01*
X119510535Y-94392261D01*
X119415297Y-94439880D01*
X119177202Y-94439880D01*
X119081964Y-94392261D01*
X119034345Y-94344642D01*
%TO.C,D1*%
X153233630Y-53125595D02*
X152233630Y-53125595D01*
X152233630Y-52887500D01*
X152281250Y-52744642D01*
X152376488Y-52649404D01*
X152471726Y-52601785D01*
X152662202Y-52554166D01*
X152805059Y-52554166D01*
X152995535Y-52601785D01*
X153090773Y-52649404D01*
X153186011Y-52744642D01*
X153233630Y-52887500D01*
X153233630Y-53125595D01*
X153233630Y-51601785D02*
X153233630Y-52173214D01*
X153233630Y-51887500D02*
X152233630Y-51887500D01*
X152376488Y-51982738D01*
X152471726Y-52077976D01*
X152519345Y-52173214D01*
%TO.C,D43*%
X115133630Y-129801785D02*
X114133630Y-129801785D01*
X114133630Y-129563690D01*
X114181250Y-129420833D01*
X114276488Y-129325595D01*
X114371726Y-129277976D01*
X114562202Y-129230357D01*
X114705059Y-129230357D01*
X114895535Y-129277976D01*
X114990773Y-129325595D01*
X115086011Y-129420833D01*
X115133630Y-129563690D01*
X115133630Y-129801785D01*
X114466964Y-128373214D02*
X115133630Y-128373214D01*
X114086011Y-128611309D02*
X114800297Y-128849404D01*
X114800297Y-128230357D01*
X114133630Y-127944642D02*
X114133630Y-127325595D01*
X114514583Y-127658928D01*
X114514583Y-127516071D01*
X114562202Y-127420833D01*
X114609821Y-127373214D01*
X114705059Y-127325595D01*
X114943154Y-127325595D01*
X115038392Y-127373214D01*
X115086011Y-127420833D01*
X115133630Y-127516071D01*
X115133630Y-127801785D01*
X115086011Y-127897023D01*
X115038392Y-127944642D01*
%TO.C,LED17*%
X134941488Y-75389880D02*
X134465297Y-75389880D01*
X134465297Y-74389880D01*
X135274821Y-74866071D02*
X135608154Y-74866071D01*
X135751011Y-75389880D02*
X135274821Y-75389880D01*
X135274821Y-74389880D01*
X135751011Y-74389880D01*
X136179583Y-75389880D02*
X136179583Y-74389880D01*
X136417678Y-74389880D01*
X136560535Y-74437500D01*
X136655773Y-74532738D01*
X136703392Y-74627976D01*
X136751011Y-74818452D01*
X136751011Y-74961309D01*
X136703392Y-75151785D01*
X136655773Y-75247023D01*
X136560535Y-75342261D01*
X136417678Y-75389880D01*
X136179583Y-75389880D01*
X137703392Y-75389880D02*
X137131964Y-75389880D01*
X137417678Y-75389880D02*
X137417678Y-74389880D01*
X137322440Y-74532738D01*
X137227202Y-74627976D01*
X137131964Y-74675595D01*
X138036726Y-74389880D02*
X138703392Y-74389880D01*
X138274821Y-75389880D01*
%TO.C,R1*%
X199858333Y-45186130D02*
X199525000Y-44709940D01*
X199286904Y-45186130D02*
X199286904Y-44186130D01*
X199667857Y-44186130D01*
X199763095Y-44233750D01*
X199810714Y-44281369D01*
X199858333Y-44376607D01*
X199858333Y-44519464D01*
X199810714Y-44614702D01*
X199763095Y-44662321D01*
X199667857Y-44709940D01*
X199286904Y-44709940D01*
X200810714Y-45186130D02*
X200239285Y-45186130D01*
X200525000Y-45186130D02*
X200525000Y-44186130D01*
X200429761Y-44328988D01*
X200334523Y-44424226D01*
X200239285Y-44471845D01*
%TO.C,D4*%
X96083630Y-53125595D02*
X95083630Y-53125595D01*
X95083630Y-52887500D01*
X95131250Y-52744642D01*
X95226488Y-52649404D01*
X95321726Y-52601785D01*
X95512202Y-52554166D01*
X95655059Y-52554166D01*
X95845535Y-52601785D01*
X95940773Y-52649404D01*
X96036011Y-52744642D01*
X96083630Y-52887500D01*
X96083630Y-53125595D01*
X95416964Y-51697023D02*
X96083630Y-51697023D01*
X95036011Y-51935119D02*
X95750297Y-52173214D01*
X95750297Y-51554166D01*
%TO.C,D21*%
X153233630Y-91701785D02*
X152233630Y-91701785D01*
X152233630Y-91463690D01*
X152281250Y-91320833D01*
X152376488Y-91225595D01*
X152471726Y-91177976D01*
X152662202Y-91130357D01*
X152805059Y-91130357D01*
X152995535Y-91177976D01*
X153090773Y-91225595D01*
X153186011Y-91320833D01*
X153233630Y-91463690D01*
X153233630Y-91701785D01*
X152328869Y-90749404D02*
X152281250Y-90701785D01*
X152233630Y-90606547D01*
X152233630Y-90368452D01*
X152281250Y-90273214D01*
X152328869Y-90225595D01*
X152424107Y-90177976D01*
X152519345Y-90177976D01*
X152662202Y-90225595D01*
X153233630Y-90797023D01*
X153233630Y-90177976D01*
X153233630Y-89225595D02*
X153233630Y-89797023D01*
X153233630Y-89511309D02*
X152233630Y-89511309D01*
X152376488Y-89606547D01*
X152471726Y-89701785D01*
X152519345Y-89797023D01*
%TO.C,LED30*%
X153991488Y-113489880D02*
X153515297Y-113489880D01*
X153515297Y-112489880D01*
X154324821Y-112966071D02*
X154658154Y-112966071D01*
X154801011Y-113489880D02*
X154324821Y-113489880D01*
X154324821Y-112489880D01*
X154801011Y-112489880D01*
X155229583Y-113489880D02*
X155229583Y-112489880D01*
X155467678Y-112489880D01*
X155610535Y-112537500D01*
X155705773Y-112632738D01*
X155753392Y-112727976D01*
X155801011Y-112918452D01*
X155801011Y-113061309D01*
X155753392Y-113251785D01*
X155705773Y-113347023D01*
X155610535Y-113442261D01*
X155467678Y-113489880D01*
X155229583Y-113489880D01*
X156134345Y-112489880D02*
X156753392Y-112489880D01*
X156420059Y-112870833D01*
X156562916Y-112870833D01*
X156658154Y-112918452D01*
X156705773Y-112966071D01*
X156753392Y-113061309D01*
X156753392Y-113299404D01*
X156705773Y-113394642D01*
X156658154Y-113442261D01*
X156562916Y-113489880D01*
X156277202Y-113489880D01*
X156181964Y-113442261D01*
X156134345Y-113394642D01*
X157372440Y-112489880D02*
X157467678Y-112489880D01*
X157562916Y-112537500D01*
X157610535Y-112585119D01*
X157658154Y-112680357D01*
X157705773Y-112870833D01*
X157705773Y-113108928D01*
X157658154Y-113299404D01*
X157610535Y-113394642D01*
X157562916Y-113442261D01*
X157467678Y-113489880D01*
X157372440Y-113489880D01*
X157277202Y-113442261D01*
X157229583Y-113394642D01*
X157181964Y-113299404D01*
X157134345Y-113108928D01*
X157134345Y-112870833D01*
X157181964Y-112680357D01*
X157229583Y-112585119D01*
X157277202Y-112537500D01*
X157372440Y-112489880D01*
%TO.C,U1*%
X212483630Y-70611904D02*
X213293154Y-70611904D01*
X213388392Y-70564285D01*
X213436011Y-70516666D01*
X213483630Y-70421428D01*
X213483630Y-70230952D01*
X213436011Y-70135714D01*
X213388392Y-70088095D01*
X213293154Y-70040476D01*
X212483630Y-70040476D01*
X213483630Y-69040476D02*
X213483630Y-69611904D01*
X213483630Y-69326190D02*
X212483630Y-69326190D01*
X212626488Y-69421428D01*
X212721726Y-69516666D01*
X212769345Y-69611904D01*
%TO.C,C1*%
X197908392Y-93035416D02*
X197956011Y-93083035D01*
X198003630Y-93225892D01*
X198003630Y-93321130D01*
X197956011Y-93463988D01*
X197860773Y-93559226D01*
X197765535Y-93606845D01*
X197575059Y-93654464D01*
X197432202Y-93654464D01*
X197241726Y-93606845D01*
X197146488Y-93559226D01*
X197051250Y-93463988D01*
X197003630Y-93321130D01*
X197003630Y-93225892D01*
X197051250Y-93083035D01*
X197098869Y-93035416D01*
X198003630Y-92083035D02*
X198003630Y-92654464D01*
X198003630Y-92368750D02*
X197003630Y-92368750D01*
X197146488Y-92463988D01*
X197241726Y-92559226D01*
X197289345Y-92654464D01*
%TO.C,D42*%
X134183630Y-129801785D02*
X133183630Y-129801785D01*
X133183630Y-129563690D01*
X133231250Y-129420833D01*
X133326488Y-129325595D01*
X133421726Y-129277976D01*
X133612202Y-129230357D01*
X133755059Y-129230357D01*
X133945535Y-129277976D01*
X134040773Y-129325595D01*
X134136011Y-129420833D01*
X134183630Y-129563690D01*
X134183630Y-129801785D01*
X133516964Y-128373214D02*
X134183630Y-128373214D01*
X133136011Y-128611309D02*
X133850297Y-128849404D01*
X133850297Y-128230357D01*
X133278869Y-127897023D02*
X133231250Y-127849404D01*
X133183630Y-127754166D01*
X133183630Y-127516071D01*
X133231250Y-127420833D01*
X133278869Y-127373214D01*
X133374107Y-127325595D01*
X133469345Y-127325595D01*
X133612202Y-127373214D01*
X134183630Y-127944642D01*
X134183630Y-127325595D01*
%TO.C,LED27*%
X77791488Y-94439880D02*
X77315297Y-94439880D01*
X77315297Y-93439880D01*
X78124821Y-93916071D02*
X78458154Y-93916071D01*
X78601011Y-94439880D02*
X78124821Y-94439880D01*
X78124821Y-93439880D01*
X78601011Y-93439880D01*
X79029583Y-94439880D02*
X79029583Y-93439880D01*
X79267678Y-93439880D01*
X79410535Y-93487500D01*
X79505773Y-93582738D01*
X79553392Y-93677976D01*
X79601011Y-93868452D01*
X79601011Y-94011309D01*
X79553392Y-94201785D01*
X79505773Y-94297023D01*
X79410535Y-94392261D01*
X79267678Y-94439880D01*
X79029583Y-94439880D01*
X79981964Y-93535119D02*
X80029583Y-93487500D01*
X80124821Y-93439880D01*
X80362916Y-93439880D01*
X80458154Y-93487500D01*
X80505773Y-93535119D01*
X80553392Y-93630357D01*
X80553392Y-93725595D01*
X80505773Y-93868452D01*
X79934345Y-94439880D01*
X80553392Y-94439880D01*
X80886726Y-93439880D02*
X81553392Y-93439880D01*
X81124821Y-94439880D01*
%TO.C,LED1*%
X173993869Y-37289880D02*
X173517678Y-37289880D01*
X173517678Y-36289880D01*
X174327202Y-36766071D02*
X174660535Y-36766071D01*
X174803392Y-37289880D02*
X174327202Y-37289880D01*
X174327202Y-36289880D01*
X174803392Y-36289880D01*
X175231964Y-37289880D02*
X175231964Y-36289880D01*
X175470059Y-36289880D01*
X175612916Y-36337500D01*
X175708154Y-36432738D01*
X175755773Y-36527976D01*
X175803392Y-36718452D01*
X175803392Y-36861309D01*
X175755773Y-37051785D01*
X175708154Y-37147023D01*
X175612916Y-37242261D01*
X175470059Y-37289880D01*
X175231964Y-37289880D01*
X176755773Y-37289880D02*
X176184345Y-37289880D01*
X176470059Y-37289880D02*
X176470059Y-36289880D01*
X176374821Y-36432738D01*
X176279583Y-36527976D01*
X176184345Y-36575595D01*
%TO.C,D24*%
X96083630Y-91701785D02*
X95083630Y-91701785D01*
X95083630Y-91463690D01*
X95131250Y-91320833D01*
X95226488Y-91225595D01*
X95321726Y-91177976D01*
X95512202Y-91130357D01*
X95655059Y-91130357D01*
X95845535Y-91177976D01*
X95940773Y-91225595D01*
X96036011Y-91320833D01*
X96083630Y-91463690D01*
X96083630Y-91701785D01*
X95178869Y-90749404D02*
X95131250Y-90701785D01*
X95083630Y-90606547D01*
X95083630Y-90368452D01*
X95131250Y-90273214D01*
X95178869Y-90225595D01*
X95274107Y-90177976D01*
X95369345Y-90177976D01*
X95512202Y-90225595D01*
X96083630Y-90797023D01*
X96083630Y-90177976D01*
X95416964Y-89320833D02*
X96083630Y-89320833D01*
X95036011Y-89558928D02*
X95750297Y-89797023D01*
X95750297Y-89177976D01*
%TO.C,D45*%
X77033630Y-129801785D02*
X76033630Y-129801785D01*
X76033630Y-129563690D01*
X76081250Y-129420833D01*
X76176488Y-129325595D01*
X76271726Y-129277976D01*
X76462202Y-129230357D01*
X76605059Y-129230357D01*
X76795535Y-129277976D01*
X76890773Y-129325595D01*
X76986011Y-129420833D01*
X77033630Y-129563690D01*
X77033630Y-129801785D01*
X76366964Y-128373214D02*
X77033630Y-128373214D01*
X75986011Y-128611309D02*
X76700297Y-128849404D01*
X76700297Y-128230357D01*
X76033630Y-127373214D02*
X76033630Y-127849404D01*
X76509821Y-127897023D01*
X76462202Y-127849404D01*
X76414583Y-127754166D01*
X76414583Y-127516071D01*
X76462202Y-127420833D01*
X76509821Y-127373214D01*
X76605059Y-127325595D01*
X76843154Y-127325595D01*
X76938392Y-127373214D01*
X76986011Y-127420833D01*
X77033630Y-127516071D01*
X77033630Y-127754166D01*
X76986011Y-127849404D01*
X76938392Y-127897023D01*
%TO.C,D30*%
X172283630Y-110751785D02*
X171283630Y-110751785D01*
X171283630Y-110513690D01*
X171331250Y-110370833D01*
X171426488Y-110275595D01*
X171521726Y-110227976D01*
X171712202Y-110180357D01*
X171855059Y-110180357D01*
X172045535Y-110227976D01*
X172140773Y-110275595D01*
X172236011Y-110370833D01*
X172283630Y-110513690D01*
X172283630Y-110751785D01*
X171283630Y-109847023D02*
X171283630Y-109227976D01*
X171664583Y-109561309D01*
X171664583Y-109418452D01*
X171712202Y-109323214D01*
X171759821Y-109275595D01*
X171855059Y-109227976D01*
X172093154Y-109227976D01*
X172188392Y-109275595D01*
X172236011Y-109323214D01*
X172283630Y-109418452D01*
X172283630Y-109704166D01*
X172236011Y-109799404D01*
X172188392Y-109847023D01*
X171283630Y-108608928D02*
X171283630Y-108513690D01*
X171331250Y-108418452D01*
X171378869Y-108370833D01*
X171474107Y-108323214D01*
X171664583Y-108275595D01*
X171902678Y-108275595D01*
X172093154Y-108323214D01*
X172188392Y-108370833D01*
X172236011Y-108418452D01*
X172283630Y-108513690D01*
X172283630Y-108608928D01*
X172236011Y-108704166D01*
X172188392Y-108751785D01*
X172093154Y-108799404D01*
X171902678Y-108847023D01*
X171664583Y-108847023D01*
X171474107Y-108799404D01*
X171378869Y-108751785D01*
X171331250Y-108704166D01*
X171283630Y-108608928D01*
%TO.C,D14*%
X96083630Y-72651785D02*
X95083630Y-72651785D01*
X95083630Y-72413690D01*
X95131250Y-72270833D01*
X95226488Y-72175595D01*
X95321726Y-72127976D01*
X95512202Y-72080357D01*
X95655059Y-72080357D01*
X95845535Y-72127976D01*
X95940773Y-72175595D01*
X96036011Y-72270833D01*
X96083630Y-72413690D01*
X96083630Y-72651785D01*
X96083630Y-71127976D02*
X96083630Y-71699404D01*
X96083630Y-71413690D02*
X95083630Y-71413690D01*
X95226488Y-71508928D01*
X95321726Y-71604166D01*
X95369345Y-71699404D01*
X95416964Y-70270833D02*
X96083630Y-70270833D01*
X95036011Y-70508928D02*
X95750297Y-70747023D01*
X95750297Y-70127976D01*
%TO.C,LED14*%
X58741488Y-56339880D02*
X58265297Y-56339880D01*
X58265297Y-55339880D01*
X59074821Y-55816071D02*
X59408154Y-55816071D01*
X59551011Y-56339880D02*
X59074821Y-56339880D01*
X59074821Y-55339880D01*
X59551011Y-55339880D01*
X59979583Y-56339880D02*
X59979583Y-55339880D01*
X60217678Y-55339880D01*
X60360535Y-55387500D01*
X60455773Y-55482738D01*
X60503392Y-55577976D01*
X60551011Y-55768452D01*
X60551011Y-55911309D01*
X60503392Y-56101785D01*
X60455773Y-56197023D01*
X60360535Y-56292261D01*
X60217678Y-56339880D01*
X59979583Y-56339880D01*
X61503392Y-56339880D02*
X60931964Y-56339880D01*
X61217678Y-56339880D02*
X61217678Y-55339880D01*
X61122440Y-55482738D01*
X61027202Y-55577976D01*
X60931964Y-55625595D01*
X62360535Y-55673214D02*
X62360535Y-56339880D01*
X62122440Y-55292261D02*
X61884345Y-56006547D01*
X62503392Y-56006547D01*
%TO.C,LED28*%
X58741488Y-94439880D02*
X58265297Y-94439880D01*
X58265297Y-93439880D01*
X59074821Y-93916071D02*
X59408154Y-93916071D01*
X59551011Y-94439880D02*
X59074821Y-94439880D01*
X59074821Y-93439880D01*
X59551011Y-93439880D01*
X59979583Y-94439880D02*
X59979583Y-93439880D01*
X60217678Y-93439880D01*
X60360535Y-93487500D01*
X60455773Y-93582738D01*
X60503392Y-93677976D01*
X60551011Y-93868452D01*
X60551011Y-94011309D01*
X60503392Y-94201785D01*
X60455773Y-94297023D01*
X60360535Y-94392261D01*
X60217678Y-94439880D01*
X59979583Y-94439880D01*
X60931964Y-93535119D02*
X60979583Y-93487500D01*
X61074821Y-93439880D01*
X61312916Y-93439880D01*
X61408154Y-93487500D01*
X61455773Y-93535119D01*
X61503392Y-93630357D01*
X61503392Y-93725595D01*
X61455773Y-93868452D01*
X60884345Y-94439880D01*
X61503392Y-94439880D01*
X62074821Y-93868452D02*
X61979583Y-93820833D01*
X61931964Y-93773214D01*
X61884345Y-93677976D01*
X61884345Y-93630357D01*
X61931964Y-93535119D01*
X61979583Y-93487500D01*
X62074821Y-93439880D01*
X62265297Y-93439880D01*
X62360535Y-93487500D01*
X62408154Y-93535119D01*
X62455773Y-93630357D01*
X62455773Y-93677976D01*
X62408154Y-93773214D01*
X62360535Y-93820833D01*
X62265297Y-93868452D01*
X62074821Y-93868452D01*
X61979583Y-93916071D01*
X61931964Y-93963690D01*
X61884345Y-94058928D01*
X61884345Y-94249404D01*
X61931964Y-94344642D01*
X61979583Y-94392261D01*
X62074821Y-94439880D01*
X62265297Y-94439880D01*
X62360535Y-94392261D01*
X62408154Y-94344642D01*
X62455773Y-94249404D01*
X62455773Y-94058928D01*
X62408154Y-93963690D01*
X62360535Y-93916071D01*
X62265297Y-93868452D01*
%TO.C,LED15*%
X173041488Y-75389880D02*
X172565297Y-75389880D01*
X172565297Y-74389880D01*
X173374821Y-74866071D02*
X173708154Y-74866071D01*
X173851011Y-75389880D02*
X173374821Y-75389880D01*
X173374821Y-74389880D01*
X173851011Y-74389880D01*
X174279583Y-75389880D02*
X174279583Y-74389880D01*
X174517678Y-74389880D01*
X174660535Y-74437500D01*
X174755773Y-74532738D01*
X174803392Y-74627976D01*
X174851011Y-74818452D01*
X174851011Y-74961309D01*
X174803392Y-75151785D01*
X174755773Y-75247023D01*
X174660535Y-75342261D01*
X174517678Y-75389880D01*
X174279583Y-75389880D01*
X175803392Y-75389880D02*
X175231964Y-75389880D01*
X175517678Y-75389880D02*
X175517678Y-74389880D01*
X175422440Y-74532738D01*
X175327202Y-74627976D01*
X175231964Y-74675595D01*
X176708154Y-74389880D02*
X176231964Y-74389880D01*
X176184345Y-74866071D01*
X176231964Y-74818452D01*
X176327202Y-74770833D01*
X176565297Y-74770833D01*
X176660535Y-74818452D01*
X176708154Y-74866071D01*
X176755773Y-74961309D01*
X176755773Y-75199404D01*
X176708154Y-75294642D01*
X176660535Y-75342261D01*
X176565297Y-75389880D01*
X176327202Y-75389880D01*
X176231964Y-75342261D01*
X176184345Y-75294642D01*
%TO.C,D32*%
X134183630Y-110751785D02*
X133183630Y-110751785D01*
X133183630Y-110513690D01*
X133231250Y-110370833D01*
X133326488Y-110275595D01*
X133421726Y-110227976D01*
X133612202Y-110180357D01*
X133755059Y-110180357D01*
X133945535Y-110227976D01*
X134040773Y-110275595D01*
X134136011Y-110370833D01*
X134183630Y-110513690D01*
X134183630Y-110751785D01*
X133183630Y-109847023D02*
X133183630Y-109227976D01*
X133564583Y-109561309D01*
X133564583Y-109418452D01*
X133612202Y-109323214D01*
X133659821Y-109275595D01*
X133755059Y-109227976D01*
X133993154Y-109227976D01*
X134088392Y-109275595D01*
X134136011Y-109323214D01*
X134183630Y-109418452D01*
X134183630Y-109704166D01*
X134136011Y-109799404D01*
X134088392Y-109847023D01*
X133278869Y-108847023D02*
X133231250Y-108799404D01*
X133183630Y-108704166D01*
X133183630Y-108466071D01*
X133231250Y-108370833D01*
X133278869Y-108323214D01*
X133374107Y-108275595D01*
X133469345Y-108275595D01*
X133612202Y-108323214D01*
X134183630Y-108894642D01*
X134183630Y-108275595D01*
%TO.C,LED32*%
X115891488Y-113489880D02*
X115415297Y-113489880D01*
X115415297Y-112489880D01*
X116224821Y-112966071D02*
X116558154Y-112966071D01*
X116701011Y-113489880D02*
X116224821Y-113489880D01*
X116224821Y-112489880D01*
X116701011Y-112489880D01*
X117129583Y-113489880D02*
X117129583Y-112489880D01*
X117367678Y-112489880D01*
X117510535Y-112537500D01*
X117605773Y-112632738D01*
X117653392Y-112727976D01*
X117701011Y-112918452D01*
X117701011Y-113061309D01*
X117653392Y-113251785D01*
X117605773Y-113347023D01*
X117510535Y-113442261D01*
X117367678Y-113489880D01*
X117129583Y-113489880D01*
X118034345Y-112489880D02*
X118653392Y-112489880D01*
X118320059Y-112870833D01*
X118462916Y-112870833D01*
X118558154Y-112918452D01*
X118605773Y-112966071D01*
X118653392Y-113061309D01*
X118653392Y-113299404D01*
X118605773Y-113394642D01*
X118558154Y-113442261D01*
X118462916Y-113489880D01*
X118177202Y-113489880D01*
X118081964Y-113442261D01*
X118034345Y-113394642D01*
X119034345Y-112585119D02*
X119081964Y-112537500D01*
X119177202Y-112489880D01*
X119415297Y-112489880D01*
X119510535Y-112537500D01*
X119558154Y-112585119D01*
X119605773Y-112680357D01*
X119605773Y-112775595D01*
X119558154Y-112918452D01*
X118986726Y-113489880D01*
X119605773Y-113489880D01*
%TO.C,D33*%
X115133630Y-110751785D02*
X114133630Y-110751785D01*
X114133630Y-110513690D01*
X114181250Y-110370833D01*
X114276488Y-110275595D01*
X114371726Y-110227976D01*
X114562202Y-110180357D01*
X114705059Y-110180357D01*
X114895535Y-110227976D01*
X114990773Y-110275595D01*
X115086011Y-110370833D01*
X115133630Y-110513690D01*
X115133630Y-110751785D01*
X114133630Y-109847023D02*
X114133630Y-109227976D01*
X114514583Y-109561309D01*
X114514583Y-109418452D01*
X114562202Y-109323214D01*
X114609821Y-109275595D01*
X114705059Y-109227976D01*
X114943154Y-109227976D01*
X115038392Y-109275595D01*
X115086011Y-109323214D01*
X115133630Y-109418452D01*
X115133630Y-109704166D01*
X115086011Y-109799404D01*
X115038392Y-109847023D01*
X114133630Y-108894642D02*
X114133630Y-108275595D01*
X114514583Y-108608928D01*
X114514583Y-108466071D01*
X114562202Y-108370833D01*
X114609821Y-108323214D01*
X114705059Y-108275595D01*
X114943154Y-108275595D01*
X115038392Y-108323214D01*
X115086011Y-108370833D01*
X115133630Y-108466071D01*
X115133630Y-108751785D01*
X115086011Y-108847023D01*
X115038392Y-108894642D01*
%TO.C,LED21*%
X58741488Y-75389880D02*
X58265297Y-75389880D01*
X58265297Y-74389880D01*
X59074821Y-74866071D02*
X59408154Y-74866071D01*
X59551011Y-75389880D02*
X59074821Y-75389880D01*
X59074821Y-74389880D01*
X59551011Y-74389880D01*
X59979583Y-75389880D02*
X59979583Y-74389880D01*
X60217678Y-74389880D01*
X60360535Y-74437500D01*
X60455773Y-74532738D01*
X60503392Y-74627976D01*
X60551011Y-74818452D01*
X60551011Y-74961309D01*
X60503392Y-75151785D01*
X60455773Y-75247023D01*
X60360535Y-75342261D01*
X60217678Y-75389880D01*
X59979583Y-75389880D01*
X60931964Y-74485119D02*
X60979583Y-74437500D01*
X61074821Y-74389880D01*
X61312916Y-74389880D01*
X61408154Y-74437500D01*
X61455773Y-74485119D01*
X61503392Y-74580357D01*
X61503392Y-74675595D01*
X61455773Y-74818452D01*
X60884345Y-75389880D01*
X61503392Y-75389880D01*
X62455773Y-75389880D02*
X61884345Y-75389880D01*
X62170059Y-75389880D02*
X62170059Y-74389880D01*
X62074821Y-74532738D01*
X61979583Y-74627976D01*
X61884345Y-74675595D01*
%TO.C,LED6*%
X78743869Y-37289880D02*
X78267678Y-37289880D01*
X78267678Y-36289880D01*
X79077202Y-36766071D02*
X79410535Y-36766071D01*
X79553392Y-37289880D02*
X79077202Y-37289880D01*
X79077202Y-36289880D01*
X79553392Y-36289880D01*
X79981964Y-37289880D02*
X79981964Y-36289880D01*
X80220059Y-36289880D01*
X80362916Y-36337500D01*
X80458154Y-36432738D01*
X80505773Y-36527976D01*
X80553392Y-36718452D01*
X80553392Y-36861309D01*
X80505773Y-37051785D01*
X80458154Y-37147023D01*
X80362916Y-37242261D01*
X80220059Y-37289880D01*
X79981964Y-37289880D01*
X81410535Y-36289880D02*
X81220059Y-36289880D01*
X81124821Y-36337500D01*
X81077202Y-36385119D01*
X80981964Y-36527976D01*
X80934345Y-36718452D01*
X80934345Y-37099404D01*
X80981964Y-37194642D01*
X81029583Y-37242261D01*
X81124821Y-37289880D01*
X81315297Y-37289880D01*
X81410535Y-37242261D01*
X81458154Y-37194642D01*
X81505773Y-37099404D01*
X81505773Y-36861309D01*
X81458154Y-36766071D01*
X81410535Y-36718452D01*
X81315297Y-36670833D01*
X81124821Y-36670833D01*
X81029583Y-36718452D01*
X80981964Y-36766071D01*
X80934345Y-36861309D01*
%TO.C,D12*%
X134183630Y-72651785D02*
X133183630Y-72651785D01*
X133183630Y-72413690D01*
X133231250Y-72270833D01*
X133326488Y-72175595D01*
X133421726Y-72127976D01*
X133612202Y-72080357D01*
X133755059Y-72080357D01*
X133945535Y-72127976D01*
X134040773Y-72175595D01*
X134136011Y-72270833D01*
X134183630Y-72413690D01*
X134183630Y-72651785D01*
X134183630Y-71127976D02*
X134183630Y-71699404D01*
X134183630Y-71413690D02*
X133183630Y-71413690D01*
X133326488Y-71508928D01*
X133421726Y-71604166D01*
X133469345Y-71699404D01*
X133278869Y-70747023D02*
X133231250Y-70699404D01*
X133183630Y-70604166D01*
X133183630Y-70366071D01*
X133231250Y-70270833D01*
X133278869Y-70223214D01*
X133374107Y-70175595D01*
X133469345Y-70175595D01*
X133612202Y-70223214D01*
X134183630Y-70794642D01*
X134183630Y-70175595D01*
%TO.C,LED23*%
X153991488Y-94439880D02*
X153515297Y-94439880D01*
X153515297Y-93439880D01*
X154324821Y-93916071D02*
X154658154Y-93916071D01*
X154801011Y-94439880D02*
X154324821Y-94439880D01*
X154324821Y-93439880D01*
X154801011Y-93439880D01*
X155229583Y-94439880D02*
X155229583Y-93439880D01*
X155467678Y-93439880D01*
X155610535Y-93487500D01*
X155705773Y-93582738D01*
X155753392Y-93677976D01*
X155801011Y-93868452D01*
X155801011Y-94011309D01*
X155753392Y-94201785D01*
X155705773Y-94297023D01*
X155610535Y-94392261D01*
X155467678Y-94439880D01*
X155229583Y-94439880D01*
X156181964Y-93535119D02*
X156229583Y-93487500D01*
X156324821Y-93439880D01*
X156562916Y-93439880D01*
X156658154Y-93487500D01*
X156705773Y-93535119D01*
X156753392Y-93630357D01*
X156753392Y-93725595D01*
X156705773Y-93868452D01*
X156134345Y-94439880D01*
X156753392Y-94439880D01*
X157086726Y-93439880D02*
X157705773Y-93439880D01*
X157372440Y-93820833D01*
X157515297Y-93820833D01*
X157610535Y-93868452D01*
X157658154Y-93916071D01*
X157705773Y-94011309D01*
X157705773Y-94249404D01*
X157658154Y-94344642D01*
X157610535Y-94392261D01*
X157515297Y-94439880D01*
X157229583Y-94439880D01*
X157134345Y-94392261D01*
X157086726Y-94344642D01*
%TO.C,LED29*%
X173041488Y-113489880D02*
X172565297Y-113489880D01*
X172565297Y-112489880D01*
X173374821Y-112966071D02*
X173708154Y-112966071D01*
X173851011Y-113489880D02*
X173374821Y-113489880D01*
X173374821Y-112489880D01*
X173851011Y-112489880D01*
X174279583Y-113489880D02*
X174279583Y-112489880D01*
X174517678Y-112489880D01*
X174660535Y-112537500D01*
X174755773Y-112632738D01*
X174803392Y-112727976D01*
X174851011Y-112918452D01*
X174851011Y-113061309D01*
X174803392Y-113251785D01*
X174755773Y-113347023D01*
X174660535Y-113442261D01*
X174517678Y-113489880D01*
X174279583Y-113489880D01*
X175231964Y-112585119D02*
X175279583Y-112537500D01*
X175374821Y-112489880D01*
X175612916Y-112489880D01*
X175708154Y-112537500D01*
X175755773Y-112585119D01*
X175803392Y-112680357D01*
X175803392Y-112775595D01*
X175755773Y-112918452D01*
X175184345Y-113489880D01*
X175803392Y-113489880D01*
X176279583Y-113489880D02*
X176470059Y-113489880D01*
X176565297Y-113442261D01*
X176612916Y-113394642D01*
X176708154Y-113251785D01*
X176755773Y-113061309D01*
X176755773Y-112680357D01*
X176708154Y-112585119D01*
X176660535Y-112537500D01*
X176565297Y-112489880D01*
X176374821Y-112489880D01*
X176279583Y-112537500D01*
X176231964Y-112585119D01*
X176184345Y-112680357D01*
X176184345Y-112918452D01*
X176231964Y-113013690D01*
X176279583Y-113061309D01*
X176374821Y-113108928D01*
X176565297Y-113108928D01*
X176660535Y-113061309D01*
X176708154Y-113013690D01*
X176755773Y-112918452D01*
%TO.C,D11*%
X153233630Y-72651785D02*
X152233630Y-72651785D01*
X152233630Y-72413690D01*
X152281250Y-72270833D01*
X152376488Y-72175595D01*
X152471726Y-72127976D01*
X152662202Y-72080357D01*
X152805059Y-72080357D01*
X152995535Y-72127976D01*
X153090773Y-72175595D01*
X153186011Y-72270833D01*
X153233630Y-72413690D01*
X153233630Y-72651785D01*
X153233630Y-71127976D02*
X153233630Y-71699404D01*
X153233630Y-71413690D02*
X152233630Y-71413690D01*
X152376488Y-71508928D01*
X152471726Y-71604166D01*
X152519345Y-71699404D01*
X153233630Y-70175595D02*
X153233630Y-70747023D01*
X153233630Y-70461309D02*
X152233630Y-70461309D01*
X152376488Y-70556547D01*
X152471726Y-70651785D01*
X152519345Y-70747023D01*
%TO.C,R2*%
X206417094Y-45191116D02*
X206083761Y-44714926D01*
X205845665Y-45191116D02*
X205845665Y-44191116D01*
X206226618Y-44191116D01*
X206321856Y-44238736D01*
X206369475Y-44286355D01*
X206417094Y-44381593D01*
X206417094Y-44524450D01*
X206369475Y-44619688D01*
X206321856Y-44667307D01*
X206226618Y-44714926D01*
X205845665Y-44714926D01*
X206798046Y-44286355D02*
X206845665Y-44238736D01*
X206940903Y-44191116D01*
X207178999Y-44191116D01*
X207274237Y-44238736D01*
X207321856Y-44286355D01*
X207369475Y-44381593D01*
X207369475Y-44476831D01*
X207321856Y-44619688D01*
X206750427Y-45191116D01*
X207369475Y-45191116D01*
%TO.C,LED16*%
X153991488Y-75389880D02*
X153515297Y-75389880D01*
X153515297Y-74389880D01*
X154324821Y-74866071D02*
X154658154Y-74866071D01*
X154801011Y-75389880D02*
X154324821Y-75389880D01*
X154324821Y-74389880D01*
X154801011Y-74389880D01*
X155229583Y-75389880D02*
X155229583Y-74389880D01*
X155467678Y-74389880D01*
X155610535Y-74437500D01*
X155705773Y-74532738D01*
X155753392Y-74627976D01*
X155801011Y-74818452D01*
X155801011Y-74961309D01*
X155753392Y-75151785D01*
X155705773Y-75247023D01*
X155610535Y-75342261D01*
X155467678Y-75389880D01*
X155229583Y-75389880D01*
X156753392Y-75389880D02*
X156181964Y-75389880D01*
X156467678Y-75389880D02*
X156467678Y-74389880D01*
X156372440Y-74532738D01*
X156277202Y-74627976D01*
X156181964Y-74675595D01*
X157610535Y-74389880D02*
X157420059Y-74389880D01*
X157324821Y-74437500D01*
X157277202Y-74485119D01*
X157181964Y-74627976D01*
X157134345Y-74818452D01*
X157134345Y-75199404D01*
X157181964Y-75294642D01*
X157229583Y-75342261D01*
X157324821Y-75389880D01*
X157515297Y-75389880D01*
X157610535Y-75342261D01*
X157658154Y-75294642D01*
X157705773Y-75199404D01*
X157705773Y-74961309D01*
X157658154Y-74866071D01*
X157610535Y-74818452D01*
X157515297Y-74770833D01*
X157324821Y-74770833D01*
X157229583Y-74818452D01*
X157181964Y-74866071D01*
X157134345Y-74961309D01*
%TO.C,LED3*%
X135893869Y-37289880D02*
X135417678Y-37289880D01*
X135417678Y-36289880D01*
X136227202Y-36766071D02*
X136560535Y-36766071D01*
X136703392Y-37289880D02*
X136227202Y-37289880D01*
X136227202Y-36289880D01*
X136703392Y-36289880D01*
X137131964Y-37289880D02*
X137131964Y-36289880D01*
X137370059Y-36289880D01*
X137512916Y-36337500D01*
X137608154Y-36432738D01*
X137655773Y-36527976D01*
X137703392Y-36718452D01*
X137703392Y-36861309D01*
X137655773Y-37051785D01*
X137608154Y-37147023D01*
X137512916Y-37242261D01*
X137370059Y-37289880D01*
X137131964Y-37289880D01*
X138036726Y-36289880D02*
X138655773Y-36289880D01*
X138322440Y-36670833D01*
X138465297Y-36670833D01*
X138560535Y-36718452D01*
X138608154Y-36766071D01*
X138655773Y-36861309D01*
X138655773Y-37099404D01*
X138608154Y-37194642D01*
X138560535Y-37242261D01*
X138465297Y-37289880D01*
X138179583Y-37289880D01*
X138084345Y-37242261D01*
X138036726Y-37194642D01*
%TO.C,D0*%
X172283630Y-53125595D02*
X171283630Y-53125595D01*
X171283630Y-52887500D01*
X171331250Y-52744642D01*
X171426488Y-52649404D01*
X171521726Y-52601785D01*
X171712202Y-52554166D01*
X171855059Y-52554166D01*
X172045535Y-52601785D01*
X172140773Y-52649404D01*
X172236011Y-52744642D01*
X172283630Y-52887500D01*
X172283630Y-53125595D01*
X171283630Y-51935119D02*
X171283630Y-51839880D01*
X171331250Y-51744642D01*
X171378869Y-51697023D01*
X171474107Y-51649404D01*
X171664583Y-51601785D01*
X171902678Y-51601785D01*
X172093154Y-51649404D01*
X172188392Y-51697023D01*
X172236011Y-51744642D01*
X172283630Y-51839880D01*
X172283630Y-51935119D01*
X172236011Y-52030357D01*
X172188392Y-52077976D01*
X172093154Y-52125595D01*
X171902678Y-52173214D01*
X171664583Y-52173214D01*
X171474107Y-52125595D01*
X171378869Y-52077976D01*
X171331250Y-52030357D01*
X171283630Y-51935119D01*
%TO.C,LED22*%
X173041488Y-94439880D02*
X172565297Y-94439880D01*
X172565297Y-93439880D01*
X173374821Y-93916071D02*
X173708154Y-93916071D01*
X173851011Y-94439880D02*
X173374821Y-94439880D01*
X173374821Y-93439880D01*
X173851011Y-93439880D01*
X174279583Y-94439880D02*
X174279583Y-93439880D01*
X174517678Y-93439880D01*
X174660535Y-93487500D01*
X174755773Y-93582738D01*
X174803392Y-93677976D01*
X174851011Y-93868452D01*
X174851011Y-94011309D01*
X174803392Y-94201785D01*
X174755773Y-94297023D01*
X174660535Y-94392261D01*
X174517678Y-94439880D01*
X174279583Y-94439880D01*
X175231964Y-93535119D02*
X175279583Y-93487500D01*
X175374821Y-93439880D01*
X175612916Y-93439880D01*
X175708154Y-93487500D01*
X175755773Y-93535119D01*
X175803392Y-93630357D01*
X175803392Y-93725595D01*
X175755773Y-93868452D01*
X175184345Y-94439880D01*
X175803392Y-94439880D01*
X176184345Y-93535119D02*
X176231964Y-93487500D01*
X176327202Y-93439880D01*
X176565297Y-93439880D01*
X176660535Y-93487500D01*
X176708154Y-93535119D01*
X176755773Y-93630357D01*
X176755773Y-93725595D01*
X176708154Y-93868452D01*
X176136726Y-94439880D01*
X176755773Y-94439880D01*
%TO.C,R8*%
X211770833Y-46427380D02*
X211437500Y-45951190D01*
X211199404Y-46427380D02*
X211199404Y-45427380D01*
X211580357Y-45427380D01*
X211675595Y-45475000D01*
X211723214Y-45522619D01*
X211770833Y-45617857D01*
X211770833Y-45760714D01*
X211723214Y-45855952D01*
X211675595Y-45903571D01*
X211580357Y-45951190D01*
X211199404Y-45951190D01*
X212342261Y-45855952D02*
X212247023Y-45808333D01*
X212199404Y-45760714D01*
X212151785Y-45665476D01*
X212151785Y-45617857D01*
X212199404Y-45522619D01*
X212247023Y-45475000D01*
X212342261Y-45427380D01*
X212532738Y-45427380D01*
X212627976Y-45475000D01*
X212675595Y-45522619D01*
X212723214Y-45617857D01*
X212723214Y-45665476D01*
X212675595Y-45760714D01*
X212627976Y-45808333D01*
X212532738Y-45855952D01*
X212342261Y-45855952D01*
X212247023Y-45903571D01*
X212199404Y-45951190D01*
X212151785Y-46046428D01*
X212151785Y-46236904D01*
X212199404Y-46332142D01*
X212247023Y-46379761D01*
X212342261Y-46427380D01*
X212532738Y-46427380D01*
X212627976Y-46379761D01*
X212675595Y-46332142D01*
X212723214Y-46236904D01*
X212723214Y-46046428D01*
X212675595Y-45951190D01*
X212627976Y-45903571D01*
X212532738Y-45855952D01*
%TO.C,LED26*%
X96785238Y-94439880D02*
X96309047Y-94439880D01*
X96309047Y-93439880D01*
X97118571Y-93916071D02*
X97451904Y-93916071D01*
X97594761Y-94439880D02*
X97118571Y-94439880D01*
X97118571Y-93439880D01*
X97594761Y-93439880D01*
X98023333Y-94439880D02*
X98023333Y-93439880D01*
X98261428Y-93439880D01*
X98404285Y-93487500D01*
X98499523Y-93582738D01*
X98547142Y-93677976D01*
X98594761Y-93868452D01*
X98594761Y-94011309D01*
X98547142Y-94201785D01*
X98499523Y-94297023D01*
X98404285Y-94392261D01*
X98261428Y-94439880D01*
X98023333Y-94439880D01*
X98975714Y-93535119D02*
X99023333Y-93487500D01*
X99118571Y-93439880D01*
X99356666Y-93439880D01*
X99451904Y-93487500D01*
X99499523Y-93535119D01*
X99547142Y-93630357D01*
X99547142Y-93725595D01*
X99499523Y-93868452D01*
X98928095Y-94439880D01*
X99547142Y-94439880D01*
X100404285Y-93439880D02*
X100213809Y-93439880D01*
X100118571Y-93487500D01*
X100070952Y-93535119D01*
X99975714Y-93677976D01*
X99928095Y-93868452D01*
X99928095Y-94249404D01*
X99975714Y-94344642D01*
X100023333Y-94392261D01*
X100118571Y-94439880D01*
X100309047Y-94439880D01*
X100404285Y-94392261D01*
X100451904Y-94344642D01*
X100499523Y-94249404D01*
X100499523Y-94011309D01*
X100451904Y-93916071D01*
X100404285Y-93868452D01*
X100309047Y-93820833D01*
X100118571Y-93820833D01*
X100023333Y-93868452D01*
X99975714Y-93916071D01*
X99928095Y-94011309D01*
%TO.C,D26*%
X57983630Y-91701785D02*
X56983630Y-91701785D01*
X56983630Y-91463690D01*
X57031250Y-91320833D01*
X57126488Y-91225595D01*
X57221726Y-91177976D01*
X57412202Y-91130357D01*
X57555059Y-91130357D01*
X57745535Y-91177976D01*
X57840773Y-91225595D01*
X57936011Y-91320833D01*
X57983630Y-91463690D01*
X57983630Y-91701785D01*
X57078869Y-90749404D02*
X57031250Y-90701785D01*
X56983630Y-90606547D01*
X56983630Y-90368452D01*
X57031250Y-90273214D01*
X57078869Y-90225595D01*
X57174107Y-90177976D01*
X57269345Y-90177976D01*
X57412202Y-90225595D01*
X57983630Y-90797023D01*
X57983630Y-90177976D01*
X56983630Y-89320833D02*
X56983630Y-89511309D01*
X57031250Y-89606547D01*
X57078869Y-89654166D01*
X57221726Y-89749404D01*
X57412202Y-89797023D01*
X57793154Y-89797023D01*
X57888392Y-89749404D01*
X57936011Y-89701785D01*
X57983630Y-89606547D01*
X57983630Y-89416071D01*
X57936011Y-89320833D01*
X57888392Y-89273214D01*
X57793154Y-89225595D01*
X57555059Y-89225595D01*
X57459821Y-89273214D01*
X57412202Y-89320833D01*
X57364583Y-89416071D01*
X57364583Y-89606547D01*
X57412202Y-89701785D01*
X57459821Y-89749404D01*
X57555059Y-89797023D01*
%TO.C,LED33*%
X96785238Y-113489880D02*
X96309047Y-113489880D01*
X96309047Y-112489880D01*
X97118571Y-112966071D02*
X97451904Y-112966071D01*
X97594761Y-113489880D02*
X97118571Y-113489880D01*
X97118571Y-112489880D01*
X97594761Y-112489880D01*
X98023333Y-113489880D02*
X98023333Y-112489880D01*
X98261428Y-112489880D01*
X98404285Y-112537500D01*
X98499523Y-112632738D01*
X98547142Y-112727976D01*
X98594761Y-112918452D01*
X98594761Y-113061309D01*
X98547142Y-113251785D01*
X98499523Y-113347023D01*
X98404285Y-113442261D01*
X98261428Y-113489880D01*
X98023333Y-113489880D01*
X98928095Y-112489880D02*
X99547142Y-112489880D01*
X99213809Y-112870833D01*
X99356666Y-112870833D01*
X99451904Y-112918452D01*
X99499523Y-112966071D01*
X99547142Y-113061309D01*
X99547142Y-113299404D01*
X99499523Y-113394642D01*
X99451904Y-113442261D01*
X99356666Y-113489880D01*
X99070952Y-113489880D01*
X98975714Y-113442261D01*
X98928095Y-113394642D01*
X99880476Y-112489880D02*
X100499523Y-112489880D01*
X100166190Y-112870833D01*
X100309047Y-112870833D01*
X100404285Y-112918452D01*
X100451904Y-112966071D01*
X100499523Y-113061309D01*
X100499523Y-113299404D01*
X100451904Y-113394642D01*
X100404285Y-113442261D01*
X100309047Y-113489880D01*
X100023333Y-113489880D01*
X99928095Y-113442261D01*
X99880476Y-113394642D01*
%TO.C,R4*%
X210858630Y-58904166D02*
X210382440Y-59237500D01*
X210858630Y-59475595D02*
X209858630Y-59475595D01*
X209858630Y-59094642D01*
X209906250Y-58999404D01*
X209953869Y-58951785D01*
X210049107Y-58904166D01*
X210191964Y-58904166D01*
X210287202Y-58951785D01*
X210334821Y-58999404D01*
X210382440Y-59094642D01*
X210382440Y-59475595D01*
X210191964Y-58047023D02*
X210858630Y-58047023D01*
X209811011Y-58285119D02*
X210525297Y-58523214D01*
X210525297Y-57904166D01*
%TO.C,C7*%
X217937142Y-66047916D02*
X217984761Y-66095535D01*
X218032380Y-66238392D01*
X218032380Y-66333630D01*
X217984761Y-66476488D01*
X217889523Y-66571726D01*
X217794285Y-66619345D01*
X217603809Y-66666964D01*
X217460952Y-66666964D01*
X217270476Y-66619345D01*
X217175238Y-66571726D01*
X217080000Y-66476488D01*
X217032380Y-66333630D01*
X217032380Y-66238392D01*
X217080000Y-66095535D01*
X217127619Y-66047916D01*
X217032380Y-65714583D02*
X217032380Y-65047916D01*
X218032380Y-65476488D01*
%TO.C,R9*%
X216520833Y-46427380D02*
X216187500Y-45951190D01*
X215949404Y-46427380D02*
X215949404Y-45427380D01*
X216330357Y-45427380D01*
X216425595Y-45475000D01*
X216473214Y-45522619D01*
X216520833Y-45617857D01*
X216520833Y-45760714D01*
X216473214Y-45855952D01*
X216425595Y-45903571D01*
X216330357Y-45951190D01*
X215949404Y-45951190D01*
X216997023Y-46427380D02*
X217187500Y-46427380D01*
X217282738Y-46379761D01*
X217330357Y-46332142D01*
X217425595Y-46189285D01*
X217473214Y-45998809D01*
X217473214Y-45617857D01*
X217425595Y-45522619D01*
X217377976Y-45475000D01*
X217282738Y-45427380D01*
X217092261Y-45427380D01*
X216997023Y-45475000D01*
X216949404Y-45522619D01*
X216901785Y-45617857D01*
X216901785Y-45855952D01*
X216949404Y-45951190D01*
X216997023Y-45998809D01*
X217092261Y-46046428D01*
X217282738Y-46046428D01*
X217377976Y-45998809D01*
X217425595Y-45951190D01*
X217473214Y-45855952D01*
%TO.C,R6*%
X217208630Y-89860416D02*
X216732440Y-90193750D01*
X217208630Y-90431845D02*
X216208630Y-90431845D01*
X216208630Y-90050892D01*
X216256250Y-89955654D01*
X216303869Y-89908035D01*
X216399107Y-89860416D01*
X216541964Y-89860416D01*
X216637202Y-89908035D01*
X216684821Y-89955654D01*
X216732440Y-90050892D01*
X216732440Y-90431845D01*
X216208630Y-89003273D02*
X216208630Y-89193750D01*
X216256250Y-89288988D01*
X216303869Y-89336607D01*
X216446726Y-89431845D01*
X216637202Y-89479464D01*
X217018154Y-89479464D01*
X217113392Y-89431845D01*
X217161011Y-89384226D01*
X217208630Y-89288988D01*
X217208630Y-89098511D01*
X217161011Y-89003273D01*
X217113392Y-88955654D01*
X217018154Y-88908035D01*
X216780059Y-88908035D01*
X216684821Y-88955654D01*
X216637202Y-89003273D01*
X216589583Y-89098511D01*
X216589583Y-89288988D01*
X216637202Y-89384226D01*
X216684821Y-89431845D01*
X216780059Y-89479464D01*
%TO.C,LED12*%
X96785238Y-56339880D02*
X96309047Y-56339880D01*
X96309047Y-55339880D01*
X97118571Y-55816071D02*
X97451904Y-55816071D01*
X97594761Y-56339880D02*
X97118571Y-56339880D01*
X97118571Y-55339880D01*
X97594761Y-55339880D01*
X98023333Y-56339880D02*
X98023333Y-55339880D01*
X98261428Y-55339880D01*
X98404285Y-55387500D01*
X98499523Y-55482738D01*
X98547142Y-55577976D01*
X98594761Y-55768452D01*
X98594761Y-55911309D01*
X98547142Y-56101785D01*
X98499523Y-56197023D01*
X98404285Y-56292261D01*
X98261428Y-56339880D01*
X98023333Y-56339880D01*
X99547142Y-56339880D02*
X98975714Y-56339880D01*
X99261428Y-56339880D02*
X99261428Y-55339880D01*
X99166190Y-55482738D01*
X99070952Y-55577976D01*
X98975714Y-55625595D01*
X99928095Y-55435119D02*
X99975714Y-55387500D01*
X100070952Y-55339880D01*
X100309047Y-55339880D01*
X100404285Y-55387500D01*
X100451904Y-55435119D01*
X100499523Y-55530357D01*
X100499523Y-55625595D01*
X100451904Y-55768452D01*
X99880476Y-56339880D01*
X100499523Y-56339880D01*
%TO.C,D7*%
X217431447Y-59520849D02*
X216431447Y-59520849D01*
X216431447Y-59282754D01*
X216479067Y-59139896D01*
X216574305Y-59044658D01*
X216669543Y-58997039D01*
X216860019Y-58949420D01*
X217002876Y-58949420D01*
X217193352Y-58997039D01*
X217288590Y-59044658D01*
X217383828Y-59139896D01*
X217431447Y-59282754D01*
X217431447Y-59520849D01*
X216431447Y-58616087D02*
X216431447Y-57949420D01*
X217431447Y-58377992D01*
%TO.C,LED10*%
X134941488Y-56339880D02*
X134465297Y-56339880D01*
X134465297Y-55339880D01*
X135274821Y-55816071D02*
X135608154Y-55816071D01*
X135751011Y-56339880D02*
X135274821Y-56339880D01*
X135274821Y-55339880D01*
X135751011Y-55339880D01*
X136179583Y-56339880D02*
X136179583Y-55339880D01*
X136417678Y-55339880D01*
X136560535Y-55387500D01*
X136655773Y-55482738D01*
X136703392Y-55577976D01*
X136751011Y-55768452D01*
X136751011Y-55911309D01*
X136703392Y-56101785D01*
X136655773Y-56197023D01*
X136560535Y-56292261D01*
X136417678Y-56339880D01*
X136179583Y-56339880D01*
X137703392Y-56339880D02*
X137131964Y-56339880D01*
X137417678Y-56339880D02*
X137417678Y-55339880D01*
X137322440Y-55482738D01*
X137227202Y-55577976D01*
X137131964Y-55625595D01*
X138322440Y-55339880D02*
X138417678Y-55339880D01*
X138512916Y-55387500D01*
X138560535Y-55435119D01*
X138608154Y-55530357D01*
X138655773Y-55720833D01*
X138655773Y-55958928D01*
X138608154Y-56149404D01*
X138560535Y-56244642D01*
X138512916Y-56292261D01*
X138417678Y-56339880D01*
X138322440Y-56339880D01*
X138227202Y-56292261D01*
X138179583Y-56244642D01*
X138131964Y-56149404D01*
X138084345Y-55958928D01*
X138084345Y-55720833D01*
X138131964Y-55530357D01*
X138179583Y-55435119D01*
X138227202Y-55387500D01*
X138322440Y-55339880D01*
%TO.C,U2*%
X206815697Y-51046130D02*
X206815697Y-51855654D01*
X206863316Y-51950892D01*
X206910935Y-51998511D01*
X207006173Y-52046130D01*
X207196649Y-52046130D01*
X207291887Y-51998511D01*
X207339506Y-51950892D01*
X207387125Y-51855654D01*
X207387125Y-51046130D01*
X207815697Y-51141369D02*
X207863316Y-51093750D01*
X207958554Y-51046130D01*
X208196649Y-51046130D01*
X208291887Y-51093750D01*
X208339506Y-51141369D01*
X208387125Y-51236607D01*
X208387125Y-51331845D01*
X208339506Y-51474702D01*
X207768078Y-52046130D01*
X208387125Y-52046130D01*
%TO.C,J2*%
X208684880Y-33027083D02*
X209399166Y-33027083D01*
X209542023Y-33074702D01*
X209637261Y-33169940D01*
X209684880Y-33312797D01*
X209684880Y-33408035D01*
X208780119Y-32598511D02*
X208732500Y-32550892D01*
X208684880Y-32455654D01*
X208684880Y-32217559D01*
X208732500Y-32122321D01*
X208780119Y-32074702D01*
X208875357Y-32027083D01*
X208970595Y-32027083D01*
X209113452Y-32074702D01*
X209684880Y-32646130D01*
X209684880Y-32027083D01*
%TO.C,LED31*%
X134941488Y-113489880D02*
X134465297Y-113489880D01*
X134465297Y-112489880D01*
X135274821Y-112966071D02*
X135608154Y-112966071D01*
X135751011Y-113489880D02*
X135274821Y-113489880D01*
X135274821Y-112489880D01*
X135751011Y-112489880D01*
X136179583Y-113489880D02*
X136179583Y-112489880D01*
X136417678Y-112489880D01*
X136560535Y-112537500D01*
X136655773Y-112632738D01*
X136703392Y-112727976D01*
X136751011Y-112918452D01*
X136751011Y-113061309D01*
X136703392Y-113251785D01*
X136655773Y-113347023D01*
X136560535Y-113442261D01*
X136417678Y-113489880D01*
X136179583Y-113489880D01*
X137084345Y-112489880D02*
X137703392Y-112489880D01*
X137370059Y-112870833D01*
X137512916Y-112870833D01*
X137608154Y-112918452D01*
X137655773Y-112966071D01*
X137703392Y-113061309D01*
X137703392Y-113299404D01*
X137655773Y-113394642D01*
X137608154Y-113442261D01*
X137512916Y-113489880D01*
X137227202Y-113489880D01*
X137131964Y-113442261D01*
X137084345Y-113394642D01*
X138655773Y-113489880D02*
X138084345Y-113489880D01*
X138370059Y-113489880D02*
X138370059Y-112489880D01*
X138274821Y-112632738D01*
X138179583Y-112727976D01*
X138084345Y-112775595D01*
%TO.C,C2*%
X210455892Y-93035416D02*
X210503511Y-93083035D01*
X210551130Y-93225892D01*
X210551130Y-93321130D01*
X210503511Y-93463988D01*
X210408273Y-93559226D01*
X210313035Y-93606845D01*
X210122559Y-93654464D01*
X209979702Y-93654464D01*
X209789226Y-93606845D01*
X209693988Y-93559226D01*
X209598750Y-93463988D01*
X209551130Y-93321130D01*
X209551130Y-93225892D01*
X209598750Y-93083035D01*
X209646369Y-93035416D01*
X209646369Y-92654464D02*
X209598750Y-92606845D01*
X209551130Y-92511607D01*
X209551130Y-92273511D01*
X209598750Y-92178273D01*
X209646369Y-92130654D01*
X209741607Y-92083035D01*
X209836845Y-92083035D01*
X209979702Y-92130654D01*
X210551130Y-92702083D01*
X210551130Y-92083035D01*
%TO.C,D25*%
X77033630Y-91701785D02*
X76033630Y-91701785D01*
X76033630Y-91463690D01*
X76081250Y-91320833D01*
X76176488Y-91225595D01*
X76271726Y-91177976D01*
X76462202Y-91130357D01*
X76605059Y-91130357D01*
X76795535Y-91177976D01*
X76890773Y-91225595D01*
X76986011Y-91320833D01*
X77033630Y-91463690D01*
X77033630Y-91701785D01*
X76128869Y-90749404D02*
X76081250Y-90701785D01*
X76033630Y-90606547D01*
X76033630Y-90368452D01*
X76081250Y-90273214D01*
X76128869Y-90225595D01*
X76224107Y-90177976D01*
X76319345Y-90177976D01*
X76462202Y-90225595D01*
X77033630Y-90797023D01*
X77033630Y-90177976D01*
X76033630Y-89273214D02*
X76033630Y-89749404D01*
X76509821Y-89797023D01*
X76462202Y-89749404D01*
X76414583Y-89654166D01*
X76414583Y-89416071D01*
X76462202Y-89320833D01*
X76509821Y-89273214D01*
X76605059Y-89225595D01*
X76843154Y-89225595D01*
X76938392Y-89273214D01*
X76986011Y-89320833D01*
X77033630Y-89416071D01*
X77033630Y-89654166D01*
X76986011Y-89749404D01*
X76938392Y-89797023D01*
%TO.C,LED2*%
X154943869Y-37289880D02*
X154467678Y-37289880D01*
X154467678Y-36289880D01*
X155277202Y-36766071D02*
X155610535Y-36766071D01*
X155753392Y-37289880D02*
X155277202Y-37289880D01*
X155277202Y-36289880D01*
X155753392Y-36289880D01*
X156181964Y-37289880D02*
X156181964Y-36289880D01*
X156420059Y-36289880D01*
X156562916Y-36337500D01*
X156658154Y-36432738D01*
X156705773Y-36527976D01*
X156753392Y-36718452D01*
X156753392Y-36861309D01*
X156705773Y-37051785D01*
X156658154Y-37147023D01*
X156562916Y-37242261D01*
X156420059Y-37289880D01*
X156181964Y-37289880D01*
X157134345Y-36385119D02*
X157181964Y-36337500D01*
X157277202Y-36289880D01*
X157515297Y-36289880D01*
X157610535Y-36337500D01*
X157658154Y-36385119D01*
X157705773Y-36480357D01*
X157705773Y-36575595D01*
X157658154Y-36718452D01*
X157086726Y-37289880D01*
X157705773Y-37289880D01*
%TO.C,Y1*%
X203517559Y-96813690D02*
X203517559Y-97289880D01*
X203184226Y-96289880D02*
X203517559Y-96813690D01*
X203850892Y-96289880D01*
X204708035Y-97289880D02*
X204136607Y-97289880D01*
X204422321Y-97289880D02*
X204422321Y-96289880D01*
X204327083Y-96432738D01*
X204231845Y-96527976D01*
X204136607Y-96575595D01*
%TO.C,R3*%
X214939583Y-77383630D02*
X214606250Y-76907440D01*
X214368154Y-77383630D02*
X214368154Y-76383630D01*
X214749107Y-76383630D01*
X214844345Y-76431250D01*
X214891964Y-76478869D01*
X214939583Y-76574107D01*
X214939583Y-76716964D01*
X214891964Y-76812202D01*
X214844345Y-76859821D01*
X214749107Y-76907440D01*
X214368154Y-76907440D01*
X215272916Y-76383630D02*
X215891964Y-76383630D01*
X215558630Y-76764583D01*
X215701488Y-76764583D01*
X215796726Y-76812202D01*
X215844345Y-76859821D01*
X215891964Y-76955059D01*
X215891964Y-77193154D01*
X215844345Y-77288392D01*
X215796726Y-77336011D01*
X215701488Y-77383630D01*
X215415773Y-77383630D01*
X215320535Y-77336011D01*
X215272916Y-77288392D01*
%TO.C,D5*%
X77033630Y-53125595D02*
X76033630Y-53125595D01*
X76033630Y-52887500D01*
X76081250Y-52744642D01*
X76176488Y-52649404D01*
X76271726Y-52601785D01*
X76462202Y-52554166D01*
X76605059Y-52554166D01*
X76795535Y-52601785D01*
X76890773Y-52649404D01*
X76986011Y-52744642D01*
X77033630Y-52887500D01*
X77033630Y-53125595D01*
X76033630Y-51649404D02*
X76033630Y-52125595D01*
X76509821Y-52173214D01*
X76462202Y-52125595D01*
X76414583Y-52030357D01*
X76414583Y-51792261D01*
X76462202Y-51697023D01*
X76509821Y-51649404D01*
X76605059Y-51601785D01*
X76843154Y-51601785D01*
X76938392Y-51649404D01*
X76986011Y-51697023D01*
X77033630Y-51792261D01*
X77033630Y-52030357D01*
X76986011Y-52125595D01*
X76938392Y-52173214D01*
%TO.C,D41*%
X153233630Y-129801785D02*
X152233630Y-129801785D01*
X152233630Y-129563690D01*
X152281250Y-129420833D01*
X152376488Y-129325595D01*
X152471726Y-129277976D01*
X152662202Y-129230357D01*
X152805059Y-129230357D01*
X152995535Y-129277976D01*
X153090773Y-129325595D01*
X153186011Y-129420833D01*
X153233630Y-129563690D01*
X153233630Y-129801785D01*
X152566964Y-128373214D02*
X153233630Y-128373214D01*
X152186011Y-128611309D02*
X152900297Y-128849404D01*
X152900297Y-128230357D01*
X153233630Y-127325595D02*
X153233630Y-127897023D01*
X153233630Y-127611309D02*
X152233630Y-127611309D01*
X152376488Y-127706547D01*
X152471726Y-127801785D01*
X152519345Y-127897023D01*
%TO.C,LED9*%
X154943869Y-56339880D02*
X154467678Y-56339880D01*
X154467678Y-55339880D01*
X155277202Y-55816071D02*
X155610535Y-55816071D01*
X155753392Y-56339880D02*
X155277202Y-56339880D01*
X155277202Y-55339880D01*
X155753392Y-55339880D01*
X156181964Y-56339880D02*
X156181964Y-55339880D01*
X156420059Y-55339880D01*
X156562916Y-55387500D01*
X156658154Y-55482738D01*
X156705773Y-55577976D01*
X156753392Y-55768452D01*
X156753392Y-55911309D01*
X156705773Y-56101785D01*
X156658154Y-56197023D01*
X156562916Y-56292261D01*
X156420059Y-56339880D01*
X156181964Y-56339880D01*
X157229583Y-56339880D02*
X157420059Y-56339880D01*
X157515297Y-56292261D01*
X157562916Y-56244642D01*
X157658154Y-56101785D01*
X157705773Y-55911309D01*
X157705773Y-55530357D01*
X157658154Y-55435119D01*
X157610535Y-55387500D01*
X157515297Y-55339880D01*
X157324821Y-55339880D01*
X157229583Y-55387500D01*
X157181964Y-55435119D01*
X157134345Y-55530357D01*
X157134345Y-55768452D01*
X157181964Y-55863690D01*
X157229583Y-55911309D01*
X157324821Y-55958928D01*
X157515297Y-55958928D01*
X157610535Y-55911309D01*
X157658154Y-55863690D01*
X157705773Y-55768452D01*
%TO.C,D44*%
X96083630Y-129801785D02*
X95083630Y-129801785D01*
X95083630Y-129563690D01*
X95131250Y-129420833D01*
X95226488Y-129325595D01*
X95321726Y-129277976D01*
X95512202Y-129230357D01*
X95655059Y-129230357D01*
X95845535Y-129277976D01*
X95940773Y-129325595D01*
X96036011Y-129420833D01*
X96083630Y-129563690D01*
X96083630Y-129801785D01*
X95416964Y-128373214D02*
X96083630Y-128373214D01*
X95036011Y-128611309D02*
X95750297Y-128849404D01*
X95750297Y-128230357D01*
X95416964Y-127420833D02*
X96083630Y-127420833D01*
X95036011Y-127658928D02*
X95750297Y-127897023D01*
X95750297Y-127277976D01*
%TO.C,SW1*%
X204247916Y-113542261D02*
X204390773Y-113589880D01*
X204628869Y-113589880D01*
X204724107Y-113542261D01*
X204771726Y-113494642D01*
X204819345Y-113399404D01*
X204819345Y-113304166D01*
X204771726Y-113208928D01*
X204724107Y-113161309D01*
X204628869Y-113113690D01*
X204438392Y-113066071D01*
X204343154Y-113018452D01*
X204295535Y-112970833D01*
X204247916Y-112875595D01*
X204247916Y-112780357D01*
X204295535Y-112685119D01*
X204343154Y-112637500D01*
X204438392Y-112589880D01*
X204676488Y-112589880D01*
X204819345Y-112637500D01*
X205152678Y-112589880D02*
X205390773Y-113589880D01*
X205581250Y-112875595D01*
X205771726Y-113589880D01*
X206009821Y-112589880D01*
X206914583Y-113589880D02*
X206343154Y-113589880D01*
X206628869Y-113589880D02*
X206628869Y-112589880D01*
X206533630Y-112732738D01*
X206438392Y-112827976D01*
X206343154Y-112875595D01*
D11*
%TO.C,LED4*%
X127693750Y-39187500D02*
X127693750Y-38187500D01*
X127693750Y-38187500D02*
X126793750Y-38187500D01*
%TO.C,D22*%
X134731250Y-92737500D02*
X134731250Y-88837500D01*
X134731250Y-92737500D02*
X136731250Y-92737500D01*
X136731250Y-92737500D02*
X136731250Y-88837500D01*
%TO.C,LED19*%
X108587500Y-76287500D02*
X107687500Y-76287500D01*
X108587500Y-77287500D02*
X108587500Y-76287500D01*
%TO.C,D16*%
X58531250Y-73687500D02*
X60531250Y-73687500D01*
X60531250Y-73687500D02*
X60531250Y-69787500D01*
X58531250Y-73687500D02*
X58531250Y-69787500D01*
%TO.C,LED18*%
X127693750Y-77287500D02*
X127693750Y-76287500D01*
X127693750Y-76287500D02*
X126793750Y-76287500D01*
%TO.C,LED34*%
X89593750Y-115387500D02*
X89593750Y-114387500D01*
X89593750Y-114387500D02*
X88693750Y-114387500D01*
%TO.C,LED7*%
X70543750Y-39187500D02*
X70543750Y-38187500D01*
X70543750Y-38187500D02*
X69643750Y-38187500D01*
%TO.C,D20*%
X172831250Y-92737500D02*
X174831250Y-92737500D01*
X174831250Y-92737500D02*
X174831250Y-88837500D01*
X172831250Y-92737500D02*
X172831250Y-88837500D01*
%TO.C,C8*%
X211196250Y-58998752D02*
X211196250Y-58476248D01*
X212666250Y-58998752D02*
X212666250Y-58476248D01*
%TO.C,D40*%
X174831250Y-130837500D02*
X174831250Y-126937500D01*
X172831250Y-130837500D02*
X174831250Y-130837500D01*
X172831250Y-130837500D02*
X172831250Y-126937500D01*
%TO.C,D2*%
X134731250Y-54637500D02*
X136731250Y-54637500D01*
X134731250Y-54637500D02*
X134731250Y-50737500D01*
X136731250Y-54637500D02*
X136731250Y-50737500D01*
%TO.C,LED20*%
X89593750Y-76287500D02*
X88693750Y-76287500D01*
X89593750Y-77287500D02*
X89593750Y-76287500D01*
%TO.C,D13*%
X117681250Y-73687500D02*
X117681250Y-69787500D01*
X115681250Y-73687500D02*
X115681250Y-69787500D01*
X115681250Y-73687500D02*
X117681250Y-73687500D01*
%TO.C,R7*%
X194527500Y-49439564D02*
X194527500Y-48985436D01*
X195997500Y-49439564D02*
X195997500Y-48985436D01*
%TO.C,F1*%
X212022936Y-52271250D02*
X213227064Y-52271250D01*
X212022936Y-54091250D02*
X213227064Y-54091250D01*
%TO.C,D23*%
X117681250Y-92737500D02*
X117681250Y-88837500D01*
X115681250Y-92737500D02*
X115681250Y-88837500D01*
X115681250Y-92737500D02*
X117681250Y-92737500D01*
%TO.C,D10*%
X172831250Y-73687500D02*
X174831250Y-73687500D01*
X172831250Y-73687500D02*
X172831250Y-69787500D01*
X174831250Y-73687500D02*
X174831250Y-69787500D01*
%TO.C,D35*%
X77581250Y-111787500D02*
X79581250Y-111787500D01*
X79581250Y-111787500D02*
X79581250Y-107887500D01*
X77581250Y-111787500D02*
X77581250Y-107887500D01*
%TO.C,LED11*%
X127693750Y-58237500D02*
X127693750Y-57237500D01*
X127693750Y-57237500D02*
X126793750Y-57237500D01*
%TO.C,R5*%
X205640000Y-58510436D02*
X205640000Y-58964564D01*
X207110000Y-58510436D02*
X207110000Y-58964564D01*
%TO.C,D31*%
X155781250Y-111787500D02*
X155781250Y-107887500D01*
X153781250Y-111787500D02*
X153781250Y-107887500D01*
X153781250Y-111787500D02*
X155781250Y-111787500D01*
%TO.C,D3*%
X117681250Y-54637500D02*
X117681250Y-50737500D01*
X115681250Y-54637500D02*
X117681250Y-54637500D01*
X115681250Y-54637500D02*
X115681250Y-50737500D01*
%TO.C,D15*%
X77581250Y-73687500D02*
X77581250Y-69787500D01*
X77581250Y-73687500D02*
X79581250Y-73687500D01*
X79581250Y-73687500D02*
X79581250Y-69787500D01*
%TO.C,D34*%
X98631250Y-111787500D02*
X98631250Y-107887500D01*
X96631250Y-111787500D02*
X98631250Y-111787500D01*
X96631250Y-111787500D02*
X96631250Y-107887500D01*
%TO.C,LED35*%
X70543750Y-114387500D02*
X69643750Y-114387500D01*
X70543750Y-115387500D02*
X70543750Y-114387500D01*
%TO.C,D46*%
X60531250Y-130837500D02*
X60531250Y-126937500D01*
X58531250Y-130837500D02*
X60531250Y-130837500D01*
X58531250Y-130837500D02*
X58531250Y-126937500D01*
%TO.C,C3*%
X202347500Y-58476248D02*
X202347500Y-58998752D01*
X200877500Y-58476248D02*
X200877500Y-58998752D01*
%TO.C,D36*%
X58531250Y-111787500D02*
X58531250Y-107887500D01*
X60531250Y-111787500D02*
X60531250Y-107887500D01*
X58531250Y-111787500D02*
X60531250Y-111787500D01*
%TO.C,C4*%
X201080002Y-80110000D02*
X200557498Y-80110000D01*
X201080002Y-78640000D02*
X200557498Y-78640000D01*
%TO.C,C5*%
X215165000Y-74080002D02*
X215165000Y-73557498D01*
X216635000Y-74080002D02*
X216635000Y-73557498D01*
%TO.C,C6*%
X196791250Y-68001248D02*
X196791250Y-68523752D01*
X195321250Y-68001248D02*
X195321250Y-68523752D01*
%TO.C,LED5*%
X108587500Y-39187500D02*
X108587500Y-38187500D01*
X108587500Y-38187500D02*
X107687500Y-38187500D01*
%TO.C,LED24*%
X146743750Y-95337500D02*
X145843750Y-95337500D01*
X146743750Y-96337500D02*
X146743750Y-95337500D01*
%TO.C,LED13*%
X89593750Y-58237500D02*
X89593750Y-57237500D01*
X89593750Y-57237500D02*
X88693750Y-57237500D01*
%TO.C,D6*%
X58531250Y-54637500D02*
X58531250Y-50737500D01*
X60531250Y-54637500D02*
X60531250Y-50737500D01*
X58531250Y-54637500D02*
X60531250Y-54637500D01*
%TO.C,LED8*%
X184843750Y-57237500D02*
X183943750Y-57237500D01*
X184843750Y-58237500D02*
X184843750Y-57237500D01*
%TO.C,LED25*%
X127693750Y-95337500D02*
X126793750Y-95337500D01*
X127693750Y-96337500D02*
X127693750Y-95337500D01*
%TO.C,D1*%
X155781250Y-54637500D02*
X155781250Y-50737500D01*
X153781250Y-54637500D02*
X153781250Y-50737500D01*
X153781250Y-54637500D02*
X155781250Y-54637500D01*
%TO.C,D43*%
X117681250Y-130837500D02*
X117681250Y-126937500D01*
X115681250Y-130837500D02*
X117681250Y-130837500D01*
X115681250Y-130837500D02*
X115681250Y-126937500D01*
%TO.C,LED17*%
X146743750Y-76287500D02*
X145843750Y-76287500D01*
X146743750Y-77287500D02*
X146743750Y-76287500D01*
%TO.C,R1*%
X200252064Y-42348750D02*
X199797936Y-42348750D01*
X200252064Y-43818750D02*
X199797936Y-43818750D01*
%TO.C,D4*%
X96631250Y-54637500D02*
X96631250Y-50737500D01*
X96631250Y-54637500D02*
X98631250Y-54637500D01*
X98631250Y-54637500D02*
X98631250Y-50737500D01*
%TO.C,D21*%
X155781250Y-92737500D02*
X155781250Y-88837500D01*
X153781250Y-92737500D02*
X153781250Y-88837500D01*
X153781250Y-92737500D02*
X155781250Y-92737500D01*
%TO.C,LED30*%
X165793750Y-115387500D02*
X165793750Y-114387500D01*
X165793750Y-114387500D02*
X164893750Y-114387500D01*
D10*
%TO.C,U1*%
X200406250Y-75025000D02*
X200406250Y-74350000D01*
X210756250Y-75025000D02*
X210081250Y-75025000D01*
X210756250Y-64675000D02*
X210756250Y-65350000D01*
X210756250Y-64675000D02*
X210181250Y-64675000D01*
X200406250Y-64675000D02*
X201081250Y-64675000D01*
X200406250Y-64675000D02*
X200406250Y-65350000D01*
X200406250Y-75025000D02*
X201081250Y-75025000D01*
X210756250Y-75025000D02*
X210756250Y-74350000D01*
X210181250Y-64675000D02*
X210181250Y-63400000D01*
D11*
%TO.C,C1*%
X199966250Y-93130002D02*
X199966250Y-92607498D01*
X198496250Y-93130002D02*
X198496250Y-92607498D01*
%TO.C,D42*%
X134731250Y-130837500D02*
X136731250Y-130837500D01*
X134731250Y-130837500D02*
X134731250Y-126937500D01*
X136731250Y-130837500D02*
X136731250Y-126937500D01*
%TO.C,LED27*%
X89593750Y-96337500D02*
X89593750Y-95337500D01*
X89593750Y-95337500D02*
X88693750Y-95337500D01*
%TO.C,LED1*%
X184843750Y-39187500D02*
X184843750Y-38187500D01*
X184843750Y-38187500D02*
X183943750Y-38187500D01*
%TO.C,D24*%
X96631250Y-92737500D02*
X96631250Y-88837500D01*
X96631250Y-92737500D02*
X98631250Y-92737500D01*
X98631250Y-92737500D02*
X98631250Y-88837500D01*
%TO.C,D45*%
X77581250Y-130837500D02*
X77581250Y-126937500D01*
X79581250Y-130837500D02*
X79581250Y-126937500D01*
X77581250Y-130837500D02*
X79581250Y-130837500D01*
%TO.C,D30*%
X174831250Y-111787500D02*
X174831250Y-107887500D01*
X172831250Y-111787500D02*
X174831250Y-111787500D01*
X172831250Y-111787500D02*
X172831250Y-107887500D01*
%TO.C,D14*%
X96631250Y-73687500D02*
X96631250Y-69787500D01*
X96631250Y-73687500D02*
X98631250Y-73687500D01*
X98631250Y-73687500D02*
X98631250Y-69787500D01*
%TO.C,LED14*%
X70543750Y-58237500D02*
X70543750Y-57237500D01*
X70543750Y-57237500D02*
X69643750Y-57237500D01*
%TO.C,LED28*%
X70543750Y-96337500D02*
X70543750Y-95337500D01*
X70543750Y-95337500D02*
X69643750Y-95337500D01*
%TO.C,LED15*%
X184843750Y-76287500D02*
X183943750Y-76287500D01*
X184843750Y-77287500D02*
X184843750Y-76287500D01*
%TO.C,D32*%
X136731250Y-111787500D02*
X136731250Y-107887500D01*
X134731250Y-111787500D02*
X136731250Y-111787500D01*
X134731250Y-111787500D02*
X134731250Y-107887500D01*
%TO.C,LED32*%
X127693750Y-115387500D02*
X127693750Y-114387500D01*
X127693750Y-114387500D02*
X126793750Y-114387500D01*
%TO.C,D33*%
X115681250Y-111787500D02*
X115681250Y-107887500D01*
X117681250Y-111787500D02*
X117681250Y-107887500D01*
X115681250Y-111787500D02*
X117681250Y-111787500D01*
%TO.C,LED21*%
X70543750Y-76287500D02*
X69643750Y-76287500D01*
X70543750Y-77287500D02*
X70543750Y-76287500D01*
%TO.C,LED6*%
X89593750Y-38187500D02*
X88693750Y-38187500D01*
X89593750Y-39187500D02*
X89593750Y-38187500D01*
%TO.C,D12*%
X134731250Y-73687500D02*
X134731250Y-69787500D01*
X136731250Y-73687500D02*
X136731250Y-69787500D01*
X134731250Y-73687500D02*
X136731250Y-73687500D01*
%TO.C,LED23*%
X165793750Y-95337500D02*
X164893750Y-95337500D01*
X165793750Y-96337500D02*
X165793750Y-95337500D01*
%TO.C,LED29*%
X184843750Y-114387500D02*
X183943750Y-114387500D01*
X184843750Y-115387500D02*
X184843750Y-114387500D01*
%TO.C,D11*%
X153781250Y-73687500D02*
X155781250Y-73687500D01*
X155781250Y-73687500D02*
X155781250Y-69787500D01*
X153781250Y-73687500D02*
X153781250Y-69787500D01*
%TO.C,R2*%
X206354186Y-42348750D02*
X206808314Y-42348750D01*
X206354186Y-43818750D02*
X206808314Y-43818750D01*
%TO.C,LED16*%
X165793750Y-77287500D02*
X165793750Y-76287500D01*
X165793750Y-76287500D02*
X164893750Y-76287500D01*
%TO.C,LED3*%
X146743750Y-39187500D02*
X146743750Y-38187500D01*
X146743750Y-38187500D02*
X145843750Y-38187500D01*
%TO.C,D0*%
X172831250Y-54637500D02*
X174831250Y-54637500D01*
X174831250Y-54637500D02*
X174831250Y-50737500D01*
X172831250Y-54637500D02*
X172831250Y-50737500D01*
%TO.C,LED22*%
X184843750Y-95337500D02*
X183943750Y-95337500D01*
X184843750Y-96337500D02*
X184843750Y-95337500D01*
%TO.C,R8*%
X211710436Y-48360000D02*
X212164564Y-48360000D01*
X211710436Y-46890000D02*
X212164564Y-46890000D01*
%TO.C,LED26*%
X108587500Y-95337500D02*
X107687500Y-95337500D01*
X108587500Y-96337500D02*
X108587500Y-95337500D01*
%TO.C,D26*%
X58531250Y-92737500D02*
X60531250Y-92737500D01*
X60531250Y-92737500D02*
X60531250Y-88837500D01*
X58531250Y-92737500D02*
X58531250Y-88837500D01*
%TO.C,LED33*%
X108587500Y-115387500D02*
X108587500Y-114387500D01*
X108587500Y-114387500D02*
X107687500Y-114387500D01*
%TO.C,R4*%
X209491250Y-58510436D02*
X209491250Y-58964564D01*
X208021250Y-58510436D02*
X208021250Y-58964564D01*
%TO.C,C7*%
X215165000Y-65619998D02*
X215165000Y-66142502D01*
X216635000Y-65619998D02*
X216635000Y-66142502D01*
%TO.C,R9*%
X216460436Y-48360000D02*
X216914564Y-48360000D01*
X216460436Y-46890000D02*
X216914564Y-46890000D01*
%TO.C,R6*%
X215841250Y-89466686D02*
X215841250Y-89920814D01*
X214371250Y-89466686D02*
X214371250Y-89920814D01*
%TO.C,LED12*%
X108587500Y-57237500D02*
X107687500Y-57237500D01*
X108587500Y-58237500D02*
X108587500Y-57237500D01*
%TO.C,D7*%
X214106250Y-60750000D02*
X216106250Y-60750000D01*
X214106250Y-60750000D02*
X214106250Y-56900000D01*
X216106250Y-60750000D02*
X216106250Y-56900000D01*
%TO.C,LED10*%
X146743750Y-58237500D02*
X146743750Y-57237500D01*
X146743750Y-57237500D02*
X145843750Y-57237500D01*
D10*
%TO.C,U2*%
X208227602Y-52528568D02*
X208227602Y-55428568D01*
X206927602Y-55428568D02*
X208227602Y-55428568D01*
X208227602Y-52528568D02*
X206927602Y-52528568D01*
X206927602Y-52528568D02*
X206927602Y-55428568D01*
D11*
%TO.C,LED31*%
X146743750Y-115387500D02*
X146743750Y-114387500D01*
X146743750Y-114387500D02*
X145843750Y-114387500D01*
%TO.C,C2*%
X207683750Y-92607498D02*
X207683750Y-93130002D01*
X209153750Y-92607498D02*
X209153750Y-93130002D01*
%TO.C,D25*%
X79581250Y-92737500D02*
X79581250Y-88837500D01*
X77581250Y-92737500D02*
X77581250Y-88837500D01*
X77581250Y-92737500D02*
X79581250Y-92737500D01*
D12*
%TO.C,REF\u002A\u002A*%
X206851250Y-100107750D02*
X204311250Y-100107750D01*
X204311250Y-104679750D02*
X206851250Y-100107750D01*
X206851250Y-104679750D02*
X206851250Y-100107750D01*
X203549250Y-102393750D02*
X203549250Y-104679750D01*
X203549250Y-102393750D02*
X201005958Y-100104617D01*
X204311250Y-100107750D02*
X206851250Y-104679750D01*
X204311250Y-100107750D02*
X204311250Y-104679750D01*
X203545958Y-100104617D02*
X201005958Y-100104617D01*
X204311250Y-104679750D02*
X206851250Y-104679750D01*
X210143574Y-100104617D02*
X207613250Y-102393750D01*
X207613250Y-102393750D02*
X207613250Y-104679750D01*
X210143574Y-100104617D02*
X207603574Y-100104617D01*
D11*
%TO.C,LED2*%
X165793750Y-39187500D02*
X165793750Y-38187500D01*
X165793750Y-38187500D02*
X164893750Y-38187500D01*
%TO.C,Y1*%
X201743750Y-90168750D02*
X201743750Y-95568750D01*
X206243750Y-90168750D02*
X201743750Y-90168750D01*
%TO.C,R3*%
X214879186Y-77846250D02*
X215333314Y-77846250D01*
X214879186Y-79316250D02*
X215333314Y-79316250D01*
%TO.C,D5*%
X79581250Y-54637500D02*
X79581250Y-50737500D01*
X77581250Y-54637500D02*
X77581250Y-50737500D01*
X77581250Y-54637500D02*
X79581250Y-54637500D01*
%TO.C,D41*%
X155781250Y-130837500D02*
X155781250Y-126937500D01*
X153781250Y-130837500D02*
X153781250Y-126937500D01*
X153781250Y-130837500D02*
X155781250Y-130837500D01*
%TO.C,LED9*%
X165793750Y-58237500D02*
X165793750Y-57237500D01*
X165793750Y-57237500D02*
X164893750Y-57237500D01*
%TO.C,D44*%
X96631250Y-130837500D02*
X96631250Y-126937500D01*
X96631250Y-130837500D02*
X98631250Y-130837500D01*
X98631250Y-130837500D02*
X98631250Y-126937500D01*
%TO.C,SW1*%
X207031250Y-112257500D02*
X204131250Y-112257500D01*
X204131250Y-106817500D02*
X203641250Y-107307500D01*
X208301250Y-108497500D02*
X208301250Y-110577500D01*
X202861250Y-108497500D02*
X202861250Y-110577500D01*
X207031250Y-106817500D02*
X207521250Y-107307500D01*
X207031250Y-106817500D02*
X204131250Y-106817500D01*
X204131250Y-112257500D02*
X203641250Y-111767500D01*
X207031250Y-112257500D02*
X207521250Y-111767500D01*
%TD*%
%LPC*%
D13*
%TO.C,LED4*%
X121168750Y-40437500D03*
X121168750Y-38937500D03*
X126618750Y-40437500D03*
D14*
X126618750Y-38937500D03*
%TD*%
D15*
%TO.C,D22*%
X135731250Y-92137500D03*
X135731250Y-88837500D03*
%TD*%
D13*
%TO.C,LED19*%
X102062500Y-78537500D03*
X102062500Y-77037500D03*
X107512500Y-78537500D03*
D14*
X107512500Y-77037500D03*
%TD*%
D15*
%TO.C,D16*%
X59531250Y-73087500D03*
X59531250Y-69787500D03*
%TD*%
D13*
%TO.C,LED18*%
X121168750Y-78537500D03*
X121168750Y-77037500D03*
X126618750Y-78537500D03*
D14*
X126618750Y-77037500D03*
%TD*%
D13*
%TO.C,LED34*%
X83068750Y-116637500D03*
X83068750Y-115137500D03*
X88518750Y-116637500D03*
D14*
X88518750Y-115137500D03*
%TD*%
D13*
%TO.C,LED7*%
X64018750Y-40437500D03*
X64018750Y-38937500D03*
X69468750Y-40437500D03*
D14*
X69468750Y-38937500D03*
%TD*%
D15*
%TO.C,D20*%
X173831250Y-92137500D03*
X173831250Y-88837500D03*
%TD*%
D16*
%TO.C,C8*%
X211931250Y-59775000D03*
X211931250Y-57700000D03*
%TD*%
D15*
%TO.C,D40*%
X173831250Y-130237500D03*
X173831250Y-126937500D03*
%TD*%
%TO.C,D2*%
X135731250Y-54037500D03*
X135731250Y-50737500D03*
%TD*%
D13*
%TO.C,LED20*%
X83068750Y-78537500D03*
X83068750Y-77037500D03*
X88518750Y-78537500D03*
D14*
X88518750Y-77037500D03*
%TD*%
D15*
%TO.C,D13*%
X116681250Y-73087500D03*
X116681250Y-69787500D03*
%TD*%
D17*
%TO.C,R7*%
X195262500Y-50212500D03*
X195262500Y-48212500D03*
%TD*%
D18*
%TO.C,F1*%
X211137500Y-53181250D03*
X214112500Y-53181250D03*
%TD*%
D19*
%TO.C,USB1*%
X206090000Y-36633750D03*
X200310000Y-36633750D03*
D20*
X206425000Y-38578750D03*
X205650000Y-38578750D03*
D21*
X204950000Y-38578750D03*
X204450000Y-38578750D03*
X203950000Y-38578750D03*
X203450000Y-38578750D03*
X202950000Y-38578750D03*
X202450000Y-38578750D03*
X201950000Y-38578750D03*
X201450000Y-38578750D03*
D20*
X200750000Y-38578750D03*
X199975000Y-38578750D03*
D22*
X207520000Y-32983750D03*
X198880000Y-32983750D03*
D23*
X198880000Y-37163750D03*
X207520000Y-37163750D03*
%TD*%
D15*
%TO.C,D23*%
X116681250Y-92137500D03*
X116681250Y-88837500D03*
%TD*%
%TO.C,D10*%
X173831250Y-73087500D03*
X173831250Y-69787500D03*
%TD*%
%TO.C,D35*%
X78581250Y-111187500D03*
X78581250Y-107887500D03*
%TD*%
D13*
%TO.C,LED11*%
X121168750Y-59487500D03*
X121168750Y-57987500D03*
X126618750Y-59487500D03*
D14*
X126618750Y-57987500D03*
%TD*%
D24*
%TO.C,R5*%
X206375000Y-57737500D03*
X206375000Y-59737500D03*
%TD*%
D15*
%TO.C,D31*%
X154781250Y-111187500D03*
X154781250Y-107887500D03*
%TD*%
%TO.C,D3*%
X116681250Y-54037500D03*
X116681250Y-50737500D03*
%TD*%
%TO.C,D15*%
X78581250Y-73087500D03*
X78581250Y-69787500D03*
%TD*%
%TO.C,D34*%
X97631250Y-111187500D03*
X97631250Y-107887500D03*
%TD*%
D13*
%TO.C,LED35*%
X64018750Y-116637500D03*
X64018750Y-115137500D03*
X69468750Y-116637500D03*
D14*
X69468750Y-115137500D03*
%TD*%
D15*
%TO.C,D46*%
X59531250Y-130237500D03*
X59531250Y-126937500D03*
%TD*%
D25*
%TO.C,C3*%
X201612500Y-57700000D03*
X201612500Y-59775000D03*
%TD*%
D15*
%TO.C,D36*%
X59531250Y-111187500D03*
X59531250Y-107887500D03*
%TD*%
D26*
%TO.C,C4*%
X201856250Y-79375000D03*
X199781250Y-79375000D03*
%TD*%
D16*
%TO.C,C5*%
X215900000Y-74856250D03*
X215900000Y-72781250D03*
%TD*%
D25*
%TO.C,C6*%
X196056250Y-67225000D03*
X196056250Y-69300000D03*
%TD*%
D13*
%TO.C,LED5*%
X102062500Y-40437500D03*
X102062500Y-38937500D03*
X107512500Y-40437500D03*
D14*
X107512500Y-38937500D03*
%TD*%
D13*
%TO.C,LED24*%
X140218750Y-97587500D03*
X140218750Y-96087500D03*
X145668750Y-97587500D03*
D14*
X145668750Y-96087500D03*
%TD*%
D13*
%TO.C,LED13*%
X83068750Y-59487500D03*
X83068750Y-57987500D03*
X88518750Y-59487500D03*
D14*
X88518750Y-57987500D03*
%TD*%
D15*
%TO.C,D6*%
X59531250Y-54037500D03*
X59531250Y-50737500D03*
%TD*%
D13*
%TO.C,LED8*%
X178318750Y-59487500D03*
X178318750Y-57987500D03*
X183768750Y-59487500D03*
D14*
X183768750Y-57987500D03*
%TD*%
D13*
%TO.C,LED25*%
X121168750Y-97587500D03*
X121168750Y-96087500D03*
X126618750Y-97587500D03*
D14*
X126618750Y-96087500D03*
%TD*%
D15*
%TO.C,D1*%
X154781250Y-54037500D03*
X154781250Y-50737500D03*
%TD*%
%TO.C,D43*%
X116681250Y-130237500D03*
X116681250Y-126937500D03*
%TD*%
D13*
%TO.C,LED17*%
X140218750Y-78537500D03*
X140218750Y-77037500D03*
X145668750Y-78537500D03*
D14*
X145668750Y-77037500D03*
%TD*%
D27*
%TO.C,H2*%
X194468750Y-33337500D03*
%TD*%
D28*
%TO.C,R1*%
X201025000Y-43083750D03*
X199025000Y-43083750D03*
%TD*%
D15*
%TO.C,D4*%
X97631250Y-54037500D03*
X97631250Y-50737500D03*
%TD*%
%TO.C,D21*%
X154781250Y-92137500D03*
X154781250Y-88837500D03*
%TD*%
D13*
%TO.C,LED30*%
X159268750Y-116637500D03*
X159268750Y-115137500D03*
X164718750Y-116637500D03*
D14*
X164718750Y-115137500D03*
%TD*%
D29*
%TO.C,U1*%
X209581250Y-64150000D03*
X208781250Y-64150000D03*
X207981250Y-64150000D03*
X207181250Y-64150000D03*
X206381250Y-64150000D03*
X205581250Y-64150000D03*
X204781250Y-64150000D03*
X203981250Y-64150000D03*
X203181250Y-64150000D03*
X202381250Y-64150000D03*
X201581250Y-64150000D03*
D30*
X199881250Y-65850000D03*
X199881250Y-66650000D03*
X199881250Y-67450000D03*
X199881250Y-68250000D03*
X199881250Y-69050000D03*
X199881250Y-69850000D03*
X199881250Y-70650000D03*
X199881250Y-71450000D03*
X199881250Y-72250000D03*
X199881250Y-73050000D03*
X199881250Y-73850000D03*
D29*
X201581250Y-75550000D03*
X202381250Y-75550000D03*
X203181250Y-75550000D03*
X203981250Y-75550000D03*
X204781250Y-75550000D03*
X205581250Y-75550000D03*
X206381250Y-75550000D03*
X207181250Y-75550000D03*
X207981250Y-75550000D03*
X208781250Y-75550000D03*
X209581250Y-75550000D03*
D30*
X211281250Y-73850000D03*
X211281250Y-73050000D03*
X211281250Y-72250000D03*
X211281250Y-71450000D03*
X211281250Y-70650000D03*
X211281250Y-69850000D03*
X211281250Y-69050000D03*
X211281250Y-68250000D03*
X211281250Y-67450000D03*
X211281250Y-66650000D03*
X211281250Y-65850000D03*
%TD*%
D27*
%TO.C,H4*%
X194468750Y-130175000D03*
%TD*%
D16*
%TO.C,C1*%
X199231250Y-93906250D03*
X199231250Y-91831250D03*
%TD*%
D15*
%TO.C,D42*%
X135731250Y-130237500D03*
X135731250Y-126937500D03*
%TD*%
D13*
%TO.C,LED27*%
X83068750Y-97587500D03*
X83068750Y-96087500D03*
X88518750Y-97587500D03*
D14*
X88518750Y-96087500D03*
%TD*%
D13*
%TO.C,LED1*%
X178318750Y-40437500D03*
X178318750Y-38937500D03*
X183768750Y-40437500D03*
D14*
X183768750Y-38937500D03*
%TD*%
D15*
%TO.C,D24*%
X97631250Y-92137500D03*
X97631250Y-88837500D03*
%TD*%
%TO.C,D45*%
X78581250Y-130237500D03*
X78581250Y-126937500D03*
%TD*%
%TO.C,D30*%
X173831250Y-111187500D03*
X173831250Y-107887500D03*
%TD*%
%TO.C,D14*%
X97631250Y-73087500D03*
X97631250Y-69787500D03*
%TD*%
D13*
%TO.C,LED14*%
X64018750Y-59487500D03*
X64018750Y-57987500D03*
X69468750Y-59487500D03*
D14*
X69468750Y-57987500D03*
%TD*%
D13*
%TO.C,LED28*%
X64018750Y-97587500D03*
X64018750Y-96087500D03*
X69468750Y-97587500D03*
D14*
X69468750Y-96087500D03*
%TD*%
D13*
%TO.C,LED15*%
X178318750Y-78537500D03*
X178318750Y-77037500D03*
X183768750Y-78537500D03*
D14*
X183768750Y-77037500D03*
%TD*%
D15*
%TO.C,D32*%
X135731250Y-111187500D03*
X135731250Y-107887500D03*
%TD*%
D13*
%TO.C,LED32*%
X121168750Y-116637500D03*
X121168750Y-115137500D03*
X126618750Y-116637500D03*
D14*
X126618750Y-115137500D03*
%TD*%
D15*
%TO.C,D33*%
X116681250Y-111187500D03*
X116681250Y-107887500D03*
%TD*%
D13*
%TO.C,LED21*%
X64018750Y-78537500D03*
X64018750Y-77037500D03*
X69468750Y-78537500D03*
D14*
X69468750Y-77037500D03*
%TD*%
D13*
%TO.C,LED6*%
X83068750Y-40437500D03*
X83068750Y-38937500D03*
X88518750Y-40437500D03*
D14*
X88518750Y-38937500D03*
%TD*%
D15*
%TO.C,D12*%
X135731250Y-73087500D03*
X135731250Y-69787500D03*
%TD*%
D13*
%TO.C,LED23*%
X159268750Y-97587500D03*
X159268750Y-96087500D03*
X164718750Y-97587500D03*
D14*
X164718750Y-96087500D03*
%TD*%
D27*
%TO.C,H1*%
X55562500Y-33337500D03*
%TD*%
D13*
%TO.C,LED29*%
X178318750Y-116637500D03*
X178318750Y-115137500D03*
X183768750Y-116637500D03*
D14*
X183768750Y-115137500D03*
%TD*%
D15*
%TO.C,D11*%
X154781250Y-73087500D03*
X154781250Y-69787500D03*
%TD*%
D31*
%TO.C,R2*%
X205581250Y-43083750D03*
X207581250Y-43083750D03*
%TD*%
D13*
%TO.C,LED16*%
X159268750Y-78537500D03*
X159268750Y-77037500D03*
X164718750Y-78537500D03*
D14*
X164718750Y-77037500D03*
%TD*%
D13*
%TO.C,LED3*%
X140218750Y-40437500D03*
X140218750Y-38937500D03*
X145668750Y-40437500D03*
D14*
X145668750Y-38937500D03*
%TD*%
D15*
%TO.C,D0*%
X173831250Y-54037500D03*
X173831250Y-50737500D03*
%TD*%
D13*
%TO.C,LED22*%
X178318750Y-97587500D03*
X178318750Y-96087500D03*
X183768750Y-97587500D03*
D14*
X183768750Y-96087500D03*
%TD*%
D31*
%TO.C,R8*%
X210937500Y-47625000D03*
X212937500Y-47625000D03*
%TD*%
D13*
%TO.C,LED26*%
X102062500Y-97587500D03*
X102062500Y-96087500D03*
X107512500Y-97587500D03*
D14*
X107512500Y-96087500D03*
%TD*%
D27*
%TO.C,H3*%
X55562500Y-130175000D03*
%TD*%
D15*
%TO.C,D26*%
X59531250Y-92137500D03*
X59531250Y-88837500D03*
%TD*%
D13*
%TO.C,LED33*%
X102062500Y-116637500D03*
X102062500Y-115137500D03*
X107512500Y-116637500D03*
D14*
X107512500Y-115137500D03*
%TD*%
D24*
%TO.C,R4*%
X208756250Y-57737500D03*
X208756250Y-59737500D03*
%TD*%
D25*
%TO.C,C7*%
X215900000Y-64843750D03*
X215900000Y-66918750D03*
%TD*%
D31*
%TO.C,R9*%
X215687500Y-47625000D03*
X217687500Y-47625000D03*
%TD*%
D24*
%TO.C,R6*%
X215106250Y-88693750D03*
X215106250Y-90693750D03*
%TD*%
D13*
%TO.C,LED12*%
X102062500Y-59487500D03*
X102062500Y-57987500D03*
X107512500Y-59487500D03*
D14*
X107512500Y-57987500D03*
%TD*%
D32*
%TO.C,D7*%
X215106250Y-59950000D03*
X215106250Y-57150000D03*
%TD*%
D13*
%TO.C,LED10*%
X140218750Y-59487500D03*
X140218750Y-57987500D03*
X145668750Y-59487500D03*
D14*
X145668750Y-57987500D03*
%TD*%
D33*
%TO.C,U2*%
X206577602Y-53228568D03*
D34*
X206577602Y-54928568D03*
X208577602Y-54928568D03*
X208577602Y-53028568D03*
%TD*%
D35*
%TO.C,J2*%
X213296500Y-34293750D03*
X215328500Y-41293750D03*
X215328500Y-34293750D03*
X213296500Y-41293750D03*
D36*
X215596500Y-43993750D03*
X213028500Y-43993750D03*
X210996500Y-38893750D03*
X217628500Y-38893750D03*
X210996500Y-35893750D03*
X217628500Y-35893750D03*
X210996500Y-42893750D03*
X217628500Y-42893750D03*
%TD*%
D13*
%TO.C,LED31*%
X140218750Y-116637500D03*
X140218750Y-115137500D03*
X145668750Y-116637500D03*
D14*
X145668750Y-115137500D03*
%TD*%
D25*
%TO.C,C2*%
X208418750Y-91831250D03*
X208418750Y-93906250D03*
%TD*%
D15*
%TO.C,D25*%
X78581250Y-92137500D03*
X78581250Y-88837500D03*
%TD*%
D13*
%TO.C,LED2*%
X159268750Y-40437500D03*
X159268750Y-38937500D03*
X164718750Y-40437500D03*
D14*
X164718750Y-38937500D03*
%TD*%
D37*
%TO.C,Y1*%
X202843750Y-91418750D03*
X202843750Y-94318750D03*
X205143750Y-94318750D03*
X205143750Y-91418750D03*
%TD*%
D31*
%TO.C,R3*%
X214106250Y-78581250D03*
X216106250Y-78581250D03*
%TD*%
D15*
%TO.C,D5*%
X78581250Y-54037500D03*
X78581250Y-50737500D03*
%TD*%
%TO.C,D41*%
X154781250Y-130237500D03*
X154781250Y-126937500D03*
%TD*%
D13*
%TO.C,LED9*%
X159268750Y-59487500D03*
X159268750Y-57987500D03*
X164718750Y-59487500D03*
D14*
X164718750Y-57987500D03*
%TD*%
D15*
%TO.C,D44*%
X97631250Y-130237500D03*
X97631250Y-126937500D03*
%TD*%
D38*
%TO.C,K41*%
X156491446Y-120588407D03*
X167491446Y-120588407D03*
D39*
X161991446Y-120588407D03*
D40*
X156991446Y-124388407D03*
X166991446Y-124388407D03*
X161991446Y-126488407D03*
%TD*%
D38*
%TO.C,K20*%
X175541310Y-82487500D03*
X186541310Y-82487500D03*
D39*
X181041310Y-82487500D03*
D40*
X186041310Y-86287500D03*
X176041310Y-86287500D03*
X181041310Y-88387500D03*
%TD*%
D38*
%TO.C,K46*%
X72243750Y-120587500D03*
X61243750Y-120587500D03*
D39*
X66743750Y-120587500D03*
D40*
X71743750Y-124387500D03*
X61743750Y-124387500D03*
X66743750Y-126487500D03*
%TD*%
D39*
%TO.C,K36*%
X66743750Y-101537500D03*
D38*
X61243750Y-101537500D03*
X72243750Y-101537500D03*
D40*
X71743750Y-105337500D03*
X61743750Y-105337500D03*
X66743750Y-107437500D03*
%TD*%
D38*
%TO.C,K12*%
X137441914Y-63437625D03*
X148441914Y-63437625D03*
D39*
X142941914Y-63437625D03*
D40*
X137941914Y-67237625D03*
X147941914Y-67237625D03*
X142941914Y-69337625D03*
%TD*%
D39*
%TO.C,K22*%
X142943390Y-82487020D03*
D38*
X137443390Y-82487020D03*
X148443390Y-82487020D03*
D40*
X137943390Y-86287020D03*
X147943390Y-86287020D03*
X142943390Y-88387020D03*
%TD*%
D38*
%TO.C,K35*%
X80293750Y-101537500D03*
X91293750Y-101537500D03*
D39*
X85793750Y-101537500D03*
D40*
X90793750Y-105337500D03*
X80793750Y-105337500D03*
X85793750Y-107437500D03*
%TD*%
D38*
%TO.C,K23*%
X129393750Y-82487500D03*
D39*
X123893750Y-82487500D03*
D38*
X118393750Y-82487500D03*
D40*
X128893750Y-86287500D03*
X118893750Y-86287500D03*
X123893750Y-88387500D03*
%TD*%
D38*
%TO.C,K5*%
X91293750Y-44387500D03*
X80293750Y-44387500D03*
D39*
X85793750Y-44387500D03*
D40*
X90793750Y-48187500D03*
X80793750Y-48187500D03*
X85793750Y-50287500D03*
%TD*%
D38*
%TO.C,K40*%
X175543018Y-120587500D03*
X186543018Y-120587500D03*
D39*
X181043018Y-120587500D03*
D40*
X186043018Y-124387500D03*
X176043018Y-124387500D03*
X181043018Y-126487500D03*
%TD*%
D38*
%TO.C,K44*%
X110287500Y-120587500D03*
D39*
X104787500Y-120587500D03*
D38*
X99287500Y-120587500D03*
D40*
X99787500Y-124387500D03*
X109787500Y-124387500D03*
X104787500Y-126487500D03*
%TD*%
D39*
%TO.C,K34*%
X104787500Y-101537500D03*
D38*
X110287500Y-101537500D03*
X99287500Y-101537500D03*
D40*
X109787500Y-105337500D03*
X99787500Y-105337500D03*
X104787500Y-107437500D03*
%TD*%
D39*
%TO.C,K32*%
X142943749Y-101536313D03*
D38*
X148443749Y-101536313D03*
X137443749Y-101536313D03*
D40*
X147943749Y-105336313D03*
X137943749Y-105336313D03*
X142943749Y-107436313D03*
%TD*%
D39*
%TO.C,K43*%
X123893750Y-120587500D03*
D38*
X129393750Y-120587500D03*
X118393750Y-120587500D03*
D40*
X128893750Y-124387500D03*
X118893750Y-124387500D03*
X123893750Y-126487500D03*
%TD*%
D38*
%TO.C,K15*%
X80293750Y-63437500D03*
X91293750Y-63437500D03*
D39*
X85793750Y-63437500D03*
D40*
X80793750Y-67237500D03*
X90793750Y-67237500D03*
X85793750Y-69337500D03*
%TD*%
D38*
%TO.C,K14*%
X99287500Y-63437500D03*
X110287500Y-63437500D03*
D39*
X104787500Y-63437500D03*
D40*
X99787500Y-67237500D03*
X109787500Y-67237500D03*
X104787500Y-69337500D03*
%TD*%
D38*
%TO.C,K0*%
X186541310Y-44387500D03*
X175541310Y-44387500D03*
D39*
X181041310Y-44387500D03*
D40*
X176041310Y-48187500D03*
X186041310Y-48187500D03*
X181041310Y-50287500D03*
%TD*%
D38*
%TO.C,K2*%
X148440252Y-44387477D03*
D39*
X142940252Y-44387477D03*
D38*
X137440252Y-44387477D03*
D40*
X147940252Y-48187477D03*
X137940252Y-48187477D03*
X142940252Y-50287477D03*
%TD*%
D39*
%TO.C,K26*%
X66743750Y-82487500D03*
D38*
X61243750Y-82487500D03*
X72243750Y-82487500D03*
D40*
X61743750Y-86287500D03*
X71743750Y-86287500D03*
X66743750Y-88387500D03*
%TD*%
D38*
%TO.C,K13*%
X129393750Y-63437500D03*
X118393750Y-63437500D03*
D39*
X123893750Y-63437500D03*
D40*
X118893750Y-67237500D03*
X128893750Y-67237500D03*
X123893750Y-69337500D03*
%TD*%
D39*
%TO.C,K1*%
X161990216Y-44387052D03*
D38*
X156490216Y-44387052D03*
X167490216Y-44387052D03*
D40*
X156990216Y-48187052D03*
X166990216Y-48187052D03*
X161990216Y-50287052D03*
%TD*%
D38*
%TO.C,K4*%
X99287500Y-44387500D03*
X110287500Y-44387500D03*
D39*
X104787500Y-44387500D03*
D40*
X109787500Y-48187500D03*
X99787500Y-48187500D03*
X104787500Y-50287500D03*
%TD*%
D39*
%TO.C,K6*%
X66743750Y-44387500D03*
D38*
X61243750Y-44387500D03*
X72243750Y-44387500D03*
D40*
X61743750Y-48187500D03*
X71743750Y-48187500D03*
X66743750Y-50287500D03*
%TD*%
D38*
%TO.C,J1*%
X206851250Y-120491250D03*
X204311250Y-120491250D03*
X206851250Y-123031250D03*
X204311250Y-123031250D03*
X206851250Y-125571250D03*
D41*
X204311250Y-125571250D03*
%TD*%
D39*
%TO.C,K21*%
X161992926Y-82486455D03*
D38*
X167492926Y-82486455D03*
X156492926Y-82486455D03*
D40*
X166992926Y-86286455D03*
X156992926Y-86286455D03*
X161992926Y-88386455D03*
%TD*%
D38*
%TO.C,K24*%
X99287500Y-82487500D03*
D39*
X104787500Y-82487500D03*
D38*
X110287500Y-82487500D03*
D40*
X109787500Y-86287500D03*
X99787500Y-86287500D03*
X104787500Y-88387500D03*
%TD*%
D39*
%TO.C,K16*%
X66743750Y-63437500D03*
D38*
X61243750Y-63437500D03*
X72243750Y-63437500D03*
D40*
X61743750Y-67237500D03*
X71743750Y-67237500D03*
X66743750Y-69337500D03*
%TD*%
D39*
%TO.C,K11*%
X161991197Y-63438204D03*
D38*
X156491197Y-63438204D03*
X167491197Y-63438204D03*
D40*
X156991197Y-67238204D03*
X166991197Y-67238204D03*
X161991197Y-69338204D03*
%TD*%
D39*
%TO.C,K30*%
X181043750Y-101537500D03*
D38*
X186543750Y-101537500D03*
X175543750Y-101537500D03*
D40*
X176043750Y-105337500D03*
X186043750Y-105337500D03*
X181043750Y-107437500D03*
%TD*%
D42*
%TO.C,SW1*%
X202481250Y-111387500D03*
X208681250Y-111387500D03*
X202481250Y-107687500D03*
X208681250Y-107687500D03*
%TD*%
D38*
%TO.C,K42*%
X137442431Y-120588881D03*
D39*
X142942431Y-120588881D03*
D38*
X148442431Y-120588881D03*
D40*
X137942431Y-124388881D03*
X147942431Y-124388881D03*
X142942431Y-126488881D03*
%TD*%
D39*
%TO.C,K45*%
X85793750Y-120587500D03*
D38*
X91293750Y-120587500D03*
X80293750Y-120587500D03*
D40*
X80793750Y-124387500D03*
X90793750Y-124387500D03*
X85793750Y-126487500D03*
%TD*%
D38*
%TO.C,K33*%
X129393750Y-101537500D03*
D39*
X123893750Y-101537500D03*
D38*
X118393750Y-101537500D03*
D40*
X118893750Y-105337500D03*
X128893750Y-105337500D03*
X123893750Y-107437500D03*
%TD*%
D38*
%TO.C,K3*%
X118393750Y-44387500D03*
X129393750Y-44387500D03*
D39*
X123893750Y-44387500D03*
D40*
X128893750Y-48187500D03*
X118893750Y-48187500D03*
X123893750Y-50287500D03*
%TD*%
D39*
%TO.C,K10*%
X181041310Y-63437500D03*
D38*
X186541310Y-63437500D03*
X175541310Y-63437500D03*
D40*
X176041310Y-67237500D03*
X186041310Y-67237500D03*
X181041310Y-69337500D03*
%TD*%
D39*
%TO.C,K31*%
X161993750Y-101536709D03*
D38*
X167493750Y-101536709D03*
X156493750Y-101536709D03*
D40*
X156993750Y-105336709D03*
X166993750Y-105336709D03*
X161993750Y-107436709D03*
%TD*%
D38*
%TO.C,K25*%
X91293750Y-82487500D03*
X80293750Y-82487500D03*
D39*
X85793750Y-82487500D03*
D40*
X90793750Y-86287500D03*
X80793750Y-86287500D03*
X85793750Y-88387500D03*
%TD*%
M02*
