M48
; DRILL file {KiCad (6.0.6)} date Sat Aug  6 01:33:42 2022
; FORMAT={-:-/ absolute / metric / decimal}
; #@! TF.CreationDate,2022-08-06T01:33:42+08:00
; #@! TF.GenerationSoftware,Kicad,Pcbnew,(6.0.6)
; #@! TF.FileFunction,NonPlated,1,2,NPTH
FMAT,2
METRIC
; #@! TA.AperFunction,NonPlated,NPTH,ComponentDrill
T1C0.650
; #@! TA.AperFunction,NonPlated,NPTH,ComponentDrill
T2C1.600
; #@! TA.AperFunction,NonPlated,NPTH,ComponentDrill
T3C1.900
; #@! TA.AperFunction,NonPlated,NPTH,ComponentDrill
T4C3.050
; #@! TA.AperFunction,NonPlated,NPTH,ComponentDrill
T5C5.050
%
G90
G05
T1
X66.96Y-38.971
X72.74Y-38.971
T2
X99.387Y-96.387
X99.388Y-115.438
X99.39Y-39.237
X99.39Y-58.287
X99.39Y-77.337
X118.438Y-96.387
X118.438Y-77.336
X118.44Y-115.438
X118.44Y-58.288
X118.441Y-39.237
X137.488Y-96.386
X137.488Y-77.337
X137.489Y-115.439
X137.489Y-58.288
X137.491Y-39.237
X156.537Y-39.237
X156.537Y-58.287
X156.537Y-77.337
X156.537Y-96.387
X156.537Y-115.438
X175.644Y-39.237
X175.644Y-58.287
X175.644Y-77.337
X175.644Y-96.387
X175.644Y-115.438
X194.637Y-39.237
X194.637Y-58.287
X194.637Y-77.337
X194.637Y-96.387
X194.637Y-115.438
X213.688Y-39.237
X213.688Y-58.287
X213.688Y-77.337
X213.688Y-96.387
X213.688Y-115.438
T3
X88.888Y-101.537
X88.888Y-120.587
X88.89Y-44.387
X88.89Y-63.438
X88.89Y-82.487
X99.887Y-101.537
X99.888Y-120.587
X99.89Y-44.387
X99.89Y-63.438
X99.89Y-82.487
X107.938Y-101.537
X107.938Y-82.486
X107.94Y-120.588
X107.94Y-63.438
X107.941Y-44.387
X118.938Y-101.537
X118.938Y-82.486
X118.94Y-120.588
X118.94Y-63.438
X118.941Y-44.387
X126.988Y-101.536
X126.988Y-82.487
X126.989Y-120.589
X126.989Y-63.438
X126.991Y-44.387
X137.988Y-101.536
X137.988Y-82.487
X137.989Y-120.589
X137.989Y-63.438
X137.991Y-44.387
X146.037Y-44.387
X146.037Y-63.438
X146.037Y-82.487
X146.037Y-101.537
X146.037Y-120.587
X157.037Y-44.387
X157.037Y-63.438
X157.037Y-82.487
X157.037Y-101.537
X157.037Y-120.587
X165.144Y-44.387
X165.144Y-63.438
X165.144Y-82.487
X165.144Y-101.537
X165.144Y-120.587
X176.144Y-44.387
X176.144Y-63.438
X176.144Y-82.487
X176.144Y-101.537
X176.144Y-120.587
X184.137Y-44.387
X184.137Y-63.438
X184.137Y-82.487
X184.137Y-101.537
X184.137Y-120.587
X195.137Y-44.387
X195.137Y-63.438
X195.137Y-82.487
X195.137Y-101.537
X195.137Y-120.587
X203.188Y-44.387
X203.188Y-63.438
X203.188Y-82.487
X203.188Y-101.537
X203.188Y-120.587
X214.188Y-44.387
X214.188Y-63.438
X214.188Y-82.487
X214.188Y-101.537
X214.188Y-120.587
T4
X89.388Y-105.337
X89.388Y-124.387
X89.39Y-48.188
X89.39Y-67.237
X89.39Y-86.287
X94.387Y-107.438
X94.388Y-126.487
X94.39Y-50.287
X94.39Y-69.337
X94.39Y-88.388
X108.438Y-105.337
X108.438Y-86.286
X108.44Y-124.388
X108.44Y-67.238
X108.441Y-48.187
X113.438Y-107.437
X113.438Y-88.386
X113.44Y-126.488
X113.44Y-69.338
X113.441Y-50.287
X127.488Y-105.336
X127.488Y-86.287
X127.489Y-124.389
X127.489Y-67.238
X127.491Y-48.187
X132.488Y-107.436
X132.488Y-88.387
X132.489Y-126.489
X132.489Y-69.338
X132.491Y-50.287
X146.537Y-48.188
X146.537Y-67.237
X146.537Y-86.287
X146.537Y-105.337
X146.537Y-124.387
X151.537Y-50.287
X151.537Y-69.337
X151.537Y-88.388
X151.537Y-107.438
X151.537Y-126.487
X165.644Y-48.188
X165.644Y-67.237
X165.644Y-86.287
X165.644Y-105.337
X165.644Y-124.387
X170.644Y-50.287
X170.644Y-69.337
X170.644Y-88.388
X170.644Y-107.438
X170.644Y-126.487
X184.637Y-48.188
X184.637Y-67.237
X184.637Y-86.287
X184.637Y-105.337
X184.637Y-124.387
X189.637Y-50.287
X189.637Y-69.337
X189.637Y-88.388
X189.637Y-107.438
X189.637Y-126.487
X203.688Y-48.188
X203.688Y-67.237
X203.688Y-86.287
X203.688Y-105.337
X203.688Y-124.387
X208.688Y-50.287
X208.688Y-69.337
X208.688Y-88.388
X208.688Y-107.438
X208.688Y-126.487
T5
X94.387Y-101.537
X94.388Y-120.587
X94.39Y-44.387
X94.39Y-63.438
X94.39Y-82.487
X113.438Y-101.537
X113.438Y-82.486
X113.44Y-120.588
X113.44Y-63.438
X113.441Y-44.387
X132.488Y-101.536
X132.488Y-82.487
X132.489Y-120.589
X132.489Y-63.438
X132.491Y-44.387
X151.537Y-44.387
X151.537Y-63.438
X151.537Y-82.487
X151.537Y-101.537
X151.537Y-120.587
X170.644Y-44.387
X170.644Y-63.438
X170.644Y-82.487
X170.644Y-101.537
X170.644Y-120.587
X189.637Y-44.387
X189.637Y-63.438
X189.637Y-82.487
X189.637Y-101.537
X189.637Y-120.587
X208.688Y-44.387
X208.688Y-63.438
X208.688Y-82.487
X208.688Y-101.537
X208.688Y-120.587
T0
M30
