%TF.GenerationSoftware,KiCad,Pcbnew,(6.0.6)*%
%TF.CreationDate,2022-08-06T01:33:39+08:00*%
%TF.ProjectId,5x7,3578372e-6b69-4636-9164-5f7063625858,rev?*%
%TF.SameCoordinates,Original*%
%TF.FileFunction,Soldermask,Bot*%
%TF.FilePolarity,Negative*%
%FSLAX46Y46*%
G04 Gerber Fmt 4.6, Leading zero omitted, Abs format (unit mm)*
G04 Created by KiCad (PCBNEW (6.0.6)) date 2022-08-06 01:33:39*
%MOMM*%
%LPD*%
G01*
G04 APERTURE LIST*
G04 Aperture macros list*
%AMRoundRect*
0 Rectangle with rounded corners*
0 $1 Rounding radius*
0 $2 $3 $4 $5 $6 $7 $8 $9 X,Y pos of 4 corners*
0 Add a 4 corners polygon primitive as box body*
4,1,4,$2,$3,$4,$5,$6,$7,$8,$9,$2,$3,0*
0 Add four circle primitives for the rounded corners*
1,1,$1+$1,$2,$3*
1,1,$1+$1,$4,$5*
1,1,$1+$1,$6,$7*
1,1,$1+$1,$8,$9*
0 Add four rect primitives between the rounded corners*
20,1,$1+$1,$2,$3,$4,$5,0*
20,1,$1+$1,$4,$5,$6,$7,0*
20,1,$1+$1,$6,$7,$8,$9,0*
20,1,$1+$1,$8,$9,$2,$3,0*%
%AMFreePoly0*
4,1,18,-0.410000,0.593000,-0.403758,0.624380,-0.385983,0.650983,-0.359380,0.668758,-0.328000,0.675000,0.328000,0.675000,0.359380,0.668758,0.385983,0.650983,0.403758,0.624380,0.410000,0.593000,0.410000,-0.593000,0.403758,-0.624380,0.385983,-0.650983,0.359380,-0.668758,0.328000,-0.675000,0.000000,-0.675000,-0.410000,-0.265000,-0.410000,0.593000,-0.410000,0.593000,$1*%
G04 Aperture macros list end*
%ADD10R,0.550000X1.500000*%
%ADD11R,1.500000X0.550000*%
%ADD12RoundRect,0.082000X-0.593000X0.328000X-0.593000X-0.328000X0.593000X-0.328000X0.593000X0.328000X0*%
%ADD13FreePoly0,270.000000*%
%ADD14R,1.200000X0.900000*%
%ADD15RoundRect,0.250000X0.475000X-0.337500X0.475000X0.337500X-0.475000X0.337500X-0.475000X-0.337500X0*%
%ADD16RoundRect,0.250000X0.450000X-0.350000X0.450000X0.350000X-0.450000X0.350000X-0.450000X-0.350000X0*%
%ADD17RoundRect,0.250001X-0.624999X0.462499X-0.624999X-0.462499X0.624999X-0.462499X0.624999X0.462499X0*%
%ADD18C,0.650000*%
%ADD19R,0.600000X2.450000*%
%ADD20R,0.300000X2.450000*%
%ADD21RoundRect,0.250000X-0.450000X0.350000X-0.450000X-0.350000X0.450000X-0.350000X0.450000X0.350000X0*%
%ADD22RoundRect,0.250000X-0.475000X0.337500X-0.475000X-0.337500X0.475000X-0.337500X0.475000X0.337500X0*%
%ADD23RoundRect,0.250000X-0.337500X-0.475000X0.337500X-0.475000X0.337500X0.475000X-0.337500X0.475000X0*%
%ADD24RoundRect,0.250000X-0.350000X-0.450000X0.350000X-0.450000X0.350000X0.450000X-0.350000X0.450000X0*%
%ADD25RoundRect,0.250000X0.350000X0.450000X-0.350000X0.450000X-0.350000X-0.450000X0.350000X-0.450000X0*%
%ADD26R,0.700000X1.000000*%
%ADD27R,0.700000X0.600000*%
%ADD28R,1.800000X2.100000*%
%ADD29C,3.050000*%
%ADD30C,1.600000*%
%ADD31C,5.050000*%
%ADD32C,1.900000*%
%ADD33RoundRect,0.250000X1.025000X1.000000X-1.025000X1.000000X-1.025000X-1.000000X1.025000X-1.000000X0*%
G04 APERTURE END LIST*
D10*
%TO.C,U1*%
X65850000Y-64150000D03*
X66650000Y-64150000D03*
X67450000Y-64150000D03*
X68250000Y-64150000D03*
X69050000Y-64150000D03*
X69850000Y-64150000D03*
X70650000Y-64150000D03*
X71450000Y-64150000D03*
X72250000Y-64150000D03*
X73050000Y-64150000D03*
X73850000Y-64150000D03*
D11*
X75550000Y-65850000D03*
X75550000Y-66650000D03*
X75550000Y-67450000D03*
X75550000Y-68250000D03*
X75550000Y-69050000D03*
X75550000Y-69850000D03*
X75550000Y-70650000D03*
X75550000Y-71450000D03*
X75550000Y-72250000D03*
X75550000Y-73050000D03*
X75550000Y-73850000D03*
D10*
X73850000Y-75550000D03*
X73050000Y-75550000D03*
X72250000Y-75550000D03*
X71450000Y-75550000D03*
X70650000Y-75550000D03*
X69850000Y-75550000D03*
X69050000Y-75550000D03*
X68250000Y-75550000D03*
X67450000Y-75550000D03*
X66650000Y-75550000D03*
X65850000Y-75550000D03*
D11*
X64150000Y-73850000D03*
X64150000Y-73050000D03*
X64150000Y-72250000D03*
X64150000Y-71450000D03*
X64150000Y-70650000D03*
X64150000Y-69850000D03*
X64150000Y-69050000D03*
X64150000Y-68250000D03*
X64150000Y-67450000D03*
X64150000Y-66650000D03*
X64150000Y-65850000D03*
%TD*%
D12*
%TO.C,LED4*%
X154262500Y-40437500D03*
X154262500Y-38937500D03*
X148812500Y-40437500D03*
D13*
X148812500Y-38937500D03*
%TD*%
D14*
%TO.C,D22*%
X139700000Y-92137500D03*
X139700000Y-88837500D03*
%TD*%
D12*
%TO.C,LED19*%
X173368750Y-78537500D03*
X173368750Y-77037500D03*
X167918750Y-78537500D03*
D13*
X167918750Y-77037500D03*
%TD*%
D14*
%TO.C,D16*%
X215900000Y-73087500D03*
X215900000Y-69787500D03*
%TD*%
D12*
%TO.C,LED18*%
X154262500Y-78537500D03*
X154262500Y-77037500D03*
X148812500Y-78537500D03*
D13*
X148812500Y-77037500D03*
%TD*%
D12*
%TO.C,LED34*%
X192362500Y-116637500D03*
X192362500Y-115137500D03*
X186912500Y-116637500D03*
D13*
X186912500Y-115137500D03*
%TD*%
D12*
%TO.C,LED7*%
X211412500Y-40437500D03*
X211412500Y-38937500D03*
X205962500Y-40437500D03*
D13*
X205962500Y-38937500D03*
%TD*%
D14*
%TO.C,D20*%
X101600000Y-92137500D03*
X101600000Y-88837500D03*
%TD*%
D15*
%TO.C,C8*%
X63500000Y-59775000D03*
X63500000Y-57700000D03*
%TD*%
D14*
%TO.C,D40*%
X101600000Y-130237500D03*
X101600000Y-126937500D03*
%TD*%
%TO.C,D2*%
X139700000Y-54037500D03*
X139700000Y-50737500D03*
%TD*%
D12*
%TO.C,LED20*%
X192362500Y-78537500D03*
X192362500Y-77037500D03*
X186912500Y-78537500D03*
D13*
X186912500Y-77037500D03*
%TD*%
D14*
%TO.C,D13*%
X158750000Y-73087500D03*
X158750000Y-69787500D03*
%TD*%
D16*
%TO.C,R7*%
X79375000Y-50212500D03*
X79375000Y-48212500D03*
%TD*%
D17*
%TO.C,F1*%
X63500000Y-50900000D03*
X63500000Y-53875000D03*
%TD*%
D18*
%TO.C,USB1*%
X66960000Y-38971250D03*
X72740000Y-38971250D03*
D19*
X66625000Y-40916250D03*
X67400000Y-40916250D03*
D20*
X68100000Y-40916250D03*
X68600000Y-40916250D03*
X69100000Y-40916250D03*
X69600000Y-40916250D03*
X70100000Y-40916250D03*
X70600000Y-40916250D03*
X71100000Y-40916250D03*
X71600000Y-40916250D03*
D19*
X72300000Y-40916250D03*
X73075000Y-40916250D03*
%TD*%
D14*
%TO.C,D23*%
X158750000Y-92137500D03*
X158750000Y-88837500D03*
%TD*%
%TO.C,D10*%
X101600000Y-73087500D03*
X101600000Y-69787500D03*
%TD*%
%TO.C,D35*%
X196850000Y-111187500D03*
X196850000Y-107887500D03*
%TD*%
D12*
%TO.C,LED11*%
X154262500Y-59487500D03*
X154262500Y-57987500D03*
X148812500Y-59487500D03*
D13*
X148812500Y-57987500D03*
%TD*%
D21*
%TO.C,R5*%
X69056250Y-57737500D03*
X69056250Y-59737500D03*
%TD*%
D14*
%TO.C,D31*%
X120650000Y-111187500D03*
X120650000Y-107887500D03*
%TD*%
%TO.C,D3*%
X158750000Y-54037500D03*
X158750000Y-50737500D03*
%TD*%
%TO.C,D15*%
X196850000Y-73087500D03*
X196850000Y-69787500D03*
%TD*%
%TO.C,D34*%
X177800000Y-111187500D03*
X177800000Y-107887500D03*
%TD*%
D12*
%TO.C,LED35*%
X211412500Y-116637500D03*
X211412500Y-115137500D03*
X205962500Y-116637500D03*
D13*
X205962500Y-115137500D03*
%TD*%
D14*
%TO.C,D46*%
X215900000Y-130237500D03*
X215900000Y-126937500D03*
%TD*%
D22*
%TO.C,C3*%
X73818750Y-57700000D03*
X73818750Y-59775000D03*
%TD*%
D14*
%TO.C,D36*%
X215900000Y-111187500D03*
X215900000Y-107887500D03*
%TD*%
D23*
%TO.C,C4*%
X73575000Y-79375000D03*
X75650000Y-79375000D03*
%TD*%
D15*
%TO.C,C5*%
X59531250Y-74856250D03*
X59531250Y-72781250D03*
%TD*%
D22*
%TO.C,C6*%
X79375000Y-67225000D03*
X79375000Y-69300000D03*
%TD*%
D12*
%TO.C,LED5*%
X173368750Y-40437500D03*
X173368750Y-38937500D03*
X167918750Y-40437500D03*
D13*
X167918750Y-38937500D03*
%TD*%
D12*
%TO.C,LED24*%
X135212500Y-97587500D03*
X135212500Y-96087500D03*
X129762500Y-97587500D03*
D13*
X129762500Y-96087500D03*
%TD*%
D12*
%TO.C,LED13*%
X192362500Y-59487500D03*
X192362500Y-57987500D03*
X186912500Y-59487500D03*
D13*
X186912500Y-57987500D03*
%TD*%
D14*
%TO.C,D6*%
X215900000Y-54037500D03*
X215900000Y-50737500D03*
%TD*%
D12*
%TO.C,LED8*%
X97112500Y-59487500D03*
X97112500Y-57987500D03*
X91662500Y-59487500D03*
D13*
X91662500Y-57987500D03*
%TD*%
D12*
%TO.C,LED25*%
X154262500Y-97587500D03*
X154262500Y-96087500D03*
X148812500Y-97587500D03*
D13*
X148812500Y-96087500D03*
%TD*%
D14*
%TO.C,D1*%
X120650000Y-54037500D03*
X120650000Y-50737500D03*
%TD*%
%TO.C,D43*%
X158750000Y-130237500D03*
X158750000Y-126937500D03*
%TD*%
D12*
%TO.C,LED17*%
X135212500Y-78537500D03*
X135212500Y-77037500D03*
X129762500Y-78537500D03*
D13*
X129762500Y-77037500D03*
%TD*%
D24*
%TO.C,R1*%
X72818750Y-45421250D03*
X74818750Y-45421250D03*
%TD*%
D14*
%TO.C,D4*%
X177800000Y-54037500D03*
X177800000Y-50737500D03*
%TD*%
%TO.C,D21*%
X120650000Y-92137500D03*
X120650000Y-88837500D03*
%TD*%
D12*
%TO.C,LED30*%
X116162500Y-116637500D03*
X116162500Y-115137500D03*
X110712500Y-116637500D03*
D13*
X110712500Y-115137500D03*
%TD*%
D15*
%TO.C,C1*%
X76200000Y-93906250D03*
X76200000Y-91831250D03*
%TD*%
D14*
%TO.C,D42*%
X139700000Y-130237500D03*
X139700000Y-126937500D03*
%TD*%
D12*
%TO.C,LED27*%
X192362500Y-97587500D03*
X192362500Y-96087500D03*
X186912500Y-97587500D03*
D13*
X186912500Y-96087500D03*
%TD*%
D12*
%TO.C,LED1*%
X97112500Y-40437500D03*
X97112500Y-38937500D03*
X91662500Y-40437500D03*
D13*
X91662500Y-38937500D03*
%TD*%
D14*
%TO.C,D24*%
X177800000Y-92137500D03*
X177800000Y-88837500D03*
%TD*%
%TO.C,D45*%
X196850000Y-130237500D03*
X196850000Y-126937500D03*
%TD*%
%TO.C,D30*%
X101600000Y-111187500D03*
X101600000Y-107887500D03*
%TD*%
%TO.C,D14*%
X177800000Y-73087500D03*
X177800000Y-69787500D03*
%TD*%
D12*
%TO.C,LED14*%
X211412500Y-59487500D03*
X211412500Y-57987500D03*
X205962500Y-59487500D03*
D13*
X205962500Y-57987500D03*
%TD*%
D12*
%TO.C,LED28*%
X211412500Y-97587500D03*
X211412500Y-96087500D03*
X205962500Y-97587500D03*
D13*
X205962500Y-96087500D03*
%TD*%
D12*
%TO.C,LED15*%
X97112500Y-78537500D03*
X97112500Y-77037500D03*
X91662500Y-78537500D03*
D13*
X91662500Y-77037500D03*
%TD*%
D14*
%TO.C,D32*%
X139700000Y-111187500D03*
X139700000Y-107887500D03*
%TD*%
D12*
%TO.C,LED32*%
X154262500Y-116637500D03*
X154262500Y-115137500D03*
X148812500Y-116637500D03*
D13*
X148812500Y-115137500D03*
%TD*%
D14*
%TO.C,D33*%
X158750000Y-111187500D03*
X158750000Y-107887500D03*
%TD*%
D12*
%TO.C,LED21*%
X211412500Y-78537500D03*
X211412500Y-77037500D03*
X205962500Y-78537500D03*
D13*
X205962500Y-77037500D03*
%TD*%
D12*
%TO.C,LED6*%
X192362500Y-40437500D03*
X192362500Y-38937500D03*
X186912500Y-40437500D03*
D13*
X186912500Y-38937500D03*
%TD*%
D14*
%TO.C,D12*%
X139700000Y-73087500D03*
X139700000Y-69787500D03*
%TD*%
D12*
%TO.C,LED23*%
X116162500Y-97587500D03*
X116162500Y-96087500D03*
X110712500Y-97587500D03*
D13*
X110712500Y-96087500D03*
%TD*%
D12*
%TO.C,LED29*%
X97112500Y-116637500D03*
X97112500Y-115137500D03*
X91662500Y-116637500D03*
D13*
X91662500Y-115137500D03*
%TD*%
D14*
%TO.C,D11*%
X120650000Y-73087500D03*
X120650000Y-69787500D03*
%TD*%
D25*
%TO.C,R2*%
X66881250Y-45421250D03*
X64881250Y-45421250D03*
%TD*%
D12*
%TO.C,LED16*%
X116162500Y-78537500D03*
X116162500Y-77037500D03*
X110712500Y-78537500D03*
D13*
X110712500Y-77037500D03*
%TD*%
D12*
%TO.C,LED3*%
X135212500Y-40437500D03*
X135212500Y-38937500D03*
X129762500Y-40437500D03*
D13*
X129762500Y-38937500D03*
%TD*%
D14*
%TO.C,D0*%
X101600000Y-54037500D03*
X101600000Y-50737500D03*
%TD*%
D12*
%TO.C,LED22*%
X97112500Y-97587500D03*
X97112500Y-96087500D03*
X91662500Y-97587500D03*
D13*
X91662500Y-96087500D03*
%TD*%
D12*
%TO.C,LED26*%
X173368750Y-97587500D03*
X173368750Y-96087500D03*
X167918750Y-97587500D03*
D13*
X167918750Y-96087500D03*
%TD*%
D14*
%TO.C,D26*%
X215900000Y-92137500D03*
X215900000Y-88837500D03*
%TD*%
D12*
%TO.C,LED33*%
X173368750Y-116637500D03*
X173368750Y-115137500D03*
X167918750Y-116637500D03*
D13*
X167918750Y-115137500D03*
%TD*%
D21*
%TO.C,R4*%
X66675000Y-57737500D03*
X66675000Y-59737500D03*
%TD*%
D22*
%TO.C,C7*%
X59531250Y-64843750D03*
X59531250Y-66918750D03*
%TD*%
D21*
%TO.C,R6*%
X60325000Y-88693750D03*
X60325000Y-90693750D03*
%TD*%
D12*
%TO.C,LED12*%
X173368750Y-59487500D03*
X173368750Y-57987500D03*
X167918750Y-59487500D03*
D13*
X167918750Y-57987500D03*
%TD*%
D12*
%TO.C,LED10*%
X135212500Y-59487500D03*
X135212500Y-57987500D03*
X129762500Y-59487500D03*
D13*
X129762500Y-57987500D03*
%TD*%
D26*
%TO.C,U2*%
X69262500Y-53225000D03*
D27*
X69262500Y-54925000D03*
X67262500Y-54925000D03*
X67262500Y-53025000D03*
%TD*%
D12*
%TO.C,LED31*%
X135212500Y-116637500D03*
X135212500Y-115137500D03*
X129762500Y-116637500D03*
D13*
X129762500Y-115137500D03*
%TD*%
D22*
%TO.C,C2*%
X67012500Y-91831250D03*
X67012500Y-93906250D03*
%TD*%
D14*
%TO.C,D25*%
X196850000Y-92137500D03*
X196850000Y-88837500D03*
%TD*%
D12*
%TO.C,LED2*%
X116162500Y-40437500D03*
X116162500Y-38937500D03*
X110712500Y-40437500D03*
D13*
X110712500Y-38937500D03*
%TD*%
D28*
%TO.C,Y1*%
X72587500Y-91418750D03*
X72587500Y-94318750D03*
X70287500Y-94318750D03*
X70287500Y-91418750D03*
%TD*%
D25*
%TO.C,R3*%
X61325000Y-78581250D03*
X59325000Y-78581250D03*
%TD*%
D14*
%TO.C,D5*%
X196850000Y-54037500D03*
X196850000Y-50737500D03*
%TD*%
%TO.C,D41*%
X120650000Y-130237500D03*
X120650000Y-126937500D03*
%TD*%
D12*
%TO.C,LED9*%
X116162500Y-59487500D03*
X116162500Y-57987500D03*
X110712500Y-59487500D03*
D13*
X110712500Y-57987500D03*
%TD*%
D14*
%TO.C,D44*%
X177800000Y-130237500D03*
X177800000Y-126937500D03*
%TD*%
D29*
%TO.C,K41*%
X113439804Y-126488407D03*
D30*
X118439804Y-115438407D03*
D31*
X113439804Y-120588407D03*
D32*
X107939804Y-120588407D03*
D29*
X108439804Y-124388407D03*
D32*
X118939804Y-120588407D03*
D33*
X116939804Y-126588407D03*
X104939804Y-124388407D03*
%TD*%
D32*
%TO.C,K20*%
X99889940Y-82487500D03*
D29*
X89389940Y-86287500D03*
D30*
X99389940Y-77337500D03*
D32*
X88889940Y-82487500D03*
D31*
X94389940Y-82487500D03*
D29*
X94389940Y-88387500D03*
D33*
X97889940Y-88487500D03*
X85889940Y-86287500D03*
%TD*%
D32*
%TO.C,K46*%
X203187500Y-120587500D03*
X214187500Y-120587500D03*
D29*
X208687500Y-126487500D03*
X203687500Y-124387500D03*
D31*
X208687500Y-120587500D03*
D30*
X213687500Y-115437500D03*
D33*
X212187500Y-126587500D03*
X200187500Y-124387500D03*
%TD*%
D32*
%TO.C,K36*%
X214187500Y-101537500D03*
D31*
X208687500Y-101537500D03*
D29*
X208687500Y-107437500D03*
D30*
X213687500Y-96387500D03*
D29*
X203687500Y-105337500D03*
D32*
X203187500Y-101537500D03*
D33*
X212187500Y-107537500D03*
X200187500Y-105337500D03*
%TD*%
D31*
%TO.C,K12*%
X132489336Y-63437625D03*
D29*
X127489336Y-67237625D03*
D32*
X126989336Y-63437625D03*
D30*
X137489336Y-58287625D03*
D32*
X137989336Y-63437625D03*
D29*
X132489336Y-69337625D03*
D33*
X135989336Y-69437625D03*
X123989336Y-67237625D03*
%TD*%
D32*
%TO.C,K22*%
X126987860Y-82487020D03*
D29*
X132487860Y-88387020D03*
D30*
X137487860Y-77337020D03*
D31*
X132487860Y-82487020D03*
D29*
X127487860Y-86287020D03*
D32*
X137987860Y-82487020D03*
D33*
X135987860Y-88487020D03*
X123987860Y-86287020D03*
%TD*%
D32*
%TO.C,K35*%
X195137500Y-101537500D03*
X184137500Y-101537500D03*
D31*
X189637500Y-101537500D03*
D30*
X194637500Y-96387500D03*
D29*
X184637500Y-105337500D03*
X189637500Y-107437500D03*
D33*
X193137500Y-107537500D03*
X181137500Y-105337500D03*
%TD*%
D31*
%TO.C,K23*%
X151537500Y-82487500D03*
D32*
X146037500Y-82487500D03*
D30*
X156537500Y-77337500D03*
D29*
X151537500Y-88387500D03*
D32*
X157037500Y-82487500D03*
D29*
X146537500Y-86287500D03*
D33*
X155037500Y-88487500D03*
X143037500Y-86287500D03*
%TD*%
D30*
%TO.C,K5*%
X194637500Y-39237500D03*
D32*
X184137500Y-44387500D03*
D31*
X189637500Y-44387500D03*
D32*
X195137500Y-44387500D03*
D29*
X184637500Y-48187500D03*
X189637500Y-50287500D03*
D33*
X193137500Y-50387500D03*
X181137500Y-48187500D03*
%TD*%
D31*
%TO.C,K40*%
X94388232Y-120587500D03*
D30*
X99388232Y-115437500D03*
D29*
X94388232Y-126487500D03*
D32*
X88888232Y-120587500D03*
X99888232Y-120587500D03*
D29*
X89388232Y-124387500D03*
D33*
X97888232Y-126587500D03*
X85888232Y-124387500D03*
%TD*%
D32*
%TO.C,K44*%
X165143750Y-120587500D03*
D29*
X165643750Y-124387500D03*
D31*
X170643750Y-120587500D03*
D30*
X175643750Y-115437500D03*
D29*
X170643750Y-126487500D03*
D32*
X176143750Y-120587500D03*
D33*
X174143750Y-126587500D03*
X162143750Y-124387500D03*
%TD*%
D30*
%TO.C,K34*%
X175643750Y-96387500D03*
D29*
X165643750Y-105337500D03*
D31*
X170643750Y-101537500D03*
D32*
X176143750Y-101537500D03*
X165143750Y-101537500D03*
D29*
X170643750Y-107437500D03*
D33*
X174143750Y-107537500D03*
X162143750Y-105337500D03*
%TD*%
D29*
%TO.C,K32*%
X132487501Y-107436313D03*
D32*
X126987501Y-101536313D03*
X137987501Y-101536313D03*
D30*
X137487501Y-96386313D03*
D31*
X132487501Y-101536313D03*
D29*
X127487501Y-105336313D03*
D33*
X135987501Y-107536313D03*
X123987501Y-105336313D03*
%TD*%
D29*
%TO.C,K43*%
X146537500Y-124387500D03*
D32*
X146037500Y-120587500D03*
D29*
X151537500Y-126487500D03*
D30*
X156537500Y-115437500D03*
D32*
X157037500Y-120587500D03*
D31*
X151537500Y-120587500D03*
D33*
X155037500Y-126587500D03*
X143037500Y-124387500D03*
%TD*%
D32*
%TO.C,K15*%
X195137500Y-63437500D03*
D30*
X194637500Y-58287500D03*
D32*
X184137500Y-63437500D03*
D29*
X184637500Y-67237500D03*
X189637500Y-69337500D03*
D31*
X189637500Y-63437500D03*
D33*
X193137500Y-69437500D03*
X181137500Y-67237500D03*
%TD*%
D29*
%TO.C,K14*%
X170643750Y-69337500D03*
D32*
X165143750Y-63437500D03*
D30*
X175643750Y-58287500D03*
D29*
X165643750Y-67237500D03*
D32*
X176143750Y-63437500D03*
D31*
X170643750Y-63437500D03*
D33*
X174143750Y-69437500D03*
X162143750Y-67237500D03*
%TD*%
D32*
%TO.C,K0*%
X88889940Y-44387500D03*
D29*
X89389940Y-48187500D03*
D30*
X99389940Y-39237500D03*
D31*
X94389940Y-44387500D03*
D32*
X99889940Y-44387500D03*
D29*
X94389940Y-50287500D03*
D33*
X97889940Y-50387500D03*
X85889940Y-48187500D03*
%TD*%
D31*
%TO.C,K2*%
X132490998Y-44387477D03*
D30*
X137490998Y-39237477D03*
D32*
X137990998Y-44387477D03*
D29*
X132490998Y-50287477D03*
D32*
X126990998Y-44387477D03*
D29*
X127490998Y-48187477D03*
D33*
X135990998Y-50387477D03*
X123990998Y-48187477D03*
%TD*%
D32*
%TO.C,K26*%
X203187500Y-82487500D03*
D29*
X208687500Y-88387500D03*
D31*
X208687500Y-82487500D03*
D30*
X213687500Y-77337500D03*
D29*
X203687500Y-86287500D03*
D32*
X214187500Y-82487500D03*
D33*
X212187500Y-88487500D03*
X200187500Y-86287500D03*
%TD*%
D29*
%TO.C,K13*%
X146537500Y-67237500D03*
D30*
X156537500Y-58287500D03*
D31*
X151537500Y-63437500D03*
D32*
X157037500Y-63437500D03*
D29*
X151537500Y-69337500D03*
D32*
X146037500Y-63437500D03*
D33*
X155037500Y-69437500D03*
X143037500Y-67237500D03*
%TD*%
D31*
%TO.C,K1*%
X113441034Y-44387052D03*
D30*
X118441034Y-39237052D03*
D29*
X108441034Y-48187052D03*
D32*
X118941034Y-44387052D03*
X107941034Y-44387052D03*
D29*
X113441034Y-50287052D03*
D33*
X116941034Y-50387052D03*
X104941034Y-48187052D03*
%TD*%
D32*
%TO.C,K4*%
X176143750Y-44387500D03*
D29*
X165643750Y-48187500D03*
D32*
X165143750Y-44387500D03*
D30*
X175643750Y-39237500D03*
D29*
X170643750Y-50287500D03*
D31*
X170643750Y-44387500D03*
D33*
X174143750Y-50387500D03*
X162143750Y-48187500D03*
%TD*%
D32*
%TO.C,K6*%
X214187500Y-44387500D03*
D31*
X208687500Y-44387500D03*
D29*
X203687500Y-48187500D03*
D30*
X213687500Y-39237500D03*
D29*
X208687500Y-50287500D03*
D32*
X203187500Y-44387500D03*
D33*
X212187500Y-50387500D03*
X200187500Y-48187500D03*
%TD*%
D32*
%TO.C,K21*%
X107938324Y-82486455D03*
D31*
X113438324Y-82486455D03*
D32*
X118938324Y-82486455D03*
D29*
X113438324Y-88386455D03*
X108438324Y-86286455D03*
D30*
X118438324Y-77336455D03*
D33*
X116938324Y-88486455D03*
X104938324Y-86286455D03*
%TD*%
D29*
%TO.C,K24*%
X170643750Y-88387500D03*
D32*
X176143750Y-82487500D03*
X165143750Y-82487500D03*
D29*
X165643750Y-86287500D03*
D31*
X170643750Y-82487500D03*
D30*
X175643750Y-77337500D03*
D33*
X174143750Y-88487500D03*
X162143750Y-86287500D03*
%TD*%
D31*
%TO.C,K16*%
X208687500Y-63437500D03*
D32*
X203187500Y-63437500D03*
X214187500Y-63437500D03*
D30*
X213687500Y-58287500D03*
D29*
X208687500Y-69337500D03*
X203687500Y-67237500D03*
D33*
X212187500Y-69437500D03*
X200187500Y-67237500D03*
%TD*%
D29*
%TO.C,K11*%
X113440053Y-69338204D03*
D30*
X118440053Y-58288204D03*
D29*
X108440053Y-67238204D03*
D32*
X107940053Y-63438204D03*
D31*
X113440053Y-63438204D03*
D32*
X118940053Y-63438204D03*
D33*
X116940053Y-69438204D03*
X104940053Y-67238204D03*
%TD*%
D31*
%TO.C,K30*%
X94387500Y-101537500D03*
D32*
X99887500Y-101537500D03*
D29*
X89387500Y-105337500D03*
X94387500Y-107437500D03*
D30*
X99387500Y-96387500D03*
D32*
X88887500Y-101537500D03*
D33*
X97887500Y-107537500D03*
X85887500Y-105337500D03*
%TD*%
D29*
%TO.C,K42*%
X127488819Y-124388881D03*
X132488819Y-126488881D03*
D30*
X137488819Y-115438881D03*
D31*
X132488819Y-120588881D03*
D32*
X126988819Y-120588881D03*
X137988819Y-120588881D03*
D33*
X135988819Y-126588881D03*
X123988819Y-124388881D03*
%TD*%
D29*
%TO.C,K45*%
X189637500Y-126487500D03*
D31*
X189637500Y-120587500D03*
D30*
X194637500Y-115437500D03*
D32*
X184137500Y-120587500D03*
D29*
X184637500Y-124387500D03*
D32*
X195137500Y-120587500D03*
D33*
X193137500Y-126587500D03*
X181137500Y-124387500D03*
%TD*%
D32*
%TO.C,K33*%
X146037500Y-101537500D03*
X157037500Y-101537500D03*
D30*
X156537500Y-96387500D03*
D29*
X151537500Y-107437500D03*
D31*
X151537500Y-101537500D03*
D29*
X146537500Y-105337500D03*
D33*
X155037500Y-107537500D03*
X143037500Y-105337500D03*
%TD*%
D29*
%TO.C,K3*%
X146537500Y-48187500D03*
D30*
X156537500Y-39237500D03*
D32*
X146037500Y-44387500D03*
D31*
X151537500Y-44387500D03*
D29*
X151537500Y-50287500D03*
D32*
X157037500Y-44387500D03*
D33*
X155037500Y-50387500D03*
X143037500Y-48187500D03*
%TD*%
D29*
%TO.C,K10*%
X89389940Y-67237500D03*
X94389940Y-69337500D03*
D32*
X99889940Y-63437500D03*
D30*
X99389940Y-58287500D03*
D31*
X94389940Y-63437500D03*
D32*
X88889940Y-63437500D03*
D33*
X97889940Y-69437500D03*
X85889940Y-67237500D03*
%TD*%
D30*
%TO.C,K31*%
X118437500Y-96386709D03*
D29*
X113437500Y-107436709D03*
X108437500Y-105336709D03*
D31*
X113437500Y-101536709D03*
D32*
X118937500Y-101536709D03*
X107937500Y-101536709D03*
D33*
X116937500Y-107536709D03*
X104937500Y-105336709D03*
%TD*%
D30*
%TO.C,K25*%
X194637500Y-77337500D03*
D32*
X184137500Y-82487500D03*
D29*
X189637500Y-88387500D03*
X184637500Y-86287500D03*
D31*
X189637500Y-82487500D03*
D32*
X195137500Y-82487500D03*
D33*
X193137500Y-88487500D03*
X181137500Y-86287500D03*
%TD*%
M02*
