M48
; DRILL file {KiCad (6.0.6)} date Sat Aug  6 01:33:42 2022
; FORMAT={-:-/ absolute / metric / decimal}
; #@! TF.CreationDate,2022-08-06T01:33:42+08:00
; #@! TF.GenerationSoftware,Kicad,Pcbnew,(6.0.6)
; #@! TF.FileFunction,Plated,1,2,PTH
FMAT,2
METRIC
; #@! TA.AperFunction,Plated,PTH,ViaDrill
T1C0.400
; #@! TA.AperFunction,Plated,PTH,ComponentDrill
T2C0.600
; #@! TA.AperFunction,Plated,PTH,ComponentDrill
T3C1.000
%
G90
G05
T1
X57.15Y-65.881
X58.737Y-76.2
X59.531Y-69.85
X59.531Y-103.981
X60.325Y-70.644
X61.119Y-71.438
X61.119Y-109.537
X61.912Y-72.231
X61.912Y-88.106
X62.706Y-81.756
X63.5Y-56.356
X64.975Y-107.688
X64.99Y-111.391
X65.087Y-62.706
X65.881Y-50.8
X65.881Y-53.181
X65.881Y-115.887
X67.4Y-42.971
X69.056Y-49.212
X70.644Y-49.212
X70.644Y-54.769
X70.644Y-56.356
X70.644Y-79.375
X71.438Y-78.581
X72.231Y-77.787
X72.325Y-43.04
X73.819Y-81.756
X74.612Y-61.912
X75.406Y-62.706
X76.2Y-63.5
X76.994Y-82.55
X77.787Y-66.675
X77.903Y-81.872
X78.466Y-72.347
X78.581Y-73.819
X78.65Y-81.177
X79.222Y-52.235
X79.375Y-65.087
X80.962Y-38.894
X80.962Y-46.831
X80.962Y-57.944
X80.962Y-81.756
X80.962Y-88.106
X80.962Y-98.425
X80.962Y-117.475
X81.756Y-53.975
X81.756Y-67.469
X81.756Y-76.994
X81.756Y-96.837
X81.756Y-100.012
X82.55Y-74.612
X83.344Y-75.406
X83.65Y-71.438
X84.138Y-42.069
X84.138Y-55.562
X84.138Y-73.025
X84.138Y-79.375
X84.138Y-92.075
X84.138Y-111.125
X84.138Y-130.175
X84.931Y-42.862
X84.931Y-57.944
X84.931Y-74.612
X85.725Y-108.744
X85.725Y-121.444
X85.727Y-51.594
X85.727Y-70.644
X85.727Y-89.694
X86.519Y-38.894
X86.519Y-55.562
X86.519Y-57.944
X86.519Y-76.994
X86.519Y-96.044
X87.312Y-79.375
X87.312Y-98.425
X87.312Y-115.094
X87.312Y-117.475
X89.694Y-57.944
X89.694Y-76.994
X89.694Y-96.044
X89.694Y-115.094
X96.837Y-75.406
X96.837Y-94.456
X96.837Y-113.506
X96.839Y-56.355
X98.425Y-41.275
X98.425Y-60.325
X98.425Y-79.375
X98.425Y-98.425
X98.425Y-117.475
X102.394Y-75.406
X102.394Y-94.456
X102.394Y-113.506
X102.395Y-56.355
X103.981Y-38.894
X103.981Y-57.944
X103.981Y-76.994
X103.981Y-96.044
X103.981Y-115.094
X104.775Y-108.743
X104.776Y-89.693
X104.777Y-121.445
X104.778Y-70.644
X104.779Y-51.593
X106.362Y-38.894
X106.362Y-57.944
X106.362Y-76.994
X106.362Y-96.044
X106.362Y-115.094
X115.887Y-56.356
X115.887Y-75.406
X115.887Y-94.456
X115.897Y-113.5
X117.475Y-41.275
X117.475Y-60.325
X117.475Y-79.375
X117.475Y-98.425
X117.475Y-117.475
X121.444Y-56.356
X121.444Y-75.406
X121.444Y-94.456
X121.453Y-113.5
X123.031Y-38.894
X123.031Y-57.944
X123.031Y-76.994
X123.031Y-96.044
X123.031Y-115.094
X123.825Y-108.743
X123.825Y-89.693
X123.826Y-121.445
X123.827Y-70.644
X123.828Y-51.594
X125.412Y-38.894
X125.412Y-57.944
X125.412Y-76.994
X125.412Y-96.044
X125.412Y-115.094
X134.938Y-56.356
X134.938Y-75.406
X134.938Y-94.456
X134.938Y-113.506
X136.525Y-41.275
X136.525Y-60.325
X136.525Y-79.375
X136.525Y-98.425
X136.525Y-117.475
X140.494Y-56.356
X140.494Y-75.406
X140.494Y-94.456
X140.494Y-113.506
X142.081Y-38.894
X142.081Y-57.944
X142.081Y-76.994
X142.081Y-96.044
X142.081Y-115.439
X142.874Y-121.444
X142.875Y-51.594
X142.875Y-70.644
X142.875Y-89.694
X142.875Y-108.744
X144.463Y-38.894
X144.463Y-57.944
X144.463Y-76.994
X144.463Y-96.044
X144.463Y-115.439
X153.987Y-75.406
X153.987Y-94.456
X153.987Y-113.506
X153.993Y-56.351
X155.575Y-41.275
X155.575Y-60.325
X155.575Y-79.375
X155.575Y-98.425
X155.575Y-117.475
X159.544Y-75.406
X159.544Y-94.456
X159.544Y-113.506
X159.55Y-56.351
X161.131Y-38.894
X161.131Y-57.944
X161.131Y-76.994
X161.131Y-96.044
X161.131Y-115.094
X161.981Y-121.444
X161.981Y-51.594
X161.981Y-70.644
X161.981Y-89.694
X161.981Y-108.744
X163.512Y-38.894
X163.512Y-57.944
X163.512Y-76.994
X163.512Y-96.044
X163.512Y-115.094
X173.037Y-75.406
X173.037Y-94.456
X173.037Y-113.506
X173.049Y-56.353
X174.625Y-41.275
X174.625Y-60.325
X174.625Y-79.375
X174.625Y-98.425
X174.625Y-117.475
X178.594Y-75.406
X178.594Y-94.456
X178.594Y-113.506
X178.606Y-56.353
X180.181Y-38.894
X180.181Y-57.944
X180.181Y-76.994
X180.181Y-96.044
X180.181Y-115.094
X180.974Y-121.444
X180.975Y-51.594
X180.975Y-70.644
X180.975Y-89.694
X180.975Y-108.744
X182.562Y-38.894
X182.562Y-57.944
X182.562Y-76.994
X182.562Y-96.044
X182.562Y-115.094
X192.087Y-56.356
X192.087Y-75.406
X192.087Y-94.456
X192.087Y-113.506
X193.675Y-41.275
X193.675Y-60.325
X193.675Y-79.375
X193.675Y-98.425
X193.675Y-117.475
X197.644Y-56.356
X197.644Y-75.406
X197.644Y-94.456
X197.644Y-113.506
X199.231Y-38.894
X199.231Y-57.944
X199.231Y-76.994
X199.231Y-96.044
X199.231Y-115.094
X200.024Y-121.444
X200.025Y-51.594
X200.025Y-70.644
X200.025Y-89.694
X200.025Y-108.744
X201.612Y-38.894
X201.612Y-57.944
X201.612Y-76.994
X201.612Y-96.044
X201.612Y-115.094
X212.725Y-41.275
X212.725Y-60.325
X212.725Y-79.375
X212.725Y-98.425
X212.725Y-117.475
T3
X68.58Y-120.491
X68.58Y-123.031
X68.58Y-125.571
X71.12Y-120.491
X71.12Y-123.031
X71.12Y-125.571
T2
X65.53Y-35.021G85X65.53Y-35.621
G05
X65.53Y-38.951G85X65.53Y-40.051
G05
X74.17Y-35.021G85X74.17Y-35.621
G05
X74.17Y-38.951G85X74.17Y-40.051
G05
T0
M30
