%TF.GenerationSoftware,KiCad,Pcbnew,(6.0.6)*%
%TF.CreationDate,2022-08-06T01:33:39+08:00*%
%TF.ProjectId,5x7,3578372e-6b69-4636-9164-5f7063625858,rev?*%
%TF.SameCoordinates,Original*%
%TF.FileFunction,Legend,Top*%
%TF.FilePolarity,Positive*%
%FSLAX46Y46*%
G04 Gerber Fmt 4.6, Leading zero omitted, Abs format (unit mm)*
G04 Created by KiCad (PCBNEW (6.0.6)) date 2022-08-06 01:33:39*
%MOMM*%
%LPD*%
G01*
G04 APERTURE LIST*
%ADD10C,0.150000*%
%ADD11C,0.250000*%
%ADD12C,0.120000*%
%ADD13C,0.650000*%
%ADD14O,1.000000X2.100000*%
%ADD15O,1.000000X1.600000*%
%ADD16C,1.700000*%
%ADD17R,1.700000X1.700000*%
%ADD18R,1.800000X1.100000*%
%ADD19C,3.050000*%
%ADD20C,1.600000*%
%ADD21C,5.050000*%
%ADD22C,1.900000*%
G04 APERTURE END LIST*
D10*
%TO.C,J1*%
X64564285Y-123436011D02*
X64707142Y-123483630D01*
X64945238Y-123483630D01*
X65040476Y-123436011D01*
X65088095Y-123388392D01*
X65135714Y-123293154D01*
X65135714Y-123197916D01*
X65088095Y-123102678D01*
X65040476Y-123055059D01*
X64945238Y-123007440D01*
X64754761Y-122959821D01*
X64659523Y-122912202D01*
X64611904Y-122864583D01*
X64564285Y-122769345D01*
X64564285Y-122674107D01*
X64611904Y-122578869D01*
X64659523Y-122531250D01*
X64754761Y-122483630D01*
X64992857Y-122483630D01*
X65135714Y-122531250D01*
X66135714Y-123388392D02*
X66088095Y-123436011D01*
X65945238Y-123483630D01*
X65850000Y-123483630D01*
X65707142Y-123436011D01*
X65611904Y-123340773D01*
X65564285Y-123245535D01*
X65516666Y-123055059D01*
X65516666Y-122912202D01*
X65564285Y-122721726D01*
X65611904Y-122626488D01*
X65707142Y-122531250D01*
X65850000Y-122483630D01*
X65945238Y-122483630D01*
X66088095Y-122531250D01*
X66135714Y-122578869D01*
X66564285Y-123483630D02*
X66564285Y-122483630D01*
X67135714Y-123483630D02*
X66707142Y-122912202D01*
X67135714Y-122483630D02*
X66564285Y-123055059D01*
X72516666Y-119983630D02*
X72850000Y-120983630D01*
X73183333Y-119983630D01*
X74088095Y-120888392D02*
X74040476Y-120936011D01*
X73897619Y-120983630D01*
X73802380Y-120983630D01*
X73659523Y-120936011D01*
X73564285Y-120840773D01*
X73516666Y-120745535D01*
X73469047Y-120555059D01*
X73469047Y-120412202D01*
X73516666Y-120221726D01*
X73564285Y-120126488D01*
X73659523Y-120031250D01*
X73802380Y-119983630D01*
X73897619Y-119983630D01*
X74040476Y-120031250D01*
X74088095Y-120078869D01*
X75088095Y-120888392D02*
X75040476Y-120936011D01*
X74897619Y-120983630D01*
X74802380Y-120983630D01*
X74659523Y-120936011D01*
X74564285Y-120840773D01*
X74516666Y-120745535D01*
X74469047Y-120555059D01*
X74469047Y-120412202D01*
X74516666Y-120221726D01*
X74564285Y-120126488D01*
X74659523Y-120031250D01*
X74802380Y-119983630D01*
X74897619Y-119983630D01*
X75040476Y-120031250D01*
X75088095Y-120078869D01*
X65052380Y-125983630D02*
X64719047Y-125507440D01*
X64480952Y-125983630D02*
X64480952Y-124983630D01*
X64861904Y-124983630D01*
X64957142Y-125031250D01*
X65004761Y-125078869D01*
X65052380Y-125174107D01*
X65052380Y-125316964D01*
X65004761Y-125412202D01*
X64957142Y-125459821D01*
X64861904Y-125507440D01*
X64480952Y-125507440D01*
X65433333Y-125936011D02*
X65576190Y-125983630D01*
X65814285Y-125983630D01*
X65909523Y-125936011D01*
X65957142Y-125888392D01*
X66004761Y-125793154D01*
X66004761Y-125697916D01*
X65957142Y-125602678D01*
X65909523Y-125555059D01*
X65814285Y-125507440D01*
X65623809Y-125459821D01*
X65528571Y-125412202D01*
X65480952Y-125364583D01*
X65433333Y-125269345D01*
X65433333Y-125174107D01*
X65480952Y-125078869D01*
X65528571Y-125031250D01*
X65623809Y-124983630D01*
X65861904Y-124983630D01*
X66004761Y-125031250D01*
X66290476Y-124983630D02*
X66861904Y-124983630D01*
X66576190Y-125983630D02*
X66576190Y-124983630D01*
X64028571Y-120983630D02*
X64028571Y-119983630D01*
X64361904Y-120697916D01*
X64695238Y-119983630D01*
X64695238Y-120983630D01*
X65171428Y-120983630D02*
X65171428Y-119983630D01*
X65600000Y-120936011D02*
X65742857Y-120983630D01*
X65980952Y-120983630D01*
X66076190Y-120936011D01*
X66123809Y-120888392D01*
X66171428Y-120793154D01*
X66171428Y-120697916D01*
X66123809Y-120602678D01*
X66076190Y-120555059D01*
X65980952Y-120507440D01*
X65790476Y-120459821D01*
X65695238Y-120412202D01*
X65647619Y-120364583D01*
X65600000Y-120269345D01*
X65600000Y-120174107D01*
X65647619Y-120078869D01*
X65695238Y-120031250D01*
X65790476Y-119983630D01*
X66028571Y-119983630D01*
X66171428Y-120031250D01*
X66790476Y-119983630D02*
X66980952Y-119983630D01*
X67076190Y-120031250D01*
X67171428Y-120126488D01*
X67219047Y-120316964D01*
X67219047Y-120650297D01*
X67171428Y-120840773D01*
X67076190Y-120936011D01*
X66980952Y-120983630D01*
X66790476Y-120983630D01*
X66695238Y-120936011D01*
X66600000Y-120840773D01*
X66552380Y-120650297D01*
X66552380Y-120316964D01*
X66600000Y-120126488D01*
X66695238Y-120031250D01*
X66790476Y-119983630D01*
X72528571Y-123483630D02*
X72528571Y-122483630D01*
X72861904Y-123197916D01*
X73195238Y-122483630D01*
X73195238Y-123483630D01*
X73861904Y-122483630D02*
X74052380Y-122483630D01*
X74147619Y-122531250D01*
X74242857Y-122626488D01*
X74290476Y-122816964D01*
X74290476Y-123150297D01*
X74242857Y-123340773D01*
X74147619Y-123436011D01*
X74052380Y-123483630D01*
X73861904Y-123483630D01*
X73766666Y-123436011D01*
X73671428Y-123340773D01*
X73623809Y-123150297D01*
X73623809Y-122816964D01*
X73671428Y-122626488D01*
X73766666Y-122531250D01*
X73861904Y-122483630D01*
X74671428Y-123436011D02*
X74814285Y-123483630D01*
X75052380Y-123483630D01*
X75147619Y-123436011D01*
X75195238Y-123388392D01*
X75242857Y-123293154D01*
X75242857Y-123197916D01*
X75195238Y-123102678D01*
X75147619Y-123055059D01*
X75052380Y-123007440D01*
X74861904Y-122959821D01*
X74766666Y-122912202D01*
X74719047Y-122864583D01*
X74671428Y-122769345D01*
X74671428Y-122674107D01*
X74719047Y-122578869D01*
X74766666Y-122531250D01*
X74861904Y-122483630D01*
X75100000Y-122483630D01*
X75242857Y-122531250D01*
X75671428Y-123483630D02*
X75671428Y-122483630D01*
X73338095Y-125031250D02*
X73242857Y-124983630D01*
X73100000Y-124983630D01*
X72957142Y-125031250D01*
X72861904Y-125126488D01*
X72814285Y-125221726D01*
X72766666Y-125412202D01*
X72766666Y-125555059D01*
X72814285Y-125745535D01*
X72861904Y-125840773D01*
X72957142Y-125936011D01*
X73100000Y-125983630D01*
X73195238Y-125983630D01*
X73338095Y-125936011D01*
X73385714Y-125888392D01*
X73385714Y-125555059D01*
X73195238Y-125555059D01*
X73814285Y-125983630D02*
X73814285Y-124983630D01*
X74385714Y-125983630D01*
X74385714Y-124983630D01*
X74861904Y-125983630D02*
X74861904Y-124983630D01*
X75100000Y-124983630D01*
X75242857Y-125031250D01*
X75338095Y-125126488D01*
X75385714Y-125221726D01*
X75433333Y-125412202D01*
X75433333Y-125555059D01*
X75385714Y-125745535D01*
X75338095Y-125840773D01*
X75242857Y-125936011D01*
X75100000Y-125983630D01*
X74861904Y-125983630D01*
%TO.C,SW1*%
X68516666Y-113542261D02*
X68659523Y-113589880D01*
X68897619Y-113589880D01*
X68992857Y-113542261D01*
X69040476Y-113494642D01*
X69088095Y-113399404D01*
X69088095Y-113304166D01*
X69040476Y-113208928D01*
X68992857Y-113161309D01*
X68897619Y-113113690D01*
X68707142Y-113066071D01*
X68611904Y-113018452D01*
X68564285Y-112970833D01*
X68516666Y-112875595D01*
X68516666Y-112780357D01*
X68564285Y-112685119D01*
X68611904Y-112637500D01*
X68707142Y-112589880D01*
X68945238Y-112589880D01*
X69088095Y-112637500D01*
X69421428Y-112589880D02*
X69659523Y-113589880D01*
X69850000Y-112875595D01*
X70040476Y-113589880D01*
X70278571Y-112589880D01*
X71183333Y-113589880D02*
X70611904Y-113589880D01*
X70897619Y-113589880D02*
X70897619Y-112589880D01*
X70802380Y-112732738D01*
X70707142Y-112827976D01*
X70611904Y-112875595D01*
%TO.C,K41*%
X112225518Y-130040787D02*
X112225518Y-129040787D01*
X112796946Y-130040787D02*
X112368375Y-129469359D01*
X112796946Y-129040787D02*
X112225518Y-129612216D01*
X113654089Y-129374121D02*
X113654089Y-130040787D01*
X113415994Y-128993168D02*
X113177899Y-129707454D01*
X113796946Y-129707454D01*
X114701708Y-130040787D02*
X114130280Y-130040787D01*
X114415994Y-130040787D02*
X114415994Y-129040787D01*
X114320756Y-129183645D01*
X114225518Y-129278883D01*
X114130280Y-129326502D01*
%TO.C,K20*%
X93175654Y-91939880D02*
X93175654Y-90939880D01*
X93747082Y-91939880D02*
X93318511Y-91368452D01*
X93747082Y-90939880D02*
X93175654Y-91511309D01*
X94128035Y-91035119D02*
X94175654Y-90987500D01*
X94270892Y-90939880D01*
X94508987Y-90939880D01*
X94604225Y-90987500D01*
X94651844Y-91035119D01*
X94699463Y-91130357D01*
X94699463Y-91225595D01*
X94651844Y-91368452D01*
X94080416Y-91939880D01*
X94699463Y-91939880D01*
X95318511Y-90939880D02*
X95413749Y-90939880D01*
X95508987Y-90987500D01*
X95556606Y-91035119D01*
X95604225Y-91130357D01*
X95651844Y-91320833D01*
X95651844Y-91558928D01*
X95604225Y-91749404D01*
X95556606Y-91844642D01*
X95508987Y-91892261D01*
X95413749Y-91939880D01*
X95318511Y-91939880D01*
X95223273Y-91892261D01*
X95175654Y-91844642D01*
X95128035Y-91749404D01*
X95080416Y-91558928D01*
X95080416Y-91320833D01*
X95128035Y-91130357D01*
X95175654Y-91035119D01*
X95223273Y-90987500D01*
X95318511Y-90939880D01*
%TO.C,K46*%
X207473214Y-130039880D02*
X207473214Y-129039880D01*
X208044642Y-130039880D02*
X207616071Y-129468452D01*
X208044642Y-129039880D02*
X207473214Y-129611309D01*
X208901785Y-129373214D02*
X208901785Y-130039880D01*
X208663690Y-128992261D02*
X208425595Y-129706547D01*
X209044642Y-129706547D01*
X209854166Y-129039880D02*
X209663690Y-129039880D01*
X209568452Y-129087500D01*
X209520833Y-129135119D01*
X209425595Y-129277976D01*
X209377976Y-129468452D01*
X209377976Y-129849404D01*
X209425595Y-129944642D01*
X209473214Y-129992261D01*
X209568452Y-130039880D01*
X209758928Y-130039880D01*
X209854166Y-129992261D01*
X209901785Y-129944642D01*
X209949404Y-129849404D01*
X209949404Y-129611309D01*
X209901785Y-129516071D01*
X209854166Y-129468452D01*
X209758928Y-129420833D01*
X209568452Y-129420833D01*
X209473214Y-129468452D01*
X209425595Y-129516071D01*
X209377976Y-129611309D01*
%TO.C,K36*%
X207473214Y-110989880D02*
X207473214Y-109989880D01*
X208044642Y-110989880D02*
X207616071Y-110418452D01*
X208044642Y-109989880D02*
X207473214Y-110561309D01*
X208377976Y-109989880D02*
X208997023Y-109989880D01*
X208663690Y-110370833D01*
X208806547Y-110370833D01*
X208901785Y-110418452D01*
X208949404Y-110466071D01*
X208997023Y-110561309D01*
X208997023Y-110799404D01*
X208949404Y-110894642D01*
X208901785Y-110942261D01*
X208806547Y-110989880D01*
X208520833Y-110989880D01*
X208425595Y-110942261D01*
X208377976Y-110894642D01*
X209854166Y-109989880D02*
X209663690Y-109989880D01*
X209568452Y-110037500D01*
X209520833Y-110085119D01*
X209425595Y-110227976D01*
X209377976Y-110418452D01*
X209377976Y-110799404D01*
X209425595Y-110894642D01*
X209473214Y-110942261D01*
X209568452Y-110989880D01*
X209758928Y-110989880D01*
X209854166Y-110942261D01*
X209901785Y-110894642D01*
X209949404Y-110799404D01*
X209949404Y-110561309D01*
X209901785Y-110466071D01*
X209854166Y-110418452D01*
X209758928Y-110370833D01*
X209568452Y-110370833D01*
X209473214Y-110418452D01*
X209425595Y-110466071D01*
X209377976Y-110561309D01*
%TO.C,K12*%
X131275050Y-72890005D02*
X131275050Y-71890005D01*
X131846478Y-72890005D02*
X131417907Y-72318577D01*
X131846478Y-71890005D02*
X131275050Y-72461434D01*
X132798859Y-72890005D02*
X132227431Y-72890005D01*
X132513145Y-72890005D02*
X132513145Y-71890005D01*
X132417907Y-72032863D01*
X132322669Y-72128101D01*
X132227431Y-72175720D01*
X133179812Y-71985244D02*
X133227431Y-71937625D01*
X133322669Y-71890005D01*
X133560764Y-71890005D01*
X133656002Y-71937625D01*
X133703621Y-71985244D01*
X133751240Y-72080482D01*
X133751240Y-72175720D01*
X133703621Y-72318577D01*
X133132193Y-72890005D01*
X133751240Y-72890005D01*
%TO.C,K22*%
X131273574Y-91939400D02*
X131273574Y-90939400D01*
X131845002Y-91939400D02*
X131416431Y-91367972D01*
X131845002Y-90939400D02*
X131273574Y-91510829D01*
X132225955Y-91034639D02*
X132273574Y-90987020D01*
X132368812Y-90939400D01*
X132606907Y-90939400D01*
X132702145Y-90987020D01*
X132749764Y-91034639D01*
X132797383Y-91129877D01*
X132797383Y-91225115D01*
X132749764Y-91367972D01*
X132178336Y-91939400D01*
X132797383Y-91939400D01*
X133178336Y-91034639D02*
X133225955Y-90987020D01*
X133321193Y-90939400D01*
X133559288Y-90939400D01*
X133654526Y-90987020D01*
X133702145Y-91034639D01*
X133749764Y-91129877D01*
X133749764Y-91225115D01*
X133702145Y-91367972D01*
X133130717Y-91939400D01*
X133749764Y-91939400D01*
%TO.C,K35*%
X188423214Y-110989880D02*
X188423214Y-109989880D01*
X188994642Y-110989880D02*
X188566071Y-110418452D01*
X188994642Y-109989880D02*
X188423214Y-110561309D01*
X189327976Y-109989880D02*
X189947023Y-109989880D01*
X189613690Y-110370833D01*
X189756547Y-110370833D01*
X189851785Y-110418452D01*
X189899404Y-110466071D01*
X189947023Y-110561309D01*
X189947023Y-110799404D01*
X189899404Y-110894642D01*
X189851785Y-110942261D01*
X189756547Y-110989880D01*
X189470833Y-110989880D01*
X189375595Y-110942261D01*
X189327976Y-110894642D01*
X190851785Y-109989880D02*
X190375595Y-109989880D01*
X190327976Y-110466071D01*
X190375595Y-110418452D01*
X190470833Y-110370833D01*
X190708928Y-110370833D01*
X190804166Y-110418452D01*
X190851785Y-110466071D01*
X190899404Y-110561309D01*
X190899404Y-110799404D01*
X190851785Y-110894642D01*
X190804166Y-110942261D01*
X190708928Y-110989880D01*
X190470833Y-110989880D01*
X190375595Y-110942261D01*
X190327976Y-110894642D01*
%TO.C,K23*%
X150323214Y-91939880D02*
X150323214Y-90939880D01*
X150894642Y-91939880D02*
X150466071Y-91368452D01*
X150894642Y-90939880D02*
X150323214Y-91511309D01*
X151275595Y-91035119D02*
X151323214Y-90987500D01*
X151418452Y-90939880D01*
X151656547Y-90939880D01*
X151751785Y-90987500D01*
X151799404Y-91035119D01*
X151847023Y-91130357D01*
X151847023Y-91225595D01*
X151799404Y-91368452D01*
X151227976Y-91939880D01*
X151847023Y-91939880D01*
X152180357Y-90939880D02*
X152799404Y-90939880D01*
X152466071Y-91320833D01*
X152608928Y-91320833D01*
X152704166Y-91368452D01*
X152751785Y-91416071D01*
X152799404Y-91511309D01*
X152799404Y-91749404D01*
X152751785Y-91844642D01*
X152704166Y-91892261D01*
X152608928Y-91939880D01*
X152323214Y-91939880D01*
X152227976Y-91892261D01*
X152180357Y-91844642D01*
%TO.C,K5*%
X188899404Y-53839880D02*
X188899404Y-52839880D01*
X189470833Y-53839880D02*
X189042261Y-53268452D01*
X189470833Y-52839880D02*
X188899404Y-53411309D01*
X190375595Y-52839880D02*
X189899404Y-52839880D01*
X189851785Y-53316071D01*
X189899404Y-53268452D01*
X189994642Y-53220833D01*
X190232738Y-53220833D01*
X190327976Y-53268452D01*
X190375595Y-53316071D01*
X190423214Y-53411309D01*
X190423214Y-53649404D01*
X190375595Y-53744642D01*
X190327976Y-53792261D01*
X190232738Y-53839880D01*
X189994642Y-53839880D01*
X189899404Y-53792261D01*
X189851785Y-53744642D01*
%TO.C,K40*%
X93173946Y-130039880D02*
X93173946Y-129039880D01*
X93745374Y-130039880D02*
X93316803Y-129468452D01*
X93745374Y-129039880D02*
X93173946Y-129611309D01*
X94602517Y-129373214D02*
X94602517Y-130039880D01*
X94364422Y-128992261D02*
X94126327Y-129706547D01*
X94745374Y-129706547D01*
X95316803Y-129039880D02*
X95412041Y-129039880D01*
X95507279Y-129087500D01*
X95554898Y-129135119D01*
X95602517Y-129230357D01*
X95650136Y-129420833D01*
X95650136Y-129658928D01*
X95602517Y-129849404D01*
X95554898Y-129944642D01*
X95507279Y-129992261D01*
X95412041Y-130039880D01*
X95316803Y-130039880D01*
X95221565Y-129992261D01*
X95173946Y-129944642D01*
X95126327Y-129849404D01*
X95078708Y-129658928D01*
X95078708Y-129420833D01*
X95126327Y-129230357D01*
X95173946Y-129135119D01*
X95221565Y-129087500D01*
X95316803Y-129039880D01*
%TO.C,K44*%
X169429464Y-130039880D02*
X169429464Y-129039880D01*
X170000892Y-130039880D02*
X169572321Y-129468452D01*
X170000892Y-129039880D02*
X169429464Y-129611309D01*
X170858035Y-129373214D02*
X170858035Y-130039880D01*
X170619940Y-128992261D02*
X170381845Y-129706547D01*
X171000892Y-129706547D01*
X171810416Y-129373214D02*
X171810416Y-130039880D01*
X171572321Y-128992261D02*
X171334226Y-129706547D01*
X171953273Y-129706547D01*
%TO.C,K34*%
X169429464Y-110989880D02*
X169429464Y-109989880D01*
X170000892Y-110989880D02*
X169572321Y-110418452D01*
X170000892Y-109989880D02*
X169429464Y-110561309D01*
X170334226Y-109989880D02*
X170953273Y-109989880D01*
X170619940Y-110370833D01*
X170762797Y-110370833D01*
X170858035Y-110418452D01*
X170905654Y-110466071D01*
X170953273Y-110561309D01*
X170953273Y-110799404D01*
X170905654Y-110894642D01*
X170858035Y-110942261D01*
X170762797Y-110989880D01*
X170477083Y-110989880D01*
X170381845Y-110942261D01*
X170334226Y-110894642D01*
X171810416Y-110323214D02*
X171810416Y-110989880D01*
X171572321Y-109942261D02*
X171334226Y-110656547D01*
X171953273Y-110656547D01*
%TO.C,K32*%
X131273215Y-110988693D02*
X131273215Y-109988693D01*
X131844643Y-110988693D02*
X131416072Y-110417265D01*
X131844643Y-109988693D02*
X131273215Y-110560122D01*
X132177977Y-109988693D02*
X132797024Y-109988693D01*
X132463691Y-110369646D01*
X132606548Y-110369646D01*
X132701786Y-110417265D01*
X132749405Y-110464884D01*
X132797024Y-110560122D01*
X132797024Y-110798217D01*
X132749405Y-110893455D01*
X132701786Y-110941074D01*
X132606548Y-110988693D01*
X132320834Y-110988693D01*
X132225596Y-110941074D01*
X132177977Y-110893455D01*
X133177977Y-110083932D02*
X133225596Y-110036313D01*
X133320834Y-109988693D01*
X133558929Y-109988693D01*
X133654167Y-110036313D01*
X133701786Y-110083932D01*
X133749405Y-110179170D01*
X133749405Y-110274408D01*
X133701786Y-110417265D01*
X133130358Y-110988693D01*
X133749405Y-110988693D01*
%TO.C,K43*%
X150323214Y-130039880D02*
X150323214Y-129039880D01*
X150894642Y-130039880D02*
X150466071Y-129468452D01*
X150894642Y-129039880D02*
X150323214Y-129611309D01*
X151751785Y-129373214D02*
X151751785Y-130039880D01*
X151513690Y-128992261D02*
X151275595Y-129706547D01*
X151894642Y-129706547D01*
X152180357Y-129039880D02*
X152799404Y-129039880D01*
X152466071Y-129420833D01*
X152608928Y-129420833D01*
X152704166Y-129468452D01*
X152751785Y-129516071D01*
X152799404Y-129611309D01*
X152799404Y-129849404D01*
X152751785Y-129944642D01*
X152704166Y-129992261D01*
X152608928Y-130039880D01*
X152323214Y-130039880D01*
X152227976Y-129992261D01*
X152180357Y-129944642D01*
%TO.C,K15*%
X188423214Y-72889880D02*
X188423214Y-71889880D01*
X188994642Y-72889880D02*
X188566071Y-72318452D01*
X188994642Y-71889880D02*
X188423214Y-72461309D01*
X189947023Y-72889880D02*
X189375595Y-72889880D01*
X189661309Y-72889880D02*
X189661309Y-71889880D01*
X189566071Y-72032738D01*
X189470833Y-72127976D01*
X189375595Y-72175595D01*
X190851785Y-71889880D02*
X190375595Y-71889880D01*
X190327976Y-72366071D01*
X190375595Y-72318452D01*
X190470833Y-72270833D01*
X190708928Y-72270833D01*
X190804166Y-72318452D01*
X190851785Y-72366071D01*
X190899404Y-72461309D01*
X190899404Y-72699404D01*
X190851785Y-72794642D01*
X190804166Y-72842261D01*
X190708928Y-72889880D01*
X190470833Y-72889880D01*
X190375595Y-72842261D01*
X190327976Y-72794642D01*
%TO.C,K14*%
X169429464Y-72889880D02*
X169429464Y-71889880D01*
X170000892Y-72889880D02*
X169572321Y-72318452D01*
X170000892Y-71889880D02*
X169429464Y-72461309D01*
X170953273Y-72889880D02*
X170381845Y-72889880D01*
X170667559Y-72889880D02*
X170667559Y-71889880D01*
X170572321Y-72032738D01*
X170477083Y-72127976D01*
X170381845Y-72175595D01*
X171810416Y-72223214D02*
X171810416Y-72889880D01*
X171572321Y-71842261D02*
X171334226Y-72556547D01*
X171953273Y-72556547D01*
%TO.C,K0*%
X93651728Y-53509626D02*
X93651728Y-52509626D01*
X94223157Y-53509626D02*
X93794585Y-52938198D01*
X94223157Y-52509626D02*
X93651728Y-53081055D01*
X94842204Y-52509626D02*
X94937443Y-52509626D01*
X95032681Y-52557246D01*
X95080300Y-52604865D01*
X95127919Y-52700103D01*
X95175538Y-52890579D01*
X95175538Y-53128674D01*
X95127919Y-53319150D01*
X95080300Y-53414388D01*
X95032681Y-53462007D01*
X94937443Y-53509626D01*
X94842204Y-53509626D01*
X94746966Y-53462007D01*
X94699347Y-53414388D01*
X94651728Y-53319150D01*
X94604109Y-53128674D01*
X94604109Y-52890579D01*
X94651728Y-52700103D01*
X94699347Y-52604865D01*
X94746966Y-52557246D01*
X94842204Y-52509626D01*
%TO.C,K2*%
X131752786Y-53509603D02*
X131752786Y-52509603D01*
X132324215Y-53509603D02*
X131895643Y-52938175D01*
X132324215Y-52509603D02*
X131752786Y-53081032D01*
X132705167Y-52604842D02*
X132752786Y-52557223D01*
X132848024Y-52509603D01*
X133086120Y-52509603D01*
X133181358Y-52557223D01*
X133228977Y-52604842D01*
X133276596Y-52700080D01*
X133276596Y-52795318D01*
X133228977Y-52938175D01*
X132657548Y-53509603D01*
X133276596Y-53509603D01*
%TO.C,K26*%
X207473214Y-92733630D02*
X207473214Y-91733630D01*
X208044642Y-92733630D02*
X207616071Y-92162202D01*
X208044642Y-91733630D02*
X207473214Y-92305059D01*
X208425595Y-91828869D02*
X208473214Y-91781250D01*
X208568452Y-91733630D01*
X208806547Y-91733630D01*
X208901785Y-91781250D01*
X208949404Y-91828869D01*
X208997023Y-91924107D01*
X208997023Y-92019345D01*
X208949404Y-92162202D01*
X208377976Y-92733630D01*
X208997023Y-92733630D01*
X209854166Y-91733630D02*
X209663690Y-91733630D01*
X209568452Y-91781250D01*
X209520833Y-91828869D01*
X209425595Y-91971726D01*
X209377976Y-92162202D01*
X209377976Y-92543154D01*
X209425595Y-92638392D01*
X209473214Y-92686011D01*
X209568452Y-92733630D01*
X209758928Y-92733630D01*
X209854166Y-92686011D01*
X209901785Y-92638392D01*
X209949404Y-92543154D01*
X209949404Y-92305059D01*
X209901785Y-92209821D01*
X209854166Y-92162202D01*
X209758928Y-92114583D01*
X209568452Y-92114583D01*
X209473214Y-92162202D01*
X209425595Y-92209821D01*
X209377976Y-92305059D01*
%TO.C,K13*%
X150323214Y-72889880D02*
X150323214Y-71889880D01*
X150894642Y-72889880D02*
X150466071Y-72318452D01*
X150894642Y-71889880D02*
X150323214Y-72461309D01*
X151847023Y-72889880D02*
X151275595Y-72889880D01*
X151561309Y-72889880D02*
X151561309Y-71889880D01*
X151466071Y-72032738D01*
X151370833Y-72127976D01*
X151275595Y-72175595D01*
X152180357Y-71889880D02*
X152799404Y-71889880D01*
X152466071Y-72270833D01*
X152608928Y-72270833D01*
X152704166Y-72318452D01*
X152751785Y-72366071D01*
X152799404Y-72461309D01*
X152799404Y-72699404D01*
X152751785Y-72794642D01*
X152704166Y-72842261D01*
X152608928Y-72889880D01*
X152323214Y-72889880D01*
X152227976Y-72842261D01*
X152180357Y-72794642D01*
%TO.C,K1*%
X112702822Y-53509178D02*
X112702822Y-52509178D01*
X113274251Y-53509178D02*
X112845679Y-52937750D01*
X113274251Y-52509178D02*
X112702822Y-53080607D01*
X114226632Y-53509178D02*
X113655203Y-53509178D01*
X113940918Y-53509178D02*
X113940918Y-52509178D01*
X113845679Y-52652036D01*
X113750441Y-52747274D01*
X113655203Y-52794893D01*
%TO.C,K4*%
X169905654Y-53839880D02*
X169905654Y-52839880D01*
X170477083Y-53839880D02*
X170048511Y-53268452D01*
X170477083Y-52839880D02*
X169905654Y-53411309D01*
X171334226Y-53173214D02*
X171334226Y-53839880D01*
X171096130Y-52792261D02*
X170858035Y-53506547D01*
X171477083Y-53506547D01*
%TO.C,K6*%
X207949404Y-53839880D02*
X207949404Y-52839880D01*
X208520833Y-53839880D02*
X208092261Y-53268452D01*
X208520833Y-52839880D02*
X207949404Y-53411309D01*
X209377976Y-52839880D02*
X209187500Y-52839880D01*
X209092261Y-52887500D01*
X209044642Y-52935119D01*
X208949404Y-53077976D01*
X208901785Y-53268452D01*
X208901785Y-53649404D01*
X208949404Y-53744642D01*
X208997023Y-53792261D01*
X209092261Y-53839880D01*
X209282738Y-53839880D01*
X209377976Y-53792261D01*
X209425595Y-53744642D01*
X209473214Y-53649404D01*
X209473214Y-53411309D01*
X209425595Y-53316071D01*
X209377976Y-53268452D01*
X209282738Y-53220833D01*
X209092261Y-53220833D01*
X208997023Y-53268452D01*
X208949404Y-53316071D01*
X208901785Y-53411309D01*
%TO.C,K21*%
X112224038Y-91938835D02*
X112224038Y-90938835D01*
X112795466Y-91938835D02*
X112366895Y-91367407D01*
X112795466Y-90938835D02*
X112224038Y-91510264D01*
X113176419Y-91034074D02*
X113224038Y-90986455D01*
X113319276Y-90938835D01*
X113557371Y-90938835D01*
X113652609Y-90986455D01*
X113700228Y-91034074D01*
X113747847Y-91129312D01*
X113747847Y-91224550D01*
X113700228Y-91367407D01*
X113128800Y-91938835D01*
X113747847Y-91938835D01*
X114700228Y-91938835D02*
X114128800Y-91938835D01*
X114414514Y-91938835D02*
X114414514Y-90938835D01*
X114319276Y-91081693D01*
X114224038Y-91176931D01*
X114128800Y-91224550D01*
%TO.C,K24*%
X169429464Y-91939880D02*
X169429464Y-90939880D01*
X170000892Y-91939880D02*
X169572321Y-91368452D01*
X170000892Y-90939880D02*
X169429464Y-91511309D01*
X170381845Y-91035119D02*
X170429464Y-90987500D01*
X170524702Y-90939880D01*
X170762797Y-90939880D01*
X170858035Y-90987500D01*
X170905654Y-91035119D01*
X170953273Y-91130357D01*
X170953273Y-91225595D01*
X170905654Y-91368452D01*
X170334226Y-91939880D01*
X170953273Y-91939880D01*
X171810416Y-91273214D02*
X171810416Y-91939880D01*
X171572321Y-90892261D02*
X171334226Y-91606547D01*
X171953273Y-91606547D01*
%TO.C,K16*%
X207473214Y-72889880D02*
X207473214Y-71889880D01*
X208044642Y-72889880D02*
X207616071Y-72318452D01*
X208044642Y-71889880D02*
X207473214Y-72461309D01*
X208997023Y-72889880D02*
X208425595Y-72889880D01*
X208711309Y-72889880D02*
X208711309Y-71889880D01*
X208616071Y-72032738D01*
X208520833Y-72127976D01*
X208425595Y-72175595D01*
X209854166Y-71889880D02*
X209663690Y-71889880D01*
X209568452Y-71937500D01*
X209520833Y-71985119D01*
X209425595Y-72127976D01*
X209377976Y-72318452D01*
X209377976Y-72699404D01*
X209425595Y-72794642D01*
X209473214Y-72842261D01*
X209568452Y-72889880D01*
X209758928Y-72889880D01*
X209854166Y-72842261D01*
X209901785Y-72794642D01*
X209949404Y-72699404D01*
X209949404Y-72461309D01*
X209901785Y-72366071D01*
X209854166Y-72318452D01*
X209758928Y-72270833D01*
X209568452Y-72270833D01*
X209473214Y-72318452D01*
X209425595Y-72366071D01*
X209377976Y-72461309D01*
%TO.C,K11*%
X112225767Y-72890584D02*
X112225767Y-71890584D01*
X112797195Y-72890584D02*
X112368624Y-72319156D01*
X112797195Y-71890584D02*
X112225767Y-72462013D01*
X113749576Y-72890584D02*
X113178148Y-72890584D01*
X113463862Y-72890584D02*
X113463862Y-71890584D01*
X113368624Y-72033442D01*
X113273386Y-72128680D01*
X113178148Y-72176299D01*
X114701957Y-72890584D02*
X114130529Y-72890584D01*
X114416243Y-72890584D02*
X114416243Y-71890584D01*
X114321005Y-72033442D01*
X114225767Y-72128680D01*
X114130529Y-72176299D01*
%TO.C,K30*%
X93173214Y-110989880D02*
X93173214Y-109989880D01*
X93744642Y-110989880D02*
X93316071Y-110418452D01*
X93744642Y-109989880D02*
X93173214Y-110561309D01*
X94077976Y-109989880D02*
X94697023Y-109989880D01*
X94363690Y-110370833D01*
X94506547Y-110370833D01*
X94601785Y-110418452D01*
X94649404Y-110466071D01*
X94697023Y-110561309D01*
X94697023Y-110799404D01*
X94649404Y-110894642D01*
X94601785Y-110942261D01*
X94506547Y-110989880D01*
X94220833Y-110989880D01*
X94125595Y-110942261D01*
X94077976Y-110894642D01*
X95316071Y-109989880D02*
X95411309Y-109989880D01*
X95506547Y-110037500D01*
X95554166Y-110085119D01*
X95601785Y-110180357D01*
X95649404Y-110370833D01*
X95649404Y-110608928D01*
X95601785Y-110799404D01*
X95554166Y-110894642D01*
X95506547Y-110942261D01*
X95411309Y-110989880D01*
X95316071Y-110989880D01*
X95220833Y-110942261D01*
X95173214Y-110894642D01*
X95125595Y-110799404D01*
X95077976Y-110608928D01*
X95077976Y-110370833D01*
X95125595Y-110180357D01*
X95173214Y-110085119D01*
X95220833Y-110037500D01*
X95316071Y-109989880D01*
%TO.C,K42*%
X131274533Y-130041261D02*
X131274533Y-129041261D01*
X131845961Y-130041261D02*
X131417390Y-129469833D01*
X131845961Y-129041261D02*
X131274533Y-129612690D01*
X132703104Y-129374595D02*
X132703104Y-130041261D01*
X132465009Y-128993642D02*
X132226914Y-129707928D01*
X132845961Y-129707928D01*
X133179295Y-129136500D02*
X133226914Y-129088881D01*
X133322152Y-129041261D01*
X133560247Y-129041261D01*
X133655485Y-129088881D01*
X133703104Y-129136500D01*
X133750723Y-129231738D01*
X133750723Y-129326976D01*
X133703104Y-129469833D01*
X133131676Y-130041261D01*
X133750723Y-130041261D01*
%TO.C,K45*%
X188423214Y-130039880D02*
X188423214Y-129039880D01*
X188994642Y-130039880D02*
X188566071Y-129468452D01*
X188994642Y-129039880D02*
X188423214Y-129611309D01*
X189851785Y-129373214D02*
X189851785Y-130039880D01*
X189613690Y-128992261D02*
X189375595Y-129706547D01*
X189994642Y-129706547D01*
X190851785Y-129039880D02*
X190375595Y-129039880D01*
X190327976Y-129516071D01*
X190375595Y-129468452D01*
X190470833Y-129420833D01*
X190708928Y-129420833D01*
X190804166Y-129468452D01*
X190851785Y-129516071D01*
X190899404Y-129611309D01*
X190899404Y-129849404D01*
X190851785Y-129944642D01*
X190804166Y-129992261D01*
X190708928Y-130039880D01*
X190470833Y-130039880D01*
X190375595Y-129992261D01*
X190327976Y-129944642D01*
%TO.C,K33*%
X150323214Y-110989880D02*
X150323214Y-109989880D01*
X150894642Y-110989880D02*
X150466071Y-110418452D01*
X150894642Y-109989880D02*
X150323214Y-110561309D01*
X151227976Y-109989880D02*
X151847023Y-109989880D01*
X151513690Y-110370833D01*
X151656547Y-110370833D01*
X151751785Y-110418452D01*
X151799404Y-110466071D01*
X151847023Y-110561309D01*
X151847023Y-110799404D01*
X151799404Y-110894642D01*
X151751785Y-110942261D01*
X151656547Y-110989880D01*
X151370833Y-110989880D01*
X151275595Y-110942261D01*
X151227976Y-110894642D01*
X152180357Y-109989880D02*
X152799404Y-109989880D01*
X152466071Y-110370833D01*
X152608928Y-110370833D01*
X152704166Y-110418452D01*
X152751785Y-110466071D01*
X152799404Y-110561309D01*
X152799404Y-110799404D01*
X152751785Y-110894642D01*
X152704166Y-110942261D01*
X152608928Y-110989880D01*
X152323214Y-110989880D01*
X152227976Y-110942261D01*
X152180357Y-110894642D01*
%TO.C,K3*%
X150799404Y-53839880D02*
X150799404Y-52839880D01*
X151370833Y-53839880D02*
X150942261Y-53268452D01*
X151370833Y-52839880D02*
X150799404Y-53411309D01*
X151704166Y-52839880D02*
X152323214Y-52839880D01*
X151989880Y-53220833D01*
X152132738Y-53220833D01*
X152227976Y-53268452D01*
X152275595Y-53316071D01*
X152323214Y-53411309D01*
X152323214Y-53649404D01*
X152275595Y-53744642D01*
X152227976Y-53792261D01*
X152132738Y-53839880D01*
X151847023Y-53839880D01*
X151751785Y-53792261D01*
X151704166Y-53744642D01*
%TO.C,K10*%
X93175654Y-72889880D02*
X93175654Y-71889880D01*
X93747082Y-72889880D02*
X93318511Y-72318452D01*
X93747082Y-71889880D02*
X93175654Y-72461309D01*
X94699463Y-72889880D02*
X94128035Y-72889880D01*
X94413749Y-72889880D02*
X94413749Y-71889880D01*
X94318511Y-72032738D01*
X94223273Y-72127976D01*
X94128035Y-72175595D01*
X95318511Y-71889880D02*
X95413749Y-71889880D01*
X95508987Y-71937500D01*
X95556606Y-71985119D01*
X95604225Y-72080357D01*
X95651844Y-72270833D01*
X95651844Y-72508928D01*
X95604225Y-72699404D01*
X95556606Y-72794642D01*
X95508987Y-72842261D01*
X95413749Y-72889880D01*
X95318511Y-72889880D01*
X95223273Y-72842261D01*
X95175654Y-72794642D01*
X95128035Y-72699404D01*
X95080416Y-72508928D01*
X95080416Y-72270833D01*
X95128035Y-72080357D01*
X95175654Y-71985119D01*
X95223273Y-71937500D01*
X95318511Y-71889880D01*
%TO.C,K31*%
X112223214Y-110989089D02*
X112223214Y-109989089D01*
X112794642Y-110989089D02*
X112366071Y-110417661D01*
X112794642Y-109989089D02*
X112223214Y-110560518D01*
X113127976Y-109989089D02*
X113747023Y-109989089D01*
X113413690Y-110370042D01*
X113556547Y-110370042D01*
X113651785Y-110417661D01*
X113699404Y-110465280D01*
X113747023Y-110560518D01*
X113747023Y-110798613D01*
X113699404Y-110893851D01*
X113651785Y-110941470D01*
X113556547Y-110989089D01*
X113270833Y-110989089D01*
X113175595Y-110941470D01*
X113127976Y-110893851D01*
X114699404Y-110989089D02*
X114127976Y-110989089D01*
X114413690Y-110989089D02*
X114413690Y-109989089D01*
X114318452Y-110131947D01*
X114223214Y-110227185D01*
X114127976Y-110274804D01*
%TO.C,K25*%
X188423214Y-91939880D02*
X188423214Y-90939880D01*
X188994642Y-91939880D02*
X188566071Y-91368452D01*
X188994642Y-90939880D02*
X188423214Y-91511309D01*
X189375595Y-91035119D02*
X189423214Y-90987500D01*
X189518452Y-90939880D01*
X189756547Y-90939880D01*
X189851785Y-90987500D01*
X189899404Y-91035119D01*
X189947023Y-91130357D01*
X189947023Y-91225595D01*
X189899404Y-91368452D01*
X189327976Y-91939880D01*
X189947023Y-91939880D01*
X190851785Y-90939880D02*
X190375595Y-90939880D01*
X190327976Y-91416071D01*
X190375595Y-91368452D01*
X190470833Y-91320833D01*
X190708928Y-91320833D01*
X190804166Y-91368452D01*
X190851785Y-91416071D01*
X190899404Y-91511309D01*
X190899404Y-91749404D01*
X190851785Y-91844642D01*
X190804166Y-91892261D01*
X190708928Y-91939880D01*
X190470833Y-91939880D01*
X190375595Y-91892261D01*
X190327976Y-91844642D01*
D11*
%TO.C,J1*%
X72350000Y-126781250D02*
X67350000Y-126781250D01*
X72350000Y-124281250D02*
X72350000Y-126781250D01*
X67350000Y-126781250D02*
X67350000Y-124281250D01*
X67350000Y-124281250D02*
X72350000Y-124281250D01*
D12*
%TO.C,SW1*%
X71300000Y-106817500D02*
X68400000Y-106817500D01*
X68400000Y-112257500D02*
X67910000Y-111767500D01*
X67130000Y-108497500D02*
X67130000Y-110577500D01*
X72570000Y-108497500D02*
X72570000Y-110577500D01*
X71300000Y-112257500D02*
X71790000Y-111767500D01*
X68400000Y-106817500D02*
X67910000Y-107307500D01*
X71300000Y-106817500D02*
X71790000Y-107307500D01*
X71300000Y-112257500D02*
X68400000Y-112257500D01*
%TO.C,K41*%
X105839804Y-112988407D02*
X105839804Y-128188407D01*
X121039804Y-128188407D02*
X121039804Y-112988407D01*
X105839804Y-128188407D02*
X121039804Y-128188407D01*
X121039804Y-112988407D02*
X105839804Y-112988407D01*
%TO.C,K20*%
X101989940Y-90087500D02*
X101989940Y-74887500D01*
X101989940Y-74887500D02*
X86789940Y-74887500D01*
X86789940Y-74887500D02*
X86789940Y-90087500D01*
X86789940Y-90087500D02*
X101989940Y-90087500D01*
%TO.C,K46*%
X216287500Y-128187500D02*
X216287500Y-112987500D01*
X201087500Y-112987500D02*
X201087500Y-128187500D01*
X216287500Y-112987500D02*
X201087500Y-112987500D01*
X201087500Y-128187500D02*
X216287500Y-128187500D01*
%TO.C,K36*%
X201087500Y-93937500D02*
X201087500Y-109137500D01*
X216287500Y-93937500D02*
X201087500Y-93937500D01*
X201087500Y-109137500D02*
X216287500Y-109137500D01*
X216287500Y-109137500D02*
X216287500Y-93937500D01*
%TO.C,K12*%
X140089336Y-71037625D02*
X140089336Y-55837625D01*
X124889336Y-71037625D02*
X140089336Y-71037625D01*
X140089336Y-55837625D02*
X124889336Y-55837625D01*
X124889336Y-55837625D02*
X124889336Y-71037625D01*
%TO.C,K22*%
X124887860Y-74887020D02*
X124887860Y-90087020D01*
X124887860Y-90087020D02*
X140087860Y-90087020D01*
X140087860Y-90087020D02*
X140087860Y-74887020D01*
X140087860Y-74887020D02*
X124887860Y-74887020D01*
%TO.C,K35*%
X197237500Y-93937500D02*
X182037500Y-93937500D01*
X182037500Y-93937500D02*
X182037500Y-109137500D01*
X182037500Y-109137500D02*
X197237500Y-109137500D01*
X197237500Y-109137500D02*
X197237500Y-93937500D01*
%TO.C,K23*%
X159137500Y-74887500D02*
X143937500Y-74887500D01*
X143937500Y-90087500D02*
X159137500Y-90087500D01*
X143937500Y-74887500D02*
X143937500Y-90087500D01*
X159137500Y-90087500D02*
X159137500Y-74887500D01*
%TO.C,K5*%
X197237500Y-51987500D02*
X197237500Y-36787500D01*
X182037500Y-36787500D02*
X182037500Y-51987500D01*
X197237500Y-36787500D02*
X182037500Y-36787500D01*
X182037500Y-51987500D02*
X197237500Y-51987500D01*
%TO.C,K40*%
X101988232Y-128187500D02*
X101988232Y-112987500D01*
X86788232Y-112987500D02*
X86788232Y-128187500D01*
X86788232Y-128187500D02*
X101988232Y-128187500D01*
X101988232Y-112987500D02*
X86788232Y-112987500D01*
%TO.C,K44*%
X178243750Y-128187500D02*
X178243750Y-112987500D01*
X178243750Y-112987500D02*
X163043750Y-112987500D01*
X163043750Y-128187500D02*
X178243750Y-128187500D01*
X163043750Y-112987500D02*
X163043750Y-128187500D01*
%TO.C,K34*%
X163043750Y-109137500D02*
X178243750Y-109137500D01*
X178243750Y-109137500D02*
X178243750Y-93937500D01*
X178243750Y-93937500D02*
X163043750Y-93937500D01*
X163043750Y-93937500D02*
X163043750Y-109137500D01*
%TO.C,K32*%
X140087501Y-93936313D02*
X124887501Y-93936313D01*
X140087501Y-109136313D02*
X140087501Y-93936313D01*
X124887501Y-93936313D02*
X124887501Y-109136313D01*
X124887501Y-109136313D02*
X140087501Y-109136313D01*
%TO.C,K43*%
X143937500Y-112987500D02*
X143937500Y-128187500D01*
X143937500Y-128187500D02*
X159137500Y-128187500D01*
X159137500Y-112987500D02*
X143937500Y-112987500D01*
X159137500Y-128187500D02*
X159137500Y-112987500D01*
%TO.C,K15*%
X182037500Y-55837500D02*
X182037500Y-71037500D01*
X182037500Y-71037500D02*
X197237500Y-71037500D01*
X197237500Y-71037500D02*
X197237500Y-55837500D01*
X197237500Y-55837500D02*
X182037500Y-55837500D01*
%TO.C,K14*%
X178243750Y-55837500D02*
X163043750Y-55837500D01*
X163043750Y-71037500D02*
X178243750Y-71037500D01*
X178243750Y-71037500D02*
X178243750Y-55837500D01*
X163043750Y-55837500D02*
X163043750Y-71037500D01*
%TO.C,K0*%
X86789940Y-36787500D02*
X86789940Y-51987500D01*
X101989940Y-51987500D02*
X101989940Y-36787500D01*
X101989940Y-36787500D02*
X86789940Y-36787500D01*
X86789940Y-51987500D02*
X101989940Y-51987500D01*
%TO.C,K2*%
X140090998Y-36787477D02*
X124890998Y-36787477D01*
X124890998Y-51987477D02*
X140090998Y-51987477D01*
X140090998Y-51987477D02*
X140090998Y-36787477D01*
X124890998Y-36787477D02*
X124890998Y-51987477D01*
%TO.C,K26*%
X201087500Y-74887500D02*
X201087500Y-90087500D01*
X216287500Y-90087500D02*
X216287500Y-74887500D01*
X216287500Y-74887500D02*
X201087500Y-74887500D01*
X201087500Y-90087500D02*
X216287500Y-90087500D01*
%TO.C,K13*%
X143937500Y-71037500D02*
X159137500Y-71037500D01*
X159137500Y-55837500D02*
X143937500Y-55837500D01*
X159137500Y-71037500D02*
X159137500Y-55837500D01*
X143937500Y-55837500D02*
X143937500Y-71037500D01*
%TO.C,K1*%
X121041034Y-51987052D02*
X121041034Y-36787052D01*
X105841034Y-51987052D02*
X121041034Y-51987052D01*
X121041034Y-36787052D02*
X105841034Y-36787052D01*
X105841034Y-36787052D02*
X105841034Y-51987052D01*
%TO.C,K4*%
X178243750Y-51987500D02*
X178243750Y-36787500D01*
X178243750Y-36787500D02*
X163043750Y-36787500D01*
X163043750Y-51987500D02*
X178243750Y-51987500D01*
X163043750Y-36787500D02*
X163043750Y-51987500D01*
%TO.C,K6*%
X201087500Y-36787500D02*
X201087500Y-51987500D01*
X216287500Y-36787500D02*
X201087500Y-36787500D01*
X201087500Y-51987500D02*
X216287500Y-51987500D01*
X216287500Y-51987500D02*
X216287500Y-36787500D01*
%TO.C,K21*%
X121038324Y-90086455D02*
X121038324Y-74886455D01*
X121038324Y-74886455D02*
X105838324Y-74886455D01*
X105838324Y-90086455D02*
X121038324Y-90086455D01*
X105838324Y-74886455D02*
X105838324Y-90086455D01*
%TO.C,K24*%
X178243750Y-90087500D02*
X178243750Y-74887500D01*
X163043750Y-74887500D02*
X163043750Y-90087500D01*
X163043750Y-90087500D02*
X178243750Y-90087500D01*
X178243750Y-74887500D02*
X163043750Y-74887500D01*
%TO.C,K16*%
X201087500Y-55837500D02*
X201087500Y-71037500D01*
X216287500Y-71037500D02*
X216287500Y-55837500D01*
X216287500Y-55837500D02*
X201087500Y-55837500D01*
X201087500Y-71037500D02*
X216287500Y-71037500D01*
%TO.C,K11*%
X105840053Y-55838204D02*
X105840053Y-71038204D01*
X121040053Y-71038204D02*
X121040053Y-55838204D01*
X121040053Y-55838204D02*
X105840053Y-55838204D01*
X105840053Y-71038204D02*
X121040053Y-71038204D01*
%TO.C,K30*%
X101987500Y-109137500D02*
X101987500Y-93937500D01*
X86787500Y-93937500D02*
X86787500Y-109137500D01*
X101987500Y-93937500D02*
X86787500Y-93937500D01*
X86787500Y-109137500D02*
X101987500Y-109137500D01*
%TO.C,K42*%
X124888819Y-112988881D02*
X124888819Y-128188881D01*
X140088819Y-112988881D02*
X124888819Y-112988881D01*
X124888819Y-128188881D02*
X140088819Y-128188881D01*
X140088819Y-128188881D02*
X140088819Y-112988881D01*
%TO.C,K45*%
X182037500Y-112987500D02*
X182037500Y-128187500D01*
X197237500Y-128187500D02*
X197237500Y-112987500D01*
X197237500Y-112987500D02*
X182037500Y-112987500D01*
X182037500Y-128187500D02*
X197237500Y-128187500D01*
%TO.C,K33*%
X143937500Y-109137500D02*
X159137500Y-109137500D01*
X143937500Y-93937500D02*
X143937500Y-109137500D01*
X159137500Y-109137500D02*
X159137500Y-93937500D01*
X159137500Y-93937500D02*
X143937500Y-93937500D01*
%TO.C,K3*%
X159137500Y-51987500D02*
X159137500Y-36787500D01*
X143937500Y-36787500D02*
X143937500Y-51987500D01*
X143937500Y-51987500D02*
X159137500Y-51987500D01*
X159137500Y-36787500D02*
X143937500Y-36787500D01*
%TO.C,K10*%
X101989940Y-71037500D02*
X101989940Y-55837500D01*
X101989940Y-55837500D02*
X86789940Y-55837500D01*
X86789940Y-71037500D02*
X101989940Y-71037500D01*
X86789940Y-55837500D02*
X86789940Y-71037500D01*
%TO.C,K31*%
X121037500Y-93936709D02*
X105837500Y-93936709D01*
X105837500Y-109136709D02*
X121037500Y-109136709D01*
X105837500Y-93936709D02*
X105837500Y-109136709D01*
X121037500Y-109136709D02*
X121037500Y-93936709D01*
%TO.C,K25*%
X182037500Y-74887500D02*
X182037500Y-90087500D01*
X197237500Y-74887500D02*
X182037500Y-74887500D01*
X182037500Y-90087500D02*
X197237500Y-90087500D01*
X197237500Y-90087500D02*
X197237500Y-74887500D01*
%TD*%
%LPC*%
D13*
%TO.C,USB1*%
X66960000Y-38971250D03*
X72740000Y-38971250D03*
D14*
X74170000Y-39501250D03*
D15*
X74170000Y-35321250D03*
X65530000Y-35321250D03*
D14*
X65530000Y-39501250D03*
%TD*%
D16*
%TO.C,J1*%
X68580000Y-120491250D03*
X71120000Y-120491250D03*
X68580000Y-123031250D03*
X71120000Y-123031250D03*
X68580000Y-125571250D03*
D17*
X71120000Y-125571250D03*
%TD*%
D18*
%TO.C,SW1*%
X72950000Y-111387500D03*
X66750000Y-111387500D03*
X66750000Y-107687500D03*
X72950000Y-107687500D03*
%TD*%
D19*
%TO.C,K41*%
X113439804Y-126488407D03*
D20*
X118439804Y-115438407D03*
D21*
X113439804Y-120588407D03*
D22*
X107939804Y-120588407D03*
D19*
X108439804Y-124388407D03*
D22*
X118939804Y-120588407D03*
%TD*%
%TO.C,K20*%
X99889940Y-82487500D03*
D19*
X89389940Y-86287500D03*
D20*
X99389940Y-77337500D03*
D22*
X88889940Y-82487500D03*
D21*
X94389940Y-82487500D03*
D19*
X94389940Y-88387500D03*
%TD*%
D22*
%TO.C,K46*%
X203187500Y-120587500D03*
X214187500Y-120587500D03*
D19*
X208687500Y-126487500D03*
X203687500Y-124387500D03*
D21*
X208687500Y-120587500D03*
D20*
X213687500Y-115437500D03*
%TD*%
D22*
%TO.C,K36*%
X214187500Y-101537500D03*
D21*
X208687500Y-101537500D03*
D19*
X208687500Y-107437500D03*
D20*
X213687500Y-96387500D03*
D19*
X203687500Y-105337500D03*
D22*
X203187500Y-101537500D03*
%TD*%
D21*
%TO.C,K12*%
X132489336Y-63437625D03*
D19*
X127489336Y-67237625D03*
D22*
X126989336Y-63437625D03*
D20*
X137489336Y-58287625D03*
D22*
X137989336Y-63437625D03*
D19*
X132489336Y-69337625D03*
%TD*%
D22*
%TO.C,K22*%
X126987860Y-82487020D03*
D19*
X132487860Y-88387020D03*
D20*
X137487860Y-77337020D03*
D21*
X132487860Y-82487020D03*
D19*
X127487860Y-86287020D03*
D22*
X137987860Y-82487020D03*
%TD*%
%TO.C,K35*%
X195137500Y-101537500D03*
X184137500Y-101537500D03*
D21*
X189637500Y-101537500D03*
D20*
X194637500Y-96387500D03*
D19*
X184637500Y-105337500D03*
X189637500Y-107437500D03*
%TD*%
D21*
%TO.C,K23*%
X151537500Y-82487500D03*
D22*
X146037500Y-82487500D03*
D20*
X156537500Y-77337500D03*
D19*
X151537500Y-88387500D03*
D22*
X157037500Y-82487500D03*
D19*
X146537500Y-86287500D03*
%TD*%
D20*
%TO.C,K5*%
X194637500Y-39237500D03*
D22*
X184137500Y-44387500D03*
D21*
X189637500Y-44387500D03*
D22*
X195137500Y-44387500D03*
D19*
X184637500Y-48187500D03*
X189637500Y-50287500D03*
%TD*%
D21*
%TO.C,K40*%
X94388232Y-120587500D03*
D20*
X99388232Y-115437500D03*
D19*
X94388232Y-126487500D03*
D22*
X88888232Y-120587500D03*
X99888232Y-120587500D03*
D19*
X89388232Y-124387500D03*
%TD*%
D22*
%TO.C,K44*%
X165143750Y-120587500D03*
D19*
X165643750Y-124387500D03*
D21*
X170643750Y-120587500D03*
D20*
X175643750Y-115437500D03*
D19*
X170643750Y-126487500D03*
D22*
X176143750Y-120587500D03*
%TD*%
D20*
%TO.C,K34*%
X175643750Y-96387500D03*
D19*
X165643750Y-105337500D03*
D21*
X170643750Y-101537500D03*
D22*
X176143750Y-101537500D03*
X165143750Y-101537500D03*
D19*
X170643750Y-107437500D03*
%TD*%
%TO.C,K32*%
X132487501Y-107436313D03*
D22*
X126987501Y-101536313D03*
X137987501Y-101536313D03*
D20*
X137487501Y-96386313D03*
D21*
X132487501Y-101536313D03*
D19*
X127487501Y-105336313D03*
%TD*%
%TO.C,K43*%
X146537500Y-124387500D03*
D22*
X146037500Y-120587500D03*
D19*
X151537500Y-126487500D03*
D20*
X156537500Y-115437500D03*
D22*
X157037500Y-120587500D03*
D21*
X151537500Y-120587500D03*
%TD*%
D22*
%TO.C,K15*%
X195137500Y-63437500D03*
D20*
X194637500Y-58287500D03*
D22*
X184137500Y-63437500D03*
D19*
X184637500Y-67237500D03*
X189637500Y-69337500D03*
D21*
X189637500Y-63437500D03*
%TD*%
D19*
%TO.C,K14*%
X170643750Y-69337500D03*
D22*
X165143750Y-63437500D03*
D20*
X175643750Y-58287500D03*
D19*
X165643750Y-67237500D03*
D22*
X176143750Y-63437500D03*
D21*
X170643750Y-63437500D03*
%TD*%
D22*
%TO.C,K0*%
X88889940Y-44387500D03*
D19*
X89389940Y-48187500D03*
D20*
X99389940Y-39237500D03*
D21*
X94389940Y-44387500D03*
D22*
X99889940Y-44387500D03*
D19*
X94389940Y-50287500D03*
%TD*%
D21*
%TO.C,K2*%
X132490998Y-44387477D03*
D20*
X137490998Y-39237477D03*
D22*
X137990998Y-44387477D03*
D19*
X132490998Y-50287477D03*
D22*
X126990998Y-44387477D03*
D19*
X127490998Y-48187477D03*
%TD*%
D22*
%TO.C,K26*%
X203187500Y-82487500D03*
D19*
X208687500Y-88387500D03*
D21*
X208687500Y-82487500D03*
D20*
X213687500Y-77337500D03*
D19*
X203687500Y-86287500D03*
D22*
X214187500Y-82487500D03*
%TD*%
D19*
%TO.C,K13*%
X146537500Y-67237500D03*
D20*
X156537500Y-58287500D03*
D21*
X151537500Y-63437500D03*
D22*
X157037500Y-63437500D03*
D19*
X151537500Y-69337500D03*
D22*
X146037500Y-63437500D03*
%TD*%
D21*
%TO.C,K1*%
X113441034Y-44387052D03*
D20*
X118441034Y-39237052D03*
D19*
X108441034Y-48187052D03*
D22*
X118941034Y-44387052D03*
X107941034Y-44387052D03*
D19*
X113441034Y-50287052D03*
%TD*%
D22*
%TO.C,K4*%
X176143750Y-44387500D03*
D19*
X165643750Y-48187500D03*
D22*
X165143750Y-44387500D03*
D20*
X175643750Y-39237500D03*
D19*
X170643750Y-50287500D03*
D21*
X170643750Y-44387500D03*
%TD*%
D22*
%TO.C,K6*%
X214187500Y-44387500D03*
D21*
X208687500Y-44387500D03*
D19*
X203687500Y-48187500D03*
D20*
X213687500Y-39237500D03*
D19*
X208687500Y-50287500D03*
D22*
X203187500Y-44387500D03*
%TD*%
%TO.C,K21*%
X107938324Y-82486455D03*
D21*
X113438324Y-82486455D03*
D22*
X118938324Y-82486455D03*
D19*
X113438324Y-88386455D03*
X108438324Y-86286455D03*
D20*
X118438324Y-77336455D03*
%TD*%
D19*
%TO.C,K24*%
X170643750Y-88387500D03*
D22*
X176143750Y-82487500D03*
X165143750Y-82487500D03*
D19*
X165643750Y-86287500D03*
D21*
X170643750Y-82487500D03*
D20*
X175643750Y-77337500D03*
%TD*%
D21*
%TO.C,K16*%
X208687500Y-63437500D03*
D22*
X203187500Y-63437500D03*
X214187500Y-63437500D03*
D20*
X213687500Y-58287500D03*
D19*
X208687500Y-69337500D03*
X203687500Y-67237500D03*
%TD*%
%TO.C,K11*%
X113440053Y-69338204D03*
D20*
X118440053Y-58288204D03*
D19*
X108440053Y-67238204D03*
D22*
X107940053Y-63438204D03*
D21*
X113440053Y-63438204D03*
D22*
X118940053Y-63438204D03*
%TD*%
D21*
%TO.C,K30*%
X94387500Y-101537500D03*
D22*
X99887500Y-101537500D03*
D19*
X89387500Y-105337500D03*
X94387500Y-107437500D03*
D20*
X99387500Y-96387500D03*
D22*
X88887500Y-101537500D03*
%TD*%
D19*
%TO.C,K42*%
X127488819Y-124388881D03*
X132488819Y-126488881D03*
D20*
X137488819Y-115438881D03*
D21*
X132488819Y-120588881D03*
D22*
X126988819Y-120588881D03*
X137988819Y-120588881D03*
%TD*%
D19*
%TO.C,K45*%
X189637500Y-126487500D03*
D21*
X189637500Y-120587500D03*
D20*
X194637500Y-115437500D03*
D22*
X184137500Y-120587500D03*
D19*
X184637500Y-124387500D03*
D22*
X195137500Y-120587500D03*
%TD*%
%TO.C,K33*%
X146037500Y-101537500D03*
X157037500Y-101537500D03*
D20*
X156537500Y-96387500D03*
D19*
X151537500Y-107437500D03*
D21*
X151537500Y-101537500D03*
D19*
X146537500Y-105337500D03*
%TD*%
%TO.C,K3*%
X146537500Y-48187500D03*
D20*
X156537500Y-39237500D03*
D22*
X146037500Y-44387500D03*
D21*
X151537500Y-44387500D03*
D19*
X151537500Y-50287500D03*
D22*
X157037500Y-44387500D03*
%TD*%
D19*
%TO.C,K10*%
X89389940Y-67237500D03*
X94389940Y-69337500D03*
D22*
X99889940Y-63437500D03*
D20*
X99389940Y-58287500D03*
D21*
X94389940Y-63437500D03*
D22*
X88889940Y-63437500D03*
%TD*%
D20*
%TO.C,K31*%
X118437500Y-96386709D03*
D19*
X113437500Y-107436709D03*
X108437500Y-105336709D03*
D21*
X113437500Y-101536709D03*
D22*
X118937500Y-101536709D03*
X107937500Y-101536709D03*
%TD*%
D20*
%TO.C,K25*%
X194637500Y-77337500D03*
D22*
X184137500Y-82487500D03*
D19*
X189637500Y-88387500D03*
X184637500Y-86287500D03*
D21*
X189637500Y-82487500D03*
D22*
X195137500Y-82487500D03*
%TD*%
M02*
