M48
; DRILL file {KiCad (6.0.6)} date Sun Aug  7 05:05:41 2022
; FORMAT={-:-/ absolute / metric / decimal}
; #@! TF.CreationDate,2022-08-07T05:05:41+08:00
; #@! TF.GenerationSoftware,Kicad,Pcbnew,(6.0.6)
; #@! TF.FileFunction,Plated,1,2,PTH
FMAT,2
METRIC
; #@! TA.AperFunction,Plated,PTH,ViaDrill
T1C0.400
; #@! TA.AperFunction,Plated,PTH,ComponentDrill
T2C0.600
; #@! TA.AperFunction,Plated,PTH,ComponentDrill
T3C1.000
; #@! TA.AperFunction,Plated,PTH,ComponentDrill
T4C1.200
; #@! TA.AperFunction,Plated,PTH,ComponentDrill
T5C2.200
%
G90
G05
T1
X57.15Y-40.481
X57.15Y-59.531
X57.15Y-78.581
X57.15Y-97.631
X61.18Y-92.138
X61.18Y-130.238
X61.181Y-54.037
X61.181Y-73.087
X61.181Y-111.188
X61.912Y-115.094
X61.912Y-116.681
X62.706Y-39.688
X62.706Y-58.737
X62.706Y-77.787
X62.706Y-96.837
X71.438Y-40.481
X71.438Y-59.531
X71.438Y-78.581
X71.438Y-97.631
X71.438Y-116.681
X72.231Y-42.069
X72.231Y-61.119
X72.231Y-80.169
X72.231Y-99.219
X72.231Y-118.269
X73.819Y-38.894
X73.819Y-57.944
X73.819Y-76.994
X73.819Y-96.044
X73.819Y-115.094
X76.2Y-38.894
X76.2Y-40.481
X76.2Y-57.944
X76.2Y-59.531
X76.2Y-76.994
X76.2Y-78.581
X76.2Y-96.044
X76.2Y-97.631
X76.2Y-115.094
X76.2Y-116.681
X80.23Y-92.138
X80.231Y-54.037
X80.231Y-73.087
X80.231Y-111.188
X80.231Y-130.237
X81.756Y-39.688
X81.756Y-58.737
X81.756Y-77.787
X81.756Y-96.837
X81.756Y-115.887
X90.487Y-40.481
X90.487Y-59.531
X90.487Y-78.581
X90.487Y-97.631
X90.487Y-116.681
X91.281Y-42.069
X91.281Y-61.119
X91.281Y-80.169
X91.281Y-99.219
X91.281Y-118.269
X92.869Y-38.894
X92.869Y-57.944
X92.869Y-76.994
X92.869Y-96.044
X92.869Y-115.094
X95.194Y-40.481
X95.194Y-59.531
X95.194Y-78.581
X95.194Y-97.631
X95.194Y-116.681
X95.25Y-38.894
X95.25Y-57.944
X95.25Y-76.994
X95.25Y-96.044
X95.25Y-115.094
X99.28Y-73.088
X99.28Y-92.138
X99.281Y-54.037
X99.281Y-111.188
X99.281Y-130.237
X100.75Y-39.688
X100.75Y-58.737
X100.75Y-77.787
X100.75Y-96.837
X100.75Y-115.887
X109.481Y-40.481
X109.481Y-59.531
X109.481Y-78.581
X109.481Y-97.631
X109.481Y-116.681
X110.275Y-42.069
X110.275Y-61.119
X110.275Y-80.169
X110.275Y-99.219
X110.275Y-118.269
X111.919Y-38.894
X111.919Y-57.944
X111.919Y-76.994
X111.919Y-96.044
X111.919Y-115.094
X114.3Y-38.894
X114.3Y-40.481
X114.3Y-57.944
X114.3Y-59.531
X114.3Y-76.994
X114.3Y-78.581
X114.3Y-96.044
X114.3Y-97.631
X114.3Y-115.094
X114.3Y-116.681
X118.33Y-54.038
X118.33Y-73.088
X118.33Y-111.188
X118.33Y-130.238
X118.331Y-92.138
X119.856Y-39.688
X119.856Y-58.737
X119.856Y-77.787
X119.856Y-96.837
X119.856Y-115.887
X128.588Y-40.481
X128.588Y-59.531
X128.588Y-78.581
X128.588Y-97.631
X128.588Y-116.681
X129.381Y-42.069
X129.381Y-61.119
X129.381Y-80.169
X129.381Y-99.219
X129.381Y-118.269
X130.969Y-38.894
X130.969Y-57.944
X130.969Y-76.994
X130.969Y-96.044
X130.969Y-115.439
X133.35Y-38.894
X133.35Y-40.481
X133.35Y-57.944
X133.35Y-59.531
X133.35Y-76.994
X133.35Y-78.581
X133.35Y-96.044
X133.35Y-97.631
X133.35Y-115.439
X133.35Y-116.681
X137.38Y-54.038
X137.38Y-111.188
X137.381Y-73.087
X137.381Y-92.138
X137.381Y-130.237
X138.906Y-39.688
X138.906Y-58.737
X138.906Y-77.787
X138.906Y-96.837
X138.906Y-115.887
X147.637Y-40.481
X147.637Y-59.531
X147.637Y-78.581
X147.637Y-97.631
X147.637Y-116.681
X148.431Y-42.069
X148.431Y-61.119
X148.431Y-80.169
X148.431Y-99.219
X148.431Y-118.269
X150.019Y-38.894
X150.019Y-57.944
X150.019Y-76.994
X150.019Y-96.044
X150.019Y-115.094
X152.4Y-38.894
X152.4Y-40.481
X152.4Y-57.944
X152.4Y-59.531
X152.4Y-76.994
X152.4Y-78.581
X152.4Y-96.044
X152.4Y-97.631
X152.4Y-115.094
X152.4Y-116.681
X156.43Y-54.038
X156.43Y-73.088
X156.431Y-92.138
X156.431Y-111.188
X156.431Y-130.237
X157.956Y-39.688
X157.956Y-58.737
X157.956Y-77.787
X157.956Y-96.837
X157.956Y-115.887
X166.688Y-40.481
X166.688Y-59.531
X166.688Y-78.581
X166.688Y-97.631
X166.688Y-116.681
X167.481Y-42.069
X167.481Y-61.119
X167.481Y-80.169
X167.481Y-99.219
X167.481Y-118.269
X169.069Y-38.894
X169.069Y-57.944
X169.069Y-76.994
X169.069Y-96.044
X169.069Y-115.094
X171.45Y-38.894
X171.45Y-40.481
X171.45Y-57.944
X171.45Y-59.531
X171.45Y-76.994
X171.45Y-78.581
X171.45Y-96.044
X171.45Y-97.631
X171.45Y-115.094
X171.45Y-116.681
X175.48Y-92.138
X175.48Y-111.188
X175.481Y-54.037
X175.481Y-73.087
X175.481Y-130.237
X177.006Y-39.688
X177.006Y-58.737
X177.006Y-77.787
X177.006Y-96.837
X177.006Y-115.887
X185.694Y-40.438
X185.694Y-59.487
X185.694Y-78.537
X185.694Y-97.587
X185.694Y-116.637
X185.737Y-57.944
X185.737Y-76.994
X185.737Y-96.044
X185.737Y-115.094
X186.531Y-39.688
X187.731Y-75.582
X187.731Y-94.632
X187.731Y-113.682
X188.912Y-38.894
X188.912Y-55.562
X188.912Y-57.944
X188.912Y-76.994
X188.912Y-96.044
X188.912Y-115.094
X190.5Y-42.862
X190.5Y-57.944
X190.5Y-74.612
X191.294Y-42.069
X191.294Y-55.562
X191.294Y-73.025
X191.294Y-79.375
X191.294Y-92.075
X191.294Y-111.125
X191.782Y-72.153
X192.087Y-75.406
X192.881Y-74.612
X193.675Y-53.975
X193.675Y-67.469
X193.675Y-70.644
X193.675Y-76.994
X193.675Y-96.837
X193.675Y-100.012
X194.469Y-38.894
X194.469Y-45.244
X194.469Y-57.944
X194.469Y-81.756
X194.469Y-88.106
X194.469Y-98.425
X194.469Y-117.475
X195.415Y-51.441
X196.781Y-81.177
X196.838Y-75.394
X197.528Y-81.872
X197.644Y-66.675
X197.644Y-76.994
X197.759Y-71.553
X198.142Y-72.476
X198.438Y-59.531
X198.438Y-77.787
X198.438Y-82.55
X199.231Y-60.325
X199.231Y-63.5
X199.32Y-40.614
X200.025Y-62.706
X200.725Y-40.703
X200.819Y-33.381
X200.819Y-53.181
X200.819Y-61.912
X201.532Y-34.094
X201.612Y-81.756
X202.406Y-49.212
X203.172Y-35.015
X203.187Y-76.994
X203.2Y-36.734
X203.2Y-55.562
X203.225Y-41.388
X203.878Y-34.29
X203.95Y-48.375
X203.994Y-77.787
X204.787Y-56.356
X204.787Y-78.581
X204.944Y-54.925
X205.581Y-79.375
X205.65Y-40.634
X206.375Y-80.169
X207.08Y-40.614
X207.169Y-80.962
X209.55Y-53.975
X209.55Y-115.887
X210.344Y-51.594
X210.344Y-62.706
X210.441Y-111.391
X210.456Y-107.688
X211.137Y-36.512
X211.931Y-56.356
X212.725Y-81.756
X213.519Y-49.212
X213.519Y-72.231
X213.519Y-88.106
X214.312Y-71.438
X214.312Y-109.537
X215.106Y-70.644
X215.9Y-56.356
X215.9Y-69.85
X215.9Y-103.981
X216.694Y-49.212
X216.694Y-76.2
X217.487Y-36.512
X218.281Y-65.881
T3
X204.311Y-120.491
X204.311Y-123.031
X204.311Y-125.571
X206.851Y-120.491
X206.851Y-123.031
X206.851Y-125.571
T4
X61.744Y-48.188
X61.744Y-67.237
X61.744Y-86.287
X61.744Y-105.337
X61.744Y-124.387
X66.744Y-50.287
X66.744Y-69.337
X66.744Y-88.388
X66.744Y-107.438
X66.744Y-126.487
X71.744Y-48.188
X71.744Y-67.237
X71.744Y-86.287
X71.744Y-105.337
X71.744Y-124.387
X80.794Y-48.188
X80.794Y-67.237
X80.794Y-86.287
X80.794Y-105.337
X80.794Y-124.387
X85.794Y-50.287
X85.794Y-69.337
X85.794Y-88.388
X85.794Y-107.438
X85.794Y-126.487
X90.794Y-48.188
X90.794Y-67.237
X90.794Y-86.287
X90.794Y-105.337
X90.794Y-124.387
X99.787Y-48.188
X99.787Y-67.237
X99.787Y-86.287
X99.787Y-105.337
X99.787Y-124.387
X104.787Y-50.287
X104.787Y-69.337
X104.787Y-88.388
X104.787Y-107.438
X104.787Y-126.487
X109.787Y-48.188
X109.787Y-67.237
X109.787Y-86.287
X109.787Y-105.337
X109.787Y-124.387
X118.894Y-48.188
X118.894Y-67.237
X118.894Y-86.287
X118.894Y-105.337
X118.894Y-124.387
X123.894Y-50.287
X123.894Y-69.337
X123.894Y-88.388
X123.894Y-107.438
X123.894Y-126.487
X128.894Y-48.188
X128.894Y-67.237
X128.894Y-86.287
X128.894Y-105.337
X128.894Y-124.387
X137.94Y-48.187
X137.942Y-67.238
X137.942Y-124.389
X137.943Y-86.287
X137.944Y-105.336
X142.94Y-50.287
X142.942Y-69.338
X142.942Y-126.489
X142.943Y-88.387
X142.944Y-107.436
X147.94Y-48.187
X147.942Y-67.238
X147.942Y-124.389
X147.943Y-86.287
X147.944Y-105.336
X156.99Y-48.187
X156.991Y-67.238
X156.991Y-124.388
X156.993Y-86.286
X156.994Y-105.337
X161.99Y-50.287
X161.991Y-69.338
X161.991Y-126.488
X161.993Y-88.386
X161.994Y-107.437
X166.99Y-48.187
X166.991Y-67.238
X166.991Y-124.388
X166.993Y-86.286
X166.994Y-105.337
X176.041Y-48.188
X176.041Y-67.237
X176.041Y-86.287
X176.043Y-124.387
X176.044Y-105.337
X181.041Y-50.287
X181.041Y-69.337
X181.041Y-88.388
X181.043Y-126.487
X181.044Y-107.438
X186.041Y-48.188
X186.041Y-67.237
X186.041Y-86.287
X186.043Y-124.387
X186.044Y-105.337
T5
X55.562Y-33.337
X55.562Y-130.175
X194.469Y-33.337
X194.469Y-130.175
T2
X198.88Y-33.284G85X198.88Y-32.684
G05
X198.88Y-37.714G85X198.88Y-36.614
G05
X207.52Y-33.284G85X207.52Y-32.684
G05
X207.52Y-37.714G85X207.52Y-36.614
G05
X209.712Y-43.694G85X209.712Y-44.294
G05
X214.312Y-36.194G85X214.312Y-35.594
G05
X214.312Y-39.194G85X214.312Y-38.594
G05
X214.312Y-43.194G85X214.312Y-42.594
G05
X218.912Y-44.294G85X218.912Y-43.694
G05
T0
M30
