%TF.GenerationSoftware,KiCad,Pcbnew,(6.0.6)*%
%TF.CreationDate,2022-08-06T01:33:39+08:00*%
%TF.ProjectId,5x7,3578372e-6b69-4636-9164-5f7063625858,rev?*%
%TF.SameCoordinates,Original*%
%TF.FileFunction,Legend,Bot*%
%TF.FilePolarity,Positive*%
%FSLAX46Y46*%
G04 Gerber Fmt 4.6, Leading zero omitted, Abs format (unit mm)*
G04 Created by KiCad (PCBNEW (6.0.6)) date 2022-08-06 01:33:39*
%MOMM*%
%LPD*%
G01*
G04 APERTURE LIST*
G04 Aperture macros list*
%AMRoundRect*
0 Rectangle with rounded corners*
0 $1 Rounding radius*
0 $2 $3 $4 $5 $6 $7 $8 $9 X,Y pos of 4 corners*
0 Add a 4 corners polygon primitive as box body*
4,1,4,$2,$3,$4,$5,$6,$7,$8,$9,$2,$3,0*
0 Add four circle primitives for the rounded corners*
1,1,$1+$1,$2,$3*
1,1,$1+$1,$4,$5*
1,1,$1+$1,$6,$7*
1,1,$1+$1,$8,$9*
0 Add four rect primitives between the rounded corners*
20,1,$1+$1,$2,$3,$4,$5,0*
20,1,$1+$1,$4,$5,$6,$7,0*
20,1,$1+$1,$6,$7,$8,$9,0*
20,1,$1+$1,$8,$9,$2,$3,0*%
%AMFreePoly0*
4,1,18,-0.410000,0.593000,-0.403758,0.624380,-0.385983,0.650983,-0.359380,0.668758,-0.328000,0.675000,0.328000,0.675000,0.359380,0.668758,0.385983,0.650983,0.403758,0.624380,0.410000,0.593000,0.410000,-0.593000,0.403758,-0.624380,0.385983,-0.650983,0.359380,-0.668758,0.328000,-0.675000,0.000000,-0.675000,-0.410000,-0.265000,-0.410000,0.593000,-0.410000,0.593000,$1*%
G04 Aperture macros list end*
%ADD10C,0.150000*%
%ADD11C,0.120000*%
%ADD12R,0.550000X1.500000*%
%ADD13R,1.500000X0.550000*%
%ADD14RoundRect,0.082000X-0.593000X0.328000X-0.593000X-0.328000X0.593000X-0.328000X0.593000X0.328000X0*%
%ADD15FreePoly0,270.000000*%
%ADD16R,1.200000X0.900000*%
%ADD17RoundRect,0.250000X0.475000X-0.337500X0.475000X0.337500X-0.475000X0.337500X-0.475000X-0.337500X0*%
%ADD18RoundRect,0.250000X0.450000X-0.350000X0.450000X0.350000X-0.450000X0.350000X-0.450000X-0.350000X0*%
%ADD19RoundRect,0.250001X-0.624999X0.462499X-0.624999X-0.462499X0.624999X-0.462499X0.624999X0.462499X0*%
%ADD20C,0.650000*%
%ADD21R,0.600000X2.450000*%
%ADD22R,0.300000X2.450000*%
%ADD23RoundRect,0.250000X-0.450000X0.350000X-0.450000X-0.350000X0.450000X-0.350000X0.450000X0.350000X0*%
%ADD24RoundRect,0.250000X-0.475000X0.337500X-0.475000X-0.337500X0.475000X-0.337500X0.475000X0.337500X0*%
%ADD25RoundRect,0.250000X-0.337500X-0.475000X0.337500X-0.475000X0.337500X0.475000X-0.337500X0.475000X0*%
%ADD26RoundRect,0.250000X-0.350000X-0.450000X0.350000X-0.450000X0.350000X0.450000X-0.350000X0.450000X0*%
%ADD27RoundRect,0.250000X0.350000X0.450000X-0.350000X0.450000X-0.350000X-0.450000X0.350000X-0.450000X0*%
%ADD28R,0.700000X1.000000*%
%ADD29R,0.700000X0.600000*%
%ADD30R,1.800000X2.100000*%
%ADD31C,3.050000*%
%ADD32C,1.600000*%
%ADD33C,5.050000*%
%ADD34C,1.900000*%
%ADD35RoundRect,0.250000X1.025000X1.000000X-1.025000X1.000000X-1.025000X-1.000000X1.025000X-1.000000X0*%
G04 APERTURE END LIST*
D10*
%TO.C,U1*%
X61852380Y-69088095D02*
X62661904Y-69088095D01*
X62757142Y-69135714D01*
X62804761Y-69183333D01*
X62852380Y-69278571D01*
X62852380Y-69469047D01*
X62804761Y-69564285D01*
X62757142Y-69611904D01*
X62661904Y-69659523D01*
X61852380Y-69659523D01*
X62852380Y-70659523D02*
X62852380Y-70088095D01*
X62852380Y-70373809D02*
X61852380Y-70373809D01*
X61995238Y-70278571D01*
X62090476Y-70183333D01*
X62138095Y-70088095D01*
%TO.C,LED4*%
X158587380Y-37289880D02*
X159063571Y-37289880D01*
X159063571Y-36289880D01*
X158254047Y-36766071D02*
X157920714Y-36766071D01*
X157777857Y-37289880D02*
X158254047Y-37289880D01*
X158254047Y-36289880D01*
X157777857Y-36289880D01*
X157349285Y-37289880D02*
X157349285Y-36289880D01*
X157111190Y-36289880D01*
X156968333Y-36337500D01*
X156873095Y-36432738D01*
X156825476Y-36527976D01*
X156777857Y-36718452D01*
X156777857Y-36861309D01*
X156825476Y-37051785D01*
X156873095Y-37147023D01*
X156968333Y-37242261D01*
X157111190Y-37289880D01*
X157349285Y-37289880D01*
X155920714Y-36623214D02*
X155920714Y-37289880D01*
X156158809Y-36242261D02*
X156396904Y-36956547D01*
X155777857Y-36956547D01*
%TO.C,D22*%
X142152380Y-89273214D02*
X141152380Y-89273214D01*
X141152380Y-89511309D01*
X141200000Y-89654166D01*
X141295238Y-89749404D01*
X141390476Y-89797023D01*
X141580952Y-89844642D01*
X141723809Y-89844642D01*
X141914285Y-89797023D01*
X142009523Y-89749404D01*
X142104761Y-89654166D01*
X142152380Y-89511309D01*
X142152380Y-89273214D01*
X141247619Y-90225595D02*
X141200000Y-90273214D01*
X141152380Y-90368452D01*
X141152380Y-90606547D01*
X141200000Y-90701785D01*
X141247619Y-90749404D01*
X141342857Y-90797023D01*
X141438095Y-90797023D01*
X141580952Y-90749404D01*
X142152380Y-90177976D01*
X142152380Y-90797023D01*
X141247619Y-91177976D02*
X141200000Y-91225595D01*
X141152380Y-91320833D01*
X141152380Y-91558928D01*
X141200000Y-91654166D01*
X141247619Y-91701785D01*
X141342857Y-91749404D01*
X141438095Y-91749404D01*
X141580952Y-91701785D01*
X142152380Y-91130357D01*
X142152380Y-91749404D01*
%TO.C,LED19*%
X178646011Y-75389880D02*
X179122202Y-75389880D01*
X179122202Y-74389880D01*
X178312678Y-74866071D02*
X177979345Y-74866071D01*
X177836488Y-75389880D02*
X178312678Y-75389880D01*
X178312678Y-74389880D01*
X177836488Y-74389880D01*
X177407916Y-75389880D02*
X177407916Y-74389880D01*
X177169821Y-74389880D01*
X177026964Y-74437500D01*
X176931726Y-74532738D01*
X176884107Y-74627976D01*
X176836488Y-74818452D01*
X176836488Y-74961309D01*
X176884107Y-75151785D01*
X176931726Y-75247023D01*
X177026964Y-75342261D01*
X177169821Y-75389880D01*
X177407916Y-75389880D01*
X175884107Y-75389880D02*
X176455535Y-75389880D01*
X176169821Y-75389880D02*
X176169821Y-74389880D01*
X176265059Y-74532738D01*
X176360297Y-74627976D01*
X176455535Y-74675595D01*
X175407916Y-75389880D02*
X175217440Y-75389880D01*
X175122202Y-75342261D01*
X175074583Y-75294642D01*
X174979345Y-75151785D01*
X174931726Y-74961309D01*
X174931726Y-74580357D01*
X174979345Y-74485119D01*
X175026964Y-74437500D01*
X175122202Y-74389880D01*
X175312678Y-74389880D01*
X175407916Y-74437500D01*
X175455535Y-74485119D01*
X175503154Y-74580357D01*
X175503154Y-74818452D01*
X175455535Y-74913690D01*
X175407916Y-74961309D01*
X175312678Y-75008928D01*
X175122202Y-75008928D01*
X175026964Y-74961309D01*
X174979345Y-74913690D01*
X174931726Y-74818452D01*
%TO.C,D16*%
X218352380Y-70223214D02*
X217352380Y-70223214D01*
X217352380Y-70461309D01*
X217400000Y-70604166D01*
X217495238Y-70699404D01*
X217590476Y-70747023D01*
X217780952Y-70794642D01*
X217923809Y-70794642D01*
X218114285Y-70747023D01*
X218209523Y-70699404D01*
X218304761Y-70604166D01*
X218352380Y-70461309D01*
X218352380Y-70223214D01*
X218352380Y-71747023D02*
X218352380Y-71175595D01*
X218352380Y-71461309D02*
X217352380Y-71461309D01*
X217495238Y-71366071D01*
X217590476Y-71270833D01*
X217638095Y-71175595D01*
X217352380Y-72604166D02*
X217352380Y-72413690D01*
X217400000Y-72318452D01*
X217447619Y-72270833D01*
X217590476Y-72175595D01*
X217780952Y-72127976D01*
X218161904Y-72127976D01*
X218257142Y-72175595D01*
X218304761Y-72223214D01*
X218352380Y-72318452D01*
X218352380Y-72508928D01*
X218304761Y-72604166D01*
X218257142Y-72651785D01*
X218161904Y-72699404D01*
X217923809Y-72699404D01*
X217828571Y-72651785D01*
X217780952Y-72604166D01*
X217733333Y-72508928D01*
X217733333Y-72318452D01*
X217780952Y-72223214D01*
X217828571Y-72175595D01*
X217923809Y-72127976D01*
%TO.C,LED18*%
X159539761Y-75389880D02*
X160015952Y-75389880D01*
X160015952Y-74389880D01*
X159206428Y-74866071D02*
X158873095Y-74866071D01*
X158730238Y-75389880D02*
X159206428Y-75389880D01*
X159206428Y-74389880D01*
X158730238Y-74389880D01*
X158301666Y-75389880D02*
X158301666Y-74389880D01*
X158063571Y-74389880D01*
X157920714Y-74437500D01*
X157825476Y-74532738D01*
X157777857Y-74627976D01*
X157730238Y-74818452D01*
X157730238Y-74961309D01*
X157777857Y-75151785D01*
X157825476Y-75247023D01*
X157920714Y-75342261D01*
X158063571Y-75389880D01*
X158301666Y-75389880D01*
X156777857Y-75389880D02*
X157349285Y-75389880D01*
X157063571Y-75389880D02*
X157063571Y-74389880D01*
X157158809Y-74532738D01*
X157254047Y-74627976D01*
X157349285Y-74675595D01*
X156206428Y-74818452D02*
X156301666Y-74770833D01*
X156349285Y-74723214D01*
X156396904Y-74627976D01*
X156396904Y-74580357D01*
X156349285Y-74485119D01*
X156301666Y-74437500D01*
X156206428Y-74389880D01*
X156015952Y-74389880D01*
X155920714Y-74437500D01*
X155873095Y-74485119D01*
X155825476Y-74580357D01*
X155825476Y-74627976D01*
X155873095Y-74723214D01*
X155920714Y-74770833D01*
X156015952Y-74818452D01*
X156206428Y-74818452D01*
X156301666Y-74866071D01*
X156349285Y-74913690D01*
X156396904Y-75008928D01*
X156396904Y-75199404D01*
X156349285Y-75294642D01*
X156301666Y-75342261D01*
X156206428Y-75389880D01*
X156015952Y-75389880D01*
X155920714Y-75342261D01*
X155873095Y-75294642D01*
X155825476Y-75199404D01*
X155825476Y-75008928D01*
X155873095Y-74913690D01*
X155920714Y-74866071D01*
X156015952Y-74818452D01*
%TO.C,LED34*%
X197639761Y-113489880D02*
X198115952Y-113489880D01*
X198115952Y-112489880D01*
X197306428Y-112966071D02*
X196973095Y-112966071D01*
X196830238Y-113489880D02*
X197306428Y-113489880D01*
X197306428Y-112489880D01*
X196830238Y-112489880D01*
X196401666Y-113489880D02*
X196401666Y-112489880D01*
X196163571Y-112489880D01*
X196020714Y-112537500D01*
X195925476Y-112632738D01*
X195877857Y-112727976D01*
X195830238Y-112918452D01*
X195830238Y-113061309D01*
X195877857Y-113251785D01*
X195925476Y-113347023D01*
X196020714Y-113442261D01*
X196163571Y-113489880D01*
X196401666Y-113489880D01*
X195496904Y-112489880D02*
X194877857Y-112489880D01*
X195211190Y-112870833D01*
X195068333Y-112870833D01*
X194973095Y-112918452D01*
X194925476Y-112966071D01*
X194877857Y-113061309D01*
X194877857Y-113299404D01*
X194925476Y-113394642D01*
X194973095Y-113442261D01*
X195068333Y-113489880D01*
X195354047Y-113489880D01*
X195449285Y-113442261D01*
X195496904Y-113394642D01*
X194020714Y-112823214D02*
X194020714Y-113489880D01*
X194258809Y-112442261D02*
X194496904Y-113156547D01*
X193877857Y-113156547D01*
%TO.C,LED7*%
X215737380Y-37289880D02*
X216213571Y-37289880D01*
X216213571Y-36289880D01*
X215404047Y-36766071D02*
X215070714Y-36766071D01*
X214927857Y-37289880D02*
X215404047Y-37289880D01*
X215404047Y-36289880D01*
X214927857Y-36289880D01*
X214499285Y-37289880D02*
X214499285Y-36289880D01*
X214261190Y-36289880D01*
X214118333Y-36337500D01*
X214023095Y-36432738D01*
X213975476Y-36527976D01*
X213927857Y-36718452D01*
X213927857Y-36861309D01*
X213975476Y-37051785D01*
X214023095Y-37147023D01*
X214118333Y-37242261D01*
X214261190Y-37289880D01*
X214499285Y-37289880D01*
X213594523Y-36289880D02*
X212927857Y-36289880D01*
X213356428Y-37289880D01*
%TO.C,D20*%
X104052380Y-89273214D02*
X103052380Y-89273214D01*
X103052380Y-89511309D01*
X103100000Y-89654166D01*
X103195238Y-89749404D01*
X103290476Y-89797023D01*
X103480952Y-89844642D01*
X103623809Y-89844642D01*
X103814285Y-89797023D01*
X103909523Y-89749404D01*
X104004761Y-89654166D01*
X104052380Y-89511309D01*
X104052380Y-89273214D01*
X103147619Y-90225595D02*
X103100000Y-90273214D01*
X103052380Y-90368452D01*
X103052380Y-90606547D01*
X103100000Y-90701785D01*
X103147619Y-90749404D01*
X103242857Y-90797023D01*
X103338095Y-90797023D01*
X103480952Y-90749404D01*
X104052380Y-90177976D01*
X104052380Y-90797023D01*
X103052380Y-91416071D02*
X103052380Y-91511309D01*
X103100000Y-91606547D01*
X103147619Y-91654166D01*
X103242857Y-91701785D01*
X103433333Y-91749404D01*
X103671428Y-91749404D01*
X103861904Y-91701785D01*
X103957142Y-91654166D01*
X104004761Y-91606547D01*
X104052380Y-91511309D01*
X104052380Y-91416071D01*
X104004761Y-91320833D01*
X103957142Y-91273214D01*
X103861904Y-91225595D01*
X103671428Y-91177976D01*
X103433333Y-91177976D01*
X103242857Y-91225595D01*
X103147619Y-91273214D01*
X103100000Y-91320833D01*
X103052380Y-91416071D01*
%TO.C,C8*%
X62138887Y-58555286D02*
X62186506Y-58507667D01*
X62234125Y-58364810D01*
X62234125Y-58269572D01*
X62186506Y-58126714D01*
X62091268Y-58031476D01*
X61996030Y-57983857D01*
X61805554Y-57936238D01*
X61662697Y-57936238D01*
X61472221Y-57983857D01*
X61376983Y-58031476D01*
X61281745Y-58126714D01*
X61234125Y-58269572D01*
X61234125Y-58364810D01*
X61281745Y-58507667D01*
X61329364Y-58555286D01*
X61662697Y-59126714D02*
X61615078Y-59031476D01*
X61567459Y-58983857D01*
X61472221Y-58936238D01*
X61424602Y-58936238D01*
X61329364Y-58983857D01*
X61281745Y-59031476D01*
X61234125Y-59126714D01*
X61234125Y-59317191D01*
X61281745Y-59412429D01*
X61329364Y-59460048D01*
X61424602Y-59507667D01*
X61472221Y-59507667D01*
X61567459Y-59460048D01*
X61615078Y-59412429D01*
X61662697Y-59317191D01*
X61662697Y-59126714D01*
X61710316Y-59031476D01*
X61757935Y-58983857D01*
X61853173Y-58936238D01*
X62043649Y-58936238D01*
X62138887Y-58983857D01*
X62186506Y-59031476D01*
X62234125Y-59126714D01*
X62234125Y-59317191D01*
X62186506Y-59412429D01*
X62138887Y-59460048D01*
X62043649Y-59507667D01*
X61853173Y-59507667D01*
X61757935Y-59460048D01*
X61710316Y-59412429D01*
X61662697Y-59317191D01*
%TO.C,D40*%
X104052380Y-127373214D02*
X103052380Y-127373214D01*
X103052380Y-127611309D01*
X103100000Y-127754166D01*
X103195238Y-127849404D01*
X103290476Y-127897023D01*
X103480952Y-127944642D01*
X103623809Y-127944642D01*
X103814285Y-127897023D01*
X103909523Y-127849404D01*
X104004761Y-127754166D01*
X104052380Y-127611309D01*
X104052380Y-127373214D01*
X103385714Y-128801785D02*
X104052380Y-128801785D01*
X103004761Y-128563690D02*
X103719047Y-128325595D01*
X103719047Y-128944642D01*
X103052380Y-129516071D02*
X103052380Y-129611309D01*
X103100000Y-129706547D01*
X103147619Y-129754166D01*
X103242857Y-129801785D01*
X103433333Y-129849404D01*
X103671428Y-129849404D01*
X103861904Y-129801785D01*
X103957142Y-129754166D01*
X104004761Y-129706547D01*
X104052380Y-129611309D01*
X104052380Y-129516071D01*
X104004761Y-129420833D01*
X103957142Y-129373214D01*
X103861904Y-129325595D01*
X103671428Y-129277976D01*
X103433333Y-129277976D01*
X103242857Y-129325595D01*
X103147619Y-129373214D01*
X103100000Y-129420833D01*
X103052380Y-129516071D01*
%TO.C,D2*%
X142152380Y-51649404D02*
X141152380Y-51649404D01*
X141152380Y-51887500D01*
X141200000Y-52030357D01*
X141295238Y-52125595D01*
X141390476Y-52173214D01*
X141580952Y-52220833D01*
X141723809Y-52220833D01*
X141914285Y-52173214D01*
X142009523Y-52125595D01*
X142104761Y-52030357D01*
X142152380Y-51887500D01*
X142152380Y-51649404D01*
X141247619Y-52601785D02*
X141200000Y-52649404D01*
X141152380Y-52744642D01*
X141152380Y-52982738D01*
X141200000Y-53077976D01*
X141247619Y-53125595D01*
X141342857Y-53173214D01*
X141438095Y-53173214D01*
X141580952Y-53125595D01*
X142152380Y-52554166D01*
X142152380Y-53173214D01*
%TO.C,LED20*%
X197639761Y-75389880D02*
X198115952Y-75389880D01*
X198115952Y-74389880D01*
X197306428Y-74866071D02*
X196973095Y-74866071D01*
X196830238Y-75389880D02*
X197306428Y-75389880D01*
X197306428Y-74389880D01*
X196830238Y-74389880D01*
X196401666Y-75389880D02*
X196401666Y-74389880D01*
X196163571Y-74389880D01*
X196020714Y-74437500D01*
X195925476Y-74532738D01*
X195877857Y-74627976D01*
X195830238Y-74818452D01*
X195830238Y-74961309D01*
X195877857Y-75151785D01*
X195925476Y-75247023D01*
X196020714Y-75342261D01*
X196163571Y-75389880D01*
X196401666Y-75389880D01*
X195449285Y-74485119D02*
X195401666Y-74437500D01*
X195306428Y-74389880D01*
X195068333Y-74389880D01*
X194973095Y-74437500D01*
X194925476Y-74485119D01*
X194877857Y-74580357D01*
X194877857Y-74675595D01*
X194925476Y-74818452D01*
X195496904Y-75389880D01*
X194877857Y-75389880D01*
X194258809Y-74389880D02*
X194163571Y-74389880D01*
X194068333Y-74437500D01*
X194020714Y-74485119D01*
X193973095Y-74580357D01*
X193925476Y-74770833D01*
X193925476Y-75008928D01*
X193973095Y-75199404D01*
X194020714Y-75294642D01*
X194068333Y-75342261D01*
X194163571Y-75389880D01*
X194258809Y-75389880D01*
X194354047Y-75342261D01*
X194401666Y-75294642D01*
X194449285Y-75199404D01*
X194496904Y-75008928D01*
X194496904Y-74770833D01*
X194449285Y-74580357D01*
X194401666Y-74485119D01*
X194354047Y-74437500D01*
X194258809Y-74389880D01*
%TO.C,D13*%
X161202380Y-70223214D02*
X160202380Y-70223214D01*
X160202380Y-70461309D01*
X160250000Y-70604166D01*
X160345238Y-70699404D01*
X160440476Y-70747023D01*
X160630952Y-70794642D01*
X160773809Y-70794642D01*
X160964285Y-70747023D01*
X161059523Y-70699404D01*
X161154761Y-70604166D01*
X161202380Y-70461309D01*
X161202380Y-70223214D01*
X161202380Y-71747023D02*
X161202380Y-71175595D01*
X161202380Y-71461309D02*
X160202380Y-71461309D01*
X160345238Y-71366071D01*
X160440476Y-71270833D01*
X160488095Y-71175595D01*
X160202380Y-72080357D02*
X160202380Y-72699404D01*
X160583333Y-72366071D01*
X160583333Y-72508928D01*
X160630952Y-72604166D01*
X160678571Y-72651785D01*
X160773809Y-72699404D01*
X161011904Y-72699404D01*
X161107142Y-72651785D01*
X161154761Y-72604166D01*
X161202380Y-72508928D01*
X161202380Y-72223214D01*
X161154761Y-72127976D01*
X161107142Y-72080357D01*
%TO.C,R7*%
X81738140Y-49063712D02*
X81261950Y-48730379D01*
X81738140Y-48492283D02*
X80738140Y-48492283D01*
X80738140Y-48873236D01*
X80785760Y-48968474D01*
X80833379Y-49016093D01*
X80928617Y-49063712D01*
X81071474Y-49063712D01*
X81166712Y-49016093D01*
X81214331Y-48968474D01*
X81261950Y-48873236D01*
X81261950Y-48492283D01*
X80738140Y-49397045D02*
X80738140Y-50063712D01*
X81738140Y-49635140D01*
%TO.C,F1*%
X61608571Y-52054166D02*
X61608571Y-51720833D01*
X62132380Y-51720833D02*
X61132380Y-51720833D01*
X61132380Y-52197023D01*
X62132380Y-53101785D02*
X62132380Y-52530357D01*
X62132380Y-52816071D02*
X61132380Y-52816071D01*
X61275238Y-52720833D01*
X61370476Y-52625595D01*
X61418095Y-52530357D01*
%TO.C,USB1*%
X71588095Y-42373630D02*
X71588095Y-43183154D01*
X71540476Y-43278392D01*
X71492857Y-43326011D01*
X71397619Y-43373630D01*
X71207142Y-43373630D01*
X71111904Y-43326011D01*
X71064285Y-43278392D01*
X71016666Y-43183154D01*
X71016666Y-42373630D01*
X70588095Y-43326011D02*
X70445238Y-43373630D01*
X70207142Y-43373630D01*
X70111904Y-43326011D01*
X70064285Y-43278392D01*
X70016666Y-43183154D01*
X70016666Y-43087916D01*
X70064285Y-42992678D01*
X70111904Y-42945059D01*
X70207142Y-42897440D01*
X70397619Y-42849821D01*
X70492857Y-42802202D01*
X70540476Y-42754583D01*
X70588095Y-42659345D01*
X70588095Y-42564107D01*
X70540476Y-42468869D01*
X70492857Y-42421250D01*
X70397619Y-42373630D01*
X70159523Y-42373630D01*
X70016666Y-42421250D01*
X69254761Y-42849821D02*
X69111904Y-42897440D01*
X69064285Y-42945059D01*
X69016666Y-43040297D01*
X69016666Y-43183154D01*
X69064285Y-43278392D01*
X69111904Y-43326011D01*
X69207142Y-43373630D01*
X69588095Y-43373630D01*
X69588095Y-42373630D01*
X69254761Y-42373630D01*
X69159523Y-42421250D01*
X69111904Y-42468869D01*
X69064285Y-42564107D01*
X69064285Y-42659345D01*
X69111904Y-42754583D01*
X69159523Y-42802202D01*
X69254761Y-42849821D01*
X69588095Y-42849821D01*
X68064285Y-43373630D02*
X68635714Y-43373630D01*
X68350000Y-43373630D02*
X68350000Y-42373630D01*
X68445238Y-42516488D01*
X68540476Y-42611726D01*
X68635714Y-42659345D01*
%TO.C,D23*%
X161202380Y-89273214D02*
X160202380Y-89273214D01*
X160202380Y-89511309D01*
X160250000Y-89654166D01*
X160345238Y-89749404D01*
X160440476Y-89797023D01*
X160630952Y-89844642D01*
X160773809Y-89844642D01*
X160964285Y-89797023D01*
X161059523Y-89749404D01*
X161154761Y-89654166D01*
X161202380Y-89511309D01*
X161202380Y-89273214D01*
X160297619Y-90225595D02*
X160250000Y-90273214D01*
X160202380Y-90368452D01*
X160202380Y-90606547D01*
X160250000Y-90701785D01*
X160297619Y-90749404D01*
X160392857Y-90797023D01*
X160488095Y-90797023D01*
X160630952Y-90749404D01*
X161202380Y-90177976D01*
X161202380Y-90797023D01*
X160202380Y-91130357D02*
X160202380Y-91749404D01*
X160583333Y-91416071D01*
X160583333Y-91558928D01*
X160630952Y-91654166D01*
X160678571Y-91701785D01*
X160773809Y-91749404D01*
X161011904Y-91749404D01*
X161107142Y-91701785D01*
X161154761Y-91654166D01*
X161202380Y-91558928D01*
X161202380Y-91273214D01*
X161154761Y-91177976D01*
X161107142Y-91130357D01*
%TO.C,D10*%
X104052380Y-70223214D02*
X103052380Y-70223214D01*
X103052380Y-70461309D01*
X103100000Y-70604166D01*
X103195238Y-70699404D01*
X103290476Y-70747023D01*
X103480952Y-70794642D01*
X103623809Y-70794642D01*
X103814285Y-70747023D01*
X103909523Y-70699404D01*
X104004761Y-70604166D01*
X104052380Y-70461309D01*
X104052380Y-70223214D01*
X104052380Y-71747023D02*
X104052380Y-71175595D01*
X104052380Y-71461309D02*
X103052380Y-71461309D01*
X103195238Y-71366071D01*
X103290476Y-71270833D01*
X103338095Y-71175595D01*
X103052380Y-72366071D02*
X103052380Y-72461309D01*
X103100000Y-72556547D01*
X103147619Y-72604166D01*
X103242857Y-72651785D01*
X103433333Y-72699404D01*
X103671428Y-72699404D01*
X103861904Y-72651785D01*
X103957142Y-72604166D01*
X104004761Y-72556547D01*
X104052380Y-72461309D01*
X104052380Y-72366071D01*
X104004761Y-72270833D01*
X103957142Y-72223214D01*
X103861904Y-72175595D01*
X103671428Y-72127976D01*
X103433333Y-72127976D01*
X103242857Y-72175595D01*
X103147619Y-72223214D01*
X103100000Y-72270833D01*
X103052380Y-72366071D01*
%TO.C,D35*%
X199302380Y-108323214D02*
X198302380Y-108323214D01*
X198302380Y-108561309D01*
X198350000Y-108704166D01*
X198445238Y-108799404D01*
X198540476Y-108847023D01*
X198730952Y-108894642D01*
X198873809Y-108894642D01*
X199064285Y-108847023D01*
X199159523Y-108799404D01*
X199254761Y-108704166D01*
X199302380Y-108561309D01*
X199302380Y-108323214D01*
X198302380Y-109227976D02*
X198302380Y-109847023D01*
X198683333Y-109513690D01*
X198683333Y-109656547D01*
X198730952Y-109751785D01*
X198778571Y-109799404D01*
X198873809Y-109847023D01*
X199111904Y-109847023D01*
X199207142Y-109799404D01*
X199254761Y-109751785D01*
X199302380Y-109656547D01*
X199302380Y-109370833D01*
X199254761Y-109275595D01*
X199207142Y-109227976D01*
X198302380Y-110751785D02*
X198302380Y-110275595D01*
X198778571Y-110227976D01*
X198730952Y-110275595D01*
X198683333Y-110370833D01*
X198683333Y-110608928D01*
X198730952Y-110704166D01*
X198778571Y-110751785D01*
X198873809Y-110799404D01*
X199111904Y-110799404D01*
X199207142Y-110751785D01*
X199254761Y-110704166D01*
X199302380Y-110608928D01*
X199302380Y-110370833D01*
X199254761Y-110275595D01*
X199207142Y-110227976D01*
%TO.C,LED11*%
X159539761Y-56339880D02*
X160015952Y-56339880D01*
X160015952Y-55339880D01*
X159206428Y-55816071D02*
X158873095Y-55816071D01*
X158730238Y-56339880D02*
X159206428Y-56339880D01*
X159206428Y-55339880D01*
X158730238Y-55339880D01*
X158301666Y-56339880D02*
X158301666Y-55339880D01*
X158063571Y-55339880D01*
X157920714Y-55387500D01*
X157825476Y-55482738D01*
X157777857Y-55577976D01*
X157730238Y-55768452D01*
X157730238Y-55911309D01*
X157777857Y-56101785D01*
X157825476Y-56197023D01*
X157920714Y-56292261D01*
X158063571Y-56339880D01*
X158301666Y-56339880D01*
X156777857Y-56339880D02*
X157349285Y-56339880D01*
X157063571Y-56339880D02*
X157063571Y-55339880D01*
X157158809Y-55482738D01*
X157254047Y-55577976D01*
X157349285Y-55625595D01*
X155825476Y-56339880D02*
X156396904Y-56339880D01*
X156111190Y-56339880D02*
X156111190Y-55339880D01*
X156206428Y-55482738D01*
X156301666Y-55577976D01*
X156396904Y-55625595D01*
%TO.C,R5*%
X71096130Y-58570833D02*
X70619940Y-58237500D01*
X71096130Y-57999404D02*
X70096130Y-57999404D01*
X70096130Y-58380357D01*
X70143750Y-58475595D01*
X70191369Y-58523214D01*
X70286607Y-58570833D01*
X70429464Y-58570833D01*
X70524702Y-58523214D01*
X70572321Y-58475595D01*
X70619940Y-58380357D01*
X70619940Y-57999404D01*
X70096130Y-59475595D02*
X70096130Y-58999404D01*
X70572321Y-58951785D01*
X70524702Y-58999404D01*
X70477083Y-59094642D01*
X70477083Y-59332738D01*
X70524702Y-59427976D01*
X70572321Y-59475595D01*
X70667559Y-59523214D01*
X70905654Y-59523214D01*
X71000892Y-59475595D01*
X71048511Y-59427976D01*
X71096130Y-59332738D01*
X71096130Y-59094642D01*
X71048511Y-58999404D01*
X71000892Y-58951785D01*
%TO.C,D31*%
X123102380Y-108323214D02*
X122102380Y-108323214D01*
X122102380Y-108561309D01*
X122150000Y-108704166D01*
X122245238Y-108799404D01*
X122340476Y-108847023D01*
X122530952Y-108894642D01*
X122673809Y-108894642D01*
X122864285Y-108847023D01*
X122959523Y-108799404D01*
X123054761Y-108704166D01*
X123102380Y-108561309D01*
X123102380Y-108323214D01*
X122102380Y-109227976D02*
X122102380Y-109847023D01*
X122483333Y-109513690D01*
X122483333Y-109656547D01*
X122530952Y-109751785D01*
X122578571Y-109799404D01*
X122673809Y-109847023D01*
X122911904Y-109847023D01*
X123007142Y-109799404D01*
X123054761Y-109751785D01*
X123102380Y-109656547D01*
X123102380Y-109370833D01*
X123054761Y-109275595D01*
X123007142Y-109227976D01*
X123102380Y-110799404D02*
X123102380Y-110227976D01*
X123102380Y-110513690D02*
X122102380Y-110513690D01*
X122245238Y-110418452D01*
X122340476Y-110323214D01*
X122388095Y-110227976D01*
%TO.C,D3*%
X161202380Y-51649404D02*
X160202380Y-51649404D01*
X160202380Y-51887500D01*
X160250000Y-52030357D01*
X160345238Y-52125595D01*
X160440476Y-52173214D01*
X160630952Y-52220833D01*
X160773809Y-52220833D01*
X160964285Y-52173214D01*
X161059523Y-52125595D01*
X161154761Y-52030357D01*
X161202380Y-51887500D01*
X161202380Y-51649404D01*
X160202380Y-52554166D02*
X160202380Y-53173214D01*
X160583333Y-52839880D01*
X160583333Y-52982738D01*
X160630952Y-53077976D01*
X160678571Y-53125595D01*
X160773809Y-53173214D01*
X161011904Y-53173214D01*
X161107142Y-53125595D01*
X161154761Y-53077976D01*
X161202380Y-52982738D01*
X161202380Y-52697023D01*
X161154761Y-52601785D01*
X161107142Y-52554166D01*
%TO.C,D15*%
X199302380Y-70223214D02*
X198302380Y-70223214D01*
X198302380Y-70461309D01*
X198350000Y-70604166D01*
X198445238Y-70699404D01*
X198540476Y-70747023D01*
X198730952Y-70794642D01*
X198873809Y-70794642D01*
X199064285Y-70747023D01*
X199159523Y-70699404D01*
X199254761Y-70604166D01*
X199302380Y-70461309D01*
X199302380Y-70223214D01*
X199302380Y-71747023D02*
X199302380Y-71175595D01*
X199302380Y-71461309D02*
X198302380Y-71461309D01*
X198445238Y-71366071D01*
X198540476Y-71270833D01*
X198588095Y-71175595D01*
X198302380Y-72651785D02*
X198302380Y-72175595D01*
X198778571Y-72127976D01*
X198730952Y-72175595D01*
X198683333Y-72270833D01*
X198683333Y-72508928D01*
X198730952Y-72604166D01*
X198778571Y-72651785D01*
X198873809Y-72699404D01*
X199111904Y-72699404D01*
X199207142Y-72651785D01*
X199254761Y-72604166D01*
X199302380Y-72508928D01*
X199302380Y-72270833D01*
X199254761Y-72175595D01*
X199207142Y-72127976D01*
%TO.C,D34*%
X180252380Y-108323214D02*
X179252380Y-108323214D01*
X179252380Y-108561309D01*
X179300000Y-108704166D01*
X179395238Y-108799404D01*
X179490476Y-108847023D01*
X179680952Y-108894642D01*
X179823809Y-108894642D01*
X180014285Y-108847023D01*
X180109523Y-108799404D01*
X180204761Y-108704166D01*
X180252380Y-108561309D01*
X180252380Y-108323214D01*
X179252380Y-109227976D02*
X179252380Y-109847023D01*
X179633333Y-109513690D01*
X179633333Y-109656547D01*
X179680952Y-109751785D01*
X179728571Y-109799404D01*
X179823809Y-109847023D01*
X180061904Y-109847023D01*
X180157142Y-109799404D01*
X180204761Y-109751785D01*
X180252380Y-109656547D01*
X180252380Y-109370833D01*
X180204761Y-109275595D01*
X180157142Y-109227976D01*
X179585714Y-110704166D02*
X180252380Y-110704166D01*
X179204761Y-110466071D02*
X179919047Y-110227976D01*
X179919047Y-110847023D01*
%TO.C,LED35*%
X216689761Y-113489880D02*
X217165952Y-113489880D01*
X217165952Y-112489880D01*
X216356428Y-112966071D02*
X216023095Y-112966071D01*
X215880238Y-113489880D02*
X216356428Y-113489880D01*
X216356428Y-112489880D01*
X215880238Y-112489880D01*
X215451666Y-113489880D02*
X215451666Y-112489880D01*
X215213571Y-112489880D01*
X215070714Y-112537500D01*
X214975476Y-112632738D01*
X214927857Y-112727976D01*
X214880238Y-112918452D01*
X214880238Y-113061309D01*
X214927857Y-113251785D01*
X214975476Y-113347023D01*
X215070714Y-113442261D01*
X215213571Y-113489880D01*
X215451666Y-113489880D01*
X214546904Y-112489880D02*
X213927857Y-112489880D01*
X214261190Y-112870833D01*
X214118333Y-112870833D01*
X214023095Y-112918452D01*
X213975476Y-112966071D01*
X213927857Y-113061309D01*
X213927857Y-113299404D01*
X213975476Y-113394642D01*
X214023095Y-113442261D01*
X214118333Y-113489880D01*
X214404047Y-113489880D01*
X214499285Y-113442261D01*
X214546904Y-113394642D01*
X213023095Y-112489880D02*
X213499285Y-112489880D01*
X213546904Y-112966071D01*
X213499285Y-112918452D01*
X213404047Y-112870833D01*
X213165952Y-112870833D01*
X213070714Y-112918452D01*
X213023095Y-112966071D01*
X212975476Y-113061309D01*
X212975476Y-113299404D01*
X213023095Y-113394642D01*
X213070714Y-113442261D01*
X213165952Y-113489880D01*
X213404047Y-113489880D01*
X213499285Y-113442261D01*
X213546904Y-113394642D01*
%TO.C,D46*%
X218352380Y-127373214D02*
X217352380Y-127373214D01*
X217352380Y-127611309D01*
X217400000Y-127754166D01*
X217495238Y-127849404D01*
X217590476Y-127897023D01*
X217780952Y-127944642D01*
X217923809Y-127944642D01*
X218114285Y-127897023D01*
X218209523Y-127849404D01*
X218304761Y-127754166D01*
X218352380Y-127611309D01*
X218352380Y-127373214D01*
X217685714Y-128801785D02*
X218352380Y-128801785D01*
X217304761Y-128563690D02*
X218019047Y-128325595D01*
X218019047Y-128944642D01*
X217352380Y-129754166D02*
X217352380Y-129563690D01*
X217400000Y-129468452D01*
X217447619Y-129420833D01*
X217590476Y-129325595D01*
X217780952Y-129277976D01*
X218161904Y-129277976D01*
X218257142Y-129325595D01*
X218304761Y-129373214D01*
X218352380Y-129468452D01*
X218352380Y-129658928D01*
X218304761Y-129754166D01*
X218257142Y-129801785D01*
X218161904Y-129849404D01*
X217923809Y-129849404D01*
X217828571Y-129801785D01*
X217780952Y-129754166D01*
X217733333Y-129658928D01*
X217733333Y-129468452D01*
X217780952Y-129373214D01*
X217828571Y-129325595D01*
X217923809Y-129277976D01*
%TO.C,C3*%
X75763392Y-58570833D02*
X75811011Y-58523214D01*
X75858630Y-58380357D01*
X75858630Y-58285119D01*
X75811011Y-58142261D01*
X75715773Y-58047023D01*
X75620535Y-57999404D01*
X75430059Y-57951785D01*
X75287202Y-57951785D01*
X75096726Y-57999404D01*
X75001488Y-58047023D01*
X74906250Y-58142261D01*
X74858630Y-58285119D01*
X74858630Y-58380357D01*
X74906250Y-58523214D01*
X74953869Y-58570833D01*
X74858630Y-58904166D02*
X74858630Y-59523214D01*
X75239583Y-59189880D01*
X75239583Y-59332738D01*
X75287202Y-59427976D01*
X75334821Y-59475595D01*
X75430059Y-59523214D01*
X75668154Y-59523214D01*
X75763392Y-59475595D01*
X75811011Y-59427976D01*
X75858630Y-59332738D01*
X75858630Y-59047023D01*
X75811011Y-58951785D01*
X75763392Y-58904166D01*
%TO.C,D36*%
X218352380Y-108323214D02*
X217352380Y-108323214D01*
X217352380Y-108561309D01*
X217400000Y-108704166D01*
X217495238Y-108799404D01*
X217590476Y-108847023D01*
X217780952Y-108894642D01*
X217923809Y-108894642D01*
X218114285Y-108847023D01*
X218209523Y-108799404D01*
X218304761Y-108704166D01*
X218352380Y-108561309D01*
X218352380Y-108323214D01*
X217352380Y-109227976D02*
X217352380Y-109847023D01*
X217733333Y-109513690D01*
X217733333Y-109656547D01*
X217780952Y-109751785D01*
X217828571Y-109799404D01*
X217923809Y-109847023D01*
X218161904Y-109847023D01*
X218257142Y-109799404D01*
X218304761Y-109751785D01*
X218352380Y-109656547D01*
X218352380Y-109370833D01*
X218304761Y-109275595D01*
X218257142Y-109227976D01*
X217352380Y-110704166D02*
X217352380Y-110513690D01*
X217400000Y-110418452D01*
X217447619Y-110370833D01*
X217590476Y-110275595D01*
X217780952Y-110227976D01*
X218161904Y-110227976D01*
X218257142Y-110275595D01*
X218304761Y-110323214D01*
X218352380Y-110418452D01*
X218352380Y-110608928D01*
X218304761Y-110704166D01*
X218257142Y-110751785D01*
X218161904Y-110799404D01*
X217923809Y-110799404D01*
X217828571Y-110751785D01*
X217780952Y-110704166D01*
X217733333Y-110608928D01*
X217733333Y-110418452D01*
X217780952Y-110323214D01*
X217828571Y-110275595D01*
X217923809Y-110227976D01*
%TO.C,C4*%
X74761789Y-81589966D02*
X74809408Y-81637585D01*
X74952265Y-81685204D01*
X75047503Y-81685204D01*
X75190361Y-81637585D01*
X75285599Y-81542347D01*
X75333218Y-81447109D01*
X75380837Y-81256633D01*
X75380837Y-81113776D01*
X75333218Y-80923300D01*
X75285599Y-80828062D01*
X75190361Y-80732824D01*
X75047503Y-80685204D01*
X74952265Y-80685204D01*
X74809408Y-80732824D01*
X74761789Y-80780443D01*
X73904646Y-81018538D02*
X73904646Y-81685204D01*
X74142742Y-80637585D02*
X74380837Y-81351871D01*
X73761789Y-81351871D01*
%TO.C,C5*%
X61568392Y-73652083D02*
X61616011Y-73604464D01*
X61663630Y-73461607D01*
X61663630Y-73366369D01*
X61616011Y-73223511D01*
X61520773Y-73128273D01*
X61425535Y-73080654D01*
X61235059Y-73033035D01*
X61092202Y-73033035D01*
X60901726Y-73080654D01*
X60806488Y-73128273D01*
X60711250Y-73223511D01*
X60663630Y-73366369D01*
X60663630Y-73461607D01*
X60711250Y-73604464D01*
X60758869Y-73652083D01*
X60663630Y-74556845D02*
X60663630Y-74080654D01*
X61139821Y-74033035D01*
X61092202Y-74080654D01*
X61044583Y-74175892D01*
X61044583Y-74413988D01*
X61092202Y-74509226D01*
X61139821Y-74556845D01*
X61235059Y-74604464D01*
X61473154Y-74604464D01*
X61568392Y-74556845D01*
X61616011Y-74509226D01*
X61663630Y-74413988D01*
X61663630Y-74175892D01*
X61616011Y-74080654D01*
X61568392Y-74033035D01*
%TO.C,C6*%
X78052142Y-68095833D02*
X78099761Y-68048214D01*
X78147380Y-67905357D01*
X78147380Y-67810119D01*
X78099761Y-67667261D01*
X78004523Y-67572023D01*
X77909285Y-67524404D01*
X77718809Y-67476785D01*
X77575952Y-67476785D01*
X77385476Y-67524404D01*
X77290238Y-67572023D01*
X77195000Y-67667261D01*
X77147380Y-67810119D01*
X77147380Y-67905357D01*
X77195000Y-68048214D01*
X77242619Y-68095833D01*
X77147380Y-68952976D02*
X77147380Y-68762500D01*
X77195000Y-68667261D01*
X77242619Y-68619642D01*
X77385476Y-68524404D01*
X77575952Y-68476785D01*
X77956904Y-68476785D01*
X78052142Y-68524404D01*
X78099761Y-68572023D01*
X78147380Y-68667261D01*
X78147380Y-68857738D01*
X78099761Y-68952976D01*
X78052142Y-69000595D01*
X77956904Y-69048214D01*
X77718809Y-69048214D01*
X77623571Y-69000595D01*
X77575952Y-68952976D01*
X77528333Y-68857738D01*
X77528333Y-68667261D01*
X77575952Y-68572023D01*
X77623571Y-68524404D01*
X77718809Y-68476785D01*
%TO.C,LED5*%
X177693630Y-37289880D02*
X178169821Y-37289880D01*
X178169821Y-36289880D01*
X177360297Y-36766071D02*
X177026964Y-36766071D01*
X176884107Y-37289880D02*
X177360297Y-37289880D01*
X177360297Y-36289880D01*
X176884107Y-36289880D01*
X176455535Y-37289880D02*
X176455535Y-36289880D01*
X176217440Y-36289880D01*
X176074583Y-36337500D01*
X175979345Y-36432738D01*
X175931726Y-36527976D01*
X175884107Y-36718452D01*
X175884107Y-36861309D01*
X175931726Y-37051785D01*
X175979345Y-37147023D01*
X176074583Y-37242261D01*
X176217440Y-37289880D01*
X176455535Y-37289880D01*
X174979345Y-36289880D02*
X175455535Y-36289880D01*
X175503154Y-36766071D01*
X175455535Y-36718452D01*
X175360297Y-36670833D01*
X175122202Y-36670833D01*
X175026964Y-36718452D01*
X174979345Y-36766071D01*
X174931726Y-36861309D01*
X174931726Y-37099404D01*
X174979345Y-37194642D01*
X175026964Y-37242261D01*
X175122202Y-37289880D01*
X175360297Y-37289880D01*
X175455535Y-37242261D01*
X175503154Y-37194642D01*
%TO.C,LED24*%
X140489761Y-94439880D02*
X140965952Y-94439880D01*
X140965952Y-93439880D01*
X140156428Y-93916071D02*
X139823095Y-93916071D01*
X139680238Y-94439880D02*
X140156428Y-94439880D01*
X140156428Y-93439880D01*
X139680238Y-93439880D01*
X139251666Y-94439880D02*
X139251666Y-93439880D01*
X139013571Y-93439880D01*
X138870714Y-93487500D01*
X138775476Y-93582738D01*
X138727857Y-93677976D01*
X138680238Y-93868452D01*
X138680238Y-94011309D01*
X138727857Y-94201785D01*
X138775476Y-94297023D01*
X138870714Y-94392261D01*
X139013571Y-94439880D01*
X139251666Y-94439880D01*
X138299285Y-93535119D02*
X138251666Y-93487500D01*
X138156428Y-93439880D01*
X137918333Y-93439880D01*
X137823095Y-93487500D01*
X137775476Y-93535119D01*
X137727857Y-93630357D01*
X137727857Y-93725595D01*
X137775476Y-93868452D01*
X138346904Y-94439880D01*
X137727857Y-94439880D01*
X136870714Y-93773214D02*
X136870714Y-94439880D01*
X137108809Y-93392261D02*
X137346904Y-94106547D01*
X136727857Y-94106547D01*
%TO.C,LED13*%
X197639761Y-56339880D02*
X198115952Y-56339880D01*
X198115952Y-55339880D01*
X197306428Y-55816071D02*
X196973095Y-55816071D01*
X196830238Y-56339880D02*
X197306428Y-56339880D01*
X197306428Y-55339880D01*
X196830238Y-55339880D01*
X196401666Y-56339880D02*
X196401666Y-55339880D01*
X196163571Y-55339880D01*
X196020714Y-55387500D01*
X195925476Y-55482738D01*
X195877857Y-55577976D01*
X195830238Y-55768452D01*
X195830238Y-55911309D01*
X195877857Y-56101785D01*
X195925476Y-56197023D01*
X196020714Y-56292261D01*
X196163571Y-56339880D01*
X196401666Y-56339880D01*
X194877857Y-56339880D02*
X195449285Y-56339880D01*
X195163571Y-56339880D02*
X195163571Y-55339880D01*
X195258809Y-55482738D01*
X195354047Y-55577976D01*
X195449285Y-55625595D01*
X194544523Y-55339880D02*
X193925476Y-55339880D01*
X194258809Y-55720833D01*
X194115952Y-55720833D01*
X194020714Y-55768452D01*
X193973095Y-55816071D01*
X193925476Y-55911309D01*
X193925476Y-56149404D01*
X193973095Y-56244642D01*
X194020714Y-56292261D01*
X194115952Y-56339880D01*
X194401666Y-56339880D01*
X194496904Y-56292261D01*
X194544523Y-56244642D01*
%TO.C,D6*%
X218352380Y-51649404D02*
X217352380Y-51649404D01*
X217352380Y-51887500D01*
X217400000Y-52030357D01*
X217495238Y-52125595D01*
X217590476Y-52173214D01*
X217780952Y-52220833D01*
X217923809Y-52220833D01*
X218114285Y-52173214D01*
X218209523Y-52125595D01*
X218304761Y-52030357D01*
X218352380Y-51887500D01*
X218352380Y-51649404D01*
X217352380Y-53077976D02*
X217352380Y-52887500D01*
X217400000Y-52792261D01*
X217447619Y-52744642D01*
X217590476Y-52649404D01*
X217780952Y-52601785D01*
X218161904Y-52601785D01*
X218257142Y-52649404D01*
X218304761Y-52697023D01*
X218352380Y-52792261D01*
X218352380Y-52982738D01*
X218304761Y-53077976D01*
X218257142Y-53125595D01*
X218161904Y-53173214D01*
X217923809Y-53173214D01*
X217828571Y-53125595D01*
X217780952Y-53077976D01*
X217733333Y-52982738D01*
X217733333Y-52792261D01*
X217780952Y-52697023D01*
X217828571Y-52649404D01*
X217923809Y-52601785D01*
%TO.C,LED8*%
X101437380Y-56339880D02*
X101913571Y-56339880D01*
X101913571Y-55339880D01*
X101104047Y-55816071D02*
X100770714Y-55816071D01*
X100627857Y-56339880D02*
X101104047Y-56339880D01*
X101104047Y-55339880D01*
X100627857Y-55339880D01*
X100199285Y-56339880D02*
X100199285Y-55339880D01*
X99961190Y-55339880D01*
X99818333Y-55387500D01*
X99723095Y-55482738D01*
X99675476Y-55577976D01*
X99627857Y-55768452D01*
X99627857Y-55911309D01*
X99675476Y-56101785D01*
X99723095Y-56197023D01*
X99818333Y-56292261D01*
X99961190Y-56339880D01*
X100199285Y-56339880D01*
X99056428Y-55768452D02*
X99151666Y-55720833D01*
X99199285Y-55673214D01*
X99246904Y-55577976D01*
X99246904Y-55530357D01*
X99199285Y-55435119D01*
X99151666Y-55387500D01*
X99056428Y-55339880D01*
X98865952Y-55339880D01*
X98770714Y-55387500D01*
X98723095Y-55435119D01*
X98675476Y-55530357D01*
X98675476Y-55577976D01*
X98723095Y-55673214D01*
X98770714Y-55720833D01*
X98865952Y-55768452D01*
X99056428Y-55768452D01*
X99151666Y-55816071D01*
X99199285Y-55863690D01*
X99246904Y-55958928D01*
X99246904Y-56149404D01*
X99199285Y-56244642D01*
X99151666Y-56292261D01*
X99056428Y-56339880D01*
X98865952Y-56339880D01*
X98770714Y-56292261D01*
X98723095Y-56244642D01*
X98675476Y-56149404D01*
X98675476Y-55958928D01*
X98723095Y-55863690D01*
X98770714Y-55816071D01*
X98865952Y-55768452D01*
%TO.C,LED25*%
X159539761Y-94439880D02*
X160015952Y-94439880D01*
X160015952Y-93439880D01*
X159206428Y-93916071D02*
X158873095Y-93916071D01*
X158730238Y-94439880D02*
X159206428Y-94439880D01*
X159206428Y-93439880D01*
X158730238Y-93439880D01*
X158301666Y-94439880D02*
X158301666Y-93439880D01*
X158063571Y-93439880D01*
X157920714Y-93487500D01*
X157825476Y-93582738D01*
X157777857Y-93677976D01*
X157730238Y-93868452D01*
X157730238Y-94011309D01*
X157777857Y-94201785D01*
X157825476Y-94297023D01*
X157920714Y-94392261D01*
X158063571Y-94439880D01*
X158301666Y-94439880D01*
X157349285Y-93535119D02*
X157301666Y-93487500D01*
X157206428Y-93439880D01*
X156968333Y-93439880D01*
X156873095Y-93487500D01*
X156825476Y-93535119D01*
X156777857Y-93630357D01*
X156777857Y-93725595D01*
X156825476Y-93868452D01*
X157396904Y-94439880D01*
X156777857Y-94439880D01*
X155873095Y-93439880D02*
X156349285Y-93439880D01*
X156396904Y-93916071D01*
X156349285Y-93868452D01*
X156254047Y-93820833D01*
X156015952Y-93820833D01*
X155920714Y-93868452D01*
X155873095Y-93916071D01*
X155825476Y-94011309D01*
X155825476Y-94249404D01*
X155873095Y-94344642D01*
X155920714Y-94392261D01*
X156015952Y-94439880D01*
X156254047Y-94439880D01*
X156349285Y-94392261D01*
X156396904Y-94344642D01*
%TO.C,D1*%
X123102380Y-51649404D02*
X122102380Y-51649404D01*
X122102380Y-51887500D01*
X122150000Y-52030357D01*
X122245238Y-52125595D01*
X122340476Y-52173214D01*
X122530952Y-52220833D01*
X122673809Y-52220833D01*
X122864285Y-52173214D01*
X122959523Y-52125595D01*
X123054761Y-52030357D01*
X123102380Y-51887500D01*
X123102380Y-51649404D01*
X123102380Y-53173214D02*
X123102380Y-52601785D01*
X123102380Y-52887500D02*
X122102380Y-52887500D01*
X122245238Y-52792261D01*
X122340476Y-52697023D01*
X122388095Y-52601785D01*
%TO.C,D43*%
X161202380Y-127373214D02*
X160202380Y-127373214D01*
X160202380Y-127611309D01*
X160250000Y-127754166D01*
X160345238Y-127849404D01*
X160440476Y-127897023D01*
X160630952Y-127944642D01*
X160773809Y-127944642D01*
X160964285Y-127897023D01*
X161059523Y-127849404D01*
X161154761Y-127754166D01*
X161202380Y-127611309D01*
X161202380Y-127373214D01*
X160535714Y-128801785D02*
X161202380Y-128801785D01*
X160154761Y-128563690D02*
X160869047Y-128325595D01*
X160869047Y-128944642D01*
X160202380Y-129230357D02*
X160202380Y-129849404D01*
X160583333Y-129516071D01*
X160583333Y-129658928D01*
X160630952Y-129754166D01*
X160678571Y-129801785D01*
X160773809Y-129849404D01*
X161011904Y-129849404D01*
X161107142Y-129801785D01*
X161154761Y-129754166D01*
X161202380Y-129658928D01*
X161202380Y-129373214D01*
X161154761Y-129277976D01*
X161107142Y-129230357D01*
%TO.C,LED17*%
X140489761Y-75389880D02*
X140965952Y-75389880D01*
X140965952Y-74389880D01*
X140156428Y-74866071D02*
X139823095Y-74866071D01*
X139680238Y-75389880D02*
X140156428Y-75389880D01*
X140156428Y-74389880D01*
X139680238Y-74389880D01*
X139251666Y-75389880D02*
X139251666Y-74389880D01*
X139013571Y-74389880D01*
X138870714Y-74437500D01*
X138775476Y-74532738D01*
X138727857Y-74627976D01*
X138680238Y-74818452D01*
X138680238Y-74961309D01*
X138727857Y-75151785D01*
X138775476Y-75247023D01*
X138870714Y-75342261D01*
X139013571Y-75389880D01*
X139251666Y-75389880D01*
X137727857Y-75389880D02*
X138299285Y-75389880D01*
X138013571Y-75389880D02*
X138013571Y-74389880D01*
X138108809Y-74532738D01*
X138204047Y-74627976D01*
X138299285Y-74675595D01*
X137394523Y-74389880D02*
X136727857Y-74389880D01*
X137156428Y-75389880D01*
%TO.C,R1*%
X73985416Y-47523630D02*
X74318750Y-47047440D01*
X74556845Y-47523630D02*
X74556845Y-46523630D01*
X74175892Y-46523630D01*
X74080654Y-46571250D01*
X74033035Y-46618869D01*
X73985416Y-46714107D01*
X73985416Y-46856964D01*
X74033035Y-46952202D01*
X74080654Y-46999821D01*
X74175892Y-47047440D01*
X74556845Y-47047440D01*
X73033035Y-47523630D02*
X73604464Y-47523630D01*
X73318750Y-47523630D02*
X73318750Y-46523630D01*
X73413988Y-46666488D01*
X73509226Y-46761726D01*
X73604464Y-46809345D01*
%TO.C,D4*%
X180252380Y-51649404D02*
X179252380Y-51649404D01*
X179252380Y-51887500D01*
X179300000Y-52030357D01*
X179395238Y-52125595D01*
X179490476Y-52173214D01*
X179680952Y-52220833D01*
X179823809Y-52220833D01*
X180014285Y-52173214D01*
X180109523Y-52125595D01*
X180204761Y-52030357D01*
X180252380Y-51887500D01*
X180252380Y-51649404D01*
X179585714Y-53077976D02*
X180252380Y-53077976D01*
X179204761Y-52839880D02*
X179919047Y-52601785D01*
X179919047Y-53220833D01*
%TO.C,D21*%
X123102380Y-89273214D02*
X122102380Y-89273214D01*
X122102380Y-89511309D01*
X122150000Y-89654166D01*
X122245238Y-89749404D01*
X122340476Y-89797023D01*
X122530952Y-89844642D01*
X122673809Y-89844642D01*
X122864285Y-89797023D01*
X122959523Y-89749404D01*
X123054761Y-89654166D01*
X123102380Y-89511309D01*
X123102380Y-89273214D01*
X122197619Y-90225595D02*
X122150000Y-90273214D01*
X122102380Y-90368452D01*
X122102380Y-90606547D01*
X122150000Y-90701785D01*
X122197619Y-90749404D01*
X122292857Y-90797023D01*
X122388095Y-90797023D01*
X122530952Y-90749404D01*
X123102380Y-90177976D01*
X123102380Y-90797023D01*
X123102380Y-91749404D02*
X123102380Y-91177976D01*
X123102380Y-91463690D02*
X122102380Y-91463690D01*
X122245238Y-91368452D01*
X122340476Y-91273214D01*
X122388095Y-91177976D01*
%TO.C,LED30*%
X121439761Y-113489880D02*
X121915952Y-113489880D01*
X121915952Y-112489880D01*
X121106428Y-112966071D02*
X120773095Y-112966071D01*
X120630238Y-113489880D02*
X121106428Y-113489880D01*
X121106428Y-112489880D01*
X120630238Y-112489880D01*
X120201666Y-113489880D02*
X120201666Y-112489880D01*
X119963571Y-112489880D01*
X119820714Y-112537500D01*
X119725476Y-112632738D01*
X119677857Y-112727976D01*
X119630238Y-112918452D01*
X119630238Y-113061309D01*
X119677857Y-113251785D01*
X119725476Y-113347023D01*
X119820714Y-113442261D01*
X119963571Y-113489880D01*
X120201666Y-113489880D01*
X119296904Y-112489880D02*
X118677857Y-112489880D01*
X119011190Y-112870833D01*
X118868333Y-112870833D01*
X118773095Y-112918452D01*
X118725476Y-112966071D01*
X118677857Y-113061309D01*
X118677857Y-113299404D01*
X118725476Y-113394642D01*
X118773095Y-113442261D01*
X118868333Y-113489880D01*
X119154047Y-113489880D01*
X119249285Y-113442261D01*
X119296904Y-113394642D01*
X118058809Y-112489880D02*
X117963571Y-112489880D01*
X117868333Y-112537500D01*
X117820714Y-112585119D01*
X117773095Y-112680357D01*
X117725476Y-112870833D01*
X117725476Y-113108928D01*
X117773095Y-113299404D01*
X117820714Y-113394642D01*
X117868333Y-113442261D01*
X117963571Y-113489880D01*
X118058809Y-113489880D01*
X118154047Y-113442261D01*
X118201666Y-113394642D01*
X118249285Y-113299404D01*
X118296904Y-113108928D01*
X118296904Y-112870833D01*
X118249285Y-112680357D01*
X118201666Y-112585119D01*
X118154047Y-112537500D01*
X118058809Y-112489880D01*
%TO.C,C1*%
X78237142Y-92702083D02*
X78284761Y-92654464D01*
X78332380Y-92511607D01*
X78332380Y-92416369D01*
X78284761Y-92273511D01*
X78189523Y-92178273D01*
X78094285Y-92130654D01*
X77903809Y-92083035D01*
X77760952Y-92083035D01*
X77570476Y-92130654D01*
X77475238Y-92178273D01*
X77380000Y-92273511D01*
X77332380Y-92416369D01*
X77332380Y-92511607D01*
X77380000Y-92654464D01*
X77427619Y-92702083D01*
X78332380Y-93654464D02*
X78332380Y-93083035D01*
X78332380Y-93368750D02*
X77332380Y-93368750D01*
X77475238Y-93273511D01*
X77570476Y-93178273D01*
X77618095Y-93083035D01*
%TO.C,D42*%
X142152380Y-127373214D02*
X141152380Y-127373214D01*
X141152380Y-127611309D01*
X141200000Y-127754166D01*
X141295238Y-127849404D01*
X141390476Y-127897023D01*
X141580952Y-127944642D01*
X141723809Y-127944642D01*
X141914285Y-127897023D01*
X142009523Y-127849404D01*
X142104761Y-127754166D01*
X142152380Y-127611309D01*
X142152380Y-127373214D01*
X141485714Y-128801785D02*
X142152380Y-128801785D01*
X141104761Y-128563690D02*
X141819047Y-128325595D01*
X141819047Y-128944642D01*
X141247619Y-129277976D02*
X141200000Y-129325595D01*
X141152380Y-129420833D01*
X141152380Y-129658928D01*
X141200000Y-129754166D01*
X141247619Y-129801785D01*
X141342857Y-129849404D01*
X141438095Y-129849404D01*
X141580952Y-129801785D01*
X142152380Y-129230357D01*
X142152380Y-129849404D01*
%TO.C,LED27*%
X197639761Y-94439880D02*
X198115952Y-94439880D01*
X198115952Y-93439880D01*
X197306428Y-93916071D02*
X196973095Y-93916071D01*
X196830238Y-94439880D02*
X197306428Y-94439880D01*
X197306428Y-93439880D01*
X196830238Y-93439880D01*
X196401666Y-94439880D02*
X196401666Y-93439880D01*
X196163571Y-93439880D01*
X196020714Y-93487500D01*
X195925476Y-93582738D01*
X195877857Y-93677976D01*
X195830238Y-93868452D01*
X195830238Y-94011309D01*
X195877857Y-94201785D01*
X195925476Y-94297023D01*
X196020714Y-94392261D01*
X196163571Y-94439880D01*
X196401666Y-94439880D01*
X195449285Y-93535119D02*
X195401666Y-93487500D01*
X195306428Y-93439880D01*
X195068333Y-93439880D01*
X194973095Y-93487500D01*
X194925476Y-93535119D01*
X194877857Y-93630357D01*
X194877857Y-93725595D01*
X194925476Y-93868452D01*
X195496904Y-94439880D01*
X194877857Y-94439880D01*
X194544523Y-93439880D02*
X193877857Y-93439880D01*
X194306428Y-94439880D01*
%TO.C,LED1*%
X101437380Y-37289880D02*
X101913571Y-37289880D01*
X101913571Y-36289880D01*
X101104047Y-36766071D02*
X100770714Y-36766071D01*
X100627857Y-37289880D02*
X101104047Y-37289880D01*
X101104047Y-36289880D01*
X100627857Y-36289880D01*
X100199285Y-37289880D02*
X100199285Y-36289880D01*
X99961190Y-36289880D01*
X99818333Y-36337500D01*
X99723095Y-36432738D01*
X99675476Y-36527976D01*
X99627857Y-36718452D01*
X99627857Y-36861309D01*
X99675476Y-37051785D01*
X99723095Y-37147023D01*
X99818333Y-37242261D01*
X99961190Y-37289880D01*
X100199285Y-37289880D01*
X98675476Y-37289880D02*
X99246904Y-37289880D01*
X98961190Y-37289880D02*
X98961190Y-36289880D01*
X99056428Y-36432738D01*
X99151666Y-36527976D01*
X99246904Y-36575595D01*
%TO.C,D24*%
X180252380Y-89273214D02*
X179252380Y-89273214D01*
X179252380Y-89511309D01*
X179300000Y-89654166D01*
X179395238Y-89749404D01*
X179490476Y-89797023D01*
X179680952Y-89844642D01*
X179823809Y-89844642D01*
X180014285Y-89797023D01*
X180109523Y-89749404D01*
X180204761Y-89654166D01*
X180252380Y-89511309D01*
X180252380Y-89273214D01*
X179347619Y-90225595D02*
X179300000Y-90273214D01*
X179252380Y-90368452D01*
X179252380Y-90606547D01*
X179300000Y-90701785D01*
X179347619Y-90749404D01*
X179442857Y-90797023D01*
X179538095Y-90797023D01*
X179680952Y-90749404D01*
X180252380Y-90177976D01*
X180252380Y-90797023D01*
X179585714Y-91654166D02*
X180252380Y-91654166D01*
X179204761Y-91416071D02*
X179919047Y-91177976D01*
X179919047Y-91797023D01*
%TO.C,D45*%
X199302380Y-127373214D02*
X198302380Y-127373214D01*
X198302380Y-127611309D01*
X198350000Y-127754166D01*
X198445238Y-127849404D01*
X198540476Y-127897023D01*
X198730952Y-127944642D01*
X198873809Y-127944642D01*
X199064285Y-127897023D01*
X199159523Y-127849404D01*
X199254761Y-127754166D01*
X199302380Y-127611309D01*
X199302380Y-127373214D01*
X198635714Y-128801785D02*
X199302380Y-128801785D01*
X198254761Y-128563690D02*
X198969047Y-128325595D01*
X198969047Y-128944642D01*
X198302380Y-129801785D02*
X198302380Y-129325595D01*
X198778571Y-129277976D01*
X198730952Y-129325595D01*
X198683333Y-129420833D01*
X198683333Y-129658928D01*
X198730952Y-129754166D01*
X198778571Y-129801785D01*
X198873809Y-129849404D01*
X199111904Y-129849404D01*
X199207142Y-129801785D01*
X199254761Y-129754166D01*
X199302380Y-129658928D01*
X199302380Y-129420833D01*
X199254761Y-129325595D01*
X199207142Y-129277976D01*
%TO.C,D30*%
X104052380Y-108323214D02*
X103052380Y-108323214D01*
X103052380Y-108561309D01*
X103100000Y-108704166D01*
X103195238Y-108799404D01*
X103290476Y-108847023D01*
X103480952Y-108894642D01*
X103623809Y-108894642D01*
X103814285Y-108847023D01*
X103909523Y-108799404D01*
X104004761Y-108704166D01*
X104052380Y-108561309D01*
X104052380Y-108323214D01*
X103052380Y-109227976D02*
X103052380Y-109847023D01*
X103433333Y-109513690D01*
X103433333Y-109656547D01*
X103480952Y-109751785D01*
X103528571Y-109799404D01*
X103623809Y-109847023D01*
X103861904Y-109847023D01*
X103957142Y-109799404D01*
X104004761Y-109751785D01*
X104052380Y-109656547D01*
X104052380Y-109370833D01*
X104004761Y-109275595D01*
X103957142Y-109227976D01*
X103052380Y-110466071D02*
X103052380Y-110561309D01*
X103100000Y-110656547D01*
X103147619Y-110704166D01*
X103242857Y-110751785D01*
X103433333Y-110799404D01*
X103671428Y-110799404D01*
X103861904Y-110751785D01*
X103957142Y-110704166D01*
X104004761Y-110656547D01*
X104052380Y-110561309D01*
X104052380Y-110466071D01*
X104004761Y-110370833D01*
X103957142Y-110323214D01*
X103861904Y-110275595D01*
X103671428Y-110227976D01*
X103433333Y-110227976D01*
X103242857Y-110275595D01*
X103147619Y-110323214D01*
X103100000Y-110370833D01*
X103052380Y-110466071D01*
%TO.C,D14*%
X180252380Y-70223214D02*
X179252380Y-70223214D01*
X179252380Y-70461309D01*
X179300000Y-70604166D01*
X179395238Y-70699404D01*
X179490476Y-70747023D01*
X179680952Y-70794642D01*
X179823809Y-70794642D01*
X180014285Y-70747023D01*
X180109523Y-70699404D01*
X180204761Y-70604166D01*
X180252380Y-70461309D01*
X180252380Y-70223214D01*
X180252380Y-71747023D02*
X180252380Y-71175595D01*
X180252380Y-71461309D02*
X179252380Y-71461309D01*
X179395238Y-71366071D01*
X179490476Y-71270833D01*
X179538095Y-71175595D01*
X179585714Y-72604166D02*
X180252380Y-72604166D01*
X179204761Y-72366071D02*
X179919047Y-72127976D01*
X179919047Y-72747023D01*
%TO.C,LED14*%
X216689761Y-56339880D02*
X217165952Y-56339880D01*
X217165952Y-55339880D01*
X216356428Y-55816071D02*
X216023095Y-55816071D01*
X215880238Y-56339880D02*
X216356428Y-56339880D01*
X216356428Y-55339880D01*
X215880238Y-55339880D01*
X215451666Y-56339880D02*
X215451666Y-55339880D01*
X215213571Y-55339880D01*
X215070714Y-55387500D01*
X214975476Y-55482738D01*
X214927857Y-55577976D01*
X214880238Y-55768452D01*
X214880238Y-55911309D01*
X214927857Y-56101785D01*
X214975476Y-56197023D01*
X215070714Y-56292261D01*
X215213571Y-56339880D01*
X215451666Y-56339880D01*
X213927857Y-56339880D02*
X214499285Y-56339880D01*
X214213571Y-56339880D02*
X214213571Y-55339880D01*
X214308809Y-55482738D01*
X214404047Y-55577976D01*
X214499285Y-55625595D01*
X213070714Y-55673214D02*
X213070714Y-56339880D01*
X213308809Y-55292261D02*
X213546904Y-56006547D01*
X212927857Y-56006547D01*
%TO.C,LED28*%
X216689761Y-94439880D02*
X217165952Y-94439880D01*
X217165952Y-93439880D01*
X216356428Y-93916071D02*
X216023095Y-93916071D01*
X215880238Y-94439880D02*
X216356428Y-94439880D01*
X216356428Y-93439880D01*
X215880238Y-93439880D01*
X215451666Y-94439880D02*
X215451666Y-93439880D01*
X215213571Y-93439880D01*
X215070714Y-93487500D01*
X214975476Y-93582738D01*
X214927857Y-93677976D01*
X214880238Y-93868452D01*
X214880238Y-94011309D01*
X214927857Y-94201785D01*
X214975476Y-94297023D01*
X215070714Y-94392261D01*
X215213571Y-94439880D01*
X215451666Y-94439880D01*
X214499285Y-93535119D02*
X214451666Y-93487500D01*
X214356428Y-93439880D01*
X214118333Y-93439880D01*
X214023095Y-93487500D01*
X213975476Y-93535119D01*
X213927857Y-93630357D01*
X213927857Y-93725595D01*
X213975476Y-93868452D01*
X214546904Y-94439880D01*
X213927857Y-94439880D01*
X213356428Y-93868452D02*
X213451666Y-93820833D01*
X213499285Y-93773214D01*
X213546904Y-93677976D01*
X213546904Y-93630357D01*
X213499285Y-93535119D01*
X213451666Y-93487500D01*
X213356428Y-93439880D01*
X213165952Y-93439880D01*
X213070714Y-93487500D01*
X213023095Y-93535119D01*
X212975476Y-93630357D01*
X212975476Y-93677976D01*
X213023095Y-93773214D01*
X213070714Y-93820833D01*
X213165952Y-93868452D01*
X213356428Y-93868452D01*
X213451666Y-93916071D01*
X213499285Y-93963690D01*
X213546904Y-94058928D01*
X213546904Y-94249404D01*
X213499285Y-94344642D01*
X213451666Y-94392261D01*
X213356428Y-94439880D01*
X213165952Y-94439880D01*
X213070714Y-94392261D01*
X213023095Y-94344642D01*
X212975476Y-94249404D01*
X212975476Y-94058928D01*
X213023095Y-93963690D01*
X213070714Y-93916071D01*
X213165952Y-93868452D01*
%TO.C,LED15*%
X102389761Y-75389880D02*
X102865952Y-75389880D01*
X102865952Y-74389880D01*
X102056428Y-74866071D02*
X101723095Y-74866071D01*
X101580238Y-75389880D02*
X102056428Y-75389880D01*
X102056428Y-74389880D01*
X101580238Y-74389880D01*
X101151666Y-75389880D02*
X101151666Y-74389880D01*
X100913571Y-74389880D01*
X100770714Y-74437500D01*
X100675476Y-74532738D01*
X100627857Y-74627976D01*
X100580238Y-74818452D01*
X100580238Y-74961309D01*
X100627857Y-75151785D01*
X100675476Y-75247023D01*
X100770714Y-75342261D01*
X100913571Y-75389880D01*
X101151666Y-75389880D01*
X99627857Y-75389880D02*
X100199285Y-75389880D01*
X99913571Y-75389880D02*
X99913571Y-74389880D01*
X100008809Y-74532738D01*
X100104047Y-74627976D01*
X100199285Y-74675595D01*
X98723095Y-74389880D02*
X99199285Y-74389880D01*
X99246904Y-74866071D01*
X99199285Y-74818452D01*
X99104047Y-74770833D01*
X98865952Y-74770833D01*
X98770714Y-74818452D01*
X98723095Y-74866071D01*
X98675476Y-74961309D01*
X98675476Y-75199404D01*
X98723095Y-75294642D01*
X98770714Y-75342261D01*
X98865952Y-75389880D01*
X99104047Y-75389880D01*
X99199285Y-75342261D01*
X99246904Y-75294642D01*
%TO.C,D32*%
X142152380Y-108323214D02*
X141152380Y-108323214D01*
X141152380Y-108561309D01*
X141200000Y-108704166D01*
X141295238Y-108799404D01*
X141390476Y-108847023D01*
X141580952Y-108894642D01*
X141723809Y-108894642D01*
X141914285Y-108847023D01*
X142009523Y-108799404D01*
X142104761Y-108704166D01*
X142152380Y-108561309D01*
X142152380Y-108323214D01*
X141152380Y-109227976D02*
X141152380Y-109847023D01*
X141533333Y-109513690D01*
X141533333Y-109656547D01*
X141580952Y-109751785D01*
X141628571Y-109799404D01*
X141723809Y-109847023D01*
X141961904Y-109847023D01*
X142057142Y-109799404D01*
X142104761Y-109751785D01*
X142152380Y-109656547D01*
X142152380Y-109370833D01*
X142104761Y-109275595D01*
X142057142Y-109227976D01*
X141247619Y-110227976D02*
X141200000Y-110275595D01*
X141152380Y-110370833D01*
X141152380Y-110608928D01*
X141200000Y-110704166D01*
X141247619Y-110751785D01*
X141342857Y-110799404D01*
X141438095Y-110799404D01*
X141580952Y-110751785D01*
X142152380Y-110180357D01*
X142152380Y-110799404D01*
%TO.C,LED32*%
X159539761Y-113489880D02*
X160015952Y-113489880D01*
X160015952Y-112489880D01*
X159206428Y-112966071D02*
X158873095Y-112966071D01*
X158730238Y-113489880D02*
X159206428Y-113489880D01*
X159206428Y-112489880D01*
X158730238Y-112489880D01*
X158301666Y-113489880D02*
X158301666Y-112489880D01*
X158063571Y-112489880D01*
X157920714Y-112537500D01*
X157825476Y-112632738D01*
X157777857Y-112727976D01*
X157730238Y-112918452D01*
X157730238Y-113061309D01*
X157777857Y-113251785D01*
X157825476Y-113347023D01*
X157920714Y-113442261D01*
X158063571Y-113489880D01*
X158301666Y-113489880D01*
X157396904Y-112489880D02*
X156777857Y-112489880D01*
X157111190Y-112870833D01*
X156968333Y-112870833D01*
X156873095Y-112918452D01*
X156825476Y-112966071D01*
X156777857Y-113061309D01*
X156777857Y-113299404D01*
X156825476Y-113394642D01*
X156873095Y-113442261D01*
X156968333Y-113489880D01*
X157254047Y-113489880D01*
X157349285Y-113442261D01*
X157396904Y-113394642D01*
X156396904Y-112585119D02*
X156349285Y-112537500D01*
X156254047Y-112489880D01*
X156015952Y-112489880D01*
X155920714Y-112537500D01*
X155873095Y-112585119D01*
X155825476Y-112680357D01*
X155825476Y-112775595D01*
X155873095Y-112918452D01*
X156444523Y-113489880D01*
X155825476Y-113489880D01*
%TO.C,D33*%
X161202380Y-108323214D02*
X160202380Y-108323214D01*
X160202380Y-108561309D01*
X160250000Y-108704166D01*
X160345238Y-108799404D01*
X160440476Y-108847023D01*
X160630952Y-108894642D01*
X160773809Y-108894642D01*
X160964285Y-108847023D01*
X161059523Y-108799404D01*
X161154761Y-108704166D01*
X161202380Y-108561309D01*
X161202380Y-108323214D01*
X160202380Y-109227976D02*
X160202380Y-109847023D01*
X160583333Y-109513690D01*
X160583333Y-109656547D01*
X160630952Y-109751785D01*
X160678571Y-109799404D01*
X160773809Y-109847023D01*
X161011904Y-109847023D01*
X161107142Y-109799404D01*
X161154761Y-109751785D01*
X161202380Y-109656547D01*
X161202380Y-109370833D01*
X161154761Y-109275595D01*
X161107142Y-109227976D01*
X160202380Y-110180357D02*
X160202380Y-110799404D01*
X160583333Y-110466071D01*
X160583333Y-110608928D01*
X160630952Y-110704166D01*
X160678571Y-110751785D01*
X160773809Y-110799404D01*
X161011904Y-110799404D01*
X161107142Y-110751785D01*
X161154761Y-110704166D01*
X161202380Y-110608928D01*
X161202380Y-110323214D01*
X161154761Y-110227976D01*
X161107142Y-110180357D01*
%TO.C,LED21*%
X216689761Y-75389880D02*
X217165952Y-75389880D01*
X217165952Y-74389880D01*
X216356428Y-74866071D02*
X216023095Y-74866071D01*
X215880238Y-75389880D02*
X216356428Y-75389880D01*
X216356428Y-74389880D01*
X215880238Y-74389880D01*
X215451666Y-75389880D02*
X215451666Y-74389880D01*
X215213571Y-74389880D01*
X215070714Y-74437500D01*
X214975476Y-74532738D01*
X214927857Y-74627976D01*
X214880238Y-74818452D01*
X214880238Y-74961309D01*
X214927857Y-75151785D01*
X214975476Y-75247023D01*
X215070714Y-75342261D01*
X215213571Y-75389880D01*
X215451666Y-75389880D01*
X214499285Y-74485119D02*
X214451666Y-74437500D01*
X214356428Y-74389880D01*
X214118333Y-74389880D01*
X214023095Y-74437500D01*
X213975476Y-74485119D01*
X213927857Y-74580357D01*
X213927857Y-74675595D01*
X213975476Y-74818452D01*
X214546904Y-75389880D01*
X213927857Y-75389880D01*
X212975476Y-75389880D02*
X213546904Y-75389880D01*
X213261190Y-75389880D02*
X213261190Y-74389880D01*
X213356428Y-74532738D01*
X213451666Y-74627976D01*
X213546904Y-74675595D01*
%TO.C,LED6*%
X196687380Y-37289880D02*
X197163571Y-37289880D01*
X197163571Y-36289880D01*
X196354047Y-36766071D02*
X196020714Y-36766071D01*
X195877857Y-37289880D02*
X196354047Y-37289880D01*
X196354047Y-36289880D01*
X195877857Y-36289880D01*
X195449285Y-37289880D02*
X195449285Y-36289880D01*
X195211190Y-36289880D01*
X195068333Y-36337500D01*
X194973095Y-36432738D01*
X194925476Y-36527976D01*
X194877857Y-36718452D01*
X194877857Y-36861309D01*
X194925476Y-37051785D01*
X194973095Y-37147023D01*
X195068333Y-37242261D01*
X195211190Y-37289880D01*
X195449285Y-37289880D01*
X194020714Y-36289880D02*
X194211190Y-36289880D01*
X194306428Y-36337500D01*
X194354047Y-36385119D01*
X194449285Y-36527976D01*
X194496904Y-36718452D01*
X194496904Y-37099404D01*
X194449285Y-37194642D01*
X194401666Y-37242261D01*
X194306428Y-37289880D01*
X194115952Y-37289880D01*
X194020714Y-37242261D01*
X193973095Y-37194642D01*
X193925476Y-37099404D01*
X193925476Y-36861309D01*
X193973095Y-36766071D01*
X194020714Y-36718452D01*
X194115952Y-36670833D01*
X194306428Y-36670833D01*
X194401666Y-36718452D01*
X194449285Y-36766071D01*
X194496904Y-36861309D01*
%TO.C,D12*%
X142152380Y-70223214D02*
X141152380Y-70223214D01*
X141152380Y-70461309D01*
X141200000Y-70604166D01*
X141295238Y-70699404D01*
X141390476Y-70747023D01*
X141580952Y-70794642D01*
X141723809Y-70794642D01*
X141914285Y-70747023D01*
X142009523Y-70699404D01*
X142104761Y-70604166D01*
X142152380Y-70461309D01*
X142152380Y-70223214D01*
X142152380Y-71747023D02*
X142152380Y-71175595D01*
X142152380Y-71461309D02*
X141152380Y-71461309D01*
X141295238Y-71366071D01*
X141390476Y-71270833D01*
X141438095Y-71175595D01*
X141247619Y-72127976D02*
X141200000Y-72175595D01*
X141152380Y-72270833D01*
X141152380Y-72508928D01*
X141200000Y-72604166D01*
X141247619Y-72651785D01*
X141342857Y-72699404D01*
X141438095Y-72699404D01*
X141580952Y-72651785D01*
X142152380Y-72080357D01*
X142152380Y-72699404D01*
%TO.C,LED23*%
X121439761Y-94439880D02*
X121915952Y-94439880D01*
X121915952Y-93439880D01*
X121106428Y-93916071D02*
X120773095Y-93916071D01*
X120630238Y-94439880D02*
X121106428Y-94439880D01*
X121106428Y-93439880D01*
X120630238Y-93439880D01*
X120201666Y-94439880D02*
X120201666Y-93439880D01*
X119963571Y-93439880D01*
X119820714Y-93487500D01*
X119725476Y-93582738D01*
X119677857Y-93677976D01*
X119630238Y-93868452D01*
X119630238Y-94011309D01*
X119677857Y-94201785D01*
X119725476Y-94297023D01*
X119820714Y-94392261D01*
X119963571Y-94439880D01*
X120201666Y-94439880D01*
X119249285Y-93535119D02*
X119201666Y-93487500D01*
X119106428Y-93439880D01*
X118868333Y-93439880D01*
X118773095Y-93487500D01*
X118725476Y-93535119D01*
X118677857Y-93630357D01*
X118677857Y-93725595D01*
X118725476Y-93868452D01*
X119296904Y-94439880D01*
X118677857Y-94439880D01*
X118344523Y-93439880D02*
X117725476Y-93439880D01*
X118058809Y-93820833D01*
X117915952Y-93820833D01*
X117820714Y-93868452D01*
X117773095Y-93916071D01*
X117725476Y-94011309D01*
X117725476Y-94249404D01*
X117773095Y-94344642D01*
X117820714Y-94392261D01*
X117915952Y-94439880D01*
X118201666Y-94439880D01*
X118296904Y-94392261D01*
X118344523Y-94344642D01*
%TO.C,LED29*%
X102389761Y-113489880D02*
X102865952Y-113489880D01*
X102865952Y-112489880D01*
X102056428Y-112966071D02*
X101723095Y-112966071D01*
X101580238Y-113489880D02*
X102056428Y-113489880D01*
X102056428Y-112489880D01*
X101580238Y-112489880D01*
X101151666Y-113489880D02*
X101151666Y-112489880D01*
X100913571Y-112489880D01*
X100770714Y-112537500D01*
X100675476Y-112632738D01*
X100627857Y-112727976D01*
X100580238Y-112918452D01*
X100580238Y-113061309D01*
X100627857Y-113251785D01*
X100675476Y-113347023D01*
X100770714Y-113442261D01*
X100913571Y-113489880D01*
X101151666Y-113489880D01*
X100199285Y-112585119D02*
X100151666Y-112537500D01*
X100056428Y-112489880D01*
X99818333Y-112489880D01*
X99723095Y-112537500D01*
X99675476Y-112585119D01*
X99627857Y-112680357D01*
X99627857Y-112775595D01*
X99675476Y-112918452D01*
X100246904Y-113489880D01*
X99627857Y-113489880D01*
X99151666Y-113489880D02*
X98961190Y-113489880D01*
X98865952Y-113442261D01*
X98818333Y-113394642D01*
X98723095Y-113251785D01*
X98675476Y-113061309D01*
X98675476Y-112680357D01*
X98723095Y-112585119D01*
X98770714Y-112537500D01*
X98865952Y-112489880D01*
X99056428Y-112489880D01*
X99151666Y-112537500D01*
X99199285Y-112585119D01*
X99246904Y-112680357D01*
X99246904Y-112918452D01*
X99199285Y-113013690D01*
X99151666Y-113061309D01*
X99056428Y-113108928D01*
X98865952Y-113108928D01*
X98770714Y-113061309D01*
X98723095Y-113013690D01*
X98675476Y-112918452D01*
%TO.C,D11*%
X123102380Y-70223214D02*
X122102380Y-70223214D01*
X122102380Y-70461309D01*
X122150000Y-70604166D01*
X122245238Y-70699404D01*
X122340476Y-70747023D01*
X122530952Y-70794642D01*
X122673809Y-70794642D01*
X122864285Y-70747023D01*
X122959523Y-70699404D01*
X123054761Y-70604166D01*
X123102380Y-70461309D01*
X123102380Y-70223214D01*
X123102380Y-71747023D02*
X123102380Y-71175595D01*
X123102380Y-71461309D02*
X122102380Y-71461309D01*
X122245238Y-71366071D01*
X122340476Y-71270833D01*
X122388095Y-71175595D01*
X123102380Y-72699404D02*
X123102380Y-72127976D01*
X123102380Y-72413690D02*
X122102380Y-72413690D01*
X122245238Y-72318452D01*
X122340476Y-72223214D01*
X122388095Y-72127976D01*
%TO.C,R2*%
X66045405Y-47528616D02*
X66378739Y-47052426D01*
X66616834Y-47528616D02*
X66616834Y-46528616D01*
X66235881Y-46528616D01*
X66140643Y-46576236D01*
X66093024Y-46623855D01*
X66045405Y-46719093D01*
X66045405Y-46861950D01*
X66093024Y-46957188D01*
X66140643Y-47004807D01*
X66235881Y-47052426D01*
X66616834Y-47052426D01*
X65664453Y-46623855D02*
X65616834Y-46576236D01*
X65521596Y-46528616D01*
X65283500Y-46528616D01*
X65188262Y-46576236D01*
X65140643Y-46623855D01*
X65093024Y-46719093D01*
X65093024Y-46814331D01*
X65140643Y-46957188D01*
X65712072Y-47528616D01*
X65093024Y-47528616D01*
%TO.C,LED16*%
X121439761Y-75389880D02*
X121915952Y-75389880D01*
X121915952Y-74389880D01*
X121106428Y-74866071D02*
X120773095Y-74866071D01*
X120630238Y-75389880D02*
X121106428Y-75389880D01*
X121106428Y-74389880D01*
X120630238Y-74389880D01*
X120201666Y-75389880D02*
X120201666Y-74389880D01*
X119963571Y-74389880D01*
X119820714Y-74437500D01*
X119725476Y-74532738D01*
X119677857Y-74627976D01*
X119630238Y-74818452D01*
X119630238Y-74961309D01*
X119677857Y-75151785D01*
X119725476Y-75247023D01*
X119820714Y-75342261D01*
X119963571Y-75389880D01*
X120201666Y-75389880D01*
X118677857Y-75389880D02*
X119249285Y-75389880D01*
X118963571Y-75389880D02*
X118963571Y-74389880D01*
X119058809Y-74532738D01*
X119154047Y-74627976D01*
X119249285Y-74675595D01*
X117820714Y-74389880D02*
X118011190Y-74389880D01*
X118106428Y-74437500D01*
X118154047Y-74485119D01*
X118249285Y-74627976D01*
X118296904Y-74818452D01*
X118296904Y-75199404D01*
X118249285Y-75294642D01*
X118201666Y-75342261D01*
X118106428Y-75389880D01*
X117915952Y-75389880D01*
X117820714Y-75342261D01*
X117773095Y-75294642D01*
X117725476Y-75199404D01*
X117725476Y-74961309D01*
X117773095Y-74866071D01*
X117820714Y-74818452D01*
X117915952Y-74770833D01*
X118106428Y-74770833D01*
X118201666Y-74818452D01*
X118249285Y-74866071D01*
X118296904Y-74961309D01*
%TO.C,LED3*%
X139537380Y-37289880D02*
X140013571Y-37289880D01*
X140013571Y-36289880D01*
X139204047Y-36766071D02*
X138870714Y-36766071D01*
X138727857Y-37289880D02*
X139204047Y-37289880D01*
X139204047Y-36289880D01*
X138727857Y-36289880D01*
X138299285Y-37289880D02*
X138299285Y-36289880D01*
X138061190Y-36289880D01*
X137918333Y-36337500D01*
X137823095Y-36432738D01*
X137775476Y-36527976D01*
X137727857Y-36718452D01*
X137727857Y-36861309D01*
X137775476Y-37051785D01*
X137823095Y-37147023D01*
X137918333Y-37242261D01*
X138061190Y-37289880D01*
X138299285Y-37289880D01*
X137394523Y-36289880D02*
X136775476Y-36289880D01*
X137108809Y-36670833D01*
X136965952Y-36670833D01*
X136870714Y-36718452D01*
X136823095Y-36766071D01*
X136775476Y-36861309D01*
X136775476Y-37099404D01*
X136823095Y-37194642D01*
X136870714Y-37242261D01*
X136965952Y-37289880D01*
X137251666Y-37289880D01*
X137346904Y-37242261D01*
X137394523Y-37194642D01*
%TO.C,D0*%
X104052380Y-51649404D02*
X103052380Y-51649404D01*
X103052380Y-51887500D01*
X103100000Y-52030357D01*
X103195238Y-52125595D01*
X103290476Y-52173214D01*
X103480952Y-52220833D01*
X103623809Y-52220833D01*
X103814285Y-52173214D01*
X103909523Y-52125595D01*
X104004761Y-52030357D01*
X104052380Y-51887500D01*
X104052380Y-51649404D01*
X103052380Y-52839880D02*
X103052380Y-52935119D01*
X103100000Y-53030357D01*
X103147619Y-53077976D01*
X103242857Y-53125595D01*
X103433333Y-53173214D01*
X103671428Y-53173214D01*
X103861904Y-53125595D01*
X103957142Y-53077976D01*
X104004761Y-53030357D01*
X104052380Y-52935119D01*
X104052380Y-52839880D01*
X104004761Y-52744642D01*
X103957142Y-52697023D01*
X103861904Y-52649404D01*
X103671428Y-52601785D01*
X103433333Y-52601785D01*
X103242857Y-52649404D01*
X103147619Y-52697023D01*
X103100000Y-52744642D01*
X103052380Y-52839880D01*
%TO.C,LED22*%
X102389761Y-94439880D02*
X102865952Y-94439880D01*
X102865952Y-93439880D01*
X102056428Y-93916071D02*
X101723095Y-93916071D01*
X101580238Y-94439880D02*
X102056428Y-94439880D01*
X102056428Y-93439880D01*
X101580238Y-93439880D01*
X101151666Y-94439880D02*
X101151666Y-93439880D01*
X100913571Y-93439880D01*
X100770714Y-93487500D01*
X100675476Y-93582738D01*
X100627857Y-93677976D01*
X100580238Y-93868452D01*
X100580238Y-94011309D01*
X100627857Y-94201785D01*
X100675476Y-94297023D01*
X100770714Y-94392261D01*
X100913571Y-94439880D01*
X101151666Y-94439880D01*
X100199285Y-93535119D02*
X100151666Y-93487500D01*
X100056428Y-93439880D01*
X99818333Y-93439880D01*
X99723095Y-93487500D01*
X99675476Y-93535119D01*
X99627857Y-93630357D01*
X99627857Y-93725595D01*
X99675476Y-93868452D01*
X100246904Y-94439880D01*
X99627857Y-94439880D01*
X99246904Y-93535119D02*
X99199285Y-93487500D01*
X99104047Y-93439880D01*
X98865952Y-93439880D01*
X98770714Y-93487500D01*
X98723095Y-93535119D01*
X98675476Y-93630357D01*
X98675476Y-93725595D01*
X98723095Y-93868452D01*
X99294523Y-94439880D01*
X98675476Y-94439880D01*
%TO.C,LED26*%
X178646011Y-94439880D02*
X179122202Y-94439880D01*
X179122202Y-93439880D01*
X178312678Y-93916071D02*
X177979345Y-93916071D01*
X177836488Y-94439880D02*
X178312678Y-94439880D01*
X178312678Y-93439880D01*
X177836488Y-93439880D01*
X177407916Y-94439880D02*
X177407916Y-93439880D01*
X177169821Y-93439880D01*
X177026964Y-93487500D01*
X176931726Y-93582738D01*
X176884107Y-93677976D01*
X176836488Y-93868452D01*
X176836488Y-94011309D01*
X176884107Y-94201785D01*
X176931726Y-94297023D01*
X177026964Y-94392261D01*
X177169821Y-94439880D01*
X177407916Y-94439880D01*
X176455535Y-93535119D02*
X176407916Y-93487500D01*
X176312678Y-93439880D01*
X176074583Y-93439880D01*
X175979345Y-93487500D01*
X175931726Y-93535119D01*
X175884107Y-93630357D01*
X175884107Y-93725595D01*
X175931726Y-93868452D01*
X176503154Y-94439880D01*
X175884107Y-94439880D01*
X175026964Y-93439880D02*
X175217440Y-93439880D01*
X175312678Y-93487500D01*
X175360297Y-93535119D01*
X175455535Y-93677976D01*
X175503154Y-93868452D01*
X175503154Y-94249404D01*
X175455535Y-94344642D01*
X175407916Y-94392261D01*
X175312678Y-94439880D01*
X175122202Y-94439880D01*
X175026964Y-94392261D01*
X174979345Y-94344642D01*
X174931726Y-94249404D01*
X174931726Y-94011309D01*
X174979345Y-93916071D01*
X175026964Y-93868452D01*
X175122202Y-93820833D01*
X175312678Y-93820833D01*
X175407916Y-93868452D01*
X175455535Y-93916071D01*
X175503154Y-94011309D01*
%TO.C,D26*%
X218352380Y-89273214D02*
X217352380Y-89273214D01*
X217352380Y-89511309D01*
X217400000Y-89654166D01*
X217495238Y-89749404D01*
X217590476Y-89797023D01*
X217780952Y-89844642D01*
X217923809Y-89844642D01*
X218114285Y-89797023D01*
X218209523Y-89749404D01*
X218304761Y-89654166D01*
X218352380Y-89511309D01*
X218352380Y-89273214D01*
X217447619Y-90225595D02*
X217400000Y-90273214D01*
X217352380Y-90368452D01*
X217352380Y-90606547D01*
X217400000Y-90701785D01*
X217447619Y-90749404D01*
X217542857Y-90797023D01*
X217638095Y-90797023D01*
X217780952Y-90749404D01*
X218352380Y-90177976D01*
X218352380Y-90797023D01*
X217352380Y-91654166D02*
X217352380Y-91463690D01*
X217400000Y-91368452D01*
X217447619Y-91320833D01*
X217590476Y-91225595D01*
X217780952Y-91177976D01*
X218161904Y-91177976D01*
X218257142Y-91225595D01*
X218304761Y-91273214D01*
X218352380Y-91368452D01*
X218352380Y-91558928D01*
X218304761Y-91654166D01*
X218257142Y-91701785D01*
X218161904Y-91749404D01*
X217923809Y-91749404D01*
X217828571Y-91701785D01*
X217780952Y-91654166D01*
X217733333Y-91558928D01*
X217733333Y-91368452D01*
X217780952Y-91273214D01*
X217828571Y-91225595D01*
X217923809Y-91177976D01*
%TO.C,LED33*%
X178646011Y-113489880D02*
X179122202Y-113489880D01*
X179122202Y-112489880D01*
X178312678Y-112966071D02*
X177979345Y-112966071D01*
X177836488Y-113489880D02*
X178312678Y-113489880D01*
X178312678Y-112489880D01*
X177836488Y-112489880D01*
X177407916Y-113489880D02*
X177407916Y-112489880D01*
X177169821Y-112489880D01*
X177026964Y-112537500D01*
X176931726Y-112632738D01*
X176884107Y-112727976D01*
X176836488Y-112918452D01*
X176836488Y-113061309D01*
X176884107Y-113251785D01*
X176931726Y-113347023D01*
X177026964Y-113442261D01*
X177169821Y-113489880D01*
X177407916Y-113489880D01*
X176503154Y-112489880D02*
X175884107Y-112489880D01*
X176217440Y-112870833D01*
X176074583Y-112870833D01*
X175979345Y-112918452D01*
X175931726Y-112966071D01*
X175884107Y-113061309D01*
X175884107Y-113299404D01*
X175931726Y-113394642D01*
X175979345Y-113442261D01*
X176074583Y-113489880D01*
X176360297Y-113489880D01*
X176455535Y-113442261D01*
X176503154Y-113394642D01*
X175550773Y-112489880D02*
X174931726Y-112489880D01*
X175265059Y-112870833D01*
X175122202Y-112870833D01*
X175026964Y-112918452D01*
X174979345Y-112966071D01*
X174931726Y-113061309D01*
X174931726Y-113299404D01*
X174979345Y-113394642D01*
X175026964Y-113442261D01*
X175122202Y-113489880D01*
X175407916Y-113489880D01*
X175503154Y-113442261D01*
X175550773Y-113394642D01*
%TO.C,R4*%
X65477380Y-58570833D02*
X65001190Y-58237500D01*
X65477380Y-57999404D02*
X64477380Y-57999404D01*
X64477380Y-58380357D01*
X64525000Y-58475595D01*
X64572619Y-58523214D01*
X64667857Y-58570833D01*
X64810714Y-58570833D01*
X64905952Y-58523214D01*
X64953571Y-58475595D01*
X65001190Y-58380357D01*
X65001190Y-57999404D01*
X64810714Y-59427976D02*
X65477380Y-59427976D01*
X64429761Y-59189880D02*
X65144047Y-58951785D01*
X65144047Y-59570833D01*
%TO.C,C7*%
X58208392Y-65714583D02*
X58256011Y-65666964D01*
X58303630Y-65524107D01*
X58303630Y-65428869D01*
X58256011Y-65286011D01*
X58160773Y-65190773D01*
X58065535Y-65143154D01*
X57875059Y-65095535D01*
X57732202Y-65095535D01*
X57541726Y-65143154D01*
X57446488Y-65190773D01*
X57351250Y-65286011D01*
X57303630Y-65428869D01*
X57303630Y-65524107D01*
X57351250Y-65666964D01*
X57398869Y-65714583D01*
X57303630Y-66047916D02*
X57303630Y-66714583D01*
X58303630Y-66286011D01*
%TO.C,R6*%
X59127380Y-89527083D02*
X58651190Y-89193750D01*
X59127380Y-88955654D02*
X58127380Y-88955654D01*
X58127380Y-89336607D01*
X58175000Y-89431845D01*
X58222619Y-89479464D01*
X58317857Y-89527083D01*
X58460714Y-89527083D01*
X58555952Y-89479464D01*
X58603571Y-89431845D01*
X58651190Y-89336607D01*
X58651190Y-88955654D01*
X58127380Y-90384226D02*
X58127380Y-90193750D01*
X58175000Y-90098511D01*
X58222619Y-90050892D01*
X58365476Y-89955654D01*
X58555952Y-89908035D01*
X58936904Y-89908035D01*
X59032142Y-89955654D01*
X59079761Y-90003273D01*
X59127380Y-90098511D01*
X59127380Y-90288988D01*
X59079761Y-90384226D01*
X59032142Y-90431845D01*
X58936904Y-90479464D01*
X58698809Y-90479464D01*
X58603571Y-90431845D01*
X58555952Y-90384226D01*
X58508333Y-90288988D01*
X58508333Y-90098511D01*
X58555952Y-90003273D01*
X58603571Y-89955654D01*
X58698809Y-89908035D01*
%TO.C,LED12*%
X178646011Y-56339880D02*
X179122202Y-56339880D01*
X179122202Y-55339880D01*
X178312678Y-55816071D02*
X177979345Y-55816071D01*
X177836488Y-56339880D02*
X178312678Y-56339880D01*
X178312678Y-55339880D01*
X177836488Y-55339880D01*
X177407916Y-56339880D02*
X177407916Y-55339880D01*
X177169821Y-55339880D01*
X177026964Y-55387500D01*
X176931726Y-55482738D01*
X176884107Y-55577976D01*
X176836488Y-55768452D01*
X176836488Y-55911309D01*
X176884107Y-56101785D01*
X176931726Y-56197023D01*
X177026964Y-56292261D01*
X177169821Y-56339880D01*
X177407916Y-56339880D01*
X175884107Y-56339880D02*
X176455535Y-56339880D01*
X176169821Y-56339880D02*
X176169821Y-55339880D01*
X176265059Y-55482738D01*
X176360297Y-55577976D01*
X176455535Y-55625595D01*
X175503154Y-55435119D02*
X175455535Y-55387500D01*
X175360297Y-55339880D01*
X175122202Y-55339880D01*
X175026964Y-55387500D01*
X174979345Y-55435119D01*
X174931726Y-55530357D01*
X174931726Y-55625595D01*
X174979345Y-55768452D01*
X175550773Y-56339880D01*
X174931726Y-56339880D01*
%TO.C,LED10*%
X140489761Y-56339880D02*
X140965952Y-56339880D01*
X140965952Y-55339880D01*
X140156428Y-55816071D02*
X139823095Y-55816071D01*
X139680238Y-56339880D02*
X140156428Y-56339880D01*
X140156428Y-55339880D01*
X139680238Y-55339880D01*
X139251666Y-56339880D02*
X139251666Y-55339880D01*
X139013571Y-55339880D01*
X138870714Y-55387500D01*
X138775476Y-55482738D01*
X138727857Y-55577976D01*
X138680238Y-55768452D01*
X138680238Y-55911309D01*
X138727857Y-56101785D01*
X138775476Y-56197023D01*
X138870714Y-56292261D01*
X139013571Y-56339880D01*
X139251666Y-56339880D01*
X137727857Y-56339880D02*
X138299285Y-56339880D01*
X138013571Y-56339880D02*
X138013571Y-55339880D01*
X138108809Y-55482738D01*
X138204047Y-55577976D01*
X138299285Y-55625595D01*
X137108809Y-55339880D02*
X137013571Y-55339880D01*
X136918333Y-55387500D01*
X136870714Y-55435119D01*
X136823095Y-55530357D01*
X136775476Y-55720833D01*
X136775476Y-55958928D01*
X136823095Y-56149404D01*
X136870714Y-56244642D01*
X136918333Y-56292261D01*
X137013571Y-56339880D01*
X137108809Y-56339880D01*
X137204047Y-56292261D01*
X137251666Y-56244642D01*
X137299285Y-56149404D01*
X137346904Y-55958928D01*
X137346904Y-55720833D01*
X137299285Y-55530357D01*
X137251666Y-55435119D01*
X137204047Y-55387500D01*
X137108809Y-55339880D01*
%TO.C,U2*%
X69024404Y-55877380D02*
X69024404Y-56686904D01*
X68976785Y-56782142D01*
X68929166Y-56829761D01*
X68833928Y-56877380D01*
X68643452Y-56877380D01*
X68548214Y-56829761D01*
X68500595Y-56782142D01*
X68452976Y-56686904D01*
X68452976Y-55877380D01*
X68024404Y-55972619D02*
X67976785Y-55925000D01*
X67881547Y-55877380D01*
X67643452Y-55877380D01*
X67548214Y-55925000D01*
X67500595Y-55972619D01*
X67452976Y-56067857D01*
X67452976Y-56163095D01*
X67500595Y-56305952D01*
X68072023Y-56877380D01*
X67452976Y-56877380D01*
%TO.C,LED31*%
X140489761Y-113489880D02*
X140965952Y-113489880D01*
X140965952Y-112489880D01*
X140156428Y-112966071D02*
X139823095Y-112966071D01*
X139680238Y-113489880D02*
X140156428Y-113489880D01*
X140156428Y-112489880D01*
X139680238Y-112489880D01*
X139251666Y-113489880D02*
X139251666Y-112489880D01*
X139013571Y-112489880D01*
X138870714Y-112537500D01*
X138775476Y-112632738D01*
X138727857Y-112727976D01*
X138680238Y-112918452D01*
X138680238Y-113061309D01*
X138727857Y-113251785D01*
X138775476Y-113347023D01*
X138870714Y-113442261D01*
X139013571Y-113489880D01*
X139251666Y-113489880D01*
X138346904Y-112489880D02*
X137727857Y-112489880D01*
X138061190Y-112870833D01*
X137918333Y-112870833D01*
X137823095Y-112918452D01*
X137775476Y-112966071D01*
X137727857Y-113061309D01*
X137727857Y-113299404D01*
X137775476Y-113394642D01*
X137823095Y-113442261D01*
X137918333Y-113489880D01*
X138204047Y-113489880D01*
X138299285Y-113442261D01*
X138346904Y-113394642D01*
X136775476Y-113489880D02*
X137346904Y-113489880D01*
X137061190Y-113489880D02*
X137061190Y-112489880D01*
X137156428Y-112632738D01*
X137251666Y-112727976D01*
X137346904Y-112775595D01*
%TO.C,C2*%
X65689642Y-92702083D02*
X65737261Y-92654464D01*
X65784880Y-92511607D01*
X65784880Y-92416369D01*
X65737261Y-92273511D01*
X65642023Y-92178273D01*
X65546785Y-92130654D01*
X65356309Y-92083035D01*
X65213452Y-92083035D01*
X65022976Y-92130654D01*
X64927738Y-92178273D01*
X64832500Y-92273511D01*
X64784880Y-92416369D01*
X64784880Y-92511607D01*
X64832500Y-92654464D01*
X64880119Y-92702083D01*
X64880119Y-93083035D02*
X64832500Y-93130654D01*
X64784880Y-93225892D01*
X64784880Y-93463988D01*
X64832500Y-93559226D01*
X64880119Y-93606845D01*
X64975357Y-93654464D01*
X65070595Y-93654464D01*
X65213452Y-93606845D01*
X65784880Y-93035416D01*
X65784880Y-93654464D01*
%TO.C,D25*%
X199302380Y-89273214D02*
X198302380Y-89273214D01*
X198302380Y-89511309D01*
X198350000Y-89654166D01*
X198445238Y-89749404D01*
X198540476Y-89797023D01*
X198730952Y-89844642D01*
X198873809Y-89844642D01*
X199064285Y-89797023D01*
X199159523Y-89749404D01*
X199254761Y-89654166D01*
X199302380Y-89511309D01*
X199302380Y-89273214D01*
X198397619Y-90225595D02*
X198350000Y-90273214D01*
X198302380Y-90368452D01*
X198302380Y-90606547D01*
X198350000Y-90701785D01*
X198397619Y-90749404D01*
X198492857Y-90797023D01*
X198588095Y-90797023D01*
X198730952Y-90749404D01*
X199302380Y-90177976D01*
X199302380Y-90797023D01*
X198302380Y-91701785D02*
X198302380Y-91225595D01*
X198778571Y-91177976D01*
X198730952Y-91225595D01*
X198683333Y-91320833D01*
X198683333Y-91558928D01*
X198730952Y-91654166D01*
X198778571Y-91701785D01*
X198873809Y-91749404D01*
X199111904Y-91749404D01*
X199207142Y-91701785D01*
X199254761Y-91654166D01*
X199302380Y-91558928D01*
X199302380Y-91320833D01*
X199254761Y-91225595D01*
X199207142Y-91177976D01*
%TO.C,LED2*%
X120487380Y-37289880D02*
X120963571Y-37289880D01*
X120963571Y-36289880D01*
X120154047Y-36766071D02*
X119820714Y-36766071D01*
X119677857Y-37289880D02*
X120154047Y-37289880D01*
X120154047Y-36289880D01*
X119677857Y-36289880D01*
X119249285Y-37289880D02*
X119249285Y-36289880D01*
X119011190Y-36289880D01*
X118868333Y-36337500D01*
X118773095Y-36432738D01*
X118725476Y-36527976D01*
X118677857Y-36718452D01*
X118677857Y-36861309D01*
X118725476Y-37051785D01*
X118773095Y-37147023D01*
X118868333Y-37242261D01*
X119011190Y-37289880D01*
X119249285Y-37289880D01*
X118296904Y-36385119D02*
X118249285Y-36337500D01*
X118154047Y-36289880D01*
X117915952Y-36289880D01*
X117820714Y-36337500D01*
X117773095Y-36385119D01*
X117725476Y-36480357D01*
X117725476Y-36575595D01*
X117773095Y-36718452D01*
X118344523Y-37289880D01*
X117725476Y-37289880D01*
%TO.C,Y1*%
X71913690Y-96813690D02*
X71913690Y-97289880D01*
X72247023Y-96289880D02*
X71913690Y-96813690D01*
X71580357Y-96289880D01*
X70723214Y-97289880D02*
X71294642Y-97289880D01*
X71008928Y-97289880D02*
X71008928Y-96289880D01*
X71104166Y-96432738D01*
X71199404Y-96527976D01*
X71294642Y-96575595D01*
%TO.C,R3*%
X60491666Y-77383630D02*
X60825000Y-76907440D01*
X61063095Y-77383630D02*
X61063095Y-76383630D01*
X60682142Y-76383630D01*
X60586904Y-76431250D01*
X60539285Y-76478869D01*
X60491666Y-76574107D01*
X60491666Y-76716964D01*
X60539285Y-76812202D01*
X60586904Y-76859821D01*
X60682142Y-76907440D01*
X61063095Y-76907440D01*
X60158333Y-76383630D02*
X59539285Y-76383630D01*
X59872619Y-76764583D01*
X59729761Y-76764583D01*
X59634523Y-76812202D01*
X59586904Y-76859821D01*
X59539285Y-76955059D01*
X59539285Y-77193154D01*
X59586904Y-77288392D01*
X59634523Y-77336011D01*
X59729761Y-77383630D01*
X60015476Y-77383630D01*
X60110714Y-77336011D01*
X60158333Y-77288392D01*
%TO.C,D5*%
X199302380Y-51649404D02*
X198302380Y-51649404D01*
X198302380Y-51887500D01*
X198350000Y-52030357D01*
X198445238Y-52125595D01*
X198540476Y-52173214D01*
X198730952Y-52220833D01*
X198873809Y-52220833D01*
X199064285Y-52173214D01*
X199159523Y-52125595D01*
X199254761Y-52030357D01*
X199302380Y-51887500D01*
X199302380Y-51649404D01*
X198302380Y-53125595D02*
X198302380Y-52649404D01*
X198778571Y-52601785D01*
X198730952Y-52649404D01*
X198683333Y-52744642D01*
X198683333Y-52982738D01*
X198730952Y-53077976D01*
X198778571Y-53125595D01*
X198873809Y-53173214D01*
X199111904Y-53173214D01*
X199207142Y-53125595D01*
X199254761Y-53077976D01*
X199302380Y-52982738D01*
X199302380Y-52744642D01*
X199254761Y-52649404D01*
X199207142Y-52601785D01*
%TO.C,D41*%
X123102380Y-127373214D02*
X122102380Y-127373214D01*
X122102380Y-127611309D01*
X122150000Y-127754166D01*
X122245238Y-127849404D01*
X122340476Y-127897023D01*
X122530952Y-127944642D01*
X122673809Y-127944642D01*
X122864285Y-127897023D01*
X122959523Y-127849404D01*
X123054761Y-127754166D01*
X123102380Y-127611309D01*
X123102380Y-127373214D01*
X122435714Y-128801785D02*
X123102380Y-128801785D01*
X122054761Y-128563690D02*
X122769047Y-128325595D01*
X122769047Y-128944642D01*
X123102380Y-129849404D02*
X123102380Y-129277976D01*
X123102380Y-129563690D02*
X122102380Y-129563690D01*
X122245238Y-129468452D01*
X122340476Y-129373214D01*
X122388095Y-129277976D01*
%TO.C,LED9*%
X120487380Y-56339880D02*
X120963571Y-56339880D01*
X120963571Y-55339880D01*
X120154047Y-55816071D02*
X119820714Y-55816071D01*
X119677857Y-56339880D02*
X120154047Y-56339880D01*
X120154047Y-55339880D01*
X119677857Y-55339880D01*
X119249285Y-56339880D02*
X119249285Y-55339880D01*
X119011190Y-55339880D01*
X118868333Y-55387500D01*
X118773095Y-55482738D01*
X118725476Y-55577976D01*
X118677857Y-55768452D01*
X118677857Y-55911309D01*
X118725476Y-56101785D01*
X118773095Y-56197023D01*
X118868333Y-56292261D01*
X119011190Y-56339880D01*
X119249285Y-56339880D01*
X118201666Y-56339880D02*
X118011190Y-56339880D01*
X117915952Y-56292261D01*
X117868333Y-56244642D01*
X117773095Y-56101785D01*
X117725476Y-55911309D01*
X117725476Y-55530357D01*
X117773095Y-55435119D01*
X117820714Y-55387500D01*
X117915952Y-55339880D01*
X118106428Y-55339880D01*
X118201666Y-55387500D01*
X118249285Y-55435119D01*
X118296904Y-55530357D01*
X118296904Y-55768452D01*
X118249285Y-55863690D01*
X118201666Y-55911309D01*
X118106428Y-55958928D01*
X117915952Y-55958928D01*
X117820714Y-55911309D01*
X117773095Y-55863690D01*
X117725476Y-55768452D01*
%TO.C,D44*%
X180252380Y-127373214D02*
X179252380Y-127373214D01*
X179252380Y-127611309D01*
X179300000Y-127754166D01*
X179395238Y-127849404D01*
X179490476Y-127897023D01*
X179680952Y-127944642D01*
X179823809Y-127944642D01*
X180014285Y-127897023D01*
X180109523Y-127849404D01*
X180204761Y-127754166D01*
X180252380Y-127611309D01*
X180252380Y-127373214D01*
X179585714Y-128801785D02*
X180252380Y-128801785D01*
X179204761Y-128563690D02*
X179919047Y-128325595D01*
X179919047Y-128944642D01*
X179585714Y-129754166D02*
X180252380Y-129754166D01*
X179204761Y-129516071D02*
X179919047Y-129277976D01*
X179919047Y-129897023D01*
%TO.C,U1*%
X64675000Y-75025000D02*
X64675000Y-74350000D01*
X64675000Y-64675000D02*
X64675000Y-65350000D01*
X64675000Y-75025000D02*
X65350000Y-75025000D01*
X65250000Y-64675000D02*
X65250000Y-63400000D01*
X75025000Y-64675000D02*
X74350000Y-64675000D01*
X75025000Y-75025000D02*
X74350000Y-75025000D01*
X75025000Y-75025000D02*
X75025000Y-74350000D01*
X64675000Y-64675000D02*
X65250000Y-64675000D01*
X75025000Y-64675000D02*
X75025000Y-65350000D01*
D11*
%TO.C,LED4*%
X147737500Y-39187500D02*
X147737500Y-38187500D01*
X147737500Y-38187500D02*
X148637500Y-38187500D01*
%TO.C,D22*%
X138700000Y-92737500D02*
X138700000Y-88837500D01*
X140700000Y-92737500D02*
X138700000Y-92737500D01*
X140700000Y-92737500D02*
X140700000Y-88837500D01*
%TO.C,LED19*%
X166843750Y-77287500D02*
X166843750Y-76287500D01*
X166843750Y-76287500D02*
X167743750Y-76287500D01*
%TO.C,D16*%
X216900000Y-73687500D02*
X216900000Y-69787500D01*
X216900000Y-73687500D02*
X214900000Y-73687500D01*
X214900000Y-73687500D02*
X214900000Y-69787500D01*
%TO.C,LED18*%
X147737500Y-77287500D02*
X147737500Y-76287500D01*
X147737500Y-76287500D02*
X148637500Y-76287500D01*
%TO.C,LED34*%
X185837500Y-114387500D02*
X186737500Y-114387500D01*
X185837500Y-115387500D02*
X185837500Y-114387500D01*
%TO.C,LED7*%
X204887500Y-38187500D02*
X205787500Y-38187500D01*
X204887500Y-39187500D02*
X204887500Y-38187500D01*
%TO.C,D20*%
X102600000Y-92737500D02*
X102600000Y-88837500D01*
X100600000Y-92737500D02*
X100600000Y-88837500D01*
X102600000Y-92737500D02*
X100600000Y-92737500D01*
%TO.C,C8*%
X64235000Y-58998752D02*
X64235000Y-58476248D01*
X62765000Y-58998752D02*
X62765000Y-58476248D01*
%TO.C,D40*%
X100600000Y-130837500D02*
X100600000Y-126937500D01*
X102600000Y-130837500D02*
X100600000Y-130837500D01*
X102600000Y-130837500D02*
X102600000Y-126937500D01*
%TO.C,D2*%
X140700000Y-54637500D02*
X140700000Y-50737500D01*
X140700000Y-54637500D02*
X138700000Y-54637500D01*
X138700000Y-54637500D02*
X138700000Y-50737500D01*
%TO.C,LED20*%
X185837500Y-76287500D02*
X186737500Y-76287500D01*
X185837500Y-77287500D02*
X185837500Y-76287500D01*
%TO.C,D13*%
X159750000Y-73687500D02*
X159750000Y-69787500D01*
X159750000Y-73687500D02*
X157750000Y-73687500D01*
X157750000Y-73687500D02*
X157750000Y-69787500D01*
%TO.C,R7*%
X80110000Y-49439564D02*
X80110000Y-48985436D01*
X78640000Y-49439564D02*
X78640000Y-48985436D01*
%TO.C,F1*%
X62590000Y-51785436D02*
X62590000Y-52989564D01*
X64410000Y-51785436D02*
X64410000Y-52989564D01*
%TO.C,D23*%
X159750000Y-92737500D02*
X157750000Y-92737500D01*
X157750000Y-92737500D02*
X157750000Y-88837500D01*
X159750000Y-92737500D02*
X159750000Y-88837500D01*
%TO.C,D10*%
X102600000Y-73687500D02*
X100600000Y-73687500D01*
X100600000Y-73687500D02*
X100600000Y-69787500D01*
X102600000Y-73687500D02*
X102600000Y-69787500D01*
%TO.C,D35*%
X195850000Y-111787500D02*
X195850000Y-107887500D01*
X197850000Y-111787500D02*
X195850000Y-111787500D01*
X197850000Y-111787500D02*
X197850000Y-107887500D01*
%TO.C,LED11*%
X147737500Y-57237500D02*
X148637500Y-57237500D01*
X147737500Y-58237500D02*
X147737500Y-57237500D01*
%TO.C,R5*%
X69791250Y-58510436D02*
X69791250Y-58964564D01*
X68321250Y-58510436D02*
X68321250Y-58964564D01*
%TO.C,D31*%
X121650000Y-111787500D02*
X121650000Y-107887500D01*
X119650000Y-111787500D02*
X119650000Y-107887500D01*
X121650000Y-111787500D02*
X119650000Y-111787500D01*
%TO.C,D3*%
X159750000Y-54637500D02*
X157750000Y-54637500D01*
X157750000Y-54637500D02*
X157750000Y-50737500D01*
X159750000Y-54637500D02*
X159750000Y-50737500D01*
%TO.C,D15*%
X197850000Y-73687500D02*
X195850000Y-73687500D01*
X197850000Y-73687500D02*
X197850000Y-69787500D01*
X195850000Y-73687500D02*
X195850000Y-69787500D01*
%TO.C,D34*%
X178800000Y-111787500D02*
X176800000Y-111787500D01*
X176800000Y-111787500D02*
X176800000Y-107887500D01*
X178800000Y-111787500D02*
X178800000Y-107887500D01*
%TO.C,LED35*%
X204887500Y-115387500D02*
X204887500Y-114387500D01*
X204887500Y-114387500D02*
X205787500Y-114387500D01*
%TO.C,D46*%
X216900000Y-130837500D02*
X214900000Y-130837500D01*
X216900000Y-130837500D02*
X216900000Y-126937500D01*
X214900000Y-130837500D02*
X214900000Y-126937500D01*
%TO.C,C3*%
X73083750Y-58476248D02*
X73083750Y-58998752D01*
X74553750Y-58476248D02*
X74553750Y-58998752D01*
%TO.C,D36*%
X216900000Y-111787500D02*
X214900000Y-111787500D01*
X214900000Y-111787500D02*
X214900000Y-107887500D01*
X216900000Y-111787500D02*
X216900000Y-107887500D01*
%TO.C,C4*%
X74351248Y-78640000D02*
X74873752Y-78640000D01*
X74351248Y-80110000D02*
X74873752Y-80110000D01*
%TO.C,C5*%
X60266250Y-74080002D02*
X60266250Y-73557498D01*
X58796250Y-74080002D02*
X58796250Y-73557498D01*
%TO.C,C6*%
X78640000Y-68001248D02*
X78640000Y-68523752D01*
X80110000Y-68001248D02*
X80110000Y-68523752D01*
%TO.C,LED5*%
X166843750Y-38187500D02*
X167743750Y-38187500D01*
X166843750Y-39187500D02*
X166843750Y-38187500D01*
%TO.C,LED24*%
X128687500Y-95337500D02*
X129587500Y-95337500D01*
X128687500Y-96337500D02*
X128687500Y-95337500D01*
%TO.C,LED13*%
X185837500Y-57237500D02*
X186737500Y-57237500D01*
X185837500Y-58237500D02*
X185837500Y-57237500D01*
%TO.C,D6*%
X216900000Y-54637500D02*
X214900000Y-54637500D01*
X216900000Y-54637500D02*
X216900000Y-50737500D01*
X214900000Y-54637500D02*
X214900000Y-50737500D01*
%TO.C,LED8*%
X90587500Y-58237500D02*
X90587500Y-57237500D01*
X90587500Y-57237500D02*
X91487500Y-57237500D01*
%TO.C,LED25*%
X147737500Y-96337500D02*
X147737500Y-95337500D01*
X147737500Y-95337500D02*
X148637500Y-95337500D01*
%TO.C,D1*%
X119650000Y-54637500D02*
X119650000Y-50737500D01*
X121650000Y-54637500D02*
X121650000Y-50737500D01*
X121650000Y-54637500D02*
X119650000Y-54637500D01*
%TO.C,D43*%
X159750000Y-130837500D02*
X159750000Y-126937500D01*
X159750000Y-130837500D02*
X157750000Y-130837500D01*
X157750000Y-130837500D02*
X157750000Y-126937500D01*
%TO.C,LED17*%
X128687500Y-76287500D02*
X129587500Y-76287500D01*
X128687500Y-77287500D02*
X128687500Y-76287500D01*
%TO.C,R1*%
X73591686Y-44686250D02*
X74045814Y-44686250D01*
X73591686Y-46156250D02*
X74045814Y-46156250D01*
%TO.C,D4*%
X176800000Y-54637500D02*
X176800000Y-50737500D01*
X178800000Y-54637500D02*
X178800000Y-50737500D01*
X178800000Y-54637500D02*
X176800000Y-54637500D01*
%TO.C,D21*%
X121650000Y-92737500D02*
X119650000Y-92737500D01*
X119650000Y-92737500D02*
X119650000Y-88837500D01*
X121650000Y-92737500D02*
X121650000Y-88837500D01*
%TO.C,LED30*%
X109637500Y-115387500D02*
X109637500Y-114387500D01*
X109637500Y-114387500D02*
X110537500Y-114387500D01*
%TO.C,C1*%
X75465000Y-93130002D02*
X75465000Y-92607498D01*
X76935000Y-93130002D02*
X76935000Y-92607498D01*
%TO.C,D42*%
X140700000Y-130837500D02*
X138700000Y-130837500D01*
X138700000Y-130837500D02*
X138700000Y-126937500D01*
X140700000Y-130837500D02*
X140700000Y-126937500D01*
%TO.C,LED27*%
X185837500Y-95337500D02*
X186737500Y-95337500D01*
X185837500Y-96337500D02*
X185837500Y-95337500D01*
%TO.C,LED1*%
X90587500Y-38187500D02*
X91487500Y-38187500D01*
X90587500Y-39187500D02*
X90587500Y-38187500D01*
%TO.C,D24*%
X178800000Y-92737500D02*
X176800000Y-92737500D01*
X178800000Y-92737500D02*
X178800000Y-88837500D01*
X176800000Y-92737500D02*
X176800000Y-88837500D01*
%TO.C,D45*%
X197850000Y-130837500D02*
X195850000Y-130837500D01*
X197850000Y-130837500D02*
X197850000Y-126937500D01*
X195850000Y-130837500D02*
X195850000Y-126937500D01*
%TO.C,D30*%
X102600000Y-111787500D02*
X100600000Y-111787500D01*
X102600000Y-111787500D02*
X102600000Y-107887500D01*
X100600000Y-111787500D02*
X100600000Y-107887500D01*
%TO.C,D14*%
X178800000Y-73687500D02*
X178800000Y-69787500D01*
X178800000Y-73687500D02*
X176800000Y-73687500D01*
X176800000Y-73687500D02*
X176800000Y-69787500D01*
%TO.C,LED14*%
X204887500Y-57237500D02*
X205787500Y-57237500D01*
X204887500Y-58237500D02*
X204887500Y-57237500D01*
%TO.C,LED28*%
X204887500Y-95337500D02*
X205787500Y-95337500D01*
X204887500Y-96337500D02*
X204887500Y-95337500D01*
%TO.C,LED15*%
X90587500Y-76287500D02*
X91487500Y-76287500D01*
X90587500Y-77287500D02*
X90587500Y-76287500D01*
%TO.C,D32*%
X138700000Y-111787500D02*
X138700000Y-107887500D01*
X140700000Y-111787500D02*
X138700000Y-111787500D01*
X140700000Y-111787500D02*
X140700000Y-107887500D01*
%TO.C,LED32*%
X147737500Y-114387500D02*
X148637500Y-114387500D01*
X147737500Y-115387500D02*
X147737500Y-114387500D01*
%TO.C,D33*%
X159750000Y-111787500D02*
X159750000Y-107887500D01*
X159750000Y-111787500D02*
X157750000Y-111787500D01*
X157750000Y-111787500D02*
X157750000Y-107887500D01*
%TO.C,LED21*%
X204887500Y-77287500D02*
X204887500Y-76287500D01*
X204887500Y-76287500D02*
X205787500Y-76287500D01*
%TO.C,LED6*%
X185837500Y-39187500D02*
X185837500Y-38187500D01*
X185837500Y-38187500D02*
X186737500Y-38187500D01*
%TO.C,D12*%
X138700000Y-73687500D02*
X138700000Y-69787500D01*
X140700000Y-73687500D02*
X138700000Y-73687500D01*
X140700000Y-73687500D02*
X140700000Y-69787500D01*
%TO.C,LED23*%
X109637500Y-96337500D02*
X109637500Y-95337500D01*
X109637500Y-95337500D02*
X110537500Y-95337500D01*
%TO.C,LED29*%
X90587500Y-114387500D02*
X91487500Y-114387500D01*
X90587500Y-115387500D02*
X90587500Y-114387500D01*
%TO.C,D11*%
X119650000Y-73687500D02*
X119650000Y-69787500D01*
X121650000Y-73687500D02*
X119650000Y-73687500D01*
X121650000Y-73687500D02*
X121650000Y-69787500D01*
%TO.C,R2*%
X66108314Y-44686250D02*
X65654186Y-44686250D01*
X66108314Y-46156250D02*
X65654186Y-46156250D01*
%TO.C,LED16*%
X109637500Y-77287500D02*
X109637500Y-76287500D01*
X109637500Y-76287500D02*
X110537500Y-76287500D01*
%TO.C,LED3*%
X128687500Y-39187500D02*
X128687500Y-38187500D01*
X128687500Y-38187500D02*
X129587500Y-38187500D01*
%TO.C,D0*%
X100600000Y-54637500D02*
X100600000Y-50737500D01*
X102600000Y-54637500D02*
X102600000Y-50737500D01*
X102600000Y-54637500D02*
X100600000Y-54637500D01*
%TO.C,LED22*%
X90587500Y-96337500D02*
X90587500Y-95337500D01*
X90587500Y-95337500D02*
X91487500Y-95337500D01*
%TO.C,LED26*%
X166843750Y-96337500D02*
X166843750Y-95337500D01*
X166843750Y-95337500D02*
X167743750Y-95337500D01*
%TO.C,D26*%
X216900000Y-92737500D02*
X216900000Y-88837500D01*
X216900000Y-92737500D02*
X214900000Y-92737500D01*
X214900000Y-92737500D02*
X214900000Y-88837500D01*
%TO.C,LED33*%
X166843750Y-114387500D02*
X167743750Y-114387500D01*
X166843750Y-115387500D02*
X166843750Y-114387500D01*
%TO.C,R4*%
X67410000Y-58510436D02*
X67410000Y-58964564D01*
X65940000Y-58510436D02*
X65940000Y-58964564D01*
%TO.C,C7*%
X58796250Y-65619998D02*
X58796250Y-66142502D01*
X60266250Y-65619998D02*
X60266250Y-66142502D01*
%TO.C,R6*%
X59590000Y-89466686D02*
X59590000Y-89920814D01*
X61060000Y-89466686D02*
X61060000Y-89920814D01*
%TO.C,LED12*%
X166843750Y-58237500D02*
X166843750Y-57237500D01*
X166843750Y-57237500D02*
X167743750Y-57237500D01*
%TO.C,LED10*%
X128687500Y-57237500D02*
X129587500Y-57237500D01*
X128687500Y-58237500D02*
X128687500Y-57237500D01*
D10*
%TO.C,U2*%
X67612500Y-52525000D02*
X67612500Y-55425000D01*
X68912500Y-55425000D02*
X67612500Y-55425000D01*
X67612500Y-52525000D02*
X68912500Y-52525000D01*
X68912500Y-52525000D02*
X68912500Y-55425000D01*
D11*
%TO.C,LED31*%
X128687500Y-115387500D02*
X128687500Y-114387500D01*
X128687500Y-114387500D02*
X129587500Y-114387500D01*
%TO.C,C2*%
X67747500Y-92607498D02*
X67747500Y-93130002D01*
X66277500Y-92607498D02*
X66277500Y-93130002D01*
%TO.C,D25*%
X197850000Y-92737500D02*
X197850000Y-88837500D01*
X197850000Y-92737500D02*
X195850000Y-92737500D01*
X195850000Y-92737500D02*
X195850000Y-88837500D01*
%TO.C,LED2*%
X109637500Y-38187500D02*
X110537500Y-38187500D01*
X109637500Y-39187500D02*
X109637500Y-38187500D01*
%TO.C,Y1*%
X69187500Y-90168750D02*
X73687500Y-90168750D01*
X73687500Y-90168750D02*
X73687500Y-95568750D01*
%TO.C,R3*%
X60552064Y-77846250D02*
X60097936Y-77846250D01*
X60552064Y-79316250D02*
X60097936Y-79316250D01*
%TO.C,D5*%
X195850000Y-54637500D02*
X195850000Y-50737500D01*
X197850000Y-54637500D02*
X197850000Y-50737500D01*
X197850000Y-54637500D02*
X195850000Y-54637500D01*
%TO.C,D41*%
X119650000Y-130837500D02*
X119650000Y-126937500D01*
X121650000Y-130837500D02*
X121650000Y-126937500D01*
X121650000Y-130837500D02*
X119650000Y-130837500D01*
%TO.C,LED9*%
X109637500Y-58237500D02*
X109637500Y-57237500D01*
X109637500Y-57237500D02*
X110537500Y-57237500D01*
%TO.C,D44*%
X178800000Y-130837500D02*
X178800000Y-126937500D01*
X178800000Y-130837500D02*
X176800000Y-130837500D01*
X176800000Y-130837500D02*
X176800000Y-126937500D01*
%TO.C,K41*%
X112171804Y-128934407D02*
X111768804Y-128854407D01*
X110195804Y-126821407D02*
X109757804Y-126734407D01*
X111768804Y-128854407D02*
X111426804Y-128625407D01*
X110463804Y-122171407D02*
X110656804Y-122429407D01*
X106347804Y-126480407D02*
X106158804Y-126197407D01*
X109757804Y-126734407D02*
X106957804Y-126734407D01*
X106630804Y-126669407D02*
X106347804Y-126480407D01*
X110893804Y-128092407D02*
X110893804Y-127870407D01*
X109879804Y-121942407D02*
X110189804Y-122001407D01*
X106957804Y-126734407D02*
X106630804Y-126669407D01*
X110892804Y-123285407D02*
X111230804Y-123738407D01*
X110806804Y-127432407D02*
X110562804Y-127065407D01*
X114918804Y-124142407D02*
X115939804Y-125163407D01*
X110656804Y-122429407D02*
X110738804Y-122727407D01*
X105793804Y-121942407D02*
X109879804Y-121942407D01*
X106158804Y-126197407D02*
X106073804Y-125770407D01*
X111426804Y-128625407D02*
X110893804Y-128092407D01*
X110893804Y-127870407D02*
X110806804Y-127432407D01*
X111709804Y-124037407D02*
X112271804Y-124142407D01*
X110189804Y-122001407D02*
X110463804Y-122171407D01*
X105793804Y-122884407D02*
X105793804Y-121942407D01*
X112271804Y-124142407D02*
X114918804Y-124142407D01*
X114918804Y-128934407D02*
X112171804Y-128934407D01*
X111230804Y-123738407D02*
X111709804Y-124037407D01*
X115855804Y-127997407D02*
X114918804Y-128934407D01*
X110738804Y-122727407D02*
X110892804Y-123285407D01*
X110562804Y-127065407D02*
X110195804Y-126821407D01*
X106156804Y-122884407D02*
X105793804Y-122884407D01*
%TO.C,K20*%
X91606940Y-84328500D02*
X91688940Y-84626500D01*
X87297940Y-88379500D02*
X87108940Y-88096500D01*
X87580940Y-88568500D02*
X87297940Y-88379500D01*
X95868940Y-90833500D02*
X93121940Y-90833500D01*
X87907940Y-88633500D02*
X87580940Y-88568500D01*
X92659940Y-85936500D02*
X93221940Y-86041500D01*
X91843940Y-89991500D02*
X91843940Y-89769500D01*
X93121940Y-90833500D02*
X92718940Y-90753500D01*
X87108940Y-88096500D02*
X87023940Y-87669500D01*
X86743940Y-84783500D02*
X86743940Y-83841500D01*
X91512940Y-88964500D02*
X91145940Y-88720500D01*
X96805940Y-89896500D02*
X95868940Y-90833500D01*
X92180940Y-85637500D02*
X92659940Y-85936500D01*
X91688940Y-84626500D02*
X91842940Y-85184500D01*
X92718940Y-90753500D02*
X92376940Y-90524500D01*
X91145940Y-88720500D02*
X90707940Y-88633500D01*
X86743940Y-83841500D02*
X90829940Y-83841500D01*
X90707940Y-88633500D02*
X87907940Y-88633500D01*
X92376940Y-90524500D02*
X91843940Y-89991500D01*
X91756940Y-89331500D02*
X91512940Y-88964500D01*
X91843940Y-89769500D02*
X91756940Y-89331500D01*
X90829940Y-83841500D02*
X91139940Y-83900500D01*
X87106940Y-84783500D02*
X86743940Y-84783500D01*
X93221940Y-86041500D02*
X95868940Y-86041500D01*
X95868940Y-86041500D02*
X96889940Y-87062500D01*
X91413940Y-84070500D02*
X91606940Y-84328500D01*
X91842940Y-85184500D02*
X92180940Y-85637500D01*
X91139940Y-83900500D02*
X91413940Y-84070500D01*
%TO.C,K46*%
X207419500Y-128933500D02*
X207016500Y-128853500D01*
X201404500Y-122883500D02*
X201041500Y-122883500D01*
X201878500Y-126668500D02*
X201595500Y-126479500D01*
X206054500Y-127431500D02*
X205810500Y-127064500D01*
X206140500Y-123284500D02*
X206478500Y-123737500D01*
X210166500Y-124141500D02*
X211187500Y-125162500D01*
X207519500Y-124141500D02*
X210166500Y-124141500D01*
X206674500Y-128624500D02*
X206141500Y-128091500D01*
X202205500Y-126733500D02*
X201878500Y-126668500D01*
X201595500Y-126479500D02*
X201406500Y-126196500D01*
X205904500Y-122428500D02*
X205986500Y-122726500D01*
X201041500Y-122883500D02*
X201041500Y-121941500D01*
X201041500Y-121941500D02*
X205127500Y-121941500D01*
X206141500Y-128091500D02*
X206141500Y-127869500D01*
X206141500Y-127869500D02*
X206054500Y-127431500D01*
X210166500Y-128933500D02*
X207419500Y-128933500D01*
X205810500Y-127064500D02*
X205443500Y-126820500D01*
X205443500Y-126820500D02*
X205005500Y-126733500D01*
X211103500Y-127996500D02*
X210166500Y-128933500D01*
X205127500Y-121941500D02*
X205437500Y-122000500D01*
X201406500Y-126196500D02*
X201321500Y-125769500D01*
X205986500Y-122726500D02*
X206140500Y-123284500D01*
X205005500Y-126733500D02*
X202205500Y-126733500D01*
X206957500Y-124036500D02*
X207519500Y-124141500D01*
X205437500Y-122000500D02*
X205711500Y-122170500D01*
X205711500Y-122170500D02*
X205904500Y-122428500D01*
X206478500Y-123737500D02*
X206957500Y-124036500D01*
X207016500Y-128853500D02*
X206674500Y-128624500D01*
%TO.C,K36*%
X202205500Y-107683500D02*
X201878500Y-107618500D01*
X206054500Y-108381500D02*
X205810500Y-108014500D01*
X206141500Y-109041500D02*
X206141500Y-108819500D01*
X206957500Y-104986500D02*
X207519500Y-105091500D01*
X205443500Y-107770500D02*
X205005500Y-107683500D01*
X206478500Y-104687500D02*
X206957500Y-104986500D01*
X211103500Y-108946500D02*
X210166500Y-109883500D01*
X210166500Y-109883500D02*
X207419500Y-109883500D01*
X205986500Y-103676500D02*
X206140500Y-104234500D01*
X206674500Y-109574500D02*
X206141500Y-109041500D01*
X205810500Y-108014500D02*
X205443500Y-107770500D01*
X201878500Y-107618500D02*
X201595500Y-107429500D01*
X207016500Y-109803500D02*
X206674500Y-109574500D01*
X205127500Y-102891500D02*
X205437500Y-102950500D01*
X205711500Y-103120500D02*
X205904500Y-103378500D01*
X201404500Y-103833500D02*
X201041500Y-103833500D01*
X201406500Y-107146500D02*
X201321500Y-106719500D01*
X205005500Y-107683500D02*
X202205500Y-107683500D01*
X201041500Y-103833500D02*
X201041500Y-102891500D01*
X201595500Y-107429500D02*
X201406500Y-107146500D01*
X201041500Y-102891500D02*
X205127500Y-102891500D01*
X207519500Y-105091500D02*
X210166500Y-105091500D01*
X205904500Y-103378500D02*
X205986500Y-103676500D01*
X210166500Y-105091500D02*
X211187500Y-106112500D01*
X205437500Y-102950500D02*
X205711500Y-103120500D01*
X206140500Y-104234500D02*
X206478500Y-104687500D01*
X207419500Y-109883500D02*
X207016500Y-109803500D01*
X206141500Y-108819500D02*
X206054500Y-108381500D01*
%TO.C,K12*%
X129943336Y-70941625D02*
X129943336Y-70719625D01*
X133968336Y-71783625D02*
X131221336Y-71783625D01*
X125206336Y-65733625D02*
X124843336Y-65733625D01*
X124843336Y-64791625D02*
X128929336Y-64791625D01*
X129612336Y-69914625D02*
X129245336Y-69670625D01*
X134905336Y-70846625D02*
X133968336Y-71783625D01*
X126007336Y-69583625D02*
X125680336Y-69518625D01*
X129706336Y-65278625D02*
X129788336Y-65576625D01*
X129856336Y-70281625D02*
X129612336Y-69914625D01*
X129245336Y-69670625D02*
X128807336Y-69583625D01*
X129942336Y-66134625D02*
X130280336Y-66587625D01*
X129943336Y-70719625D02*
X129856336Y-70281625D01*
X130818336Y-71703625D02*
X130476336Y-71474625D01*
X128807336Y-69583625D02*
X126007336Y-69583625D01*
X128929336Y-64791625D02*
X129239336Y-64850625D01*
X130280336Y-66587625D02*
X130759336Y-66886625D01*
X130476336Y-71474625D02*
X129943336Y-70941625D01*
X130759336Y-66886625D02*
X131321336Y-66991625D01*
X125680336Y-69518625D02*
X125397336Y-69329625D01*
X131221336Y-71783625D02*
X130818336Y-71703625D01*
X129513336Y-65020625D02*
X129706336Y-65278625D01*
X133968336Y-66991625D02*
X134989336Y-68012625D01*
X129239336Y-64850625D02*
X129513336Y-65020625D01*
X125208336Y-69046625D02*
X125123336Y-68619625D01*
X125397336Y-69329625D02*
X125208336Y-69046625D01*
X131321336Y-66991625D02*
X133968336Y-66991625D01*
X124843336Y-65733625D02*
X124843336Y-64791625D01*
X129788336Y-65576625D02*
X129942336Y-66134625D01*
%TO.C,K22*%
X125395860Y-88379020D02*
X125206860Y-88096020D01*
X129511860Y-84070020D02*
X129704860Y-84328020D01*
X129237860Y-83900020D02*
X129511860Y-84070020D01*
X133966860Y-90833020D02*
X131219860Y-90833020D01*
X131319860Y-86041020D02*
X133966860Y-86041020D01*
X129941860Y-89991020D02*
X129941860Y-89769020D01*
X129940860Y-85184020D02*
X130278860Y-85637020D01*
X129704860Y-84328020D02*
X129786860Y-84626020D01*
X133966860Y-86041020D02*
X134987860Y-87062020D01*
X131219860Y-90833020D02*
X130816860Y-90753020D01*
X129786860Y-84626020D02*
X129940860Y-85184020D01*
X129243860Y-88720020D02*
X128805860Y-88633020D01*
X129854860Y-89331020D02*
X129610860Y-88964020D01*
X128927860Y-83841020D02*
X129237860Y-83900020D01*
X125204860Y-84783020D02*
X124841860Y-84783020D01*
X128805860Y-88633020D02*
X126005860Y-88633020D01*
X134903860Y-89896020D02*
X133966860Y-90833020D01*
X126005860Y-88633020D02*
X125678860Y-88568020D01*
X130816860Y-90753020D02*
X130474860Y-90524020D01*
X130278860Y-85637020D02*
X130757860Y-85936020D01*
X129610860Y-88964020D02*
X129243860Y-88720020D01*
X130757860Y-85936020D02*
X131319860Y-86041020D01*
X129941860Y-89769020D02*
X129854860Y-89331020D01*
X130474860Y-90524020D02*
X129941860Y-89991020D01*
X124841860Y-83841020D02*
X128927860Y-83841020D01*
X125678860Y-88568020D02*
X125395860Y-88379020D01*
X125206860Y-88096020D02*
X125121860Y-87669020D01*
X124841860Y-84783020D02*
X124841860Y-83841020D01*
%TO.C,K35*%
X183155500Y-107683500D02*
X182828500Y-107618500D01*
X191116500Y-105091500D02*
X192137500Y-106112500D01*
X186387500Y-102950500D02*
X186661500Y-103120500D01*
X188469500Y-105091500D02*
X191116500Y-105091500D01*
X182356500Y-107146500D02*
X182271500Y-106719500D01*
X182545500Y-107429500D02*
X182356500Y-107146500D01*
X182354500Y-103833500D02*
X181991500Y-103833500D01*
X181991500Y-103833500D02*
X181991500Y-102891500D01*
X186393500Y-107770500D02*
X185955500Y-107683500D01*
X182828500Y-107618500D02*
X182545500Y-107429500D01*
X187624500Y-109574500D02*
X187091500Y-109041500D01*
X181991500Y-102891500D02*
X186077500Y-102891500D01*
X187091500Y-109041500D02*
X187091500Y-108819500D01*
X186936500Y-103676500D02*
X187090500Y-104234500D01*
X186760500Y-108014500D02*
X186393500Y-107770500D01*
X187428500Y-104687500D02*
X187907500Y-104986500D01*
X192053500Y-108946500D02*
X191116500Y-109883500D01*
X186077500Y-102891500D02*
X186387500Y-102950500D01*
X188369500Y-109883500D02*
X187966500Y-109803500D01*
X187090500Y-104234500D02*
X187428500Y-104687500D01*
X191116500Y-109883500D02*
X188369500Y-109883500D01*
X187907500Y-104986500D02*
X188469500Y-105091500D01*
X186854500Y-103378500D02*
X186936500Y-103676500D01*
X187966500Y-109803500D02*
X187624500Y-109574500D01*
X185955500Y-107683500D02*
X183155500Y-107683500D01*
X187091500Y-108819500D02*
X187004500Y-108381500D01*
X186661500Y-103120500D02*
X186854500Y-103378500D01*
X187004500Y-108381500D02*
X186760500Y-108014500D01*
%TO.C,K23*%
X149524500Y-90524500D02*
X148991500Y-89991500D01*
X150269500Y-90833500D02*
X149866500Y-90753500D01*
X150369500Y-86041500D02*
X153016500Y-86041500D01*
X143891500Y-83841500D02*
X147977500Y-83841500D01*
X148991500Y-89991500D02*
X148991500Y-89769500D01*
X149866500Y-90753500D02*
X149524500Y-90524500D01*
X143891500Y-84783500D02*
X143891500Y-83841500D01*
X148836500Y-84626500D02*
X148990500Y-85184500D01*
X148561500Y-84070500D02*
X148754500Y-84328500D01*
X148287500Y-83900500D02*
X148561500Y-84070500D01*
X149807500Y-85936500D02*
X150369500Y-86041500D01*
X148660500Y-88964500D02*
X148293500Y-88720500D01*
X147855500Y-88633500D02*
X145055500Y-88633500D01*
X144256500Y-88096500D02*
X144171500Y-87669500D01*
X153953500Y-89896500D02*
X153016500Y-90833500D01*
X148754500Y-84328500D02*
X148836500Y-84626500D01*
X147977500Y-83841500D02*
X148287500Y-83900500D01*
X148990500Y-85184500D02*
X149328500Y-85637500D01*
X148991500Y-89769500D02*
X148904500Y-89331500D01*
X144254500Y-84783500D02*
X143891500Y-84783500D01*
X148904500Y-89331500D02*
X148660500Y-88964500D01*
X145055500Y-88633500D02*
X144728500Y-88568500D01*
X153016500Y-90833500D02*
X150269500Y-90833500D01*
X153016500Y-86041500D02*
X154037500Y-87062500D01*
X148293500Y-88720500D02*
X147855500Y-88633500D01*
X149328500Y-85637500D02*
X149807500Y-85936500D01*
X144445500Y-88379500D02*
X144256500Y-88096500D01*
X144728500Y-88568500D02*
X144445500Y-88379500D01*
%TO.C,K5*%
X182356500Y-49996500D02*
X182271500Y-49569500D01*
X187428500Y-47537500D02*
X187907500Y-47836500D01*
X183155500Y-50533500D02*
X182828500Y-50468500D01*
X186661500Y-45970500D02*
X186854500Y-46228500D01*
X188469500Y-47941500D02*
X191116500Y-47941500D01*
X182354500Y-46683500D02*
X181991500Y-46683500D01*
X186760500Y-50864500D02*
X186393500Y-50620500D01*
X187907500Y-47836500D02*
X188469500Y-47941500D01*
X187004500Y-51231500D02*
X186760500Y-50864500D01*
X182545500Y-50279500D02*
X182356500Y-49996500D01*
X186393500Y-50620500D02*
X185955500Y-50533500D01*
X181991500Y-45741500D02*
X186077500Y-45741500D01*
X192053500Y-51796500D02*
X191116500Y-52733500D01*
X187091500Y-51669500D02*
X187004500Y-51231500D01*
X191116500Y-52733500D02*
X188369500Y-52733500D01*
X191116500Y-47941500D02*
X192137500Y-48962500D01*
X188369500Y-52733500D02*
X187966500Y-52653500D01*
X186936500Y-46526500D02*
X187090500Y-47084500D01*
X186077500Y-45741500D02*
X186387500Y-45800500D01*
X182828500Y-50468500D02*
X182545500Y-50279500D01*
X187624500Y-52424500D02*
X187091500Y-51891500D01*
X185955500Y-50533500D02*
X183155500Y-50533500D01*
X187090500Y-47084500D02*
X187428500Y-47537500D01*
X181991500Y-46683500D02*
X181991500Y-45741500D01*
X187091500Y-51891500D02*
X187091500Y-51669500D01*
X186854500Y-46228500D02*
X186936500Y-46526500D01*
X186387500Y-45800500D02*
X186661500Y-45970500D01*
X187966500Y-52653500D02*
X187624500Y-52424500D01*
%TO.C,K40*%
X93120232Y-128933500D02*
X92717232Y-128853500D01*
X90706232Y-126733500D02*
X87906232Y-126733500D01*
X91841232Y-123284500D02*
X92179232Y-123737500D01*
X91687232Y-122726500D02*
X91841232Y-123284500D01*
X91412232Y-122170500D02*
X91605232Y-122428500D01*
X90828232Y-121941500D02*
X91138232Y-122000500D01*
X95867232Y-128933500D02*
X93120232Y-128933500D01*
X87296232Y-126479500D02*
X87107232Y-126196500D01*
X96804232Y-127996500D02*
X95867232Y-128933500D01*
X86742232Y-122883500D02*
X86742232Y-121941500D01*
X93220232Y-124141500D02*
X95867232Y-124141500D01*
X91144232Y-126820500D02*
X90706232Y-126733500D01*
X91511232Y-127064500D02*
X91144232Y-126820500D01*
X92658232Y-124036500D02*
X93220232Y-124141500D01*
X87105232Y-122883500D02*
X86742232Y-122883500D01*
X91842232Y-127869500D02*
X91755232Y-127431500D01*
X92717232Y-128853500D02*
X92375232Y-128624500D01*
X86742232Y-121941500D02*
X90828232Y-121941500D01*
X91755232Y-127431500D02*
X91511232Y-127064500D01*
X91605232Y-122428500D02*
X91687232Y-122726500D01*
X87906232Y-126733500D02*
X87579232Y-126668500D01*
X92179232Y-123737500D02*
X92658232Y-124036500D01*
X91138232Y-122000500D02*
X91412232Y-122170500D01*
X91842232Y-128091500D02*
X91842232Y-127869500D01*
X95867232Y-124141500D02*
X96888232Y-125162500D01*
X92375232Y-128624500D02*
X91842232Y-128091500D01*
X87107232Y-126196500D02*
X87022232Y-125769500D01*
X87579232Y-126668500D02*
X87296232Y-126479500D01*
%TO.C,K44*%
X172122750Y-128933500D02*
X169375750Y-128933500D01*
X162997750Y-122883500D02*
X162997750Y-121941500D01*
X163551750Y-126479500D02*
X163362750Y-126196500D01*
X167942750Y-122726500D02*
X168096750Y-123284500D01*
X162997750Y-121941500D02*
X167083750Y-121941500D01*
X169375750Y-128933500D02*
X168972750Y-128853500D01*
X167860750Y-122428500D02*
X167942750Y-122726500D01*
X163360750Y-122883500D02*
X162997750Y-122883500D01*
X168096750Y-123284500D02*
X168434750Y-123737500D01*
X167667750Y-122170500D02*
X167860750Y-122428500D01*
X168913750Y-124036500D02*
X169475750Y-124141500D01*
X167399750Y-126820500D02*
X166961750Y-126733500D01*
X166961750Y-126733500D02*
X164161750Y-126733500D01*
X163362750Y-126196500D02*
X163277750Y-125769500D01*
X163834750Y-126668500D02*
X163551750Y-126479500D01*
X164161750Y-126733500D02*
X163834750Y-126668500D01*
X167393750Y-122000500D02*
X167667750Y-122170500D01*
X167766750Y-127064500D02*
X167399750Y-126820500D01*
X168097750Y-127869500D02*
X168010750Y-127431500D01*
X173059750Y-127996500D02*
X172122750Y-128933500D01*
X167083750Y-121941500D02*
X167393750Y-122000500D01*
X172122750Y-124141500D02*
X173143750Y-125162500D01*
X168097750Y-128091500D02*
X168097750Y-127869500D01*
X169475750Y-124141500D02*
X172122750Y-124141500D01*
X168010750Y-127431500D02*
X167766750Y-127064500D01*
X168434750Y-123737500D02*
X168913750Y-124036500D01*
X168972750Y-128853500D02*
X168630750Y-128624500D01*
X168630750Y-128624500D02*
X168097750Y-128091500D01*
%TO.C,K34*%
X168972750Y-109803500D02*
X168630750Y-109574500D01*
X168097750Y-109041500D02*
X168097750Y-108819500D01*
X168096750Y-104234500D02*
X168434750Y-104687500D01*
X172122750Y-105091500D02*
X173143750Y-106112500D01*
X167083750Y-102891500D02*
X167393750Y-102950500D01*
X162997750Y-103833500D02*
X162997750Y-102891500D01*
X162997750Y-102891500D02*
X167083750Y-102891500D01*
X168913750Y-104986500D02*
X169475750Y-105091500D01*
X163360750Y-103833500D02*
X162997750Y-103833500D01*
X169375750Y-109883500D02*
X168972750Y-109803500D01*
X164161750Y-107683500D02*
X163834750Y-107618500D01*
X168434750Y-104687500D02*
X168913750Y-104986500D01*
X169475750Y-105091500D02*
X172122750Y-105091500D01*
X168097750Y-108819500D02*
X168010750Y-108381500D01*
X173059750Y-108946500D02*
X172122750Y-109883500D01*
X168630750Y-109574500D02*
X168097750Y-109041500D01*
X168010750Y-108381500D02*
X167766750Y-108014500D01*
X167399750Y-107770500D02*
X166961750Y-107683500D01*
X172122750Y-109883500D02*
X169375750Y-109883500D01*
X167766750Y-108014500D02*
X167399750Y-107770500D01*
X167942750Y-103676500D02*
X168096750Y-104234500D01*
X163551750Y-107429500D02*
X163362750Y-107146500D01*
X167860750Y-103378500D02*
X167942750Y-103676500D01*
X163834750Y-107618500D02*
X163551750Y-107429500D01*
X163362750Y-107146500D02*
X163277750Y-106719500D01*
X167393750Y-102950500D02*
X167667750Y-103120500D01*
X166961750Y-107683500D02*
X164161750Y-107683500D01*
X167667750Y-103120500D02*
X167860750Y-103378500D01*
%TO.C,K32*%
X125678501Y-107617313D02*
X125395501Y-107428313D01*
X129854501Y-108380313D02*
X129610501Y-108013313D01*
X130278501Y-104686313D02*
X130757501Y-104985313D01*
X129243501Y-107769313D02*
X128805501Y-107682313D01*
X131319501Y-105090313D02*
X133966501Y-105090313D01*
X129511501Y-103119313D02*
X129704501Y-103377313D01*
X130474501Y-109573313D02*
X129941501Y-109040313D01*
X128805501Y-107682313D02*
X126005501Y-107682313D01*
X131219501Y-109882313D02*
X130816501Y-109802313D01*
X125204501Y-103832313D02*
X124841501Y-103832313D01*
X124841501Y-102890313D02*
X128927501Y-102890313D01*
X126005501Y-107682313D02*
X125678501Y-107617313D01*
X133966501Y-105090313D02*
X134987501Y-106111313D01*
X130757501Y-104985313D02*
X131319501Y-105090313D01*
X129237501Y-102949313D02*
X129511501Y-103119313D01*
X133966501Y-109882313D02*
X131219501Y-109882313D01*
X124841501Y-103832313D02*
X124841501Y-102890313D01*
X129786501Y-103675313D02*
X129940501Y-104233313D01*
X125395501Y-107428313D02*
X125206501Y-107145313D01*
X129940501Y-104233313D02*
X130278501Y-104686313D01*
X129941501Y-108818313D02*
X129854501Y-108380313D01*
X128927501Y-102890313D02*
X129237501Y-102949313D01*
X130816501Y-109802313D02*
X130474501Y-109573313D01*
X129610501Y-108013313D02*
X129243501Y-107769313D01*
X129704501Y-103377313D02*
X129786501Y-103675313D01*
X129941501Y-109040313D02*
X129941501Y-108818313D01*
X125206501Y-107145313D02*
X125121501Y-106718313D01*
X134903501Y-108945313D02*
X133966501Y-109882313D01*
%TO.C,K43*%
X148660500Y-127064500D02*
X148293500Y-126820500D01*
X147977500Y-121941500D02*
X148287500Y-122000500D01*
X148293500Y-126820500D02*
X147855500Y-126733500D01*
X148991500Y-127869500D02*
X148904500Y-127431500D01*
X149524500Y-128624500D02*
X148991500Y-128091500D01*
X153016500Y-124141500D02*
X154037500Y-125162500D01*
X148990500Y-123284500D02*
X149328500Y-123737500D01*
X148991500Y-128091500D02*
X148991500Y-127869500D01*
X144256500Y-126196500D02*
X144171500Y-125769500D01*
X150369500Y-124141500D02*
X153016500Y-124141500D01*
X150269500Y-128933500D02*
X149866500Y-128853500D01*
X148904500Y-127431500D02*
X148660500Y-127064500D01*
X148287500Y-122000500D02*
X148561500Y-122170500D01*
X143891500Y-121941500D02*
X147977500Y-121941500D01*
X149866500Y-128853500D02*
X149524500Y-128624500D01*
X147855500Y-126733500D02*
X145055500Y-126733500D01*
X153016500Y-128933500D02*
X150269500Y-128933500D01*
X149807500Y-124036500D02*
X150369500Y-124141500D01*
X148836500Y-122726500D02*
X148990500Y-123284500D01*
X149328500Y-123737500D02*
X149807500Y-124036500D01*
X144728500Y-126668500D02*
X144445500Y-126479500D01*
X144445500Y-126479500D02*
X144256500Y-126196500D01*
X153953500Y-127996500D02*
X153016500Y-128933500D01*
X143891500Y-122883500D02*
X143891500Y-121941500D01*
X148561500Y-122170500D02*
X148754500Y-122428500D01*
X148754500Y-122428500D02*
X148836500Y-122726500D01*
X145055500Y-126733500D02*
X144728500Y-126668500D01*
X144254500Y-122883500D02*
X143891500Y-122883500D01*
%TO.C,K15*%
X186760500Y-69914500D02*
X186393500Y-69670500D01*
X191116500Y-71783500D02*
X188369500Y-71783500D01*
X182828500Y-69518500D02*
X182545500Y-69329500D01*
X187428500Y-66587500D02*
X187907500Y-66886500D01*
X182545500Y-69329500D02*
X182356500Y-69046500D01*
X187091500Y-70941500D02*
X187091500Y-70719500D01*
X182356500Y-69046500D02*
X182271500Y-68619500D01*
X187090500Y-66134500D02*
X187428500Y-66587500D01*
X186393500Y-69670500D02*
X185955500Y-69583500D01*
X186936500Y-65576500D02*
X187090500Y-66134500D01*
X186387500Y-64850500D02*
X186661500Y-65020500D01*
X186077500Y-64791500D02*
X186387500Y-64850500D01*
X181991500Y-64791500D02*
X186077500Y-64791500D01*
X187907500Y-66886500D02*
X188469500Y-66991500D01*
X191116500Y-66991500D02*
X192137500Y-68012500D01*
X187004500Y-70281500D02*
X186760500Y-69914500D01*
X187624500Y-71474500D02*
X187091500Y-70941500D01*
X187091500Y-70719500D02*
X187004500Y-70281500D01*
X185955500Y-69583500D02*
X183155500Y-69583500D01*
X192053500Y-70846500D02*
X191116500Y-71783500D01*
X187966500Y-71703500D02*
X187624500Y-71474500D01*
X181991500Y-65733500D02*
X181991500Y-64791500D01*
X183155500Y-69583500D02*
X182828500Y-69518500D01*
X186661500Y-65020500D02*
X186854500Y-65278500D01*
X188369500Y-71783500D02*
X187966500Y-71703500D01*
X188469500Y-66991500D02*
X191116500Y-66991500D01*
X186854500Y-65278500D02*
X186936500Y-65576500D01*
X182354500Y-65733500D02*
X181991500Y-65733500D01*
%TO.C,K14*%
X168913750Y-66886500D02*
X169475750Y-66991500D01*
X162997750Y-64791500D02*
X167083750Y-64791500D01*
X163834750Y-69518500D02*
X163551750Y-69329500D01*
X169375750Y-71783500D02*
X168972750Y-71703500D01*
X168972750Y-71703500D02*
X168630750Y-71474500D01*
X168434750Y-66587500D02*
X168913750Y-66886500D01*
X167083750Y-64791500D02*
X167393750Y-64850500D01*
X167860750Y-65278500D02*
X167942750Y-65576500D01*
X168630750Y-71474500D02*
X168097750Y-70941500D01*
X162997750Y-65733500D02*
X162997750Y-64791500D01*
X167399750Y-69670500D02*
X166961750Y-69583500D01*
X164161750Y-69583500D02*
X163834750Y-69518500D01*
X163360750Y-65733500D02*
X162997750Y-65733500D01*
X163362750Y-69046500D02*
X163277750Y-68619500D01*
X168010750Y-70281500D02*
X167766750Y-69914500D01*
X168097750Y-70941500D02*
X168097750Y-70719500D01*
X167766750Y-69914500D02*
X167399750Y-69670500D01*
X168096750Y-66134500D02*
X168434750Y-66587500D01*
X173059750Y-70846500D02*
X172122750Y-71783500D01*
X163551750Y-69329500D02*
X163362750Y-69046500D01*
X167942750Y-65576500D02*
X168096750Y-66134500D01*
X172122750Y-71783500D02*
X169375750Y-71783500D01*
X167667750Y-65020500D02*
X167860750Y-65278500D01*
X172122750Y-66991500D02*
X173143750Y-68012500D01*
X167393750Y-64850500D02*
X167667750Y-65020500D01*
X168097750Y-70719500D02*
X168010750Y-70281500D01*
X169475750Y-66991500D02*
X172122750Y-66991500D01*
X166961750Y-69583500D02*
X164161750Y-69583500D01*
%TO.C,K0*%
X91139940Y-45800500D02*
X91413940Y-45970500D01*
X92376940Y-52424500D02*
X91843940Y-51891500D01*
X91688940Y-46526500D02*
X91842940Y-47084500D01*
X87297940Y-50279500D02*
X87108940Y-49996500D01*
X92180940Y-47537500D02*
X92659940Y-47836500D01*
X92659940Y-47836500D02*
X93221940Y-47941500D01*
X87907940Y-50533500D02*
X87580940Y-50468500D01*
X93221940Y-47941500D02*
X95868940Y-47941500D01*
X96805940Y-51796500D02*
X95868940Y-52733500D01*
X91843940Y-51669500D02*
X91756940Y-51231500D01*
X93121940Y-52733500D02*
X92718940Y-52653500D01*
X91842940Y-47084500D02*
X92180940Y-47537500D01*
X90829940Y-45741500D02*
X91139940Y-45800500D01*
X95868940Y-52733500D02*
X93121940Y-52733500D01*
X86743940Y-45741500D02*
X90829940Y-45741500D01*
X91145940Y-50620500D02*
X90707940Y-50533500D01*
X92718940Y-52653500D02*
X92376940Y-52424500D01*
X91413940Y-45970500D02*
X91606940Y-46228500D01*
X91606940Y-46228500D02*
X91688940Y-46526500D01*
X91843940Y-51891500D02*
X91843940Y-51669500D01*
X95868940Y-47941500D02*
X96889940Y-48962500D01*
X86743940Y-46683500D02*
X86743940Y-45741500D01*
X87108940Y-49996500D02*
X87023940Y-49569500D01*
X91756940Y-51231500D02*
X91512940Y-50864500D01*
X91512940Y-50864500D02*
X91145940Y-50620500D01*
X87106940Y-46683500D02*
X86743940Y-46683500D01*
X90707940Y-50533500D02*
X87907940Y-50533500D01*
X87580940Y-50468500D02*
X87297940Y-50279500D01*
%TO.C,K2*%
X129613998Y-50864477D02*
X129246998Y-50620477D01*
X126008998Y-50533477D02*
X125681998Y-50468477D01*
X133969998Y-52733477D02*
X131222998Y-52733477D01*
X125398998Y-50279477D02*
X125209998Y-49996477D01*
X133969998Y-47941477D02*
X134990998Y-48962477D01*
X131322998Y-47941477D02*
X133969998Y-47941477D01*
X124844998Y-46683477D02*
X124844998Y-45741477D01*
X125209998Y-49996477D02*
X125124998Y-49569477D01*
X129246998Y-50620477D02*
X128808998Y-50533477D01*
X128930998Y-45741477D02*
X129240998Y-45800477D01*
X125207998Y-46683477D02*
X124844998Y-46683477D01*
X129857998Y-51231477D02*
X129613998Y-50864477D01*
X130760998Y-47836477D02*
X131322998Y-47941477D01*
X130281998Y-47537477D02*
X130760998Y-47836477D01*
X129944998Y-51891477D02*
X129944998Y-51669477D01*
X134906998Y-51796477D02*
X133969998Y-52733477D01*
X129789998Y-46526477D02*
X129943998Y-47084477D01*
X131222998Y-52733477D02*
X130819998Y-52653477D01*
X124844998Y-45741477D02*
X128930998Y-45741477D01*
X128808998Y-50533477D02*
X126008998Y-50533477D01*
X130819998Y-52653477D02*
X130477998Y-52424477D01*
X129944998Y-51669477D02*
X129857998Y-51231477D01*
X130477998Y-52424477D02*
X129944998Y-51891477D01*
X129943998Y-47084477D02*
X130281998Y-47537477D01*
X129707998Y-46228477D02*
X129789998Y-46526477D01*
X129514998Y-45970477D02*
X129707998Y-46228477D01*
X129240998Y-45800477D02*
X129514998Y-45970477D01*
X125681998Y-50468477D02*
X125398998Y-50279477D01*
%TO.C,K26*%
X207419500Y-90833500D02*
X207016500Y-90753500D01*
X201041500Y-84783500D02*
X201041500Y-83841500D01*
X210166500Y-86041500D02*
X211187500Y-87062500D01*
X202205500Y-88633500D02*
X201878500Y-88568500D01*
X207519500Y-86041500D02*
X210166500Y-86041500D01*
X206054500Y-89331500D02*
X205810500Y-88964500D01*
X206957500Y-85936500D02*
X207519500Y-86041500D01*
X210166500Y-90833500D02*
X207419500Y-90833500D01*
X205005500Y-88633500D02*
X202205500Y-88633500D01*
X201878500Y-88568500D02*
X201595500Y-88379500D01*
X205986500Y-84626500D02*
X206140500Y-85184500D01*
X206478500Y-85637500D02*
X206957500Y-85936500D01*
X205810500Y-88964500D02*
X205443500Y-88720500D01*
X206674500Y-90524500D02*
X206141500Y-89991500D01*
X201041500Y-83841500D02*
X205127500Y-83841500D01*
X201595500Y-88379500D02*
X201406500Y-88096500D01*
X211103500Y-89896500D02*
X210166500Y-90833500D01*
X201406500Y-88096500D02*
X201321500Y-87669500D01*
X205711500Y-84070500D02*
X205904500Y-84328500D01*
X206140500Y-85184500D02*
X206478500Y-85637500D01*
X207016500Y-90753500D02*
X206674500Y-90524500D01*
X205127500Y-83841500D02*
X205437500Y-83900500D01*
X205437500Y-83900500D02*
X205711500Y-84070500D01*
X206141500Y-89991500D02*
X206141500Y-89769500D01*
X205904500Y-84328500D02*
X205986500Y-84626500D01*
X205443500Y-88720500D02*
X205005500Y-88633500D01*
X201404500Y-84783500D02*
X201041500Y-84783500D01*
X206141500Y-89769500D02*
X206054500Y-89331500D01*
%TO.C,K13*%
X148991500Y-70719500D02*
X148904500Y-70281500D01*
X149524500Y-71474500D02*
X148991500Y-70941500D01*
X148990500Y-66134500D02*
X149328500Y-66587500D01*
X153016500Y-66991500D02*
X154037500Y-68012500D01*
X143891500Y-65733500D02*
X143891500Y-64791500D01*
X144728500Y-69518500D02*
X144445500Y-69329500D01*
X144445500Y-69329500D02*
X144256500Y-69046500D01*
X148660500Y-69914500D02*
X148293500Y-69670500D01*
X149866500Y-71703500D02*
X149524500Y-71474500D01*
X149328500Y-66587500D02*
X149807500Y-66886500D01*
X148287500Y-64850500D02*
X148561500Y-65020500D01*
X149807500Y-66886500D02*
X150369500Y-66991500D01*
X148904500Y-70281500D02*
X148660500Y-69914500D01*
X148754500Y-65278500D02*
X148836500Y-65576500D01*
X144256500Y-69046500D02*
X144171500Y-68619500D01*
X145055500Y-69583500D02*
X144728500Y-69518500D01*
X153016500Y-71783500D02*
X150269500Y-71783500D01*
X143891500Y-64791500D02*
X147977500Y-64791500D01*
X147977500Y-64791500D02*
X148287500Y-64850500D01*
X148293500Y-69670500D02*
X147855500Y-69583500D01*
X150269500Y-71783500D02*
X149866500Y-71703500D01*
X144254500Y-65733500D02*
X143891500Y-65733500D01*
X147855500Y-69583500D02*
X145055500Y-69583500D01*
X153953500Y-70846500D02*
X153016500Y-71783500D01*
X148836500Y-65576500D02*
X148990500Y-66134500D01*
X148991500Y-70941500D02*
X148991500Y-70719500D01*
X148561500Y-65020500D02*
X148754500Y-65278500D01*
X150369500Y-66991500D02*
X153016500Y-66991500D01*
%TO.C,K1*%
X111770034Y-52653052D02*
X111428034Y-52424052D01*
X109759034Y-50533052D02*
X106959034Y-50533052D01*
X110895034Y-51669052D02*
X110808034Y-51231052D01*
X105795034Y-45741052D02*
X109881034Y-45741052D01*
X106959034Y-50533052D02*
X106632034Y-50468052D01*
X109881034Y-45741052D02*
X110191034Y-45800052D01*
X111428034Y-52424052D02*
X110895034Y-51891052D01*
X110197034Y-50620052D02*
X109759034Y-50533052D01*
X112273034Y-47941052D02*
X114920034Y-47941052D01*
X111232034Y-47537052D02*
X111711034Y-47836052D01*
X106158034Y-46683052D02*
X105795034Y-46683052D01*
X110894034Y-47084052D02*
X111232034Y-47537052D01*
X110465034Y-45970052D02*
X110658034Y-46228052D01*
X114920034Y-47941052D02*
X115941034Y-48962052D01*
X110191034Y-45800052D02*
X110465034Y-45970052D01*
X115857034Y-51796052D02*
X114920034Y-52733052D01*
X111711034Y-47836052D02*
X112273034Y-47941052D01*
X110808034Y-51231052D02*
X110564034Y-50864052D01*
X106160034Y-49996052D02*
X106075034Y-49569052D01*
X110895034Y-51891052D02*
X110895034Y-51669052D01*
X110658034Y-46228052D02*
X110740034Y-46526052D01*
X106632034Y-50468052D02*
X106349034Y-50279052D01*
X106349034Y-50279052D02*
X106160034Y-49996052D01*
X110740034Y-46526052D02*
X110894034Y-47084052D01*
X112173034Y-52733052D02*
X111770034Y-52653052D01*
X114920034Y-52733052D02*
X112173034Y-52733052D01*
X105795034Y-46683052D02*
X105795034Y-45741052D01*
X110564034Y-50864052D02*
X110197034Y-50620052D01*
%TO.C,K4*%
X173059750Y-51796500D02*
X172122750Y-52733500D01*
X167942750Y-46526500D02*
X168096750Y-47084500D01*
X172122750Y-52733500D02*
X169375750Y-52733500D01*
X167766750Y-50864500D02*
X167399750Y-50620500D01*
X163360750Y-46683500D02*
X162997750Y-46683500D01*
X172122750Y-47941500D02*
X173143750Y-48962500D01*
X164161750Y-50533500D02*
X163834750Y-50468500D01*
X167667750Y-45970500D02*
X167860750Y-46228500D01*
X168097750Y-51891500D02*
X168097750Y-51669500D01*
X168096750Y-47084500D02*
X168434750Y-47537500D01*
X167860750Y-46228500D02*
X167942750Y-46526500D01*
X163834750Y-50468500D02*
X163551750Y-50279500D01*
X167399750Y-50620500D02*
X166961750Y-50533500D01*
X162997750Y-45741500D02*
X167083750Y-45741500D01*
X163362750Y-49996500D02*
X163277750Y-49569500D01*
X163551750Y-50279500D02*
X163362750Y-49996500D01*
X168434750Y-47537500D02*
X168913750Y-47836500D01*
X168010750Y-51231500D02*
X167766750Y-50864500D01*
X169475750Y-47941500D02*
X172122750Y-47941500D01*
X169375750Y-52733500D02*
X168972750Y-52653500D01*
X162997750Y-46683500D02*
X162997750Y-45741500D01*
X167393750Y-45800500D02*
X167667750Y-45970500D01*
X168097750Y-51669500D02*
X168010750Y-51231500D01*
X168972750Y-52653500D02*
X168630750Y-52424500D01*
X167083750Y-45741500D02*
X167393750Y-45800500D01*
X168630750Y-52424500D02*
X168097750Y-51891500D01*
X168913750Y-47836500D02*
X169475750Y-47941500D01*
X166961750Y-50533500D02*
X164161750Y-50533500D01*
%TO.C,K6*%
X207519500Y-47941500D02*
X210166500Y-47941500D01*
X205711500Y-45970500D02*
X205904500Y-46228500D01*
X205127500Y-45741500D02*
X205437500Y-45800500D01*
X205904500Y-46228500D02*
X205986500Y-46526500D01*
X206140500Y-47084500D02*
X206478500Y-47537500D01*
X206141500Y-51891500D02*
X206141500Y-51669500D01*
X206674500Y-52424500D02*
X206141500Y-51891500D01*
X206478500Y-47537500D02*
X206957500Y-47836500D01*
X205443500Y-50620500D02*
X205005500Y-50533500D01*
X205437500Y-45800500D02*
X205711500Y-45970500D01*
X205005500Y-50533500D02*
X202205500Y-50533500D01*
X201595500Y-50279500D02*
X201406500Y-49996500D01*
X205810500Y-50864500D02*
X205443500Y-50620500D01*
X201878500Y-50468500D02*
X201595500Y-50279500D01*
X201406500Y-49996500D02*
X201321500Y-49569500D01*
X210166500Y-47941500D02*
X211187500Y-48962500D01*
X207016500Y-52653500D02*
X206674500Y-52424500D01*
X202205500Y-50533500D02*
X201878500Y-50468500D01*
X201041500Y-45741500D02*
X205127500Y-45741500D01*
X206054500Y-51231500D02*
X205810500Y-50864500D01*
X206957500Y-47836500D02*
X207519500Y-47941500D01*
X207419500Y-52733500D02*
X207016500Y-52653500D01*
X205986500Y-46526500D02*
X206140500Y-47084500D01*
X201041500Y-46683500D02*
X201041500Y-45741500D01*
X206141500Y-51669500D02*
X206054500Y-51231500D01*
X210166500Y-52733500D02*
X207419500Y-52733500D01*
X201404500Y-46683500D02*
X201041500Y-46683500D01*
X211103500Y-51796500D02*
X210166500Y-52733500D01*
%TO.C,K21*%
X111229324Y-85636455D02*
X111708324Y-85935455D01*
X111708324Y-85935455D02*
X112270324Y-86040455D01*
X114917324Y-90832455D02*
X112170324Y-90832455D01*
X111767324Y-90752455D02*
X111425324Y-90523455D01*
X112170324Y-90832455D02*
X111767324Y-90752455D01*
X115854324Y-89895455D02*
X114917324Y-90832455D01*
X105792324Y-84782455D02*
X105792324Y-83840455D01*
X110655324Y-84327455D02*
X110737324Y-84625455D01*
X111425324Y-90523455D02*
X110892324Y-89990455D01*
X106629324Y-88567455D02*
X106346324Y-88378455D01*
X110561324Y-88963455D02*
X110194324Y-88719455D01*
X110805324Y-89330455D02*
X110561324Y-88963455D01*
X106155324Y-84782455D02*
X105792324Y-84782455D01*
X106956324Y-88632455D02*
X106629324Y-88567455D01*
X110737324Y-84625455D02*
X110891324Y-85183455D01*
X110194324Y-88719455D02*
X109756324Y-88632455D01*
X110462324Y-84069455D02*
X110655324Y-84327455D01*
X110892324Y-89768455D02*
X110805324Y-89330455D01*
X106157324Y-88095455D02*
X106072324Y-87668455D01*
X109878324Y-83840455D02*
X110188324Y-83899455D01*
X105792324Y-83840455D02*
X109878324Y-83840455D01*
X110892324Y-89990455D02*
X110892324Y-89768455D01*
X114917324Y-86040455D02*
X115938324Y-87061455D01*
X106346324Y-88378455D02*
X106157324Y-88095455D01*
X112270324Y-86040455D02*
X114917324Y-86040455D01*
X110891324Y-85183455D02*
X111229324Y-85636455D01*
X109756324Y-88632455D02*
X106956324Y-88632455D01*
X110188324Y-83899455D02*
X110462324Y-84069455D01*
%TO.C,K24*%
X168913750Y-85936500D02*
X169475750Y-86041500D01*
X168630750Y-90524500D02*
X168097750Y-89991500D01*
X168097750Y-89769500D02*
X168010750Y-89331500D01*
X168434750Y-85637500D02*
X168913750Y-85936500D01*
X163551750Y-88379500D02*
X163362750Y-88096500D01*
X163834750Y-88568500D02*
X163551750Y-88379500D01*
X167766750Y-88964500D02*
X167399750Y-88720500D01*
X162997750Y-83841500D02*
X167083750Y-83841500D01*
X168972750Y-90753500D02*
X168630750Y-90524500D01*
X167860750Y-84328500D02*
X167942750Y-84626500D01*
X167393750Y-83900500D02*
X167667750Y-84070500D01*
X167083750Y-83841500D02*
X167393750Y-83900500D01*
X173059750Y-89896500D02*
X172122750Y-90833500D01*
X166961750Y-88633500D02*
X164161750Y-88633500D01*
X172122750Y-86041500D02*
X173143750Y-87062500D01*
X163362750Y-88096500D02*
X163277750Y-87669500D01*
X168010750Y-89331500D02*
X167766750Y-88964500D01*
X163360750Y-84783500D02*
X162997750Y-84783500D01*
X167399750Y-88720500D02*
X166961750Y-88633500D01*
X167942750Y-84626500D02*
X168096750Y-85184500D01*
X168096750Y-85184500D02*
X168434750Y-85637500D01*
X162997750Y-84783500D02*
X162997750Y-83841500D01*
X169375750Y-90833500D02*
X168972750Y-90753500D01*
X172122750Y-90833500D02*
X169375750Y-90833500D01*
X168097750Y-89991500D02*
X168097750Y-89769500D01*
X167667750Y-84070500D02*
X167860750Y-84328500D01*
X164161750Y-88633500D02*
X163834750Y-88568500D01*
X169475750Y-86041500D02*
X172122750Y-86041500D01*
%TO.C,K16*%
X205986500Y-65576500D02*
X206140500Y-66134500D01*
X201406500Y-69046500D02*
X201321500Y-68619500D01*
X201595500Y-69329500D02*
X201406500Y-69046500D01*
X211103500Y-70846500D02*
X210166500Y-71783500D01*
X206141500Y-70941500D02*
X206141500Y-70719500D01*
X201041500Y-65733500D02*
X201041500Y-64791500D01*
X205443500Y-69670500D02*
X205005500Y-69583500D01*
X201041500Y-64791500D02*
X205127500Y-64791500D01*
X210166500Y-71783500D02*
X207419500Y-71783500D01*
X205810500Y-69914500D02*
X205443500Y-69670500D01*
X206054500Y-70281500D02*
X205810500Y-69914500D01*
X207519500Y-66991500D02*
X210166500Y-66991500D01*
X201878500Y-69518500D02*
X201595500Y-69329500D01*
X206140500Y-66134500D02*
X206478500Y-66587500D01*
X207419500Y-71783500D02*
X207016500Y-71703500D01*
X202205500Y-69583500D02*
X201878500Y-69518500D01*
X205437500Y-64850500D02*
X205711500Y-65020500D01*
X205127500Y-64791500D02*
X205437500Y-64850500D01*
X205711500Y-65020500D02*
X205904500Y-65278500D01*
X206957500Y-66886500D02*
X207519500Y-66991500D01*
X205005500Y-69583500D02*
X202205500Y-69583500D01*
X206141500Y-70719500D02*
X206054500Y-70281500D01*
X207016500Y-71703500D02*
X206674500Y-71474500D01*
X206478500Y-66587500D02*
X206957500Y-66886500D01*
X210166500Y-66991500D02*
X211187500Y-68012500D01*
X201404500Y-65733500D02*
X201041500Y-65733500D01*
X205904500Y-65278500D02*
X205986500Y-65576500D01*
X206674500Y-71474500D02*
X206141500Y-70941500D01*
%TO.C,K11*%
X109880053Y-64792204D02*
X110190053Y-64851204D01*
X110894053Y-70942204D02*
X110894053Y-70720204D01*
X110894053Y-70720204D02*
X110807053Y-70282204D01*
X114919053Y-71784204D02*
X112172053Y-71784204D01*
X112172053Y-71784204D02*
X111769053Y-71704204D01*
X106159053Y-69047204D02*
X106074053Y-68620204D01*
X112272053Y-66992204D02*
X114919053Y-66992204D01*
X111769053Y-71704204D02*
X111427053Y-71475204D01*
X105794053Y-64792204D02*
X109880053Y-64792204D01*
X111231053Y-66588204D02*
X111710053Y-66887204D01*
X114919053Y-66992204D02*
X115940053Y-68013204D01*
X110657053Y-65279204D02*
X110739053Y-65577204D01*
X109758053Y-69584204D02*
X106958053Y-69584204D01*
X110893053Y-66135204D02*
X111231053Y-66588204D01*
X110563053Y-69915204D02*
X110196053Y-69671204D01*
X110739053Y-65577204D02*
X110893053Y-66135204D01*
X110464053Y-65021204D02*
X110657053Y-65279204D01*
X110807053Y-70282204D02*
X110563053Y-69915204D01*
X106958053Y-69584204D02*
X106631053Y-69519204D01*
X110196053Y-69671204D02*
X109758053Y-69584204D01*
X106157053Y-65734204D02*
X105794053Y-65734204D01*
X106348053Y-69330204D02*
X106159053Y-69047204D01*
X111427053Y-71475204D02*
X110894053Y-70942204D01*
X106631053Y-69519204D02*
X106348053Y-69330204D01*
X110190053Y-64851204D02*
X110464053Y-65021204D01*
X111710053Y-66887204D02*
X112272053Y-66992204D01*
X115856053Y-70847204D02*
X114919053Y-71784204D01*
X105794053Y-65734204D02*
X105794053Y-64792204D01*
%TO.C,K30*%
X91510500Y-108014500D02*
X91143500Y-107770500D01*
X92178500Y-104687500D02*
X92657500Y-104986500D01*
X86741500Y-102891500D02*
X90827500Y-102891500D01*
X92657500Y-104986500D02*
X93219500Y-105091500D01*
X91604500Y-103378500D02*
X91686500Y-103676500D01*
X91841500Y-109041500D02*
X91841500Y-108819500D01*
X91754500Y-108381500D02*
X91510500Y-108014500D01*
X87106500Y-107146500D02*
X87021500Y-106719500D01*
X95866500Y-109883500D02*
X93119500Y-109883500D01*
X91686500Y-103676500D02*
X91840500Y-104234500D01*
X96803500Y-108946500D02*
X95866500Y-109883500D01*
X87104500Y-103833500D02*
X86741500Y-103833500D01*
X87905500Y-107683500D02*
X87578500Y-107618500D01*
X91840500Y-104234500D02*
X92178500Y-104687500D01*
X91143500Y-107770500D02*
X90705500Y-107683500D01*
X90705500Y-107683500D02*
X87905500Y-107683500D01*
X92716500Y-109803500D02*
X92374500Y-109574500D01*
X91411500Y-103120500D02*
X91604500Y-103378500D01*
X91841500Y-108819500D02*
X91754500Y-108381500D01*
X90827500Y-102891500D02*
X91137500Y-102950500D01*
X91137500Y-102950500D02*
X91411500Y-103120500D01*
X92374500Y-109574500D02*
X91841500Y-109041500D01*
X93219500Y-105091500D02*
X95866500Y-105091500D01*
X86741500Y-103833500D02*
X86741500Y-102891500D01*
X95866500Y-105091500D02*
X96887500Y-106112500D01*
X87295500Y-107429500D02*
X87106500Y-107146500D01*
X93119500Y-109883500D02*
X92716500Y-109803500D01*
X87578500Y-107618500D02*
X87295500Y-107429500D01*
%TO.C,K42*%
X129512819Y-122171881D02*
X129705819Y-122429881D01*
X126006819Y-126734881D02*
X125679819Y-126669881D01*
X125396819Y-126480881D02*
X125207819Y-126197881D01*
X129705819Y-122429881D02*
X129787819Y-122727881D01*
X124842819Y-121942881D02*
X128928819Y-121942881D01*
X129611819Y-127065881D02*
X129244819Y-126821881D01*
X130475819Y-128625881D02*
X129942819Y-128092881D01*
X125207819Y-126197881D02*
X125122819Y-125770881D01*
X129787819Y-122727881D02*
X129941819Y-123285881D01*
X134904819Y-127997881D02*
X133967819Y-128934881D01*
X128928819Y-121942881D02*
X129238819Y-122001881D01*
X133967819Y-128934881D02*
X131220819Y-128934881D01*
X133967819Y-124142881D02*
X134988819Y-125163881D01*
X129244819Y-126821881D02*
X128806819Y-126734881D01*
X130279819Y-123738881D02*
X130758819Y-124037881D01*
X129238819Y-122001881D02*
X129512819Y-122171881D01*
X125205819Y-122884881D02*
X124842819Y-122884881D01*
X130817819Y-128854881D02*
X130475819Y-128625881D01*
X131320819Y-124142881D02*
X133967819Y-124142881D01*
X125679819Y-126669881D02*
X125396819Y-126480881D01*
X128806819Y-126734881D02*
X126006819Y-126734881D01*
X131220819Y-128934881D02*
X130817819Y-128854881D01*
X129941819Y-123285881D02*
X130279819Y-123738881D01*
X129942819Y-128092881D02*
X129942819Y-127870881D01*
X129855819Y-127432881D02*
X129611819Y-127065881D01*
X124842819Y-122884881D02*
X124842819Y-121942881D01*
X129942819Y-127870881D02*
X129855819Y-127432881D01*
X130758819Y-124037881D02*
X131320819Y-124142881D01*
%TO.C,K45*%
X186077500Y-121941500D02*
X186387500Y-122000500D01*
X186936500Y-122726500D02*
X187090500Y-123284500D01*
X186393500Y-126820500D02*
X185955500Y-126733500D01*
X187966500Y-128853500D02*
X187624500Y-128624500D01*
X187907500Y-124036500D02*
X188469500Y-124141500D01*
X187428500Y-123737500D02*
X187907500Y-124036500D01*
X182545500Y-126479500D02*
X182356500Y-126196500D01*
X191116500Y-128933500D02*
X188369500Y-128933500D01*
X191116500Y-124141500D02*
X192137500Y-125162500D01*
X185955500Y-126733500D02*
X183155500Y-126733500D01*
X186661500Y-122170500D02*
X186854500Y-122428500D01*
X181991500Y-122883500D02*
X181991500Y-121941500D01*
X188369500Y-128933500D02*
X187966500Y-128853500D01*
X187090500Y-123284500D02*
X187428500Y-123737500D01*
X182356500Y-126196500D02*
X182271500Y-125769500D01*
X187091500Y-127869500D02*
X187004500Y-127431500D01*
X187004500Y-127431500D02*
X186760500Y-127064500D01*
X183155500Y-126733500D02*
X182828500Y-126668500D01*
X186854500Y-122428500D02*
X186936500Y-122726500D01*
X187091500Y-128091500D02*
X187091500Y-127869500D01*
X186760500Y-127064500D02*
X186393500Y-126820500D01*
X181991500Y-121941500D02*
X186077500Y-121941500D01*
X186387500Y-122000500D02*
X186661500Y-122170500D01*
X187624500Y-128624500D02*
X187091500Y-128091500D01*
X182828500Y-126668500D02*
X182545500Y-126479500D01*
X182354500Y-122883500D02*
X181991500Y-122883500D01*
X188469500Y-124141500D02*
X191116500Y-124141500D01*
X192053500Y-127996500D02*
X191116500Y-128933500D01*
%TO.C,K33*%
X150369500Y-105091500D02*
X153016500Y-105091500D01*
X153953500Y-108946500D02*
X153016500Y-109883500D01*
X144256500Y-107146500D02*
X144171500Y-106719500D01*
X147855500Y-107683500D02*
X145055500Y-107683500D01*
X143891500Y-102891500D02*
X147977500Y-102891500D01*
X148293500Y-107770500D02*
X147855500Y-107683500D01*
X148754500Y-103378500D02*
X148836500Y-103676500D01*
X144728500Y-107618500D02*
X144445500Y-107429500D01*
X147977500Y-102891500D02*
X148287500Y-102950500D01*
X144445500Y-107429500D02*
X144256500Y-107146500D01*
X150269500Y-109883500D02*
X149866500Y-109803500D01*
X148660500Y-108014500D02*
X148293500Y-107770500D01*
X149524500Y-109574500D02*
X148991500Y-109041500D01*
X148990500Y-104234500D02*
X149328500Y-104687500D01*
X144254500Y-103833500D02*
X143891500Y-103833500D01*
X148836500Y-103676500D02*
X148990500Y-104234500D01*
X153016500Y-105091500D02*
X154037500Y-106112500D01*
X148991500Y-108819500D02*
X148904500Y-108381500D01*
X149807500Y-104986500D02*
X150369500Y-105091500D01*
X148561500Y-103120500D02*
X148754500Y-103378500D01*
X153016500Y-109883500D02*
X150269500Y-109883500D01*
X148287500Y-102950500D02*
X148561500Y-103120500D01*
X148904500Y-108381500D02*
X148660500Y-108014500D01*
X145055500Y-107683500D02*
X144728500Y-107618500D01*
X149866500Y-109803500D02*
X149524500Y-109574500D01*
X149328500Y-104687500D02*
X149807500Y-104986500D01*
X148991500Y-109041500D02*
X148991500Y-108819500D01*
X143891500Y-103833500D02*
X143891500Y-102891500D01*
%TO.C,K3*%
X148990500Y-47084500D02*
X149328500Y-47537500D01*
X148293500Y-50620500D02*
X147855500Y-50533500D01*
X144254500Y-46683500D02*
X143891500Y-46683500D01*
X148991500Y-51669500D02*
X148904500Y-51231500D01*
X144256500Y-49996500D02*
X144171500Y-49569500D01*
X148991500Y-51891500D02*
X148991500Y-51669500D01*
X143891500Y-45741500D02*
X147977500Y-45741500D01*
X148904500Y-51231500D02*
X148660500Y-50864500D01*
X153016500Y-52733500D02*
X150269500Y-52733500D01*
X147855500Y-50533500D02*
X145055500Y-50533500D01*
X148287500Y-45800500D02*
X148561500Y-45970500D01*
X153016500Y-47941500D02*
X154037500Y-48962500D01*
X150269500Y-52733500D02*
X149866500Y-52653500D01*
X149807500Y-47836500D02*
X150369500Y-47941500D01*
X153953500Y-51796500D02*
X153016500Y-52733500D01*
X143891500Y-46683500D02*
X143891500Y-45741500D01*
X149328500Y-47537500D02*
X149807500Y-47836500D01*
X150369500Y-47941500D02*
X153016500Y-47941500D01*
X149524500Y-52424500D02*
X148991500Y-51891500D01*
X148561500Y-45970500D02*
X148754500Y-46228500D01*
X144728500Y-50468500D02*
X144445500Y-50279500D01*
X148754500Y-46228500D02*
X148836500Y-46526500D01*
X148836500Y-46526500D02*
X148990500Y-47084500D01*
X149866500Y-52653500D02*
X149524500Y-52424500D01*
X148660500Y-50864500D02*
X148293500Y-50620500D01*
X144445500Y-50279500D02*
X144256500Y-49996500D01*
X145055500Y-50533500D02*
X144728500Y-50468500D01*
X147977500Y-45741500D02*
X148287500Y-45800500D01*
%TO.C,K10*%
X87580940Y-69518500D02*
X87297940Y-69329500D01*
X92659940Y-66886500D02*
X93221940Y-66991500D01*
X92180940Y-66587500D02*
X92659940Y-66886500D01*
X91842940Y-66134500D02*
X92180940Y-66587500D01*
X95868940Y-71783500D02*
X93121940Y-71783500D01*
X92718940Y-71703500D02*
X92376940Y-71474500D01*
X91139940Y-64850500D02*
X91413940Y-65020500D01*
X91145940Y-69670500D02*
X90707940Y-69583500D01*
X87907940Y-69583500D02*
X87580940Y-69518500D01*
X91512940Y-69914500D02*
X91145940Y-69670500D01*
X86743940Y-64791500D02*
X90829940Y-64791500D01*
X93221940Y-66991500D02*
X95868940Y-66991500D01*
X87106940Y-65733500D02*
X86743940Y-65733500D01*
X91606940Y-65278500D02*
X91688940Y-65576500D01*
X90829940Y-64791500D02*
X91139940Y-64850500D01*
X86743940Y-65733500D02*
X86743940Y-64791500D01*
X91843940Y-70941500D02*
X91843940Y-70719500D01*
X90707940Y-69583500D02*
X87907940Y-69583500D01*
X91688940Y-65576500D02*
X91842940Y-66134500D01*
X91413940Y-65020500D02*
X91606940Y-65278500D01*
X91756940Y-70281500D02*
X91512940Y-69914500D01*
X93121940Y-71783500D02*
X92718940Y-71703500D01*
X92376940Y-71474500D02*
X91843940Y-70941500D01*
X95868940Y-66991500D02*
X96889940Y-68012500D01*
X91843940Y-70719500D02*
X91756940Y-70281500D01*
X96805940Y-70846500D02*
X95868940Y-71783500D01*
X87108940Y-69046500D02*
X87023940Y-68619500D01*
X87297940Y-69329500D02*
X87108940Y-69046500D01*
%TO.C,K31*%
X110187500Y-102949709D02*
X110461500Y-103119709D01*
X114916500Y-105090709D02*
X115937500Y-106111709D01*
X109755500Y-107682709D02*
X106955500Y-107682709D01*
X110890500Y-104233709D02*
X111228500Y-104686709D01*
X111707500Y-104985709D02*
X112269500Y-105090709D01*
X115853500Y-108945709D02*
X114916500Y-109882709D01*
X106628500Y-107617709D02*
X106345500Y-107428709D01*
X110654500Y-103377709D02*
X110736500Y-103675709D01*
X111424500Y-109573709D02*
X110891500Y-109040709D01*
X106955500Y-107682709D02*
X106628500Y-107617709D01*
X110461500Y-103119709D02*
X110654500Y-103377709D01*
X106345500Y-107428709D02*
X106156500Y-107145709D01*
X114916500Y-109882709D02*
X112169500Y-109882709D01*
X111228500Y-104686709D02*
X111707500Y-104985709D01*
X111766500Y-109802709D02*
X111424500Y-109573709D01*
X110891500Y-109040709D02*
X110891500Y-108818709D01*
X110804500Y-108380709D02*
X110560500Y-108013709D01*
X106154500Y-103832709D02*
X105791500Y-103832709D01*
X110736500Y-103675709D02*
X110890500Y-104233709D01*
X110891500Y-108818709D02*
X110804500Y-108380709D01*
X110560500Y-108013709D02*
X110193500Y-107769709D01*
X105791500Y-102890709D02*
X109877500Y-102890709D01*
X110193500Y-107769709D02*
X109755500Y-107682709D01*
X112169500Y-109882709D02*
X111766500Y-109802709D01*
X112269500Y-105090709D02*
X114916500Y-105090709D01*
X106156500Y-107145709D02*
X106071500Y-106718709D01*
X109877500Y-102890709D02*
X110187500Y-102949709D01*
X105791500Y-103832709D02*
X105791500Y-102890709D01*
%TO.C,K25*%
X182828500Y-88568500D02*
X182545500Y-88379500D01*
X187966500Y-90753500D02*
X187624500Y-90524500D01*
X182354500Y-84783500D02*
X181991500Y-84783500D01*
X186661500Y-84070500D02*
X186854500Y-84328500D01*
X187091500Y-89991500D02*
X187091500Y-89769500D01*
X186393500Y-88720500D02*
X185955500Y-88633500D01*
X192053500Y-89896500D02*
X191116500Y-90833500D01*
X187428500Y-85637500D02*
X187907500Y-85936500D01*
X186854500Y-84328500D02*
X186936500Y-84626500D01*
X187624500Y-90524500D02*
X187091500Y-89991500D01*
X187091500Y-89769500D02*
X187004500Y-89331500D01*
X186077500Y-83841500D02*
X186387500Y-83900500D01*
X191116500Y-90833500D02*
X188369500Y-90833500D01*
X187090500Y-85184500D02*
X187428500Y-85637500D01*
X182356500Y-88096500D02*
X182271500Y-87669500D01*
X181991500Y-84783500D02*
X181991500Y-83841500D01*
X191116500Y-86041500D02*
X192137500Y-87062500D01*
X186936500Y-84626500D02*
X187090500Y-85184500D01*
X182545500Y-88379500D02*
X182356500Y-88096500D01*
X188369500Y-90833500D02*
X187966500Y-90753500D01*
X187907500Y-85936500D02*
X188469500Y-86041500D01*
X185955500Y-88633500D02*
X183155500Y-88633500D01*
X183155500Y-88633500D02*
X182828500Y-88568500D01*
X186387500Y-83900500D02*
X186661500Y-84070500D01*
X187004500Y-89331500D02*
X186760500Y-88964500D01*
X181991500Y-83841500D02*
X186077500Y-83841500D01*
X186760500Y-88964500D02*
X186393500Y-88720500D01*
X188469500Y-86041500D02*
X191116500Y-86041500D01*
%TD*%
%LPC*%
D12*
%TO.C,U1*%
X65850000Y-64150000D03*
X66650000Y-64150000D03*
X67450000Y-64150000D03*
X68250000Y-64150000D03*
X69050000Y-64150000D03*
X69850000Y-64150000D03*
X70650000Y-64150000D03*
X71450000Y-64150000D03*
X72250000Y-64150000D03*
X73050000Y-64150000D03*
X73850000Y-64150000D03*
D13*
X75550000Y-65850000D03*
X75550000Y-66650000D03*
X75550000Y-67450000D03*
X75550000Y-68250000D03*
X75550000Y-69050000D03*
X75550000Y-69850000D03*
X75550000Y-70650000D03*
X75550000Y-71450000D03*
X75550000Y-72250000D03*
X75550000Y-73050000D03*
X75550000Y-73850000D03*
D12*
X73850000Y-75550000D03*
X73050000Y-75550000D03*
X72250000Y-75550000D03*
X71450000Y-75550000D03*
X70650000Y-75550000D03*
X69850000Y-75550000D03*
X69050000Y-75550000D03*
X68250000Y-75550000D03*
X67450000Y-75550000D03*
X66650000Y-75550000D03*
X65850000Y-75550000D03*
D13*
X64150000Y-73850000D03*
X64150000Y-73050000D03*
X64150000Y-72250000D03*
X64150000Y-71450000D03*
X64150000Y-70650000D03*
X64150000Y-69850000D03*
X64150000Y-69050000D03*
X64150000Y-68250000D03*
X64150000Y-67450000D03*
X64150000Y-66650000D03*
X64150000Y-65850000D03*
%TD*%
D14*
%TO.C,LED4*%
X154262500Y-40437500D03*
X154262500Y-38937500D03*
X148812500Y-40437500D03*
D15*
X148812500Y-38937500D03*
%TD*%
D16*
%TO.C,D22*%
X139700000Y-92137500D03*
X139700000Y-88837500D03*
%TD*%
D14*
%TO.C,LED19*%
X173368750Y-78537500D03*
X173368750Y-77037500D03*
X167918750Y-78537500D03*
D15*
X167918750Y-77037500D03*
%TD*%
D16*
%TO.C,D16*%
X215900000Y-73087500D03*
X215900000Y-69787500D03*
%TD*%
D14*
%TO.C,LED18*%
X154262500Y-78537500D03*
X154262500Y-77037500D03*
X148812500Y-78537500D03*
D15*
X148812500Y-77037500D03*
%TD*%
D14*
%TO.C,LED34*%
X192362500Y-116637500D03*
X192362500Y-115137500D03*
X186912500Y-116637500D03*
D15*
X186912500Y-115137500D03*
%TD*%
D14*
%TO.C,LED7*%
X211412500Y-40437500D03*
X211412500Y-38937500D03*
X205962500Y-40437500D03*
D15*
X205962500Y-38937500D03*
%TD*%
D16*
%TO.C,D20*%
X101600000Y-92137500D03*
X101600000Y-88837500D03*
%TD*%
D17*
%TO.C,C8*%
X63500000Y-59775000D03*
X63500000Y-57700000D03*
%TD*%
D16*
%TO.C,D40*%
X101600000Y-130237500D03*
X101600000Y-126937500D03*
%TD*%
%TO.C,D2*%
X139700000Y-54037500D03*
X139700000Y-50737500D03*
%TD*%
D14*
%TO.C,LED20*%
X192362500Y-78537500D03*
X192362500Y-77037500D03*
X186912500Y-78537500D03*
D15*
X186912500Y-77037500D03*
%TD*%
D16*
%TO.C,D13*%
X158750000Y-73087500D03*
X158750000Y-69787500D03*
%TD*%
D18*
%TO.C,R7*%
X79375000Y-50212500D03*
X79375000Y-48212500D03*
%TD*%
D19*
%TO.C,F1*%
X63500000Y-50900000D03*
X63500000Y-53875000D03*
%TD*%
D20*
%TO.C,USB1*%
X66960000Y-38971250D03*
X72740000Y-38971250D03*
D21*
X66625000Y-40916250D03*
X67400000Y-40916250D03*
D22*
X68100000Y-40916250D03*
X68600000Y-40916250D03*
X69100000Y-40916250D03*
X69600000Y-40916250D03*
X70100000Y-40916250D03*
X70600000Y-40916250D03*
X71100000Y-40916250D03*
X71600000Y-40916250D03*
D21*
X72300000Y-40916250D03*
X73075000Y-40916250D03*
%TD*%
D16*
%TO.C,D23*%
X158750000Y-92137500D03*
X158750000Y-88837500D03*
%TD*%
%TO.C,D10*%
X101600000Y-73087500D03*
X101600000Y-69787500D03*
%TD*%
%TO.C,D35*%
X196850000Y-111187500D03*
X196850000Y-107887500D03*
%TD*%
D14*
%TO.C,LED11*%
X154262500Y-59487500D03*
X154262500Y-57987500D03*
X148812500Y-59487500D03*
D15*
X148812500Y-57987500D03*
%TD*%
D23*
%TO.C,R5*%
X69056250Y-57737500D03*
X69056250Y-59737500D03*
%TD*%
D16*
%TO.C,D31*%
X120650000Y-111187500D03*
X120650000Y-107887500D03*
%TD*%
%TO.C,D3*%
X158750000Y-54037500D03*
X158750000Y-50737500D03*
%TD*%
%TO.C,D15*%
X196850000Y-73087500D03*
X196850000Y-69787500D03*
%TD*%
%TO.C,D34*%
X177800000Y-111187500D03*
X177800000Y-107887500D03*
%TD*%
D14*
%TO.C,LED35*%
X211412500Y-116637500D03*
X211412500Y-115137500D03*
X205962500Y-116637500D03*
D15*
X205962500Y-115137500D03*
%TD*%
D16*
%TO.C,D46*%
X215900000Y-130237500D03*
X215900000Y-126937500D03*
%TD*%
D24*
%TO.C,C3*%
X73818750Y-57700000D03*
X73818750Y-59775000D03*
%TD*%
D16*
%TO.C,D36*%
X215900000Y-111187500D03*
X215900000Y-107887500D03*
%TD*%
D25*
%TO.C,C4*%
X73575000Y-79375000D03*
X75650000Y-79375000D03*
%TD*%
D17*
%TO.C,C5*%
X59531250Y-74856250D03*
X59531250Y-72781250D03*
%TD*%
D24*
%TO.C,C6*%
X79375000Y-67225000D03*
X79375000Y-69300000D03*
%TD*%
D14*
%TO.C,LED5*%
X173368750Y-40437500D03*
X173368750Y-38937500D03*
X167918750Y-40437500D03*
D15*
X167918750Y-38937500D03*
%TD*%
D14*
%TO.C,LED24*%
X135212500Y-97587500D03*
X135212500Y-96087500D03*
X129762500Y-97587500D03*
D15*
X129762500Y-96087500D03*
%TD*%
D14*
%TO.C,LED13*%
X192362500Y-59487500D03*
X192362500Y-57987500D03*
X186912500Y-59487500D03*
D15*
X186912500Y-57987500D03*
%TD*%
D16*
%TO.C,D6*%
X215900000Y-54037500D03*
X215900000Y-50737500D03*
%TD*%
D14*
%TO.C,LED8*%
X97112500Y-59487500D03*
X97112500Y-57987500D03*
X91662500Y-59487500D03*
D15*
X91662500Y-57987500D03*
%TD*%
D14*
%TO.C,LED25*%
X154262500Y-97587500D03*
X154262500Y-96087500D03*
X148812500Y-97587500D03*
D15*
X148812500Y-96087500D03*
%TD*%
D16*
%TO.C,D1*%
X120650000Y-54037500D03*
X120650000Y-50737500D03*
%TD*%
%TO.C,D43*%
X158750000Y-130237500D03*
X158750000Y-126937500D03*
%TD*%
D14*
%TO.C,LED17*%
X135212500Y-78537500D03*
X135212500Y-77037500D03*
X129762500Y-78537500D03*
D15*
X129762500Y-77037500D03*
%TD*%
D26*
%TO.C,R1*%
X72818750Y-45421250D03*
X74818750Y-45421250D03*
%TD*%
D16*
%TO.C,D4*%
X177800000Y-54037500D03*
X177800000Y-50737500D03*
%TD*%
%TO.C,D21*%
X120650000Y-92137500D03*
X120650000Y-88837500D03*
%TD*%
D14*
%TO.C,LED30*%
X116162500Y-116637500D03*
X116162500Y-115137500D03*
X110712500Y-116637500D03*
D15*
X110712500Y-115137500D03*
%TD*%
D17*
%TO.C,C1*%
X76200000Y-93906250D03*
X76200000Y-91831250D03*
%TD*%
D16*
%TO.C,D42*%
X139700000Y-130237500D03*
X139700000Y-126937500D03*
%TD*%
D14*
%TO.C,LED27*%
X192362500Y-97587500D03*
X192362500Y-96087500D03*
X186912500Y-97587500D03*
D15*
X186912500Y-96087500D03*
%TD*%
D14*
%TO.C,LED1*%
X97112500Y-40437500D03*
X97112500Y-38937500D03*
X91662500Y-40437500D03*
D15*
X91662500Y-38937500D03*
%TD*%
D16*
%TO.C,D24*%
X177800000Y-92137500D03*
X177800000Y-88837500D03*
%TD*%
%TO.C,D45*%
X196850000Y-130237500D03*
X196850000Y-126937500D03*
%TD*%
%TO.C,D30*%
X101600000Y-111187500D03*
X101600000Y-107887500D03*
%TD*%
%TO.C,D14*%
X177800000Y-73087500D03*
X177800000Y-69787500D03*
%TD*%
D14*
%TO.C,LED14*%
X211412500Y-59487500D03*
X211412500Y-57987500D03*
X205962500Y-59487500D03*
D15*
X205962500Y-57987500D03*
%TD*%
D14*
%TO.C,LED28*%
X211412500Y-97587500D03*
X211412500Y-96087500D03*
X205962500Y-97587500D03*
D15*
X205962500Y-96087500D03*
%TD*%
D14*
%TO.C,LED15*%
X97112500Y-78537500D03*
X97112500Y-77037500D03*
X91662500Y-78537500D03*
D15*
X91662500Y-77037500D03*
%TD*%
D16*
%TO.C,D32*%
X139700000Y-111187500D03*
X139700000Y-107887500D03*
%TD*%
D14*
%TO.C,LED32*%
X154262500Y-116637500D03*
X154262500Y-115137500D03*
X148812500Y-116637500D03*
D15*
X148812500Y-115137500D03*
%TD*%
D16*
%TO.C,D33*%
X158750000Y-111187500D03*
X158750000Y-107887500D03*
%TD*%
D14*
%TO.C,LED21*%
X211412500Y-78537500D03*
X211412500Y-77037500D03*
X205962500Y-78537500D03*
D15*
X205962500Y-77037500D03*
%TD*%
D14*
%TO.C,LED6*%
X192362500Y-40437500D03*
X192362500Y-38937500D03*
X186912500Y-40437500D03*
D15*
X186912500Y-38937500D03*
%TD*%
D16*
%TO.C,D12*%
X139700000Y-73087500D03*
X139700000Y-69787500D03*
%TD*%
D14*
%TO.C,LED23*%
X116162500Y-97587500D03*
X116162500Y-96087500D03*
X110712500Y-97587500D03*
D15*
X110712500Y-96087500D03*
%TD*%
D14*
%TO.C,LED29*%
X97112500Y-116637500D03*
X97112500Y-115137500D03*
X91662500Y-116637500D03*
D15*
X91662500Y-115137500D03*
%TD*%
D16*
%TO.C,D11*%
X120650000Y-73087500D03*
X120650000Y-69787500D03*
%TD*%
D27*
%TO.C,R2*%
X66881250Y-45421250D03*
X64881250Y-45421250D03*
%TD*%
D14*
%TO.C,LED16*%
X116162500Y-78537500D03*
X116162500Y-77037500D03*
X110712500Y-78537500D03*
D15*
X110712500Y-77037500D03*
%TD*%
D14*
%TO.C,LED3*%
X135212500Y-40437500D03*
X135212500Y-38937500D03*
X129762500Y-40437500D03*
D15*
X129762500Y-38937500D03*
%TD*%
D16*
%TO.C,D0*%
X101600000Y-54037500D03*
X101600000Y-50737500D03*
%TD*%
D14*
%TO.C,LED22*%
X97112500Y-97587500D03*
X97112500Y-96087500D03*
X91662500Y-97587500D03*
D15*
X91662500Y-96087500D03*
%TD*%
D14*
%TO.C,LED26*%
X173368750Y-97587500D03*
X173368750Y-96087500D03*
X167918750Y-97587500D03*
D15*
X167918750Y-96087500D03*
%TD*%
D16*
%TO.C,D26*%
X215900000Y-92137500D03*
X215900000Y-88837500D03*
%TD*%
D14*
%TO.C,LED33*%
X173368750Y-116637500D03*
X173368750Y-115137500D03*
X167918750Y-116637500D03*
D15*
X167918750Y-115137500D03*
%TD*%
D23*
%TO.C,R4*%
X66675000Y-57737500D03*
X66675000Y-59737500D03*
%TD*%
D24*
%TO.C,C7*%
X59531250Y-64843750D03*
X59531250Y-66918750D03*
%TD*%
D23*
%TO.C,R6*%
X60325000Y-88693750D03*
X60325000Y-90693750D03*
%TD*%
D14*
%TO.C,LED12*%
X173368750Y-59487500D03*
X173368750Y-57987500D03*
X167918750Y-59487500D03*
D15*
X167918750Y-57987500D03*
%TD*%
D14*
%TO.C,LED10*%
X135212500Y-59487500D03*
X135212500Y-57987500D03*
X129762500Y-59487500D03*
D15*
X129762500Y-57987500D03*
%TD*%
D28*
%TO.C,U2*%
X69262500Y-53225000D03*
D29*
X69262500Y-54925000D03*
X67262500Y-54925000D03*
X67262500Y-53025000D03*
%TD*%
D14*
%TO.C,LED31*%
X135212500Y-116637500D03*
X135212500Y-115137500D03*
X129762500Y-116637500D03*
D15*
X129762500Y-115137500D03*
%TD*%
D24*
%TO.C,C2*%
X67012500Y-91831250D03*
X67012500Y-93906250D03*
%TD*%
D16*
%TO.C,D25*%
X196850000Y-92137500D03*
X196850000Y-88837500D03*
%TD*%
D14*
%TO.C,LED2*%
X116162500Y-40437500D03*
X116162500Y-38937500D03*
X110712500Y-40437500D03*
D15*
X110712500Y-38937500D03*
%TD*%
D30*
%TO.C,Y1*%
X72587500Y-91418750D03*
X72587500Y-94318750D03*
X70287500Y-94318750D03*
X70287500Y-91418750D03*
%TD*%
D27*
%TO.C,R3*%
X61325000Y-78581250D03*
X59325000Y-78581250D03*
%TD*%
D16*
%TO.C,D5*%
X196850000Y-54037500D03*
X196850000Y-50737500D03*
%TD*%
%TO.C,D41*%
X120650000Y-130237500D03*
X120650000Y-126937500D03*
%TD*%
D14*
%TO.C,LED9*%
X116162500Y-59487500D03*
X116162500Y-57987500D03*
X110712500Y-59487500D03*
D15*
X110712500Y-57987500D03*
%TD*%
D16*
%TO.C,D44*%
X177800000Y-130237500D03*
X177800000Y-126937500D03*
%TD*%
D31*
%TO.C,K41*%
X113439804Y-126488407D03*
D32*
X118439804Y-115438407D03*
D33*
X113439804Y-120588407D03*
D34*
X107939804Y-120588407D03*
D31*
X108439804Y-124388407D03*
D34*
X118939804Y-120588407D03*
D35*
X116939804Y-126588407D03*
X104939804Y-124388407D03*
%TD*%
D34*
%TO.C,K20*%
X99889940Y-82487500D03*
D31*
X89389940Y-86287500D03*
D32*
X99389940Y-77337500D03*
D34*
X88889940Y-82487500D03*
D33*
X94389940Y-82487500D03*
D31*
X94389940Y-88387500D03*
D35*
X97889940Y-88487500D03*
X85889940Y-86287500D03*
%TD*%
D34*
%TO.C,K46*%
X203187500Y-120587500D03*
X214187500Y-120587500D03*
D31*
X208687500Y-126487500D03*
X203687500Y-124387500D03*
D33*
X208687500Y-120587500D03*
D32*
X213687500Y-115437500D03*
D35*
X212187500Y-126587500D03*
X200187500Y-124387500D03*
%TD*%
D34*
%TO.C,K36*%
X214187500Y-101537500D03*
D33*
X208687500Y-101537500D03*
D31*
X208687500Y-107437500D03*
D32*
X213687500Y-96387500D03*
D31*
X203687500Y-105337500D03*
D34*
X203187500Y-101537500D03*
D35*
X212187500Y-107537500D03*
X200187500Y-105337500D03*
%TD*%
D33*
%TO.C,K12*%
X132489336Y-63437625D03*
D31*
X127489336Y-67237625D03*
D34*
X126989336Y-63437625D03*
D32*
X137489336Y-58287625D03*
D34*
X137989336Y-63437625D03*
D31*
X132489336Y-69337625D03*
D35*
X135989336Y-69437625D03*
X123989336Y-67237625D03*
%TD*%
D34*
%TO.C,K22*%
X126987860Y-82487020D03*
D31*
X132487860Y-88387020D03*
D32*
X137487860Y-77337020D03*
D33*
X132487860Y-82487020D03*
D31*
X127487860Y-86287020D03*
D34*
X137987860Y-82487020D03*
D35*
X135987860Y-88487020D03*
X123987860Y-86287020D03*
%TD*%
D34*
%TO.C,K35*%
X195137500Y-101537500D03*
X184137500Y-101537500D03*
D33*
X189637500Y-101537500D03*
D32*
X194637500Y-96387500D03*
D31*
X184637500Y-105337500D03*
X189637500Y-107437500D03*
D35*
X193137500Y-107537500D03*
X181137500Y-105337500D03*
%TD*%
D33*
%TO.C,K23*%
X151537500Y-82487500D03*
D34*
X146037500Y-82487500D03*
D32*
X156537500Y-77337500D03*
D31*
X151537500Y-88387500D03*
D34*
X157037500Y-82487500D03*
D31*
X146537500Y-86287500D03*
D35*
X155037500Y-88487500D03*
X143037500Y-86287500D03*
%TD*%
D32*
%TO.C,K5*%
X194637500Y-39237500D03*
D34*
X184137500Y-44387500D03*
D33*
X189637500Y-44387500D03*
D34*
X195137500Y-44387500D03*
D31*
X184637500Y-48187500D03*
X189637500Y-50287500D03*
D35*
X193137500Y-50387500D03*
X181137500Y-48187500D03*
%TD*%
D33*
%TO.C,K40*%
X94388232Y-120587500D03*
D32*
X99388232Y-115437500D03*
D31*
X94388232Y-126487500D03*
D34*
X88888232Y-120587500D03*
X99888232Y-120587500D03*
D31*
X89388232Y-124387500D03*
D35*
X97888232Y-126587500D03*
X85888232Y-124387500D03*
%TD*%
D34*
%TO.C,K44*%
X165143750Y-120587500D03*
D31*
X165643750Y-124387500D03*
D33*
X170643750Y-120587500D03*
D32*
X175643750Y-115437500D03*
D31*
X170643750Y-126487500D03*
D34*
X176143750Y-120587500D03*
D35*
X174143750Y-126587500D03*
X162143750Y-124387500D03*
%TD*%
D32*
%TO.C,K34*%
X175643750Y-96387500D03*
D31*
X165643750Y-105337500D03*
D33*
X170643750Y-101537500D03*
D34*
X176143750Y-101537500D03*
X165143750Y-101537500D03*
D31*
X170643750Y-107437500D03*
D35*
X174143750Y-107537500D03*
X162143750Y-105337500D03*
%TD*%
D31*
%TO.C,K32*%
X132487501Y-107436313D03*
D34*
X126987501Y-101536313D03*
X137987501Y-101536313D03*
D32*
X137487501Y-96386313D03*
D33*
X132487501Y-101536313D03*
D31*
X127487501Y-105336313D03*
D35*
X135987501Y-107536313D03*
X123987501Y-105336313D03*
%TD*%
D31*
%TO.C,K43*%
X146537500Y-124387500D03*
D34*
X146037500Y-120587500D03*
D31*
X151537500Y-126487500D03*
D32*
X156537500Y-115437500D03*
D34*
X157037500Y-120587500D03*
D33*
X151537500Y-120587500D03*
D35*
X155037500Y-126587500D03*
X143037500Y-124387500D03*
%TD*%
D34*
%TO.C,K15*%
X195137500Y-63437500D03*
D32*
X194637500Y-58287500D03*
D34*
X184137500Y-63437500D03*
D31*
X184637500Y-67237500D03*
X189637500Y-69337500D03*
D33*
X189637500Y-63437500D03*
D35*
X193137500Y-69437500D03*
X181137500Y-67237500D03*
%TD*%
D31*
%TO.C,K14*%
X170643750Y-69337500D03*
D34*
X165143750Y-63437500D03*
D32*
X175643750Y-58287500D03*
D31*
X165643750Y-67237500D03*
D34*
X176143750Y-63437500D03*
D33*
X170643750Y-63437500D03*
D35*
X174143750Y-69437500D03*
X162143750Y-67237500D03*
%TD*%
D34*
%TO.C,K0*%
X88889940Y-44387500D03*
D31*
X89389940Y-48187500D03*
D32*
X99389940Y-39237500D03*
D33*
X94389940Y-44387500D03*
D34*
X99889940Y-44387500D03*
D31*
X94389940Y-50287500D03*
D35*
X97889940Y-50387500D03*
X85889940Y-48187500D03*
%TD*%
D33*
%TO.C,K2*%
X132490998Y-44387477D03*
D32*
X137490998Y-39237477D03*
D34*
X137990998Y-44387477D03*
D31*
X132490998Y-50287477D03*
D34*
X126990998Y-44387477D03*
D31*
X127490998Y-48187477D03*
D35*
X135990998Y-50387477D03*
X123990998Y-48187477D03*
%TD*%
D34*
%TO.C,K26*%
X203187500Y-82487500D03*
D31*
X208687500Y-88387500D03*
D33*
X208687500Y-82487500D03*
D32*
X213687500Y-77337500D03*
D31*
X203687500Y-86287500D03*
D34*
X214187500Y-82487500D03*
D35*
X212187500Y-88487500D03*
X200187500Y-86287500D03*
%TD*%
D31*
%TO.C,K13*%
X146537500Y-67237500D03*
D32*
X156537500Y-58287500D03*
D33*
X151537500Y-63437500D03*
D34*
X157037500Y-63437500D03*
D31*
X151537500Y-69337500D03*
D34*
X146037500Y-63437500D03*
D35*
X155037500Y-69437500D03*
X143037500Y-67237500D03*
%TD*%
D33*
%TO.C,K1*%
X113441034Y-44387052D03*
D32*
X118441034Y-39237052D03*
D31*
X108441034Y-48187052D03*
D34*
X118941034Y-44387052D03*
X107941034Y-44387052D03*
D31*
X113441034Y-50287052D03*
D35*
X116941034Y-50387052D03*
X104941034Y-48187052D03*
%TD*%
D34*
%TO.C,K4*%
X176143750Y-44387500D03*
D31*
X165643750Y-48187500D03*
D34*
X165143750Y-44387500D03*
D32*
X175643750Y-39237500D03*
D31*
X170643750Y-50287500D03*
D33*
X170643750Y-44387500D03*
D35*
X174143750Y-50387500D03*
X162143750Y-48187500D03*
%TD*%
D34*
%TO.C,K6*%
X214187500Y-44387500D03*
D33*
X208687500Y-44387500D03*
D31*
X203687500Y-48187500D03*
D32*
X213687500Y-39237500D03*
D31*
X208687500Y-50287500D03*
D34*
X203187500Y-44387500D03*
D35*
X212187500Y-50387500D03*
X200187500Y-48187500D03*
%TD*%
D34*
%TO.C,K21*%
X107938324Y-82486455D03*
D33*
X113438324Y-82486455D03*
D34*
X118938324Y-82486455D03*
D31*
X113438324Y-88386455D03*
X108438324Y-86286455D03*
D32*
X118438324Y-77336455D03*
D35*
X116938324Y-88486455D03*
X104938324Y-86286455D03*
%TD*%
D31*
%TO.C,K24*%
X170643750Y-88387500D03*
D34*
X176143750Y-82487500D03*
X165143750Y-82487500D03*
D31*
X165643750Y-86287500D03*
D33*
X170643750Y-82487500D03*
D32*
X175643750Y-77337500D03*
D35*
X174143750Y-88487500D03*
X162143750Y-86287500D03*
%TD*%
D33*
%TO.C,K16*%
X208687500Y-63437500D03*
D34*
X203187500Y-63437500D03*
X214187500Y-63437500D03*
D32*
X213687500Y-58287500D03*
D31*
X208687500Y-69337500D03*
X203687500Y-67237500D03*
D35*
X212187500Y-69437500D03*
X200187500Y-67237500D03*
%TD*%
D31*
%TO.C,K11*%
X113440053Y-69338204D03*
D32*
X118440053Y-58288204D03*
D31*
X108440053Y-67238204D03*
D34*
X107940053Y-63438204D03*
D33*
X113440053Y-63438204D03*
D34*
X118940053Y-63438204D03*
D35*
X116940053Y-69438204D03*
X104940053Y-67238204D03*
%TD*%
D33*
%TO.C,K30*%
X94387500Y-101537500D03*
D34*
X99887500Y-101537500D03*
D31*
X89387500Y-105337500D03*
X94387500Y-107437500D03*
D32*
X99387500Y-96387500D03*
D34*
X88887500Y-101537500D03*
D35*
X97887500Y-107537500D03*
X85887500Y-105337500D03*
%TD*%
D31*
%TO.C,K42*%
X127488819Y-124388881D03*
X132488819Y-126488881D03*
D32*
X137488819Y-115438881D03*
D33*
X132488819Y-120588881D03*
D34*
X126988819Y-120588881D03*
X137988819Y-120588881D03*
D35*
X135988819Y-126588881D03*
X123988819Y-124388881D03*
%TD*%
D31*
%TO.C,K45*%
X189637500Y-126487500D03*
D33*
X189637500Y-120587500D03*
D32*
X194637500Y-115437500D03*
D34*
X184137500Y-120587500D03*
D31*
X184637500Y-124387500D03*
D34*
X195137500Y-120587500D03*
D35*
X193137500Y-126587500D03*
X181137500Y-124387500D03*
%TD*%
D34*
%TO.C,K33*%
X146037500Y-101537500D03*
X157037500Y-101537500D03*
D32*
X156537500Y-96387500D03*
D31*
X151537500Y-107437500D03*
D33*
X151537500Y-101537500D03*
D31*
X146537500Y-105337500D03*
D35*
X155037500Y-107537500D03*
X143037500Y-105337500D03*
%TD*%
D31*
%TO.C,K3*%
X146537500Y-48187500D03*
D32*
X156537500Y-39237500D03*
D34*
X146037500Y-44387500D03*
D33*
X151537500Y-44387500D03*
D31*
X151537500Y-50287500D03*
D34*
X157037500Y-44387500D03*
D35*
X155037500Y-50387500D03*
X143037500Y-48187500D03*
%TD*%
D31*
%TO.C,K10*%
X89389940Y-67237500D03*
X94389940Y-69337500D03*
D34*
X99889940Y-63437500D03*
D32*
X99389940Y-58287500D03*
D33*
X94389940Y-63437500D03*
D34*
X88889940Y-63437500D03*
D35*
X97889940Y-69437500D03*
X85889940Y-67237500D03*
%TD*%
D32*
%TO.C,K31*%
X118437500Y-96386709D03*
D31*
X113437500Y-107436709D03*
X108437500Y-105336709D03*
D33*
X113437500Y-101536709D03*
D34*
X118937500Y-101536709D03*
X107937500Y-101536709D03*
D35*
X116937500Y-107536709D03*
X104937500Y-105336709D03*
%TD*%
D32*
%TO.C,K25*%
X194637500Y-77337500D03*
D34*
X184137500Y-82487500D03*
D31*
X189637500Y-88387500D03*
X184637500Y-86287500D03*
D33*
X189637500Y-82487500D03*
D34*
X195137500Y-82487500D03*
D35*
X193137500Y-88487500D03*
X181137500Y-86287500D03*
%TD*%
M02*
